<svg width="299" height="189" viewBox="0 0 299 189" fill="none" xmlns="http://www.w3.org/2000/svg">
<g opacity="0.2">
<path opacity="0.8" d="M231.964 93.8175C231.969 110.465 227.377 126.791 218.694 140.996C210.011 155.2 197.574 166.73 182.755 174.317C180.172 175.641 177.519 176.842 174.796 177.918C165.95 181.417 156.604 183.489 147.108 184.055C145.271 184.169 143.419 184.226 141.554 184.224C140.78 184.224 140.005 184.213 139.233 184.194C132.723 184.034 126.249 183.171 119.924 181.619C115.976 180.648 112.099 179.412 108.318 177.917C105.598 176.84 102.945 175.64 100.358 174.316C89.4411 168.731 79.7738 160.983 71.9445 151.545C64.1153 142.106 58.2877 131.174 54.8161 119.413C51.3445 107.651 50.3015 95.3065 51.7506 83.1294C53.1996 70.9523 57.1104 59.1971 63.2451 48.5789C69.3798 37.9606 77.6102 28.7011 87.4357 21.3635C97.2613 14.0259 108.477 8.76355 120.4 5.89645C132.323 3.02935 144.705 2.61743 156.792 4.68574C168.879 6.75406 180.42 11.2594 190.711 17.9277C193.154 19.5112 195.512 21.2073 197.786 23.0162C208.455 31.4748 217.071 42.2379 222.99 54.4993C228.909 66.7606 231.977 80.2023 231.964 93.8175Z" fill="#D5EBFF"/>
<path d="M295.106 78.7462C293.999 61.869 283.739 45.7732 268.662 33.5023C259.338 26.0208 249.002 19.8968 237.961 15.3125C226.156 10.35 213.309 4.78435 199.306 4.18806C195.833 3.9944 192.35 4.26798 188.951 5.00145C176.05 7.9849 202.257 17.0653 205.683 18.402C169.183 8.45213 131.414 -1.64777 92.0896 0.226135C84.5069 0.58731 76.6641 1.46874 70.123 4.54523C63.5818 7.62172 58.6704 13.3915 59.914 18.9792C60.9445 23.5975 65.6738 28.6839 61.6148 32.3957C60.2813 33.4448 58.7531 34.2194 57.1186 34.6748C48.6365 37.5883 39.4041 39.22 31.4002 42.8688C25.8087 45.3583 20.786 48.9662 16.6415 53.4701C12.497 57.974 9.31844 63.2787 7.30149 69.0575C3.77278 79.5366 4.45611 90.4539 6.5011 100.993C10.349 120.828 19.2653 140.395 36.2085 155.519C60.4093 177.124 98.962 187.565 137.157 188.601C183.372 189.856 232.839 177.023 262.106 149.152C266.447 145.018 270.393 140.457 271.811 135.36C272.604 132.754 272.508 129.959 271.537 127.415C270.566 124.87 268.776 122.721 266.449 121.307C265.049 120.44 263.248 119.528 263.331 118.134C263.447 116.248 266.663 115.543 269.119 115.095C285.234 112.154 293.9 98.2447 295.02 85.8807C295.234 83.5084 295.263 81.123 295.106 78.7462Z" fill="#93B9E2"/>
<path opacity="0.7" d="M295.106 78.7462C293.999 61.869 283.739 45.7732 268.662 33.5023C259.338 26.0208 249.002 19.8968 237.961 15.3125C226.156 10.35 213.309 4.78435 199.306 4.18806C195.833 3.9944 192.35 4.26798 188.951 5.00145C176.05 7.9849 202.257 17.0653 205.683 18.402C169.183 8.45213 131.414 -1.64777 92.0896 0.226135C84.5069 0.58731 76.6641 1.46874 70.123 4.54523C63.5818 7.62172 58.6704 13.3915 59.914 18.9792C60.9445 23.5975 65.6738 28.6839 61.6148 32.3957C60.2813 33.4448 58.7531 34.2194 57.1186 34.6748C48.6365 37.5883 39.4041 39.22 31.4002 42.8688C25.8087 45.3583 20.786 48.9662 16.6415 53.4701C12.497 57.974 9.31844 63.2787 7.30149 69.0575C3.77278 79.5366 4.45611 90.4539 6.5011 100.993C10.349 120.828 19.2653 140.395 36.2085 155.519C60.4093 177.124 98.962 187.565 137.157 188.601C183.372 189.856 232.839 177.023 262.106 149.152C266.447 145.018 270.393 140.457 271.811 135.36C272.604 132.754 272.508 129.959 271.537 127.415C270.566 124.87 268.776 122.721 266.449 121.307C265.049 120.44 263.248 119.528 263.331 118.134C263.447 116.248 266.663 115.543 269.119 115.095C285.234 112.154 293.9 98.2447 295.02 85.8807C295.234 83.5084 295.263 81.123 295.106 78.7462Z" fill="white"/>
<path d="M230.687 37.3081V12.8032" stroke="#263238" stroke-miterlimit="10"/>
<path d="M196.599 23.5925V175.282" stroke="#263238" stroke-miterlimit="10"/>
<path d="M196.599 11.2755V19.2814" stroke="#263238" stroke-miterlimit="10"/>
<path d="M230.687 157.188V40.0514" stroke="#263238" stroke-miterlimit="10"/>
<path d="M277.534 122.11V79.8898H250.688V157.182H277.533V125.249" stroke="#263238" stroke-miterlimit="10"/>
<path d="M254.546 99.4223V82.6011H273.456V118.087H254.546V102.28" stroke="#263238" stroke-miterlimit="10"/>
<path d="M257.42 120.281H252.343V121.973H257.42V120.281Z" stroke="#263238" stroke-miterlimit="10"/>
<path d="M263.36 170.597H204.317V175.06H263.36V170.597Z" stroke="#263238" stroke-miterlimit="10"/>
<path d="M271.064 166.141H212.022V170.605H271.064V166.141Z" stroke="#263238" stroke-miterlimit="10"/>
<path d="M278.769 161.686H219.726V166.149H278.769V161.686Z" stroke="#263238" stroke-miterlimit="10"/>
<path d="M286.473 157.231H227.43V161.694H286.473V157.231Z" stroke="#263238" stroke-miterlimit="10"/>
<path d="M291.901 175.085L291.801 157.231H286.474V161.694L278.77 161.686V166.149L271.066 166.141V170.605L263.363 170.597L263.463 175.085H291.901Z" stroke="#263238" stroke-miterlimit="10"/>
<path d="M292.354 135.86H284.168L284.018 135.96L260.735 152.011V175.016C260.736 175.069 260.744 175.122 260.758 175.173H261.927C261.941 175.122 261.949 175.069 261.95 175.016V152.654L273.019 145.023V165.874C273.02 165.975 273.046 166.074 273.095 166.163H274.158C274.207 166.074 274.233 165.975 274.234 165.874V144.284C274.233 144.254 274.23 144.224 274.225 144.194L283.75 137.627V156.954C283.751 157.072 283.785 157.187 283.851 157.285H284.867C284.932 157.187 284.967 157.072 284.967 156.954V137.076H292.354C292.515 137.076 292.669 137.012 292.783 136.899C292.897 136.785 292.961 136.63 292.961 136.469C292.961 136.308 292.897 136.154 292.783 136.04C292.669 135.926 292.515 135.862 292.354 135.862V135.86Z" fill="#263238"/>
<path d="M206.423 175.179C206.438 175.128 206.445 175.075 206.446 175.022V152.654L217.515 145.023V165.874C217.516 165.975 217.542 166.074 217.591 166.163H218.654C218.703 166.074 218.729 165.975 218.73 165.874V144.284C218.729 144.253 218.726 144.223 218.721 144.193L228.246 137.627V156.954C228.246 157.072 228.28 157.187 228.346 157.285H229.362C229.427 157.187 229.462 157.072 229.462 156.954V137.076H236.853C237.014 137.076 237.168 137.012 237.282 136.899C237.396 136.785 237.46 136.63 237.46 136.469C237.46 136.308 237.396 136.154 237.282 136.04C237.168 135.926 237.014 135.862 236.853 135.862H228.666L228.516 135.962L205.231 152.017V175.022C205.232 175.075 205.24 175.128 205.254 175.179H206.423Z" fill="#263238"/>
<path d="M13.018 104.71V147.452H100.651V62.7746" stroke="#263238" stroke-miterlimit="10"/>
<path d="M100.651 56.9007V25.9677H13.018V98.832" stroke="#263238" stroke-miterlimit="10"/>
<path d="M279.893 72.8354H247.967C247.174 72.8354 246.531 73.4782 246.531 74.2711C246.531 75.064 247.174 75.7068 247.967 75.7068H279.893C280.686 75.7068 281.329 75.064 281.329 74.2711C281.329 73.4782 280.686 72.8354 279.893 72.8354Z" stroke="#263238" stroke-miterlimit="10"/>
<path d="M7.09035 147.463H121.862V174.577" stroke="#263238" stroke-miterlimit="10"/>
<path d="M17.167 147.53V174.908" stroke="#263238" stroke-miterlimit="10"/>
<path d="M27.6902 114.332C27.6902 114.332 30.6516 114.19 32.1333 115.674" stroke="#263238" stroke-width="6" stroke-linecap="round" stroke-linejoin="round"/>
<path d="M57.2687 168.183C57.263 167.061 57.4047 165.944 57.6899 164.86V161.083H60.8915C62.8924 161.083 64.5142 164.262 64.5142 168.187C64.5142 172.111 62.8924 175.29 60.8915 175.29H57.6899V171.513C57.4041 170.426 57.2624 169.306 57.2687 168.183Z" fill="#263238" stroke="#263238" stroke-miterlimit="10"/>
<path d="M57.69 175.282C59.6908 175.282 61.3128 172.103 61.3128 168.183C61.3128 164.262 59.6908 161.083 57.69 161.083C55.6892 161.083 54.0672 164.262 54.0672 168.183C54.0672 172.103 55.6892 175.282 57.69 175.282Z" fill="#263238" stroke="#263238" stroke-miterlimit="10"/>
<path d="M57.3956 173.112C58.6416 173.112 59.6517 170.922 59.6517 168.222C59.6517 165.521 58.6416 163.331 57.3956 163.331C56.1496 163.331 55.1395 165.521 55.1395 168.222C55.1395 170.922 56.1496 173.112 57.3956 173.112Z" fill="#828282" stroke="#263238" stroke-miterlimit="10"/>
<path d="M32.1303 115.674C32.4025 115.948 32.6158 116.275 32.7573 116.635C32.8987 116.994 32.9652 117.379 32.9527 117.765V168.867C32.9527 169.506 33.2068 170.12 33.6589 170.572C34.1111 171.024 34.7244 171.278 35.3639 171.278H67.7506" stroke="#263238" stroke-width="4" stroke-linecap="round" stroke-linejoin="round"/>
<path d="M52.7223 114.332C52.7223 114.332 55.6838 114.19 57.1655 115.674" stroke="#263238" stroke-width="6" stroke-linecap="round" stroke-linejoin="round"/>
<path d="M57.1654 115.674C57.4376 115.948 57.651 116.275 57.7924 116.635C57.9339 116.994 58.0003 117.379 57.9878 117.765V171.071" stroke="#263238" stroke-width="4" stroke-linecap="round" stroke-linejoin="round"/>
<path d="M33.2422 127.884H58.2013" stroke="#263238" stroke-width="4" stroke-linecap="round" stroke-linejoin="round"/>
<path d="M46.0844 127.78V170.967" stroke="#263238" stroke-width="4" stroke-linecap="round" stroke-linejoin="round"/>
<path d="M29.3214 164.852L33.0101 157.621" stroke="#263238" stroke-width="4" stroke-linecap="round" stroke-linejoin="round"/>
<path d="M32.9371 168.172H29.4694" stroke="#263238" stroke-width="4" stroke-linecap="round" stroke-linejoin="round"/>
<path d="M23.4022 168.183C23.3965 167.061 23.5381 165.944 23.8234 164.86V161.083H27.0249C29.0259 161.083 30.6467 164.262 30.6467 168.187C30.6467 172.111 29.0249 175.29 27.0249 175.29H23.8234V171.513C23.5375 170.426 23.3959 169.306 23.4022 168.183Z" fill="#263238" stroke="#263238" stroke-miterlimit="10"/>
<path d="M23.8235 175.282C25.8243 175.282 27.4462 172.103 27.4462 168.183C27.4462 164.262 25.8243 161.083 23.8235 161.083C21.8227 161.083 20.2007 164.262 20.2007 168.183C20.2007 172.103 21.8227 175.282 23.8235 175.282Z" fill="#263238" stroke="#263238" stroke-miterlimit="10"/>
<path d="M21.273 168.222C21.273 170.923 22.2835 173.112 23.5291 173.112C24.7747 173.112 25.7852 170.922 25.7852 168.222C25.7852 165.521 24.7747 163.331 23.5291 163.331C22.2835 163.331 21.273 165.521 21.273 168.222Z" fill="white" stroke="#263238" stroke-miterlimit="10"/>
<path d="M186.373 163.378L210.961 164.262L244.786 163.935L257.772 163.296C257.772 163.296 260.431 156.164 259.401 152.336C258.37 148.508 257.044 146.888 254.098 146.888C251.152 146.888 246.117 149.289 245.911 151.032C245.625 152.381 245.054 153.654 244.238 154.765H209.194C209.194 154.765 207.869 147.182 203.157 144.532C198.446 141.882 192.262 142.031 189.022 144.532C185.783 147.033 186.373 163.378 186.373 163.378Z" fill="#263238" stroke="#263238" stroke-miterlimit="10"/>
<path d="M252.1 163.156C252.11 161.242 251.868 159.334 251.381 157.482V151.031H245.916C242.499 151.031 239.729 156.46 239.729 163.156C239.729 169.852 242.499 175.281 245.916 175.281H251.384V168.83C251.87 166.978 252.111 165.071 252.1 163.156Z" fill="#263238" stroke="#263238" stroke-miterlimit="10"/>
<path d="M251.381 175.283C254.798 175.283 257.568 169.854 257.568 163.157C257.568 156.46 254.798 151.031 251.381 151.031C247.964 151.031 245.194 156.46 245.194 163.157C245.194 169.854 247.964 175.283 251.381 175.283Z" fill="#616161" stroke="#263238" stroke-miterlimit="10"/>
<path d="M251.883 171.577C254.011 171.577 255.736 167.837 255.736 163.224C255.736 158.611 254.011 154.871 251.883 154.871C249.755 154.871 248.03 158.611 248.03 163.224C248.03 167.837 249.755 171.577 251.883 171.577Z" fill="#E0E0E0" stroke="#263238" stroke-miterlimit="10"/>
<path d="M203.139 151.031H197.671C194.254 151.031 191.484 156.46 191.484 163.156C191.484 169.852 194.254 175.281 197.671 175.281H203.139C206.555 175.281 209.326 169.852 209.326 163.156C209.326 156.46 206.555 151.031 203.139 151.031Z" fill="#263238" stroke="#263238" stroke-miterlimit="10"/>
<path d="M141.197 151.031H135.249C131.532 151.031 128.518 156.46 128.518 163.156C128.518 169.852 131.532 175.281 135.249 175.281H141.197C144.913 175.281 147.927 169.852 147.927 163.156C147.927 156.46 144.913 151.031 141.197 151.031Z" fill="#263238" stroke="#263238" stroke-miterlimit="10"/>
<path d="M198.974 161.188C198.986 158.963 198.705 156.745 198.139 154.593V147.094H191.784C187.812 147.094 184.593 153.404 184.593 161.187C184.593 168.97 187.813 175.28 191.784 175.28H198.139V167.782C198.705 165.63 198.986 163.413 198.974 161.188Z" fill="#263238" stroke="#263238" stroke-miterlimit="10"/>
<path d="M198.138 175.281C202.109 175.281 205.329 168.971 205.329 161.188C205.329 153.405 202.109 147.095 198.138 147.095C194.167 147.095 190.948 153.405 190.948 161.188C190.948 168.971 194.167 175.281 198.138 175.281Z" fill="#616161" stroke="#263238" stroke-miterlimit="10"/>
<path d="M198.722 170.976C201.196 170.976 203.2 166.629 203.2 161.267C203.2 155.905 201.196 151.559 198.722 151.559C196.249 151.559 194.244 155.905 194.244 161.267C194.244 166.629 196.249 170.976 198.722 170.976Z" fill="#E0E0E0" stroke="#263238" stroke-miterlimit="10"/>
<path d="M258.598 142.536C257.451 138.954 233.241 88.9572 231.378 86.9513C229.516 84.9453 194.845 74.2011 194.845 74.2011C194.845 74.2011 178.943 69.4738 173.786 69.1876C168.628 68.9015 124.362 72.6253 123.502 72.9124C122.643 73.1996 116.912 90.9632 115.336 98.699C113.76 106.435 113.044 122.193 113.044 137.666C113.044 153.138 115.193 164.455 117.628 164.455C120.063 164.455 183.67 166.318 184.673 166.318C185.675 166.318 187.108 165.171 189.687 161.734C192.267 158.296 194.415 147.981 197.28 146.691C200.145 145.402 203.297 146.118 204.873 149.7C206.448 153.281 206.018 164.455 206.018 164.455C206.018 164.455 229.329 164.325 244.782 163.935C245.355 162.387 246.906 158.249 248.839 153.539C251.293 147.556 255.435 148.169 257.276 149.704C258.936 151.086 258.725 158.575 257.768 163.297C257.911 163.289 258.048 163.244 258.168 163.167C258.885 162.167 259.601 159.442 260.169 155.864C260.738 152.285 259.743 146.117 258.598 142.536Z" fill="white" stroke="#263238" stroke-miterlimit="10"/>
<path d="M206.021 164.454C206.021 164.454 229.332 164.324 244.785 163.934C245.358 162.386 246.909 158.248 248.842 153.538C251.296 147.555 255.438 148.168 257.279 149.703C258.939 151.085 258.728 158.574 257.771 163.296C257.913 163.288 258.051 163.243 258.171 163.166C258.888 162.166 259.604 159.441 260.172 155.863C260.74 152.284 259.742 146.121 258.596 142.539C257.451 138.957 233.24 88.9602 231.377 86.9552C229.514 84.9503 194.847 74.2051 194.847 74.2051C194.847 74.2051 178.945 69.4778 173.787 69.1916H173.687L173.882 70.0991C173.882 70.0991 178.167 78.3691 177.345 166.125C181.679 166.248 184.467 166.325 184.671 166.325C185.671 166.325 187.106 165.178 189.685 161.741C192.264 158.303 194.412 147.988 197.278 146.698C200.143 145.409 203.295 146.125 204.87 149.707C206.446 153.288 206.021 164.454 206.021 164.454Z" fill="#E0E0E0" stroke="#263238" stroke-miterlimit="10"/>
<path d="M258.104 151.364C258.813 154.193 258.521 159.593 257.771 163.294C257.913 163.286 258.051 163.241 258.171 163.164C258.888 162.164 259.604 159.439 260.172 155.861C260.46 152.875 260.289 149.862 259.665 146.928C259.699 148.547 259.145 150.124 258.104 151.364Z" fill="#263238" stroke="#263238" stroke-miterlimit="10"/>
<path d="M196.878 146.94H113.324C113.979 157.453 115.716 164.454 117.631 164.454C120.066 164.454 183.673 166.317 184.676 166.317C185.678 166.317 187.111 165.17 189.69 161.732C192.146 158.458 194.212 148.954 196.878 146.94Z" fill="#263238" stroke="#263238" stroke-miterlimit="10"/>
<path d="M142.362 71.9289V72.129C142.362 72.2923 142.396 72.4538 142.461 72.6033C142.527 72.7528 142.623 72.887 142.743 72.9975C142.863 73.108 143.005 73.1924 143.16 73.2452C143.314 73.2981 143.478 73.3183 143.641 73.3046L151.806 72.6242C152.101 72.5999 152.376 72.4655 152.576 72.2477C152.777 72.0299 152.888 71.7447 152.888 71.4487V71.2486C152.888 71.0853 152.854 70.9237 152.789 70.7742C152.723 70.6247 152.627 70.4903 152.507 70.3798C152.387 70.2692 152.245 70.1847 152.091 70.1318C151.936 70.0788 151.772 70.0584 151.61 70.072L143.445 70.7523C143.149 70.7769 142.874 70.9115 142.674 71.1295C142.473 71.3474 142.362 71.6328 142.362 71.9289Z" stroke="#263238" stroke-miterlimit="10"/>
<path d="M173.882 70.091C173.882 70.091 175.76 109.31 175.76 114.613C175.76 119.915 176.312 159.353 176.312 159.353L197.302 159.574C198.416 151.187 199.006 142.737 199.069 134.276C199.069 121.351 197.08 90.4189 195.976 81.3595C194.871 72.3001 193.435 65.4518 193.435 65.4518L173.882 70.091Z" fill="white" stroke="#263238" stroke-miterlimit="10"/>
<path d="M177.863 122.897L193.33 122.233C193.758 128.965 193.758 135.717 193.33 142.449C192.556 150.845 192.229 152.944 191.783 153.386C191.337 153.829 177.863 153.386 177.863 153.386C177.294 152.747 176.98 151.922 176.98 151.066C176.98 149.631 176.649 124.885 176.649 124.111C176.649 123.338 177.091 123.228 177.863 122.897Z" fill="#263238" stroke="#263238" stroke-miterlimit="10"/>
<path d="M175.875 76.9393L176.318 81.9107L191.673 79.5906C191.495 78.3968 191.123 77.2401 190.572 76.166C190.105 75.0269 189.294 74.0618 188.252 73.4046L176.984 75.9449" stroke="#263238" stroke-miterlimit="10"/>
<path d="M190.237 67.5499C190.237 67.5499 192.777 74.2891 194.766 92.517C196.755 110.745 197.528 147.864 195.981 155.375C195.949 155.794 195.823 156.201 195.613 156.564C195.403 156.928 195.113 157.24 194.766 157.476C193.551 158.36 177.758 158.029 177.758 158.029" stroke="#263238" stroke-miterlimit="10"/>
<path d="M190.9 84.1209C190.9 84.1209 191.563 82.1319 193.001 96.6039C194.44 111.076 194.548 116.489 193.885 116.931C193.221 117.373 179.078 118.146 179.078 118.146" stroke="#263238" stroke-miterlimit="10"/>
<path d="M186.591 84.0097C186.591 84.0097 177.754 85.0042 177.087 85.7766C176.419 86.549 177.86 92.847 178.187 103.121C178.514 113.395 178.518 115.827 178.518 115.827" stroke="#263238" stroke-miterlimit="10"/>
<path d="M190.678 86.9932L179.631 88.7611C179.317 88.8616 179.052 89.0762 178.888 89.3626C178.725 89.649 178.674 89.9863 178.747 90.3079C178.968 91.5224 180.404 107.21 180.073 115.275" stroke="#263238" stroke-miterlimit="10"/>
<path d="M108.495 102.362V141.478" stroke="#263238" stroke-miterlimit="10"/>
<path d="M110.198 97.8985L110.282 92.8851C110.282 92.8851 106.772 74.9194 106.521 74.5852C106.27 74.2511 77.6067 74.001 77.2735 74.167C76.9404 74.3331 77.1905 76.089 77.1905 76.089C77.1905 76.089 77.5247 81.8548 77.7758 100.322C78.0269 118.789 77.6918 156.56 77.6918 156.56L109.696 156.811C109.696 156.811 109.362 154.304 109.863 146.032C110.365 137.76 110.448 99.8215 110.448 99.4873V98.4008L110.198 97.8985Z" fill="white" stroke="#263238" stroke-miterlimit="10"/>
<path d="M78.7902 75.4487C78.7902 75.4487 103.274 75.8159 103.936 75.9629C104.599 76.11 105.037 77.4337 105.26 78.164C105.483 78.8944 108.569 92.3549 108.79 94.3399" stroke="#263238" stroke-miterlimit="10"/>
<path d="M108.495 146.698C108.495 146.698 108.642 151.551 108.127 152.58C107.971 152.975 107.711 153.32 107.374 153.579C107.038 153.838 106.637 154.001 106.216 154.051C105.406 154.198 78.4961 153.757 78.4961 153.757" stroke="#263238" stroke-miterlimit="10"/>
<path d="M80.7011 124.122L80.3339 150.959L106.583 151.326C106.583 151.326 107.171 124.714 107.097 124.342C107.023 123.971 107.023 123.607 105.553 123.46C104.083 123.313 82.1718 123.093 81.8046 123.093C81.5416 123.141 81.2979 123.264 81.1023 123.446C80.9068 123.629 80.7675 123.863 80.7011 124.122Z" fill="#263238" stroke="#263238" stroke-miterlimit="10"/>
<path d="M82.9075 80.8192C81.921 82.1477 81.0361 83.5487 80.2602 85.0103C80.0391 85.8186 80.2602 86.4109 80.8485 86.48C81.4368 86.549 103.642 86.48 103.642 86.48C103.642 86.48 104.451 86.3329 104.377 85.0793" stroke="#263238" stroke-miterlimit="10"/>
<path d="M84.3778 80.5992H102.612C102.612 80.5992 103.2 80.5991 103.567 82.1429" stroke="#263238" stroke-miterlimit="10"/>
<path d="M85.9958 91.5534C85.5146 91.7124 85.0875 92.0027 84.7627 92.3917C84.4379 92.7807 84.2284 93.2527 84.1579 93.7545C84.0848 95.3723 84.5251 117.283 84.5251 117.283" stroke="#263238" stroke-miterlimit="10"/>
<path d="M88.7901 91.4804C88.7901 91.4804 102.613 91.8476 103.497 91.9947C103.942 92.1207 104.349 92.3543 104.683 92.6748C105.016 92.9953 105.266 93.3929 105.409 93.8326C105.63 94.5679 105.63 116.184 105.63 116.184" stroke="#263238" stroke-miterlimit="10"/>
<path d="M86.8781 89.8626C86.8781 89.8626 83.9366 89.7886 82.614 90.598C81.2913 91.4074 81.5135 93.5394 81.5845 94.3478C81.6555 95.1562 81.8786 116.92 81.8786 116.92C81.8786 116.92 81.8786 117.802 83.0552 117.875C84.2318 117.948 103.865 117.949 103.865 117.949C104.11 117.941 104.35 117.877 104.566 117.763C104.783 117.648 104.971 117.486 105.115 117.288" stroke="#263238" stroke-miterlimit="10"/>
<path d="M89.7457 89.5685C89.7457 89.5685 103.352 89.9356 104.598 90.5239C105.843 91.1122 105.627 92.2147 105.698 92.725" stroke="#263238" stroke-miterlimit="10"/>
<path d="M115.879 98.1497H109.445V100.406H115.879V98.1497Z" stroke="#263238" stroke-miterlimit="10"/>
<path d="M113.54 97.4814H111.367V101.241H113.54V97.4814Z" stroke="#263238" stroke-miterlimit="10"/>
<path d="M115.294 143.022H108.86V145.278H115.294V143.022Z" stroke="#263238" stroke-miterlimit="10"/>
<path d="M112.955 142.354H110.782V146.114H112.955V142.354Z" stroke="#263238" stroke-miterlimit="10"/>
<path d="M173.853 73.2395L125.109 76.9413C125.109 76.9413 120.914 98.1666 120.914 98.5368C120.914 98.907 119.556 132.966 120.049 141.234C120.543 149.502 120.667 156.414 120.667 156.414L175.951 158.015L173.853 73.2395Z" fill="white" stroke="#263238" stroke-miterlimit="10"/>
<path d="M173.854 73.2395L125.11 76.9413C125.11 76.9413 120.915 98.1666 120.915 98.5368C120.915 98.907 119.557 132.966 120.05 141.234C120.544 149.502 120.668 156.414 120.668 156.414L175.952 158.015L173.854 73.2395Z" fill="#263238" stroke="#263238" stroke-miterlimit="10"/>
<path d="M157.918 157.495V131.321H147.143V157.182L157.918 157.495Z" fill="#93B3E2" stroke="#263238" stroke-miterlimit="10"/>
<path d="M125.104 156.545L147.141 157.184V131.321H125.104V156.545Z" fill="#93B3E2" stroke="#263238" stroke-miterlimit="10"/>
<path d="M133.818 143.652H138.43V131.32H133.818V143.652Z" fill="white" stroke="#263238" stroke-miterlimit="10"/>
<path d="M169.685 157.837H175.947L175.857 154.183L175.292 131.321H148.826V157.233L169.685 157.837Z" fill="#93B3E2" stroke="#263238" stroke-miterlimit="10"/>
<path d="M169.685 157.837H170.865V131.324H148.826V157.236L169.685 157.837Z" fill="#93B3E2" stroke="#263238" stroke-miterlimit="10"/>
<path d="M158.716 138.206H151.321V143.189H158.716V138.206Z" fill="white" stroke="#263238" stroke-miterlimit="10"/>
<path d="M157.539 135.294H162.151V131.321H157.539V135.294Z" fill="white" stroke="#263238" stroke-miterlimit="10"/>
<path d="M208.344 152.923C208.344 152.923 208.497 157.678 208.651 158.906C208.805 160.134 209.879 160.747 211.259 160.44C212.638 160.133 242.093 160.9 242.093 160.9C242.526 160.772 242.908 160.51 243.183 160.152C243.459 159.794 243.614 159.358 243.626 158.906C243.779 157.218 244.241 154.764 244.241 154.764L208.344 152.923Z" fill="#263238" stroke="#263238" stroke-miterlimit="10"/>
<path d="M235.782 107.639C235.782 107.639 238.008 125.685 239.042 127.911C240.075 130.137 240.871 131.013 242.062 131.489C243.254 131.965 250.012 133.953 250.807 134.032C251.601 134.111 251.999 133.714 251.76 132.76C251.521 131.807 242.301 110.82 241.505 109.549C240.71 108.279 238.087 107.248 237.133 106.926C236.178 106.604 235.782 107.639 235.782 107.639Z" fill="#B2B2B2" stroke="#263238" stroke-miterlimit="10"/>
<path d="M240.408 108.634L244.578 131.798" stroke="#263238" stroke-miterlimit="10"/>
<path d="M250.25 124.094C250.25 124.094 250.488 132.598 250.65 133.316C250.737 133.651 250.953 133.939 251.25 134.118C251.548 134.296 251.903 134.351 252.24 134.269C253.036 134.19 255.659 133.869 255.977 133.077C256.295 132.284 255.818 126.24 254.865 124.81C254.42 124.249 253.867 123.784 253.239 123.442C252.611 123.101 251.92 122.89 251.208 122.822C250.409 122.743 250.25 124.094 250.25 124.094Z" fill="#B2B2B2" stroke="#263238" stroke-miterlimit="10"/>
<path d="M250.647 133.316C250.734 133.651 250.95 133.94 251.247 134.118C251.544 134.296 251.9 134.351 252.237 134.269C253.032 134.19 255.656 133.869 255.974 133.077C256.292 132.284 255.815 126.24 254.861 124.81C254.469 124.248 253.944 123.794 253.333 123.486L253.51 123.935L254.066 131.726H250.526C250.568 132.545 250.61 133.153 250.647 133.316Z" fill="#263238" stroke="#263238" stroke-miterlimit="10"/>
<path d="M200.649 134.847L253.757 140.975" stroke="#263238" stroke-miterlimit="10"/>
<path d="M201.159 136.763L247.756 141.742L251.458 141.487" stroke="#263238" stroke-miterlimit="10"/>
<path d="M247.374 145.06C247.374 145.06 245.586 152.082 244.821 153.742" stroke="#263238" stroke-miterlimit="10"/>
<path d="M201.415 140.21C201.415 140.21 205.244 142.253 207.287 149.657" stroke="#263238" stroke-miterlimit="10"/>
<path d="M199.5 98.0807L233.458 105.868" stroke="#263238" stroke-miterlimit="10"/>
<path d="M200.011 95.9096C200.011 95.9096 235.374 103.952 238.311 105.484" stroke="#263238" stroke-miterlimit="10"/>
<path d="M239.23 138.028C239.021 137.961 238.836 137.832 238.701 137.658C238.566 137.483 238.487 137.272 238.475 137.053V131.767C238.47 131.675 238.488 131.583 238.528 131.499C238.569 131.416 238.629 131.344 238.705 131.291C238.78 131.238 238.868 131.204 238.96 131.194C239.052 131.184 239.145 131.197 239.23 131.233C239.44 131.3 239.625 131.429 239.759 131.603C239.894 131.777 239.973 131.988 239.986 132.208V137.494C239.99 137.586 239.972 137.678 239.931 137.761C239.891 137.844 239.831 137.916 239.755 137.969C239.68 138.022 239.592 138.056 239.5 138.066C239.408 138.076 239.316 138.063 239.23 138.028Z" fill="#263238" stroke="#263238" stroke-miterlimit="10"/>
<path d="M233.341 137.424C233.131 137.357 232.947 137.227 232.812 137.053C232.677 136.879 232.598 136.668 232.586 136.448V131.163C232.581 131.07 232.599 130.978 232.639 130.895C232.68 130.812 232.74 130.74 232.816 130.687C232.891 130.633 232.979 130.6 233.071 130.59C233.163 130.58 233.256 130.593 233.341 130.628C233.551 130.696 233.735 130.825 233.87 130.999C234.004 131.173 234.083 131.384 234.096 131.604V136.889C234.101 136.982 234.082 137.074 234.042 137.157C234.002 137.24 233.941 137.311 233.866 137.365C233.79 137.418 233.703 137.452 233.611 137.462C233.519 137.472 233.426 137.459 233.341 137.424Z" fill="#263238" stroke="#263238" stroke-miterlimit="10"/>
<path d="M130.466 131.501H158.932V110.847H130.466V131.501Z" fill="#93B3E2" stroke="#263238" stroke-miterlimit="10"/>
<path d="M130.466 131.501H147.633V110.847H130.466V131.501Z" fill="#93B3E2" stroke="#263238" stroke-miterlimit="10"/>
<path d="M137.252 120.452H140.845V110.847H137.252V120.452Z" fill="white" stroke="#263238" stroke-miterlimit="10"/>
<path d="M174.274 90.2778H154.708V110.932H174.786L174.274 90.2778Z" fill="#93B3E2" stroke="#263238" stroke-miterlimit="10"/>
<path d="M154.708 110.932H171.874V90.2778H154.708V110.932Z" fill="#93B3E2" stroke="#263238" stroke-miterlimit="10"/>
<path d="M170.61 101.878H163.216V106.862H170.61V101.878Z" fill="white" stroke="#263238" stroke-miterlimit="10"/>
<path d="M161.494 99.8834H165.087V90.2777H161.494V99.8834Z" fill="white" stroke="#263238" stroke-miterlimit="10"/>
<path d="M174.784 110.847H152.321V131.501H175.291L174.784 110.847Z" fill="#93B3E2" stroke="#263238" stroke-miterlimit="10"/>
<path d="M152.321 131.501H169.487V110.847H152.321V131.501Z" fill="#93B3E2" stroke="#263238" stroke-miterlimit="10"/>
<path d="M159.107 120.452H162.7V110.847H159.107V120.452Z" fill="white" stroke="#263238" stroke-miterlimit="10"/>
<path d="M126.625 108.136H153.009V88.9931H126.625V108.136Z" fill="#93B3E2" stroke="#263238" stroke-miterlimit="10"/>
<path d="M126.625 108.136H142.535V88.9931H126.625V108.136Z" fill="#93B3E2" stroke="#263238" stroke-miterlimit="10"/>
<path d="M132.916 97.8954H136.245V88.9931H132.916V97.8954Z" fill="white" stroke="#263238" stroke-miterlimit="10"/>
<path d="M110.709 88.7411C110.569 89.3563 110.62 89.9995 110.855 90.585C111.239 91.7825 111.709 92.9504 112.262 94.0797C112.502 94.5079 112.603 94.9994 112.553 95.4873L117.989 98.0106C117.997 97.2895 118.095 96.5723 118.28 95.8755C118.474 95.7755 119.981 95.7755 120.318 95.2442C120.655 94.713 120.269 92.0427 120.269 92.0427C120.431 91.8809 120.548 91.6804 120.609 91.4604C120.658 91.1693 119.881 90.4899 119.978 89.9597C120.204 89.3456 120.187 88.6683 119.929 88.0667C119.256 86.6149 118.071 85.4622 116.601 84.8292C115.835 84.5834 115.019 84.5388 114.23 84.6994C113.442 84.8601 112.708 85.2207 112.099 85.7466C111.676 86.1245 111.334 86.5851 111.094 87.1001C110.855 87.615 110.724 88.1735 110.709 88.7411Z" fill="white" stroke="#263238" stroke-miterlimit="10"/>
<path d="M118.769 89.3003C118.993 88.9287 119.127 88.5095 119.159 88.0768C119.159 87.6596 118.602 87.6045 117.685 87.9657C116.951 88.2548 112.527 89.8096 110.851 90.575V90.585C111.231 91.7531 111.687 92.8957 112.213 94.0056C112.313 94.1405 112.431 94.2601 112.565 94.3608C113.011 94.6109 114.233 94.1107 114.678 93.4434C115.022 92.5722 115.215 91.6489 115.249 90.713C115.259 90.594 115.263 90.5239 115.263 90.5239C115.43 90.0787 116.097 90.0517 116.569 90.3018C116.751 90.4119 116.953 90.4835 117.164 90.5122C117.374 90.541 117.588 90.5262 117.793 90.4689C117.914 90.4136 118.016 90.323 118.086 90.2091C118.155 90.0951 118.189 89.9629 118.182 89.8296C118.185 89.6345 118.635 89.4944 118.769 89.3003Z" fill="#263238" stroke="#263238" stroke-miterlimit="10"/>
<path d="M117.018 90.747C117.018 90.747 116.35 89.7735 115.766 90.5799C115.182 91.3863 116.155 92.4978 116.545 92.6929C116.934 92.888 117.101 92.6649 117.212 92.3598" fill="white"/>
<path d="M117.018 90.747C117.018 90.747 116.35 89.7735 115.766 90.5799C115.182 91.3863 116.155 92.4978 116.545 92.6929C116.934 92.888 117.101 92.6649 117.212 92.3598" stroke="#263238" stroke-miterlimit="10"/>
<path d="M116.601 84.8242C115.835 84.5784 115.019 84.5337 114.23 84.6944C113.442 84.8551 112.708 85.2157 112.099 85.7416C111.675 86.1205 111.333 86.5823 111.094 87.0985C110.855 87.6148 110.725 88.1744 110.711 88.7431C110.571 89.3582 110.622 90.0015 110.857 90.587C110.966 90.8871 111.095 91.2513 111.232 91.6295L111.265 91.6375C112.441 91.8253 113.647 91.6406 114.712 91.1092C116.52 90.2198 119.439 88.608 119.715 88.0787C119.751 88.0193 119.804 87.9722 119.867 87.9437C119.193 86.5417 118.033 85.4329 116.601 84.8242Z" fill="#93B3E2" stroke="#263238" stroke-miterlimit="10"/>
<path d="M118.603 89.0502C119.739 89.0862 120.871 88.907 121.94 88.522C123.108 87.9377 122.914 86.8532 122.69 86.7701C122.467 86.6871 119.382 87.0763 119.382 87.0763C119.444 87.445 119.405 87.8238 119.268 88.1717C119.13 88.5196 118.901 88.8234 118.603 89.0502Z" fill="#93B3E2" stroke="#263238" stroke-miterlimit="10"/>
<path d="M119.704 90.3429C119.704 90.596 119.626 90.8011 119.529 90.8011C119.432 90.8011 119.354 90.596 119.354 90.3429C119.354 90.0898 119.433 89.8847 119.529 89.8847C119.625 89.8847 119.704 90.0898 119.704 90.3429Z" fill="#263238"/>
<path d="M118.877 99.0641C118.402 98.2588 117.807 97.531 117.112 96.906C115.803 96.0486 114.335 95.4618 112.796 95.1802C111.854 95.1022 112.128 95.6114 112.011 96.1607C111.894 96.71 111.776 96.9061 112.089 96.9851C113.376 97.259 114.626 97.6803 115.816 98.2407C117.738 99.1411 118.718 99.6924 118.918 99.5743C119.118 99.4563 118.877 99.0641 118.877 99.0641Z" fill="#263238" stroke="#263238" stroke-miterlimit="10"/>
<path d="M115.405 169.791C115.981 170.787 116.701 171.692 117.542 172.477C118.309 172.915 119.789 173.408 119.898 174.23C120.007 175.053 119.021 174.998 118.527 174.998C117.102 175.07 115.673 175.033 114.253 174.888C113.705 174.669 112.39 173.687 110.911 172.861C109.431 172.034 108.116 171.929 108.116 170.56C108.116 169.19 109.377 168.916 109.596 168.697C109.815 168.478 115.405 169.791 115.405 169.791Z" fill="white" stroke="#263238" stroke-miterlimit="10"/>
<path d="M110.255 131.546C110.255 131.546 111.624 144.477 111.679 145.135C111.734 145.794 110.802 148.149 110.419 150.231C110.036 152.313 109.542 158.067 109.542 158.067L109.706 169.409C110.952 169.718 112.214 169.956 113.487 170.122C113.981 170.066 115.24 169.847 115.405 169.792C115.57 169.737 116.506 169.409 116.506 169.409C116.506 169.409 116.287 165.628 116.287 164.423C116.287 163.217 117.053 155.491 117.218 154.724C117.383 153.957 119.3 142.669 119.574 136.696C119.732 133.029 119.493 129.354 118.862 125.738L109.437 126.231L110.255 131.546Z" fill="#93B3E2" stroke="#263238" stroke-miterlimit="10"/>
<path d="M112.61 170.009C112.926 170.818 113.33 171.59 113.815 172.311C114.199 172.64 116.61 173.571 116.717 174.011C116.824 174.452 116.388 174.834 115.785 174.998C115.183 175.162 110.854 175.162 109.976 174.724C109.099 174.286 106.361 172.258 105.593 171.929C104.826 171.601 103.565 171.162 103.893 169.792C104.272 168.796 104.964 167.95 105.865 167.381L112.61 170.009Z" fill="white" stroke="#263238" stroke-miterlimit="10"/>
<path d="M108.666 125.243C108.363 126.83 108.457 128.468 108.94 130.01C109.904 131.943 111.08 133.762 112.447 135.435C112.831 135.983 112.338 142.338 112.063 144.804C111.789 147.27 111.351 151.434 111.351 151.599C111.351 151.763 108.995 157.791 108.009 160.585C107.022 163.379 105.379 167.38 105.379 167.38C106.395 168.162 107.499 168.824 108.667 169.352C109.968 169.645 111.285 169.865 112.612 170.009C112.739 169.374 112.923 168.75 113.16 168.147C113.434 167.598 113.105 167.38 113.434 165.9C114.937 161.902 116.732 158.018 118.803 154.282C120.172 152.035 120.995 147.926 121.543 145.898C122.091 143.87 122.091 135.593 122.2 132.746C122.203 130.691 121.926 128.645 121.378 126.664L121.104 125.624L108.666 125.243Z" fill="#93B3E2" stroke="#263238" stroke-miterlimit="10"/>
<path d="M117.702 141.405C117.615 142.205 117.502 143.037 117.368 143.901" stroke="#263238" stroke-miterlimit="10"/>
<path d="M116.994 126.458C116.745 126.959 116.658 127.525 116.745 128.078C116.87 129.079 117.745 129.449 118.24 130.071C118.735 130.693 117.74 130.943 117.493 131.691C117.246 132.438 117.993 133.062 117.993 133.56C118.058 135.461 118.025 137.365 117.893 139.263" stroke="#263238" stroke-miterlimit="10"/>
<path d="M108.282 123.27C108.282 123.27 107.843 125.407 108.227 125.626C108.61 125.845 120.72 125.681 121.104 125.626C121.488 125.571 121.704 125.516 121.761 125.026C121.747 124.417 121.674 123.812 121.542 123.218L108.282 123.27Z" fill="#263238" stroke="#263238" stroke-miterlimit="10"/>
<path d="M112.089 96.9871C112.089 96.9871 108.401 99.2232 107.499 102.127C106.597 105.03 107.854 117.951 107.854 117.951C107.854 117.951 106.824 122.418 107.785 123.312C108.747 124.205 121.051 123.999 121.6 123.587C121.908 123.325 122.155 122.999 122.321 122.63C122.488 122.261 122.57 121.86 122.562 121.456C122.562 120.563 122.838 112.728 122.838 108.329C122.883 105.3 121.805 102.362 119.813 100.081C119.4 99.557 118.854 99.1535 118.232 98.912C118.232 98.912 113.3 96.9871 112.089 96.9871Z" fill="#93B3E2" stroke="#263238" stroke-miterlimit="10"/>
<path d="M109.719 106.489C109.993 107.018 110.3 107.53 110.64 108.02" stroke="#263238" stroke-miterlimit="10"/>
<path d="M109.395 101.915C109.135 102.269 108.961 102.678 108.888 103.111C108.814 103.543 108.842 103.987 108.971 104.407" stroke="#263238" stroke-miterlimit="10"/>
<path d="M118.088 100.17C119.372 99.918 120.701 100.039 121.918 100.519C123.452 101.325 125.936 103.786 126.604 104.121C127.273 104.455 128.426 105.59 129.381 105.842C130.335 106.094 131.919 106.625 131.919 106.625C131.919 106.625 136.565 106.3 137.112 106.256C137.658 106.212 141.514 106.281 141.514 106.281C141.79 107.217 141.889 108.197 141.805 109.17C141.23 109.518 140.63 109.825 140.011 110.086C139.633 110.172 136.296 111.05 133.401 111.946C130.505 112.843 126.017 112.129 122.979 111.355C119.426 110.238 115.932 108.944 112.51 107.475" fill="#93B3E2"/>
<path d="M118.088 100.17C119.372 99.918 120.701 100.039 121.918 100.519C123.452 101.325 125.936 103.786 126.604 104.121C127.273 104.455 128.426 105.59 129.381 105.842C130.335 106.094 131.919 106.625 131.919 106.625C131.919 106.625 136.565 106.3 137.112 106.256C137.658 106.212 141.514 106.281 141.514 106.281C141.79 107.217 141.889 108.197 141.805 109.17C141.23 109.518 140.63 109.825 140.011 110.086C139.633 110.172 136.296 111.05 133.401 111.946C130.505 112.843 126.017 112.129 122.979 111.355C119.426 110.238 115.932 108.944 112.51 107.475" stroke="#263238" stroke-miterlimit="10"/>
<path d="M127.235 109.479C126.616 109.67 125.982 109.807 125.34 109.889" stroke="#263238" stroke-miterlimit="10"/>
<path d="M131.82 107.396C130.76 108.037 129.647 108.588 128.493 109.041" stroke="#263238" stroke-miterlimit="10"/>
<path d="M118.639 109.626C118.639 109.626 116.392 113.9 113.652 115.818" stroke="#263238" stroke-miterlimit="10"/>
<path d="M115.627 116.636C115.105 117.245 114.536 117.814 113.926 118.336" stroke="#263238" stroke-miterlimit="10"/>
<path d="M118.748 112.475C118.748 112.475 117.764 114.002 116.483 115.609" stroke="#263238" stroke-miterlimit="10"/>
<path d="M141.512 106.28C141.512 106.28 142.365 105.329 142.934 104.827C143.434 104.437 143.966 104.088 144.522 103.784C144.859 103.554 145.075 102.472 145.561 102.837C145.648 102.888 145.724 102.958 145.782 103.041C145.84 103.124 145.879 103.219 145.897 103.319C145.915 103.418 145.91 103.521 145.885 103.619C145.859 103.717 145.812 103.808 145.748 103.886C145.571 104.206 145.167 104.847 145.037 105.111L144.907 105.375C145.565 105.542 146.236 105.657 146.913 105.718C147.521 105.718 149.201 105.784 149.276 106.084C149.307 106.208 149.294 106.338 149.239 106.454C149.184 106.569 149.091 106.662 148.976 106.717L146.759 106.898C147.362 107.223 147.936 107.6 148.474 108.025C148.486 108.177 148.104 108.461 147.659 108.599C147.09 108.931 146.48 109.185 145.844 109.355C144.841 109.383 143.837 109.329 142.843 109.195C142.501 109.148 142.155 109.139 141.811 109.168L141.512 106.28Z" fill="white" stroke="#263238" stroke-miterlimit="10"/>
<path d="M146.01 107.72L147.654 108.601" stroke="#263238" stroke-miterlimit="10"/>
<path d="M145.371 108.584L146.423 109.056" stroke="#263238" stroke-miterlimit="10"/>
<path d="M71.9136 175.149H108.459V148.633H71.9136V175.149Z" fill="#93B3E2" stroke="#263238" stroke-miterlimit="10"/>
<path d="M71.9136 175.149H93.9513V148.633H71.9136V175.149Z" fill="#93B3E2" stroke="#263238" stroke-miterlimit="10"/>
<path d="M80.6269 160.965H85.2391V148.633H80.6269V160.965Z" fill="white" stroke="#263238" stroke-miterlimit="10"/>
<path d="M66.7073 144.059H37.06V170.575H66.7073V144.059Z" fill="#93B3E2" stroke="#263238" stroke-miterlimit="10"/>
<path d="M66.7085 144.059H48.8298V170.575H66.7085V144.059Z" fill="#93B3E2" stroke="#263238" stroke-miterlimit="10"/>
<path d="M59.639 144.059H55.8972V156.391H59.639V144.059Z" fill="white" stroke="#263238" stroke-miterlimit="10"/>
<path d="M119.726 26.9211H106.025V40.9349H119.726V26.9211Z" fill="white" stroke="#263238" stroke-miterlimit="10"/>
<path d="M110.636 35.9165H112.628C112.628 37.031 112.752 37.3232 113.228 37.2892C113.704 37.2552 113.7 36.6369 113.7 35.4663C113.7 34.6659 113.6 34.0026 113.081 34.0026C112.733 34.0026 112.53 34.2387 112.451 34.858H110.65L110.864 29.5004H115.22V31.1772H112.497L112.385 32.878C112.682 32.6368 113.049 32.4966 113.431 32.4778C114.804 32.2867 115.626 33.3783 115.626 35.4493C115.626 37.4192 115.311 38.8149 113.071 38.8149C110.963 38.8099 110.636 37.6273 110.636 35.9165Z" fill="#263238"/>
<path d="M299 175.084H0" stroke="#263238" stroke-miterlimit="10"/>
</g>
</svg>
