<svg width="136" height="105" viewBox="0 0 136 105" fill="none" xmlns="http://www.w3.org/2000/svg">
<path d="M42.8443 23.9122C43.1087 22.2035 43.7251 20.5685 44.6544 19.1105C45.8591 17.0919 47.317 15.2357 48.9925 13.5868C51.6669 10.934 54.6457 8.60663 57.8668 6.65333C61.5404 4.36194 65.4914 2.54864 69.624 1.25736C72.4677 0.299089 75.4659 -0.117715 78.4631 0.0285396C82.2131 0.183422 85.8194 1.51313 88.7724 3.82965C90.897 5.55373 92.4099 7.91611 93.0873 10.5671C93.9705 13.9179 93.9295 17.4454 92.9687 20.7747C91.5769 25.515 89.1682 29.8949 85.9105 33.609C83.3095 36.5646 80.3965 39.2301 77.2222 41.5592C74.5744 43.6582 71.7352 45.5038 68.7421 47.0718C66.5504 48.2854 64.1594 49.0976 61.6819 49.4701C61.4557 49.5847 61.1912 49.4258 60.969 49.5706H59.9161C59.7291 49.449 59.5209 49.5385 59.3248 49.5103C58.4161 49.4559 57.5404 49.1494 56.7961 48.6253C56.0517 48.1012 55.468 47.3801 55.1104 46.5428C54.7321 45.7825 54.5078 44.9548 54.4505 44.1075C54.3932 43.2601 54.504 42.4098 54.7766 41.6054C55.4296 39.2573 56.5177 37.0528 57.9844 35.1063C58.6293 34.1276 59.4701 33.2931 60.4537 32.6557C61.4373 32.0182 62.5424 31.5916 63.6991 31.4028C65.0791 31.1932 66.4894 31.4527 67.7044 32.1399C67.9799 32.2742 68.226 32.4619 68.4284 32.6922C68.6307 32.9224 68.7853 33.1906 68.8831 33.4812C68.9809 33.7717 69.0199 34.0788 68.998 34.3845C68.976 34.6903 68.8935 34.9886 68.7552 35.2622C68.2661 36.2821 67.5924 37.2026 66.7682 37.9773C65.5384 39.2493 64.2542 40.4701 63.0204 41.7392C61.9637 42.7765 61.0827 43.9788 60.4119 45.2989C60.3072 45.5074 60.2234 45.7256 60.1615 45.9505C60.0725 46.1659 60.0453 46.4018 60.0831 46.6317C60.1208 46.8616 60.222 47.0764 60.3752 47.252C60.5284 47.4275 60.7275 47.5568 60.9502 47.6254C61.1729 47.6939 61.4103 47.699 61.6357 47.6399C62.7577 47.4921 63.8472 47.1583 64.8596 46.6524C68.1747 45.0077 71.2834 42.9764 74.121 40.6008C76.1493 38.9675 78.0537 37.1861 79.8186 35.2712C82.2097 32.8632 84.1015 30.0067 85.3856 26.8656C86.2928 24.683 86.6031 22.2983 86.2845 19.9562C86.0902 18.6792 85.5556 17.4781 84.737 16.4789C84.3234 15.9958 83.8073 15.6111 83.2263 15.3526C82.6453 15.0941 82.014 14.9684 81.3783 14.9846C79.5813 15.0111 77.8114 15.4279 76.1915 16.2064C73.41 17.4736 70.7399 18.9721 68.2092 20.6862C65.8353 22.2107 63.4947 23.7841 61.1872 25.4065C59.7241 26.4362 58.3454 27.5846 56.8833 28.6143C55.3352 29.7662 53.6217 30.6771 51.8011 31.3163C50.1076 31.8639 48.2704 31.7578 46.6513 31.0187C45.0321 30.2797 43.7483 28.9613 43.0525 27.3231C42.8918 26.9058 42.807 26.463 42.8021 26.0158C42.7719 25.7856 42.8685 25.5452 42.7418 25.323V24.6191C42.8876 24.4009 42.7247 24.1364 42.8443 23.9122Z" fill="#0F89FF"/>
<path d="M71.9178 79.172C71.9178 73.9691 71.9338 68.7662 71.9007 63.5643C71.9007 62.795 72.0274 62.4743 72.8892 62.3657C75.2241 62.073 77.545 61.6537 79.8639 61.2434C80.4944 61.1318 80.6603 61.2907 80.6523 61.9252C80.6191 64.5116 80.6664 67.0989 80.6201 69.6853C80.608 70.3681 80.8212 70.5008 81.4507 70.4797C82.8183 70.4325 84.1879 70.4847 85.5565 70.4546C86.0593 70.4435 86.2765 70.5451 86.2604 71.1152C86.2212 72.7714 86.2303 74.4337 86.2604 76.0848C86.2685 76.5725 86.1337 76.7395 85.6279 76.7294C84.1728 76.6983 82.7117 76.7385 81.2596 76.7073C80.7629 76.6972 80.6282 76.8491 80.6292 77.3398C80.6483 83.1239 80.6181 88.904 80.6613 94.6912C80.6825 97.5229 82.0038 98.7889 84.8596 98.9045C86.2514 98.9619 86.2514 98.9619 86.2514 100.379C86.2514 101.455 86.2413 102.53 86.2564 103.605C86.2624 104.001 86.2072 104.236 85.7225 104.302C83.2703 104.695 80.7621 104.556 78.3686 103.893C74.3855 102.705 72.0073 99.4787 71.955 95.0441C71.8926 89.7547 71.9399 84.4644 71.9399 79.175L71.9178 79.172Z" fill="#0F89FF"/>
<path d="M130.566 78.5143V93.6806C130.566 93.8817 130.566 94.0828 130.566 94.2909C130.586 97.5621 131.806 98.8352 135.092 98.8824C135.817 98.8925 136.031 99.0665 135.997 99.7875C135.935 101.095 135.962 102.402 135.99 103.709C135.999 104.138 135.877 104.298 135.437 104.365C132.704 104.876 129.882 104.602 127.297 103.576C124.033 102.193 122.6 99.4898 122.196 96.1392C122.081 95.0706 122.03 93.9961 122.042 92.9213C122.031 83.1008 122.042 73.2803 122.018 63.4577C122.018 62.7287 122.193 62.4803 122.945 62.3737C125.189 62.056 127.421 61.6497 129.646 61.2223C130.406 61.0765 130.598 61.2304 130.592 62.0338C130.546 67.5314 130.566 73.0229 130.566 78.5143Z" fill="#0F89FF"/>
<path d="M49.0629 90.2505C49.0629 85.9215 49.072 81.5925 49.0508 77.2634C49.037 77.0222 49.0776 76.781 49.1697 76.5577C49.2617 76.3343 49.4029 76.1346 49.5828 75.9733C54.7354 71.0208 60.7538 68.9281 67.8613 70.4426C69.4984 70.7925 69.4893 70.8347 68.8267 72.326C68.344 73.412 67.812 74.48 67.4007 75.5921C67.1584 76.2488 66.7974 76.2679 66.2192 76.1683C63.6543 75.6656 60.9943 76.101 58.7236 77.3952C58.4028 77.5474 58.1363 77.7944 57.9603 78.1027C57.7843 78.4111 57.7071 78.7661 57.7391 79.1197C57.7763 87.1966 57.7531 95.2734 57.7773 103.354C57.7773 104.052 57.6375 104.3 56.8854 104.283C54.5283 104.233 52.1692 104.242 49.8121 104.283C49.1886 104.294 49.0428 104.105 49.0468 103.505C49.0719 99.0886 49.0609 94.6731 49.0609 90.2566L49.0629 90.2505Z" fill="#0F89FF"/>
<path d="M42.0911 87.3866C42.0911 92.7363 42.0781 98.086 42.1073 103.436C42.1073 104.095 41.9373 104.264 41.2837 104.253C38.9537 104.212 36.6228 104.223 34.2928 104.247C33.7669 104.252 33.589 104.107 33.589 103.563C33.6031 93.1838 33.6031 82.8045 33.589 72.4255C33.589 71.9891 33.7247 71.8011 34.1481 71.7337C36.6469 71.3375 39.1468 70.9403 41.6406 70.5119C42.244 70.4114 42.0821 70.8005 42.0831 71.076C42.0922 72.9072 42.0831 74.7394 42.0831 76.5706L42.0911 87.3866Z" fill="#0F89FF"/>
<path d="M26.9601 89.6401H26.9541C26.9541 86.7621 26.9843 83.8831 26.9481 81.0051C26.8666 74.6187 22.7125 70.3459 16.31 69.9156C11.6351 69.7167 6.99559 70.807 2.89853 73.0671C2.43094 73.3034 2.44197 73.5286 2.63805 73.9399C3.1499 75.0129 3.61752 76.1069 4.10322 77.192C4.65026 78.4148 4.64521 78.3987 5.90319 77.8496C8.64735 76.4729 11.7056 75.8431 14.7704 76.0235C15.6719 76.0267 16.5373 76.3784 17.1856 77.0049C17.8338 77.6314 18.2148 78.4843 18.2488 79.3851C18.3282 80.0167 18.285 80.6632 18.3594 81.2957C18.4398 81.9805 18.2015 82.1636 17.5087 82.1626C14.862 82.0063 12.2064 82.1162 9.58164 82.4904C5.73528 83.2597 2.57776 85.0335 0.923578 88.7793C-1.69094 94.6881 1.45049 101.576 7.76154 103.964C10.3324 104.849 13.0827 105.082 15.7659 104.642C19.7328 104.259 23.4788 102.638 26.4734 100.009C26.6385 99.8736 26.7694 99.7014 26.8555 99.5063C26.9417 99.3111 26.9806 99.0984 26.9692 98.8854C26.9501 95.8033 26.9601 92.7172 26.9601 89.6401ZM18.3353 92.8861C18.3353 94.3382 18.3212 95.7902 18.3433 97.2413C18.375 97.4254 18.3423 97.6148 18.2508 97.7776C18.1592 97.9405 18.0143 98.0668 17.8405 98.1353C16.2227 98.8982 14.4043 99.1275 12.6477 98.7899C10.2122 98.2801 8.74397 95.8566 9.0195 93.0018C9.06988 91.6168 9.66278 90.3071 10.6702 89.3554C11.6776 88.4037 13.0188 87.8861 14.4044 87.9145C15.5106 87.8692 16.6167 87.9246 17.7229 87.8853C18.2347 87.8672 18.3574 88.0533 18.3483 88.5309C18.3192 89.982 18.3353 91.434 18.3353 92.8861Z" fill="#0F89FF"/>
<path d="M116.748 100.397C116.133 99.148 115.495 97.9101 114.929 96.64C114.677 96.0759 114.472 96.1181 113.999 96.4057C111.322 98.0873 108.21 98.9457 105.05 98.8745C103.682 98.9288 102.339 98.504 101.251 97.6732C100.163 96.8424 99.3998 95.6579 99.0925 94.3242C98.6352 92.6412 98.4162 90.9023 98.442 89.1585C98.4329 88.5662 98.6039 88.3681 99.2263 88.3762C102.021 88.4103 104.816 88.3912 107.611 88.3912C110.435 88.3912 113.259 88.3842 116.083 88.3983C116.554 88.3983 116.836 88.3681 116.824 87.7648C116.827 85.149 116.553 82.5403 116.005 79.9825C114.544 73.8244 111.212 70.8156 105.154 70.165C102.521 69.7764 99.8334 70.245 97.4874 71.5018C95.1415 72.7585 93.262 74.7366 92.1269 77.1438C90.6434 79.9867 89.7825 83.113 89.6011 86.3146C89.4198 89.5161 89.9222 92.7196 91.0751 95.7119C92.5996 99.7825 95.2502 102.917 99.5893 104.176C105.733 105.959 111.361 104.505 116.639 101.19C117.054 100.929 116.892 100.688 116.748 100.397ZM98.7598 82.4975C98.8622 81.0741 99.2891 79.6931 100.008 78.4601C100.404 77.7744 100.991 77.219 101.698 76.8618C102.404 76.5046 103.2 76.3612 103.987 76.4489C104.762 76.5062 105.501 76.8007 106.103 77.2923C106.705 77.784 107.141 78.4491 107.353 79.1972C107.701 80.2747 107.899 81.3951 107.941 82.5267C107.983 82.9933 107.767 83.0516 107.386 83.0476C106.018 83.0345 104.649 83.0425 103.281 83.0425C101.941 83.0425 100.602 83.0275 99.2635 83.0516C98.8311 83.0596 98.7085 82.9168 98.7598 82.4975Z" fill="#0F89FF"/>
</svg>
