<svg width="17" height="16" viewBox="0 0 17 16" fill="none" xmlns="http://www.w3.org/2000/svg">
<path d="M9.1209 0.37491L11.2106 4.51478C11.2573 4.61947 11.3314 4.71009 11.4253 4.77737C11.5193 4.84462 11.6296 4.88613 11.7452 4.89764L16.3863 5.59163C16.5189 5.60863 16.644 5.6625 16.7467 5.7469C16.8495 5.83131 16.9257 5.94278 16.9665 6.06827C17.0072 6.19379 17.0109 6.32814 16.977 6.45559C16.9431 6.58307 16.8731 6.69841 16.775 6.78812L13.3489 9.99472C13.2978 10.0907 13.2711 10.1974 13.2711 10.3058C13.2711 10.4142 13.2978 10.5209 13.3489 10.6169L14.005 15.1636C14.033 15.295 14.0217 15.4316 13.9724 15.5568C13.9231 15.682 13.838 15.7904 13.7274 15.8689C13.6168 15.9475 13.4854 15.9927 13.3492 15.9992C13.213 16.0056 13.0779 15.9731 12.9601 15.9054L8.82932 13.7517C8.7224 13.7041 8.60642 13.6795 8.48912 13.6795C8.3718 13.6795 8.25585 13.7041 8.14893 13.7517L4.01812 15.9054C3.90037 15.9731 3.76517 16.0056 3.62899 15.9992C3.49281 15.9927 3.36143 15.9475 3.25084 15.8689C3.14022 15.7904 3.05513 15.682 3.00588 15.5568C2.9566 15.4316 2.94527 15.295 2.97328 15.1636L3.75084 10.6169C3.78427 10.5114 3.79067 10.3993 3.76949 10.2908C3.74827 10.1822 3.70012 10.0805 3.62933 9.99472L0.203203 6.76418C0.112325 6.67354 0.0485341 6.55998 0.0188126 6.436C-0.0108784 6.31199 -0.00533829 6.18234 0.034821 6.06125C0.0749497 5.94016 0.148199 5.83227 0.246455 5.74943C0.344741 5.6666 0.464269 5.61201 0.591971 5.59163L5.23307 4.92158C5.34862 4.91006 5.45896 4.86856 5.5529 4.8013C5.64681 4.73402 5.72092 4.64341 5.76763 4.53872L7.85735 0.398845C7.91327 0.281644 8.00136 0.182198 8.11168 0.111751C8.22197 0.0413037 8.3501 0.0026286 8.48156 0.000126621C8.61303 -0.00234521 8.74257 0.0314159 8.85555 0.0976732C8.96852 0.1639 9.06044 0.25994 9.1209 0.37491Z" fill="#FDE74C"/>
</svg>
