<svg width="28" height="28" viewBox="0 0 28 28" fill="none" xmlns="http://www.w3.org/2000/svg">
<path fill-rule="evenodd" clip-rule="evenodd" d="M5.06799 7.65443C3.79098 8.59309 3.02848 10.1565 3.02848 11.838V21.2003C3.02848 23.983 5.10408 26.2468 7.65532 26.2468H20.6105C23.1617 26.2468 25.2373 23.983 25.2373 21.2003V11.838C25.2373 10.2443 24.5451 8.76265 23.3866 7.81189L21.5359 6.43015L16.7212 2.88648C15.149 1.72982 13.1168 1.72982 11.5446 2.88648L5.06799 7.65443ZM12.1429 3.69963L5.66647 8.46739C4.666 9.20278 4.03797 10.455 4.03797 11.838V21.2003C4.03797 23.5097 5.74233 25.2373 7.65532 25.2373H20.6105C22.5235 25.2373 24.2278 23.5097 24.2278 21.2003V11.838C24.2278 10.5407 23.6675 9.35723 22.763 8.60612L20.9375 7.24317L20.9319 7.23907L16.1229 3.69963C14.9067 2.80483 13.3592 2.80495 12.1429 3.69963Z" fill="#535353"/>
<path fill-rule="evenodd" clip-rule="evenodd" d="M16.1519 18.1709H12.1139C11.5564 18.1709 11.1044 18.6228 11.1044 19.1804V25.2373H17.1614V19.1804C17.1614 18.6228 16.7094 18.1709 16.1519 18.1709ZM12.1139 17.1614C10.9989 17.1614 10.0949 18.0653 10.0949 19.1804V26.2468H18.1709V19.1804C18.1709 18.0653 17.2669 17.1614 16.1519 17.1614H12.1139Z" fill="#535353"/>
</svg>
