<svg width="32" height="32" viewBox="0 0 32 32" fill="none" xmlns="http://www.w3.org/2000/svg">
<path d="M27.3053 4.67817C25.0662 2.44228 22.2144 0.92052 19.1105 0.305315C16.0066 -0.309891 12.79 0.00908142 9.86734 1.2219C6.94471 2.43472 4.44732 4.48692 2.69097 7.11901C0.934608 9.75111 -0.00184972 12.8449 2.74303e-06 16.0092C0.0018552 19.1735 0.941934 22.2661 2.70137 24.8962C4.46081 27.5262 6.9606 29.5755 9.88465 30.7849C12.8087 31.9943 16.0257 32.3095 19.1289 31.6906C22.2321 31.0718 25.0821 29.5467 27.3185 27.3082C28.8038 25.8216 29.9817 24.0569 30.7849 22.115C31.5881 20.173 32.0008 18.0919 31.9996 15.9904C31.9984 13.889 31.5832 11.8083 30.7777 9.86735C29.9723 7.92637 28.7923 6.16307 27.3053 4.67817Z" fill="#0F89FF" fill-opacity="0.1"/>
</svg>
