<svg width="286" height="198" viewBox="0 0 286 198" fill="none" xmlns="http://www.w3.org/2000/svg">
<path d="M236.537 164.351C234.42 166.151 232.228 167.905 229.961 169.613C229.521 169.943 229.08 170.273 228.634 170.597C228.619 170.613 228.601 170.626 228.582 170.636C226.951 171.834 225.288 173.001 223.592 174.138C218.097 177.829 212.333 181.105 206.35 183.937C202.991 185.516 199.556 186.947 196.045 188.228C194.045 188.963 192.021 189.654 189.974 190.299C161.093 199.412 128.408 199.477 99.7925 193.302C90.2649 191.28 80.9328 188.428 71.9033 184.776C64.3515 181.759 57.1262 177.981 50.339 173.502C48.6753 172.388 47.0809 171.245 45.5557 170.072C37.1155 163.573 30.8438 156.175 27.5239 148.169C10.3456 106.739 12.5592 74.7782 39.4073 62.7784C66.2555 50.7785 77.8541 52.6291 95.8758 26.9013C113.898 1.17351 152.677 -7.8434 170.699 7.52246C185.587 20.2143 195.69 44.6091 208.149 58.0914C210.536 60.7858 213.321 63.0993 216.408 64.9518C233.074 74.4803 259.883 95.0557 264.892 114.757C268.322 128.197 255.721 148.015 236.537 164.351Z" fill="url(#paint0_linear_485_7322)"/>
<path d="M236.538 164.35C234.422 166.15 232.23 167.904 229.962 169.612C229.522 169.942 229.082 170.272 228.635 170.596C228.62 170.612 228.603 170.625 228.583 170.635C226.952 171.833 225.289 173 223.593 174.137C218.098 177.828 212.335 181.104 206.351 183.936C202.992 185.515 199.557 186.946 196.046 188.227C194.047 188.962 192.023 189.653 189.975 190.298C161.095 199.411 128.409 199.476 99.7939 193.301C90.2663 191.279 80.9342 188.426 71.9047 184.775C64.3529 181.758 57.1276 177.98 50.3403 173.501C47.201 160.607 46.5731 144.122 55.6151 128.115C74.6439 94.4519 122.864 102.138 155.634 95.2483C179.168 90.3035 194.643 71.8183 208.157 58.0904C210.544 60.7847 213.33 63.0983 216.416 64.9508C233.083 74.4793 259.892 95.0547 264.901 114.756C268.324 128.196 255.719 148.014 236.538 164.35Z" fill="url(#paint1_linear_485_7322)"/>
<mask id="mask0_485_7322" style="mask-type:luminance" maskUnits="userSpaceOnUse" x="16" y="0" width="250" height="198">
<path d="M264.905 114.759C259.895 95.0576 233.087 74.4812 216.42 64.9538C213.334 63.1013 210.549 60.7877 208.161 58.0933C195.701 44.6111 185.594 20.2163 170.712 7.52442C152.686 -7.84144 113.91 1.17547 95.8883 26.9032C77.8665 52.631 66.2639 50.7795 39.4198 62.7803C12.5757 74.7811 10.3581 106.742 27.5363 148.171C30.8563 156.177 37.129 163.575 45.5682 170.074C47.0954 171.245 48.6898 172.388 50.3514 173.504C57.1387 177.983 64.364 181.761 71.9158 184.778C80.9453 188.429 90.2774 191.282 99.805 193.304C128.419 199.478 161.106 199.414 189.986 190.301C192.031 189.654 194.055 188.963 196.057 188.23C199.566 186.949 203.001 185.518 206.362 183.938C212.346 181.106 218.109 177.83 223.604 174.139C225.3 173.006 226.963 171.839 228.594 170.637C228.614 170.627 228.631 170.614 228.647 170.598C229.093 170.275 229.533 169.944 229.973 169.614C232.239 167.912 234.431 166.158 236.549 164.352C255.72 148.015 268.322 128.197 264.905 114.759Z" fill="white"/>
</mask>
<g mask="url(#mask0_485_7322)">
<path d="M203.237 166.822C201.959 176.96 198.463 186.692 192.997 195.326L179.768 195.798L178.836 195.83L170.511 196.131L169.864 196.151L166.777 196.261L166.097 196.287L140.169 197.213C140.169 197.213 136.324 155.287 156.854 144.275C177.385 133.262 205.204 150.285 203.237 166.822Z" fill="url(#paint2_linear_485_7322)"/>
<path d="M196.239 165.289L170.506 192.505V196.13L169.859 196.15V179.884L163.51 165.198C163.491 165.159 163.479 165.116 163.477 165.073C163.474 165.029 163.48 164.986 163.495 164.945C163.51 164.904 163.533 164.866 163.563 164.834C163.593 164.802 163.629 164.777 163.669 164.759C163.709 164.742 163.752 164.732 163.795 164.732C163.839 164.732 163.882 164.74 163.922 164.757C163.963 164.774 163.999 164.799 164.029 164.83C164.06 164.861 164.083 164.898 164.099 164.939L169.859 178.253V150.538C169.859 150.496 169.867 150.453 169.883 150.414C169.899 150.374 169.923 150.338 169.953 150.308C169.983 150.278 170.019 150.254 170.059 150.238C170.098 150.222 170.14 150.214 170.183 150.214C170.269 150.215 170.351 150.249 170.411 150.31C170.472 150.37 170.506 150.453 170.506 150.538V191.567L177.898 183.743L181.147 162.636C181.165 162.556 181.213 162.485 181.281 162.438C181.349 162.391 181.433 162.372 181.514 162.385C181.596 162.398 181.67 162.441 181.721 162.507C181.772 162.572 181.796 162.654 181.788 162.737L178.678 182.918L195.759 164.847C195.819 164.785 195.9 164.748 195.986 164.746C196.073 164.743 196.156 164.775 196.219 164.834C196.25 164.862 196.276 164.897 196.294 164.935C196.312 164.973 196.323 165.015 196.325 165.057C196.326 165.1 196.32 165.142 196.305 165.182C196.29 165.222 196.268 165.258 196.239 165.289Z" fill="#C7F2FF"/>
<path d="M190.531 184.622L179.768 195.8L178.836 195.832L190.07 184.17C190.13 184.108 190.212 184.073 190.298 184.071C190.384 184.07 190.467 184.103 190.529 184.163C190.56 184.192 190.585 184.228 190.601 184.267C190.618 184.307 190.627 184.349 190.627 184.392C190.627 184.435 190.619 184.477 190.602 184.517C190.586 184.556 190.562 184.592 190.531 184.622Z" fill="#C7F2FF"/>
<path d="M166.777 196.259L166.097 196.285L162.33 185.734L148.227 176.867C148.155 176.821 148.103 176.748 148.085 176.664C148.066 176.581 148.081 176.493 148.127 176.42C148.173 176.349 148.246 176.299 148.33 176.28C148.413 176.261 148.5 176.276 148.573 176.32L161.971 184.745L154.981 165.179C154.958 165.099 154.965 165.013 155.003 164.938C155.041 164.864 155.106 164.807 155.185 164.779C155.263 164.751 155.35 164.754 155.426 164.787C155.503 164.821 155.563 164.882 155.596 164.959L166.777 196.259Z" fill="#C7F2FF"/>
<path d="M148.633 205.689L122.213 201.769L121.032 201.591L118.755 201.253L118.117 201.163L115.156 200.723L114.262 200.589L106.664 199.459H106.657L105.272 199.259L89.9517 196.988C89.9517 196.988 82.1604 173.518 100.082 165.773C118.003 158.028 146.668 170.788 150.125 182.682C153.583 194.577 148.633 205.689 148.633 205.689Z" fill="url(#paint3_linear_485_7322)"/>
<path d="M115.156 200.724L114.262 200.59L95.7068 175.73C95.661 175.662 95.6433 175.578 95.6574 175.497C95.6715 175.415 95.7164 175.342 95.7828 175.293C95.8492 175.244 95.9319 175.222 96.0139 175.232C96.0959 175.242 96.1709 175.283 96.2234 175.347L110.875 194.989L110.162 171.027C110.16 170.944 110.192 170.863 110.249 170.802C110.306 170.741 110.385 170.706 110.469 170.702C110.553 170.701 110.634 170.733 110.696 170.789C110.757 170.846 110.795 170.925 110.801 171.008L111.541 195.874L115.156 200.724Z" fill="#C7F2FF"/>
<path d="M147.634 190.668L132.428 197.311L143.261 198.523C143.342 198.533 143.417 198.573 143.47 198.635C143.522 198.698 143.549 198.779 143.544 198.86C143.539 198.942 143.503 199.019 143.443 199.075C143.384 199.131 143.304 199.162 143.222 199.161C143.209 199.162 143.196 199.16 143.184 199.154L131.249 197.821L122.207 201.771L121.026 201.593L124.893 199.901L135.281 183.899C135.327 183.828 135.4 183.778 135.483 183.761C135.566 183.743 135.653 183.76 135.724 183.806C135.795 183.853 135.845 183.926 135.862 184.009C135.879 184.092 135.863 184.179 135.816 184.25L125.965 199.436L147.379 190.082C147.417 190.065 147.459 190.056 147.501 190.055C147.543 190.054 147.585 190.062 147.624 190.077C147.664 190.093 147.699 190.116 147.729 190.145C147.76 190.175 147.784 190.21 147.8 190.249C147.833 190.326 147.833 190.414 147.802 190.492C147.771 190.571 147.711 190.634 147.634 190.668Z" fill="#C7F2FF"/>
<path d="M128.319 172.568L118.754 201.254L118.116 201.164L122.391 188.326L118.696 177.74C118.682 177.7 118.676 177.658 118.679 177.616C118.681 177.574 118.692 177.532 118.711 177.495C118.73 177.457 118.756 177.423 118.788 177.395C118.819 177.367 118.856 177.346 118.897 177.332C118.935 177.318 118.977 177.312 119.018 177.314C119.059 177.316 119.1 177.327 119.137 177.344C119.174 177.362 119.208 177.387 119.235 177.418C119.263 177.449 119.284 177.485 119.298 177.524L122.724 187.338L127.714 172.368C127.726 172.329 127.747 172.292 127.774 172.26C127.801 172.228 127.834 172.202 127.872 172.183C127.909 172.164 127.95 172.153 127.992 172.151C128.034 172.148 128.076 172.154 128.115 172.168C128.194 172.196 128.259 172.253 128.297 172.327C128.335 172.402 128.343 172.488 128.319 172.568Z" fill="#C7F2FF"/>
<path d="M106.657 199.461L105.273 199.261L93.1237 190.635C93.0901 190.611 93.0617 190.58 93.04 190.545C93.0183 190.509 93.0038 190.47 92.9973 190.429C92.9908 190.388 92.9923 190.347 93.002 190.306C93.0116 190.266 93.0292 190.228 93.0535 190.195C93.077 190.16 93.1071 190.131 93.1422 190.108C93.1772 190.086 93.2164 190.07 93.2575 190.063C93.2986 190.056 93.3407 190.057 93.3813 190.067C93.4219 190.076 93.4601 190.094 93.4938 190.118L106.657 199.461Z" fill="#C7F2FF"/>
</g>
<path d="M166.658 123.473L166.357 123.346C172.562 108.665 175.062 95.477 173.784 84.1461L174.105 84.11C175.393 95.497 172.885 108.741 166.658 123.473Z" fill="white"/>
<path d="M174.017 84.781C174.017 84.781 168.973 81.3949 170.648 78.8633C172.469 76.1051 174.76 76.9797 175.497 79.2645C176.235 81.5493 174.017 84.781 174.017 84.781Z" fill="white"/>
<path d="M174.229 92.1921C174.229 92.1921 168.335 93.6645 167.576 90.7217C166.749 87.5212 168.933 86.4089 171.126 87.3938C173.318 88.3787 174.229 92.1921 174.229 92.1921Z" fill="white"/>
<path d="M174.228 92.1902C174.228 92.1902 175.378 86.2244 178.367 86.774C181.618 87.3758 181.705 89.8231 179.887 91.3968C178.068 92.9705 174.228 92.1902 174.228 92.1902Z" fill="white"/>
<path d="M173.204 101.54C173.204 101.54 167.151 102.058 166.869 99.0326C166.563 95.7407 168.894 94.9915 170.903 96.3114C172.912 97.6314 173.204 101.54 173.204 101.54Z" fill="white"/>
<path d="M173.202 101.541C173.202 101.541 175.287 95.835 178.15 96.8561C181.259 97.9664 180.959 100.397 178.916 101.661C176.872 102.926 173.202 101.541 173.202 101.541Z" fill="white"/>
<path d="M171.403 109.469C171.403 109.469 165.329 109.318 165.385 106.279C165.442 102.969 167.841 102.484 169.697 104.017C171.554 105.551 171.403 109.469 171.403 109.469Z" fill="white"/>
<path d="M171.402 109.47C171.402 109.47 174.1 104.026 176.833 105.357C179.806 106.803 179.241 109.186 177.067 110.218C174.894 111.25 171.402 109.47 171.402 109.47Z" fill="white"/>
<path d="M169.006 117.021C169.006 117.021 162.962 116.409 163.245 113.382C163.554 110.091 165.983 109.786 167.713 111.455C169.443 113.124 169.006 117.021 169.006 117.021Z" fill="white"/>
<path d="M169.005 117.018C169.005 117.018 172.115 111.797 174.734 113.33C177.589 114.998 176.841 117.33 174.597 118.194C172.353 119.057 169.005 117.018 169.005 117.018Z" fill="white"/>
<path d="M126.762 127.001C121.947 115.624 120.017 105.395 121.009 96.6002L121.331 96.6373C120.345 105.376 122.272 115.55 127.061 126.876L126.762 127.001Z" fill="white"/>
<path d="M121.117 97.1208C121.117 97.1208 125.009 94.507 123.717 92.5491C122.312 90.4198 120.545 91.0948 119.973 92.861C119.402 94.6273 121.117 97.1208 121.117 97.1208Z" fill="white"/>
<path d="M120.953 102.841C120.953 102.841 125.501 103.978 126.088 101.706C126.726 99.2351 125.041 98.3775 123.348 99.1378C121.655 99.898 120.953 102.841 120.953 102.841Z" fill="white"/>
<path d="M120.955 102.841C120.955 102.841 120.067 98.2371 117.76 98.6634C115.252 99.1278 115.184 101.016 116.587 102.231C117.99 103.446 120.955 102.841 120.955 102.841Z" fill="white"/>
<path d="M121.743 110.057C121.743 110.057 126.415 110.459 126.633 108.121C126.87 105.58 125.07 105.001 123.524 106.02C121.977 107.039 121.743 110.057 121.743 110.057Z" fill="white"/>
<path d="M121.743 110.057C121.743 110.057 120.138 105.653 117.925 106.442C115.518 107.299 115.755 109.175 117.334 110.153C118.913 111.131 121.743 110.057 121.743 110.057Z" fill="white"/>
<path d="M123.134 116.177C123.134 116.177 127.822 116.06 127.782 113.714C127.738 111.164 125.886 110.786 124.456 111.969C123.026 113.153 123.134 116.177 123.134 116.177Z" fill="white"/>
<path d="M123.134 116.178C123.134 116.178 121.051 111.976 118.942 113.002C116.647 114.118 117.086 115.957 118.761 116.753C120.436 117.55 123.134 116.178 123.134 116.178Z" fill="white"/>
<path d="M124.984 122.006C124.984 122.006 129.649 121.534 129.43 119.198C129.193 116.657 127.317 116.421 125.982 117.71C124.647 118.999 124.984 122.006 124.984 122.006Z" fill="white"/>
<path d="M124.984 122.006C124.984 122.006 122.587 117.975 120.562 119.16C118.355 120.446 118.936 122.247 120.668 122.914C122.4 123.581 124.984 122.006 124.984 122.006Z" fill="white"/>
<path d="M125.204 25.6649C127.551 25.0993 128.995 22.7383 128.429 20.3914C127.864 18.0446 125.503 16.6006 123.156 17.1662C120.809 17.7318 119.365 20.0928 119.931 22.4397C120.496 24.7865 122.857 26.2305 125.204 25.6649Z" fill="white"/>
<path d="M147.671 9.37195C148.672 9.37195 149.483 8.56051 149.483 7.55954C149.483 6.55857 148.672 5.74713 147.671 5.74713C146.67 5.74713 145.858 6.55857 145.858 7.55954C145.858 8.56051 146.67 9.37195 147.671 9.37195Z" fill="white"/>
<path d="M188.675 50.0414C188.675 50.2268 188.62 50.4082 188.517 50.5624C188.414 50.7166 188.268 50.8368 188.096 50.9078C187.925 50.9788 187.736 50.9973 187.554 50.9612C187.373 50.925 187.205 50.8356 187.074 50.7045C186.943 50.5733 186.854 50.4062 186.818 50.2243C186.781 50.0424 186.8 49.8539 186.871 49.6825C186.942 49.5111 187.062 49.3647 187.216 49.2616C187.371 49.1586 187.552 49.1036 187.737 49.1036C187.986 49.1036 188.225 49.2024 188.401 49.3782C188.576 49.5541 188.675 49.7926 188.675 50.0414Z" fill="white"/>
<path d="M141.572 89.0357C141.572 89.2211 141.517 89.4025 141.414 89.5567C141.311 89.7109 141.164 89.8311 140.993 89.9021C140.822 89.9731 140.633 89.9916 140.451 89.9555C140.269 89.9193 140.102 89.83 139.971 89.6988C139.84 89.5676 139.75 89.4005 139.714 89.2186C139.678 89.0367 139.697 88.8482 139.768 88.6768C139.839 88.5054 139.959 88.359 140.113 88.2559C140.267 88.1529 140.449 88.0979 140.634 88.0979C140.757 88.0979 140.879 88.1221 140.993 88.1693C141.107 88.2164 141.21 88.2855 141.297 88.3725C141.384 88.4596 141.453 88.563 141.5 88.6768C141.548 88.7906 141.572 88.9125 141.572 89.0357Z" fill="white"/>
<path d="M111.841 83.6908C111.841 84.1202 111.713 84.5401 111.475 84.8972C111.236 85.2543 110.897 85.5326 110.5 85.697C110.103 85.8613 109.667 85.9043 109.245 85.8205C108.824 85.7367 108.437 85.5299 108.134 85.2262C107.83 84.9225 107.623 84.5356 107.539 84.1144C107.456 83.6932 107.499 83.2566 107.663 82.8598C107.827 82.463 108.106 82.1238 108.463 81.8852C108.82 81.6466 109.24 81.5193 109.669 81.5193C110.245 81.5193 110.797 81.7481 111.205 82.1553C111.612 82.5625 111.841 83.1149 111.841 83.6908Z" stroke="white" stroke-width="0.669" stroke-miterlimit="10"/>
<path d="M170.366 26.0638C170.366 26.3941 170.268 26.7169 170.084 26.9915C169.901 27.2661 169.64 27.4802 169.335 27.6066C169.03 27.733 168.694 27.7662 168.37 27.7018C168.046 27.6374 167.749 27.4785 167.515 27.245C167.282 27.0116 167.123 26.7141 167.058 26.3902C166.993 26.0664 167.026 25.7306 167.153 25.4254C167.279 25.1203 167.493 24.8594 167.767 24.6758C168.042 24.4922 168.365 24.394 168.695 24.3938C169.138 24.3938 169.563 24.5698 169.876 24.8829C170.189 25.1961 170.365 25.6208 170.366 26.0638Z" stroke="white" stroke-width="0.669" stroke-miterlimit="10"/>
<path d="M185.898 73.5013C185.898 73.7326 185.83 73.9587 185.701 74.1511C185.573 74.3434 185.39 74.4933 185.177 74.5818C184.963 74.6703 184.728 74.6935 184.501 74.6483C184.274 74.6032 184.066 74.4918 183.902 74.3283C183.738 74.1647 183.627 73.9563 183.582 73.7295C183.537 73.5026 183.56 73.2675 183.649 73.0538C183.737 72.8401 183.887 72.6574 184.079 72.5289C184.272 72.4004 184.498 72.3318 184.729 72.3318C185.039 72.3318 185.337 72.455 185.556 72.6744C185.775 72.8937 185.898 73.1912 185.898 73.5013Z" stroke="white" stroke-width="0.669" stroke-miterlimit="10"/>
<path d="M154.164 97.3224C155.732 97.3224 157.004 96.0512 157.004 94.483C157.004 92.9148 155.732 91.6435 154.164 91.6435C152.596 91.6435 151.325 92.9148 151.325 94.483C151.325 96.0512 152.596 97.3224 154.164 97.3224Z" fill="white"/>
<path d="M163.017 83.9585C163.017 84.322 162.909 84.6772 162.707 84.9794C162.505 85.2815 162.218 85.5171 161.882 85.6561C161.547 85.7952 161.177 85.8316 160.821 85.7607C160.464 85.6898 160.137 85.5148 159.88 85.2578C159.623 85.0008 159.448 84.6734 159.377 84.317C159.306 83.9606 159.343 83.5911 159.482 83.2554C159.621 82.9196 159.856 82.6326 160.158 82.4307C160.461 82.2288 160.816 82.1211 161.179 82.1211C161.667 82.1211 162.134 82.3146 162.478 82.6592C162.823 83.0038 163.017 83.4712 163.017 83.9585Z" fill="white"/>
<path d="M225.365 149.233C225.838 149.446 268.041 128.69 278.257 107.81C288.472 86.9293 285.639 77.3909 285.639 77.3909C285.639 77.3909 239.343 100.727 224.762 128.056C224.762 128.06 214.246 144.232 225.365 149.233Z" fill="url(#paint4_linear_485_7322)"/>
<path d="M224.193 144.528C228.9 140.191 233.564 135.815 238.184 131.4C242.815 126.991 247.402 122.537 251.947 118.039C256.492 113.541 260.97 108.977 265.379 104.346C269.768 99.7004 274.112 94.9934 278.042 89.9503C274.006 94.9081 269.569 99.5149 265.087 104.063C260.604 108.612 256.018 113.061 251.377 117.45C246.736 121.839 242.065 126.198 237.347 130.503C232.629 134.809 227.885 139.089 223.104 143.313L224.193 144.528Z" fill="url(#paint5_linear_485_7322)"/>
<path d="M219.471 131.766C219.079 131.531 212.78 90.6013 222.7 72.7009C232.619 54.8005 240.935 52.0332 240.935 52.0332C240.935 52.0332 247.435 97.2191 235.059 121.526C235.062 121.526 228.69 137.271 219.471 131.766Z" fill="url(#paint6_linear_485_7322)"/>
<path d="M223.461 130.239C224.218 124.654 225.025 119.081 225.882 113.519C226.739 107.957 227.641 102.399 228.59 96.8461C229.537 91.2962 230.573 85.7626 231.699 80.2455C232.841 74.7341 234.048 69.2266 235.706 63.8456C234.163 69.2617 233.075 74.7852 232.051 80.3137C231.028 85.8422 230.129 91.3978 229.3 96.9634C228.472 102.529 227.681 108.097 226.953 113.673C226.225 119.25 225.527 124.833 224.891 130.415L223.461 130.239Z" fill="url(#paint7_linear_485_7322)"/>
<path d="M212.666 169.088C212.183 168.586 219.046 106.115 240.624 83.775C262.203 61.4353 275.482 60.65 275.482 60.65C275.482 60.65 267.242 129.443 239.543 160.205C239.543 160.205 224.012 180.78 212.666 169.088Z" fill="url(#paint8_linear_485_7322)"/>
<path d="M219.114 168.419C222.42 160.528 225.794 152.676 229.238 144.861C232.67 137.038 236.176 129.246 239.758 121.486C243.329 113.723 247.023 106.019 250.842 98.3725C254.681 90.7428 258.617 83.1431 263.163 75.9055C258.772 83.2344 255.004 90.9073 251.328 98.6092C247.652 106.311 244.152 114.1 240.749 121.93C237.347 129.759 233.999 137.612 230.739 145.5C227.478 153.389 224.259 161.298 221.132 169.232L219.114 168.419Z" fill="url(#paint9_linear_485_7322)"/>
<path d="M59.1103 107.737C56.1846 108.059 52.1335 107.083 48.1005 105.568C47.8868 105.491 47.6672 105.407 47.4536 105.322C41.2982 102.928 35.3043 99.3675 33.518 97.3676C33.518 97.3676 17.9846 82.0218 24.6635 72.8303C31.3425 63.6389 34.858 68.4944 39.2009 65.9889C43.5439 63.4834 40.7054 42.8499 41.0324 33.7928C41.3594 24.7358 51.7253 13.2044 58.5727 21.3918C65.4202 29.5793 54.8968 61.2107 57.7372 66.4403C60.5777 71.6699 72.3197 66.4924 72.5464 80.3558C72.7731 94.2192 66.6639 106.901 59.1103 107.737Z" fill="url(#paint10_linear_485_7322)"/>
<path d="M62.6382 78.8694C59.7386 87.2945 49.162 99.6715 48.1851 100.804C48.14 102.487 48.1139 104.086 48.1009 105.567C47.8872 105.49 47.6676 105.406 47.4539 105.321C47.467 103.878 47.4991 102.331 47.5382 100.7C47.6285 97.2372 47.7649 93.4048 47.9464 89.3657C41.5975 85.094 36.2184 75.3529 35.9917 74.9327C35.9558 74.8576 35.95 74.7716 35.9756 74.6925C36.0011 74.6133 36.0561 74.5469 36.1291 74.5071C36.2022 74.4672 36.2877 74.4569 36.3682 74.4782C36.4486 74.4995 36.5178 74.5509 36.5614 74.6217C36.6136 74.722 41.9014 84.2976 47.9785 88.6024C49.0988 63.6841 51.5772 31.4378 51.6093 31.0036C51.6105 30.9594 51.6207 30.916 51.6393 30.876C51.6578 30.836 51.6843 30.8001 51.7171 30.7706C51.75 30.7412 51.7885 30.7187 51.8303 30.7046C51.8721 30.6905 51.9163 30.685 51.9603 30.6886C52.0043 30.6921 52.0471 30.7046 52.0861 30.7252C52.1251 30.7458 52.1595 30.7742 52.1872 30.8085C52.2149 30.8429 52.2353 30.8825 52.2472 30.925C52.259 30.9675 52.2621 31.012 52.2563 31.0557C52.2171 31.5572 48.8972 74.7702 48.2112 99.7738C50.5863 96.9654 59.4447 86.1812 62.0304 78.6538C62.0436 78.6135 62.0648 78.5763 62.0926 78.5443C62.1204 78.5123 62.1543 78.4862 62.1923 78.4675C62.2304 78.4488 62.2717 78.4379 62.314 78.4355C62.3563 78.433 62.3987 78.439 62.4387 78.4532C62.5201 78.4822 62.5867 78.5423 62.6241 78.6202C62.6615 78.6982 62.6665 78.7877 62.6382 78.8694Z" fill="white"/>
<path d="M54.3375 121.069C52.9133 128.923 50.7147 136.617 47.7739 144.038C47.6646 144.31 47.5542 144.582 47.4439 144.847C45.0488 150.64 42.447 155.003 40.3046 154.963C35.2946 154.879 27.5275 148.174 27.5275 148.174C26.7251 147.031 23.7672 136.983 12.7443 128.141C1.72145 119.3 -4.74986 105.484 4.24298 103.619C13.2358 101.755 19.7573 111.988 21.2588 103.995C22.7602 96.0025 3.45362 75.5104 6.47564 61.1866C8.48162 51.6913 14.7473 45.5038 23.7632 54.2158C32.7791 62.9278 30.7792 82.766 35.5434 85.8723C40.3076 88.9786 41.5563 76.5846 49.5692 83.0308C57.5821 89.4771 55.839 111.07 54.3375 121.069Z" fill="url(#paint11_linear_485_7322)"/>
<path d="M47.7729 144.034C47.6636 144.306 47.5533 144.578 47.4429 144.843C45.3788 140.506 43.2304 135.509 41.0739 130.177C26.5887 125.219 10.0704 112.972 9.90292 112.844C9.86625 112.819 9.83495 112.788 9.81094 112.751C9.78693 112.714 9.77071 112.672 9.76327 112.629C9.75583 112.586 9.75732 112.541 9.76766 112.498C9.778 112.455 9.79697 112.415 9.82341 112.38C9.84985 112.345 9.8832 112.315 9.92142 112.293C9.95964 112.271 10.0019 112.257 10.0457 112.252C10.0895 112.247 10.1338 112.251 10.176 112.264C10.2182 112.277 10.2574 112.298 10.2911 112.326C10.4526 112.45 26.4984 124.339 40.751 129.377C40.4922 128.73 40.2331 128.076 39.9737 127.415C39.9463 127.38 39.9287 127.337 39.9225 127.293C29.4914 100.95 19.3611 68.3089 19.2237 67.8827C19.1999 67.8002 19.2087 67.7117 19.2486 67.6356C19.2884 67.5596 19.356 67.5018 19.4374 67.4744C19.5198 67.4492 19.6089 67.4575 19.6853 67.4975C19.7617 67.5375 19.8193 67.606 19.8456 67.6881C19.975 68.1093 29.8645 99.9534 40.1432 126.088C41.1853 120.917 45.5543 98.5803 45.2303 90.1732C45.2283 90.1307 45.2348 90.0882 45.2493 90.0483C45.2639 90.0083 45.2862 89.9716 45.315 89.9403C45.3439 89.9091 45.3786 89.8839 45.4173 89.8661C45.456 89.8484 45.4978 89.8386 45.5403 89.8372C45.6259 89.835 45.7089 89.8662 45.7719 89.9243C45.8348 89.9823 45.8726 90.0626 45.8773 90.1481C46.2333 99.4168 40.9626 125.313 40.5825 127.197C43.0047 133.316 45.444 139.095 47.7729 144.034Z" fill="white"/>
<path d="M167.04 56.651C166.985 53.8446 166.291 51.0878 165.01 48.5899C163.73 46.092 161.897 43.9187 159.651 42.2353C157.405 40.5519 154.805 39.4026 152.048 38.8748C149.291 38.3469 146.45 38.4543 143.741 39.1889C141.032 39.9235 138.526 41.2659 136.413 43.1141C134.301 44.9624 132.637 47.2678 131.549 49.8553C130.461 52.4428 129.977 55.2442 130.134 58.0467C130.291 60.8493 131.085 63.5792 132.455 66.029C130.738 68.4121 127.352 72.071 122.552 72.4381C122.552 72.4381 130.877 74.6287 137.25 71.5976C140.004 73.736 143.306 75.0512 146.776 75.3911C150.246 75.731 153.741 75.0818 156.857 73.5184C159.973 71.9551 162.583 69.5416 164.385 66.557C166.187 63.5724 167.107 60.1387 167.039 56.653L167.04 56.651Z" fill="white"/>
<path d="M139.085 54.3312C139.085 54.3312 145.662 57.5598 148.413 64.3099C148.413 64.3099 159.267 47.2019 172.191 44.7295L169.382 35.7728C169.382 35.7728 152.697 46.4406 148.411 57.5618C148.411 57.5618 143.547 50.1336 139.813 49.8077L139.085 54.3312Z" fill="url(#paint12_linear_485_7322)"/>
<path d="M89.2882 87.9183C88.8712 89.4654 88.6966 91.0678 88.7707 92.6685C88.6999 93.5843 88.4421 94.4758 88.0132 95.2881C87.5843 96.1004 86.9934 96.8161 86.2771 97.391C85.5608 97.966 84.7342 98.388 83.8483 98.631C82.9625 98.874 82.0363 98.9328 81.1269 98.8038C73.9876 98.3023 67.4501 91.516 67.085 87.2694C67.085 87.2694 69.2665 83.7218 70.9686 80.1752C71.8343 78.5303 72.4868 76.7816 72.9104 74.9717L91.6804 81.444C90.6653 83.5153 89.8638 85.6846 89.2882 87.9183Z" fill="url(#paint13_linear_485_7322)"/>
<path d="M91.6814 81.443C90.6657 83.5136 89.8635 85.6822 89.2872 87.9153C87.004 89.2043 84.5536 90.1713 82.0055 90.7889C77.6043 91.6695 73.2032 84.5101 70.9725 80.1742C71.8383 78.5293 72.4908 76.7807 72.9143 74.9707L91.6814 81.443Z" fill="url(#paint14_linear_485_7322)"/>
<path d="M100.789 62.2286C100.789 62.2286 101.993 61.9659 102.293 63.013C102.594 64.0601 101.052 69.7722 101.052 69.7722C101.052 69.7722 99.6064 64.5135 100.789 62.2286Z" fill="url(#paint15_linear_485_7322)"/>
<path d="M64.1039 52.0493C64.1039 52.0493 63.484 59.5928 63.5191 61.9067C63.5542 64.2206 65.1239 72.6688 65.5462 73.1522C65.9684 73.6357 66.9945 74.7811 66.9945 74.7811L68.8049 52.0493L66.2603 50.7795L64.1039 52.0493Z" fill="url(#paint16_linear_485_7322)"/>
<path d="M103.192 52.1386C103.276 55.284 102.266 58.5206 101.496 61.99C101.444 62.216 101.399 62.436 101.36 62.6499C100.914 65.0937 100.792 67.5855 100.997 70.0611C101.114 71.7357 101.071 73.4177 100.868 75.0841C100.247 79.4461 87.7737 89.4269 83.4157 88.1781C79.0577 86.9294 68.445 78.8262 67.2023 75.7059C65.9596 72.5856 64.7038 55.7514 64.7038 55.7514C64.7038 48.8969 67.8232 43.2791 74.6846 38.2993C81.5461 33.3194 98.3803 41.4086 101.5 46.4025C102.584 48.121 103.169 50.1068 103.192 52.1386Z" fill="url(#paint17_linear_485_7322)"/>
<path opacity="0.57" d="M103.19 52.1375C103.275 55.2829 102.265 58.5195 101.494 61.9889C101.443 62.2149 101.398 62.4349 101.359 62.6488C97.347 62.5776 90.1355 60.2738 87.2679 59.4322C83.948 58.4553 72.9903 53.2709 72.9903 53.2709C74.7915 50.9767 76.9509 48.9879 79.3854 47.3813C83.0292 45.1286 93.6279 47.2579 93.6279 47.2579C93.6279 47.2579 99.6117 49.9499 103.19 52.1375Z" fill="url(#paint18_linear_485_7322)"/>
<path d="M66.5661 64.2828C66.5844 65.0105 66.5489 65.7387 66.4598 66.4613C66.0077 66.3703 65.5631 66.2453 65.1299 66.0872C64.9293 66.0179 64.7116 65.9367 64.4869 65.8374C62.8882 65.1443 60.8962 63.7712 60.9213 61.2166C60.9404 58.332 62.4759 57.0271 64.0617 56.8335C64.3146 56.8062 64.5696 56.8039 64.8229 56.8265C65.1087 56.8562 65.3897 56.9212 65.6594 57.0201H65.6655C65.849 57.086 66.0265 57.1675 66.196 57.2638C66.202 57.2638 66.2081 57.2698 66.2151 57.2889C66.2211 57.3762 66.2833 58.1003 66.3585 59.1244V59.1314C66.4538 60.5807 66.5661 62.6278 66.5661 64.2828Z" fill="url(#paint19_linear_485_7322)"/>
<path d="M74.2614 51.4034L72.4159 54.964C71.1963 56.3858 70.2169 57.997 69.5162 59.7343C68.8355 61.7025 68.0101 63.6178 67.0469 65.4644C66.8431 65.0909 66.688 64.6928 66.5855 64.2798C66.2522 62.5864 66.1681 60.8533 66.3358 59.1355V59.1295C66.2485 58.0382 66.1803 57.2839 66.1803 57.2839C65.5273 56.9092 64.7691 56.7601 64.0229 56.8597L63.9918 56.8286L64.3348 52.2088L74.2614 51.4034Z" fill="url(#paint20_linear_485_7322)"/>
<path d="M89.0609 67.2386C89.0098 67.1435 88.9646 67.0453 88.9255 66.9447C88.849 66.7408 88.786 66.532 88.737 66.3198C88.6878 66.1132 88.6447 65.9036 88.5975 65.697C88.5705 65.5806 88.5424 65.4643 88.5103 65.3489C88.4898 65.2224 88.4385 65.1029 88.3608 65.0009C88.339 64.9796 88.312 64.9643 88.2825 64.9565C88.253 64.9487 88.222 64.9487 88.1925 64.9565C88.163 64.9643 88.1361 64.9796 88.1142 65.0009C88.0924 65.0222 88.0765 65.0488 88.068 65.0781C88.0557 65.2069 88.0693 65.3368 88.1081 65.4602C88.1311 65.5786 88.1502 65.697 88.1683 65.8153C88.2024 66.04 88.2294 66.2657 88.2686 66.4903C88.3014 66.7061 88.3497 66.9193 88.413 67.1282C88.4517 67.2508 88.4966 67.3713 88.5474 67.4893C88.5903 67.6268 88.6681 67.7508 88.7731 67.8494C88.8156 67.8891 88.8698 67.9141 88.9276 67.9207C88.9855 67.9272 89.0439 67.9149 89.0942 67.8856C89.1445 67.8564 89.1841 67.8117 89.207 67.7582C89.2299 67.7047 89.2349 67.6452 89.2214 67.5886C89.1876 67.4639 89.1333 67.3456 89.0609 67.2386Z" fill="#E3837F"/>
<path d="M95.8711 61.3692C95.6916 60.9103 95.342 60.5385 94.8951 60.331C94.4562 60.0859 93.9791 59.9164 93.4839 59.8296C92.9697 59.7182 92.4331 59.7785 91.9564 60.0011C91.7385 60.111 91.5362 60.2493 91.3546 60.4123C91.1393 60.5875 90.9555 60.7982 90.811 61.0352C90.8028 61.0508 90.7992 61.0684 90.8006 61.086C90.8019 61.1036 90.8081 61.1204 90.8186 61.1346C90.829 61.1488 90.8432 61.1598 90.8596 61.1664C90.876 61.1729 90.8939 61.1747 90.9113 61.1716C91.3058 60.983 91.6807 60.7558 92.0306 60.4935C92.4353 60.2957 92.8961 60.2443 93.3345 60.3481C93.739 60.3992 94.128 60.5362 94.4754 60.7498C94.8227 60.9634 95.1204 61.2488 95.3485 61.5868C95.3809 61.6506 95.4363 61.6998 95.5034 61.7246C95.5706 61.7493 95.6446 61.7477 95.7107 61.7202C95.7768 61.6927 95.83 61.6412 95.8597 61.5761C95.8895 61.511 95.8935 61.4371 95.8711 61.3692Z" fill="#55379F"/>
<path d="M95.6938 56.4012C95.445 56.1301 95.1259 55.9332 94.772 55.8325C94.3901 55.7002 93.9896 55.6288 93.5855 55.6208C93.2112 55.5965 92.8358 55.6479 92.4818 55.772C92.1279 55.8961 91.8025 56.0903 91.5253 56.343C91.4912 56.3771 91.5364 56.4433 91.5785 56.4122C92.1873 56.0692 92.895 55.9442 93.5845 56.0581C94.2511 56.1095 94.8899 56.3473 95.428 56.7442C95.6557 56.8916 95.8342 56.5827 95.6938 56.4012Z" fill="#55379F"/>
<path d="M84.7316 60.2868C84.5215 60.1277 84.3018 59.9816 84.0737 59.8495C83.6198 59.5918 83.11 59.4482 82.5883 59.4312C82.1037 59.3799 81.614 59.4478 81.1617 59.6291C80.7095 59.8104 80.3084 60.0996 79.9935 60.4714C79.9413 60.5586 80.0497 60.683 80.14 60.6178C80.8682 60.1144 81.7463 59.8741 82.6294 59.9368C83.0786 59.9819 83.5119 60.1276 83.8972 60.363C84.0977 60.4784 84.2813 60.6088 84.4658 60.7432C84.6504 60.8776 84.849 61.0982 85.0957 61.0671C85.1233 61.0664 85.1504 61.0596 85.175 61.047C85.1996 61.0344 85.221 61.0165 85.2378 60.9946C85.2545 60.9727 85.2661 60.9472 85.2718 60.9202C85.2774 60.8932 85.2769 60.8652 85.2703 60.8384C85.2281 60.5877 84.9252 60.4332 84.7316 60.2868Z" fill="#55379F"/>
<path d="M84.8277 55.8997C84.517 55.7048 84.1826 55.5504 83.8327 55.4404C83.5005 55.3043 83.1512 55.2145 82.7946 55.1736C82.4581 55.1393 82.1181 55.1808 81.7997 55.2949C81.4494 55.4271 81.148 55.6634 80.9361 55.972C80.8969 56.0241 80.9712 56.0903 81.0223 56.0592C81.5564 55.6686 82.2216 55.5013 82.8769 55.5928C83.1758 55.6511 83.4681 55.7391 83.7495 55.8556C84.0503 56.0091 84.3621 56.1402 84.6822 56.2478C84.7266 56.2592 84.7736 56.2543 84.8146 56.2339C84.8556 56.2135 84.8879 56.179 84.9056 56.1367C84.9233 56.0944 84.9251 56.0472 84.9108 56.0037C84.8965 55.9602 84.867 55.9233 84.8277 55.8997Z" fill="#55379F"/>
<path d="M103.886 50.7785C103.714 52.2628 103.412 53.7291 102.983 55.1606C102.983 55.1606 93.7469 49.3553 90.5303 49.5167C87.3137 49.6782 78.5435 52.5719 78.5435 52.5719L74.8414 53.4194C74.2587 53.3873 73.6318 53.3351 72.9909 53.2709H72.9779C68.9198 52.8828 64.1044 52.0483 64.1044 52.0483C64.1044 52.0483 65.2629 46.5399 67.1976 43.4847C68.7558 41.3215 70.7545 39.5129 73.0621 38.1779H73.0692C76.8056 35.7973 81.2408 34.7588 85.6457 35.2331C91.6717 35.9904 97.8661 39.6994 100.009 42.1327C102.151 44.566 104.129 48.5007 103.886 50.7785Z" fill="url(#paint21_linear_485_7322)"/>
<path d="M116.329 57.284L89.6562 53.253C93.3323 51.1468 97.3887 49.7884 101.592 49.2561C109.325 48.1277 114.136 53.6101 115.734 55.8277C115.734 55.8337 115.74 55.8397 115.746 55.8447C115.972 56.311 116.167 56.7918 116.329 57.284Z" fill="url(#paint22_linear_485_7322)"/>
<path d="M116.329 57.2829C116.329 57.2829 115.735 55.8315 115.735 55.8255C114.13 53.6089 109.32 48.1255 101.592 49.2539C97.3893 49.7862 93.3329 51.1446 89.6568 53.2508C88.9011 53.6825 88.189 54.1863 87.5305 54.7553L74.8386 53.4193C74.8386 53.4193 82.5897 46.2078 89.6568 45.3954C96.7239 44.583 108.655 47.1807 112.301 50.5217C114.367 52.2577 115.786 54.64 116.329 57.2829Z" fill="url(#paint23_linear_485_7322)"/>
<path style="mix-blend-mode:multiply" opacity="0.56" d="M72.9939 53.2709H72.9808C68.9227 52.8827 64.1073 52.0482 64.1073 52.0482C64.1073 52.0482 65.2658 46.5398 67.2006 43.4847C68.7587 41.3214 70.7574 39.5128 73.0651 38.1778H73.0721C76.0239 37.7375 79.4993 37.556 79.9847 39.0123C80.8343 41.601 72.9939 53.2709 72.9939 53.2709Z" fill="url(#paint24_linear_485_7322)"/>
<path d="M116.33 121.232L114.686 121.393L111.677 121.694L106.817 122.173L98.5451 122.988V94.0667C99.9329 94.8883 101.259 95.8098 102.513 96.824C102.513 96.824 102.526 96.831 102.526 96.837C102.94 97.16 103.373 97.516 103.808 97.8992L103.808 97.902L103.809 97.9045L103.812 97.906L103.815 97.9062C104.384 98.4077 104.967 98.9483 105.537 99.524C106.508 100.504 107.395 101.562 108.191 102.688C111.865 107.95 116.33 121.232 116.33 121.232Z" fill="url(#paint25_linear_485_7322)"/>
<path style="mix-blend-mode:screen" opacity="0.58" d="M116.331 121.231L114.687 121.392C113.793 118.065 110.085 104.919 105.536 99.522C106.506 100.501 107.394 101.56 108.19 102.686C111.865 107.95 116.331 121.231 116.331 121.231Z" fill="url(#paint26_linear_485_7322)"/>
<path style="mix-blend-mode:multiply" opacity="0.72" d="M111.677 121.691L106.817 122.17C106.764 117.607 106.3 113.058 105.432 108.578C104.386 104.511 102.741 100.621 100.551 97.0376C100.916 97.2834 109.464 103.206 111.677 121.691Z" fill="url(#paint27_linear_485_7322)"/>
<path d="M106.726 136.493C106.553 142.158 105.884 147.796 104.726 153.344C102.435 162.787 100.467 185.065 99.7939 193.305C90.2663 191.283 80.9342 188.431 71.9047 184.779C62.5088 181.071 53.6498 176.125 45.562 170.074C45.4617 159.843 44.7466 145.653 43.7567 139.482C43.4716 137.163 43.3483 134.827 43.3875 132.491C43.3555 119.08 45.4778 94.7507 47.9311 93.3857C50.9401 91.7087 63.303 89.2042 63.303 89.2042C63.303 89.2042 70.7663 97.3535 82.0078 97.5601C83.9508 97.6125 85.8594 97.0403 87.4531 95.9277C89.0468 94.8151 90.2417 93.2207 90.8622 91.3787L98.5452 94.0717C99.2631 95.0227 99.9288 96.0122 100.539 97.0356C100.544 97.0362 100.549 97.0387 100.552 97.0426C102.742 100.626 104.387 104.516 105.433 108.583C106.713 113.838 107.224 125.587 106.726 136.493Z" fill="url(#paint28_linear_485_7322)"/>
<path style="mix-blend-mode:multiply" opacity="0.72" d="M89.6848 179.729C87.0062 181.144 84.2076 182.319 81.3218 183.24C80.04 183.615 76.3309 184.185 71.8937 184.78C62.5007 181.069 53.6447 176.122 45.5601 170.069C45.4598 159.839 44.7446 145.649 43.7547 139.478C43.4697 137.159 43.3463 134.823 43.3856 132.487L44.2592 125.115L56.6672 98.8308C58.7522 103.982 59.5798 109.555 59.0814 115.089C59.0814 115.089 57.0494 131.238 56.6672 136.526C56.2851 141.815 56.6672 168.377 56.6672 168.377L89.6848 179.729Z" fill="url(#paint29_linear_485_7322)"/>
<path d="M67.0876 87.2684C67.0876 87.2684 70.9812 94.5441 82.0051 97.5511L78.8316 105.234C78.8316 105.234 66.4717 98.3856 63.2983 89.1991L67.0876 87.2684Z" fill="url(#paint30_linear_485_7322)"/>
<path d="M82.0084 97.5531C83.6694 96.9761 85.1632 95.9999 86.3584 94.7102C87.5536 93.4206 88.4137 91.857 88.8629 90.157L90.8608 91.3726C90.4729 95.6726 89.4592 99.8929 87.8519 103.9L82.0084 97.5531Z" fill="url(#paint31_linear_485_7322)"/>
<path d="M152.012 174.592L96.0278 168.722L102.981 106.948L158.916 113.244L152.012 174.592Z" fill="url(#paint32_linear_485_7322)"/>
<path d="M158.921 113.245L177.358 111.941L170.452 173.289L152.015 174.593L158.921 113.245Z" fill="url(#paint33_linear_485_7322)"/>
<path d="M102.98 106.948L122.096 105.716L177.353 111.935L158.916 113.239L102.98 106.948Z" fill="url(#paint34_linear_485_7322)"/>
<path d="M93.6512 175.595C93.5729 176.029 93.4827 176.463 93.3663 176.899C92.0263 181.914 89.6904 179.734 89.6904 179.734C89.3587 177.857 89.3829 175.933 89.7615 174.064C90.3328 171.281 91.5059 168.657 93.1988 166.375C93.9429 169.391 94.0965 172.521 93.6512 175.595Z" fill="url(#paint35_linear_485_7322)"/>
<path d="M89.4964 176.079C89.4054 177.299 89.4708 178.526 89.6909 179.729C89.6909 179.729 48.0988 170.377 39.5804 166.869C31.062 163.36 28.053 157.685 27.5545 151.503C27.056 145.322 34.7389 108.915 38.9134 102.228C43.0879 95.5411 46.7648 93.3806 47.9293 93.3806C47.9293 93.3806 55.2822 92.2091 57.1197 100.39C58.9572 108.57 48.9453 145.49 47.0898 152.008C47.0949 152.008 47.0995 152.011 47.1028 152.015C47.1099 152.008 47.1099 152.008 47.1159 152.015V152.022C47.7949 152.196 63.5038 156.41 72.6491 159.019C82.002 161.691 93.1924 166.371 93.1924 166.371C91.4995 168.653 90.3263 171.277 89.7551 174.06C89.6278 174.728 89.5414 175.402 89.4964 176.079Z" fill="url(#paint36_linear_485_7322)"/>
<path style="mix-blend-mode:screen" opacity="0.58" d="M93.1987 166.37C91.5058 168.652 90.3326 171.276 89.7614 174.059C89.6317 174.727 89.5429 175.401 89.4956 176.079C89.3119 173.058 89.7777 170.032 90.8617 167.205C90.8617 167.205 63.2172 157.768 59.8692 156.681C56.6325 155.625 47.6748 152.227 47.1182 152.021C47.7972 152.195 63.5061 156.409 72.6514 159.017C82.0073 161.69 93.1987 166.37 93.1987 166.37Z" fill="url(#paint37_linear_485_7322)"/>
<path d="M122.098 171.456C122.098 171.456 117.832 174.85 115.457 175.347C113.082 175.845 107.813 179.354 103.554 178.356C100.445 177.625 96.1822 176.435 93.6516 175.592C92.9803 175.393 92.3245 175.144 91.6898 174.848C91.0666 174.539 90.422 174.274 89.761 174.057C89.9449 173.133 90.2005 172.224 90.5253 171.339C91.1645 169.559 92.0654 167.884 93.1983 166.369C93.1983 166.369 96.791 166.284 98.6285 164.951C100.466 163.618 105.89 164.032 107.897 161.441C108.304 161.544 108.678 161.746 108.986 162.03C109.295 162.313 109.528 162.669 109.664 163.066C109.8 163.512 109.824 163.985 109.736 164.444C109.314 166.951 107.315 167.453 105.477 167.699C104.273 167.922 103.165 168.504 102.299 169.369L122.098 171.456Z" fill="url(#paint38_linear_485_7322)"/>
<path d="M122.098 171.456C122.098 171.456 117.832 174.85 115.457 175.347C113.082 175.845 107.813 179.354 103.554 178.356C100.445 177.625 96.1822 176.435 93.6516 175.592C92.9803 175.393 92.3245 175.144 91.6898 174.848C91.0666 174.539 90.422 174.274 89.761 174.057C89.9449 173.133 90.2005 172.224 90.5253 171.339C95.3447 172.528 100.092 173.991 104.745 175.721C109.393 177.708 112.887 174.343 114.574 173.845C115.769 173.408 116.859 172.725 117.772 171.839L102.296 169.374L122.098 171.456Z" fill="url(#paint39_linear_485_7322)"/>
<path d="M109.734 164.444C109.313 166.951 107.314 167.453 105.475 167.699C104.272 167.922 103.164 168.504 102.298 169.369C102.298 169.369 99.5468 169.848 99.4174 169.369C99.288 168.891 100.861 167.388 102.426 167.324C104.304 167.214 106.12 166.609 107.688 165.57C108.401 164.779 109.06 163.941 109.662 163.063C109.798 163.51 109.823 163.984 109.734 164.444Z" fill="url(#paint40_linear_485_7322)"/>
<path d="M225.988 86.6906C225.613 87.8696 224.975 88.9478 224.122 89.8441C219.564 94.9393 209.205 97.5922 209.205 97.5922C207.002 98.6739 204.723 99.5921 202.385 100.339C201.601 100.627 200.758 100.715 199.931 100.595C199.174 100.126 198.54 99.4814 198.084 98.7155C196.906 97.0147 195.86 95.2258 194.956 93.3646C194.724 92.9085 194.506 92.4465 194.3 91.9784C193.319 89.9908 192.62 87.8767 192.22 85.6967C192.184 85.4445 192.166 85.1902 192.164 84.9354C192.164 80.6767 194.294 77.424 194.294 73.2907C194.294 69.1573 193.67 58.2117 203.441 54.3471C213.212 50.4826 222.104 54.1225 225.738 62.3891C229.371 70.6558 228.118 79.5544 225.988 86.6906Z" fill="url(#paint41_linear_485_7322)"/>
<path d="M196.667 82.8532C196.536 83.5553 196.396 84.2574 196.233 84.9595C196.179 85.2674 196.043 85.5553 195.841 85.7936C195.638 86.0319 195.376 86.212 195.081 86.3155C194.891 88.2082 194.639 90.156 194.302 91.9795C194.509 92.4448 194.729 92.9052 194.955 93.3646C196.334 90.0025 197.25 86.4693 197.681 82.8612C197.347 82.9422 196.999 82.9395 196.667 82.8532Z" fill="url(#paint42_linear_485_7322)"/>
<path d="M198.455 84.4309C199.021 84.9795 199.742 85.3406 200.521 85.465C201.565 85.5071 203.235 82.7509 203.235 82.7509L201.773 79.4932L199.149 79.0499L198.455 84.4309Z" fill="url(#paint43_linear_485_7322)"/>
<path d="M224.12 89.845C219.563 94.9382 209.207 97.5922 209.207 97.5922C207.004 98.6735 204.725 99.5907 202.387 100.336C201.563 100.313 200.758 100.079 200.05 99.6563C199.558 98.9703 200.496 95.9673 202.632 93.7728C204.769 91.5782 209.895 89.824 212.84 89.0737C215.785 88.3235 221.357 88.8862 221.357 88.8862C221.357 88.8862 223.356 88.7377 224.12 89.845Z" fill="url(#paint44_linear_485_7322)"/>
<path d="M224.366 87.2955C223.941 89.1671 223.664 91.0693 223.538 92.9844C223.111 98.0335 223.111 103.709 223.111 103.709L221.117 103.994L208.078 105.839L205.418 106.317C207.05 103.055 207.832 96.6885 207.832 96.6885C207.832 96.6885 211.133 94.0606 214.79 91.4519V91.4448C219.622 88.0076 225.078 84.5904 224.366 87.2955Z" fill="url(#paint45_linear_485_7322)"/>
<path d="M223.537 92.9844C223.11 98.0335 223.11 103.709 223.11 103.709L221.116 103.994C221.064 103.955 221.016 103.923 220.968 103.884C218.586 102.079 214.256 93.3665 214.256 93.3665L217.828 91.0366L223.537 92.9844Z" fill="url(#paint46_linear_485_7322)"/>
<path d="M214.788 91.3526C214.788 91.3526 213.092 94.9634 212.28 96.7828C211.626 98.2462 209.057 103.603 208.08 105.735L205.421 106.316C207.053 103.055 207.833 96.5872 207.833 96.5872C207.833 96.5872 211.13 93.9614 214.788 91.3526Z" fill="url(#paint47_linear_485_7322)"/>
<path d="M199.964 81.6576C199.815 83.3436 199.453 84.6987 198.847 84.6355C198.696 84.6136 198.558 84.5411 198.454 84.4299C198.255 82.2046 198.214 79.968 198.329 77.7369C198.361 77.3848 198.411 77.0347 198.479 76.6878C198.61 76.0629 198.797 75.6386 199.08 75.5323C199.877 75.2455 200.214 78.8923 199.964 81.6576Z" fill="url(#paint48_linear_485_7322)"/>
<path d="M230.576 162.914C230.573 162.925 230.57 162.935 230.569 162.946C230.446 163.568 230.336 168.752 230.233 169.257C229.702 169.703 229.172 170.16 228.634 170.597C228.619 170.613 228.601 170.626 228.582 170.636C226.951 171.834 225.288 173.001 223.592 174.138C218.097 177.829 212.333 181.105 206.349 183.937C202.991 185.516 199.556 186.946 196.045 188.228C194.045 188.963 192.022 189.654 189.974 190.299C190.174 187.225 190.375 182.947 190.556 181.199C190.686 179.949 190.802 178.7 190.912 177.477C191.023 176.253 191.1 175.055 191.165 173.923C191.171 173.813 191.178 173.696 191.184 173.587C191.197 173.251 191.217 172.92 191.229 172.597C191.309 171.045 191.303 169.489 191.21 167.937C191.177 167.568 191.139 167.225 191.094 166.921C191.049 166.592 190.971 166.269 190.861 165.956C190.822 165.847 190.777 165.737 190.732 165.626C190.713 165.574 190.693 165.526 190.674 165.478C190.573 165.225 190.466 164.986 190.357 164.753C190.266 164.552 190.169 164.351 190.072 164.164C189.903 163.834 189.729 163.523 189.547 163.212C189.418 162.985 189.289 162.766 189.159 162.539C189.088 162.423 189.017 162.306 188.945 162.183C188.874 162.06 188.803 161.95 188.739 161.827C188.204 160.95 187.722 160.042 187.296 159.108C187.172 158.843 187.062 158.564 186.953 158.273C186.894 158.118 186.836 157.962 186.784 157.808C186.745 157.708 186.719 157.613 186.684 157.516C186.66 157.45 186.641 157.383 186.626 157.315C186.6 157.244 186.58 157.173 186.56 157.102C186.547 157.057 186.541 157.018 186.528 156.972C186.502 156.895 186.483 156.818 186.463 156.733L186.386 156.442C186.373 156.384 186.353 156.325 186.341 156.267C186.302 156.106 186.262 155.937 186.224 155.766C186.14 155.365 186.069 154.937 186.011 154.49C185.979 154.282 185.953 154.07 185.926 153.856C185.874 153.403 185.836 152.93 185.826 152.426C185.821 152.407 185.818 152.387 185.819 152.368C185.806 152.141 185.793 151.908 185.793 151.666C185.794 151.601 185.792 151.536 185.786 151.471V151.419C185.786 151.244 185.779 151.07 185.779 150.888V150.403C185.98 147.057 186.523 143.741 187.398 140.506C187.715 139.166 188.084 137.762 188.485 136.332C188.802 135.186 189.143 134.024 189.507 132.843C189.863 131.666 190.238 130.481 190.627 129.303C190.821 128.714 191.022 128.125 191.222 127.537C191.423 126.948 191.623 126.365 191.831 125.782C193.565 120.595 195.775 115.579 198.433 110.799C198.928 109.952 199.493 109.149 200.122 108.397C200.142 108.391 200.167 108.378 200.187 108.371C200.879 108.086 207.028 105.582 211.973 103.886L212.018 103.867C213.209 103.459 214.335 103.097 215.293 102.825C215.976 102.63 216.673 102.49 217.377 102.405C221.037 102.109 224.718 102.567 228.193 103.751C229.474 105.239 238.309 115.692 239.39 121.439C240.563 127.639 232.375 156.661 230.576 162.914Z" fill="url(#paint49_linear_485_7322)"/>
<path d="M230.576 162.914C230.573 162.925 230.57 162.935 230.569 162.946C230.446 163.568 230.336 168.752 230.233 169.257C229.702 169.703 229.172 170.16 228.634 170.597C228.619 170.613 228.601 170.626 228.582 170.636C226.951 171.834 225.288 173.001 223.592 174.138C223.692 170.455 223.877 164.856 224.07 164.054C225.041 160.048 225.358 147.018 225.358 140.131V110.435C225.358 104.3 217.371 102.412 217.371 102.412L217.377 102.405C221.037 102.109 224.718 102.567 228.193 103.751C229.474 105.239 238.309 115.692 239.39 121.439C240.563 127.639 232.375 156.661 230.576 162.914Z" fill="url(#paint50_linear_485_7322)"/>
<path d="M205.919 126.091C205.919 126.091 199.809 147.645 198.684 151.652C197.558 155.658 194.922 173.573 193.299 177.205C192.55 178.641 191.63 179.982 190.56 181.199C191.233 174.7 191.642 168.105 190.861 165.953C189.172 161.286 185.658 159.545 185.78 150.4C185.845 145.371 188.524 135.073 191.832 125.778L201.813 118.982L205.919 126.091Z" fill="url(#paint51_linear_485_7322)"/>
<path d="M175.518 139.062L168.463 147.321V147.328L165.913 150.31C165.913 150.31 145.652 151.806 131.563 149.139C131.556 149.151 131.547 149.162 131.537 149.171C131.31 148.87 129.602 146.646 127.996 146.129C126.268 145.572 123.005 140.873 122.326 140.129C122.326 140.129 120.773 141.915 121.136 143.494C121.499 145.073 123.35 145.636 123.363 146.212C123.376 146.788 115.518 142.349 113.925 142.212C112.488 142.09 110.955 144.09 110.321 145.215C110.255 145.332 110.197 145.442 110.152 145.538C109.789 146.289 110.262 149.422 111.097 151.997C111.345 152.814 111.67 153.605 112.068 154.361C112.184 154.553 112.347 154.713 112.54 154.827C115.421 156.743 128.187 156.102 128.187 156.102L128.213 156.044C129.146 156.289 156.09 163.241 174.388 161.053L182.498 152.503L175.518 139.062Z" fill="url(#paint52_linear_485_7322)"/>
<path d="M175.518 139.062L168.463 147.321V147.328C168.139 150.537 168.36 153.778 169.117 156.913C169.117 156.913 153.836 158.919 146.068 157.663C138.301 156.408 128.69 155.069 128.69 155.069L128.405 155.029C126.9 154.829 119.76 153.847 115.446 153.024C115.446 153.013 115.003 151.392 116.016 150.772C117.029 150.152 120.792 150.27 120.792 150.27C120.792 150.27 119.006 149.584 117.943 149.331C116.881 149.079 115.374 148.393 114.682 148.167C113.624 147.806 112.597 147.358 111.614 146.827C111.106 146.356 110.669 145.813 110.319 145.215C110.253 145.332 110.195 145.442 110.15 145.538C109.787 146.289 110.261 149.422 111.095 151.997C111.343 152.814 111.668 153.605 112.066 154.361C112.117 154.447 112.179 154.527 112.25 154.597C112.269 154.615 112.292 154.631 112.312 154.649C114.65 156.778 128.183 156.102 128.183 156.102L128.209 156.044C129.142 156.289 156.086 163.241 174.384 161.053L182.494 152.503L175.518 139.062Z" fill="url(#paint53_linear_485_7322)"/>
<path d="M205.156 128.935C202.807 136.695 192.794 146.966 185.888 153.362C182.004 156.96 179.098 159.329 179.098 159.329C179.098 159.329 170.135 158.514 168.467 146.546C168.484 146.528 168.499 146.509 168.512 146.488C169.547 144.908 191.443 111.73 200.13 108.397C200.149 108.391 200.175 108.378 200.194 108.371C201.231 107.921 202.401 107.885 203.463 108.271C204.151 108.624 204.754 109.121 205.232 109.729C205.71 110.336 206.052 111.04 206.233 111.791C206.445 112.422 206.605 113.069 206.712 113.726C206.716 113.73 206.718 113.734 206.719 113.739C207.402 117.664 206.903 123.172 205.156 128.935Z" fill="url(#paint54_linear_485_7322)"/>
<path style="mix-blend-mode:color-dodge" opacity="0.58" d="M206.23 111.793C206.497 112.412 206.661 113.071 206.716 113.742C206.715 113.737 206.713 113.733 206.709 113.729C206.579 113.428 204.165 108.098 199.919 109.477C199.919 109.477 199.376 109.936 198.437 110.797C193.079 115.727 188.173 121.127 183.777 126.933C176.211 136.963 169.156 145.689 168.509 146.491C169.544 144.911 191.44 111.733 200.127 108.4C200.146 108.394 200.172 108.381 200.191 108.374C200.883 108.089 207.033 105.585 211.977 103.889L203.46 108.277L203.233 108.393C204.551 109.2 205.596 110.385 206.23 111.793Z" fill="url(#paint55_linear_485_7322)"/>
<path d="M235.137 71.0369C235.027 68.9155 234.622 66.8198 233.933 64.8103C233.142 62.4818 232.038 60.2717 230.651 58.2407L230.644 58.2337H230.637C228.611 55.153 225.854 52.6207 222.613 50.8617C220.822 49.8722 218.893 49.1568 216.889 48.7393C216.889 48.7393 209.499 44.936 203.237 47.1075C196.974 49.2789 192.547 57.8806 191.628 63.9768C190.709 70.073 196.053 78.4009 196.053 78.4009C196.494 78.8079 197.015 79.1179 197.583 79.3107C198.151 79.5035 198.754 79.5749 199.351 79.5202C199.428 79.7058 199.501 79.8913 199.593 80.0789L199.599 80.0919C200.317 81.5334 201.234 82.8667 202.324 84.0527V84.0597C203.634 85.5159 205.068 86.8565 206.609 88.0667C207.185 88.5261 207.78 88.9794 208.382 89.4127C208.55 89.5481 215.353 94.8289 217.094 96.3835C218.854 97.9502 223.987 101.788 224.123 102.28C224.259 102.773 230.041 101.71 230.041 101.71L231.879 94.7135C232.843 91.0937 233.602 87.4222 234.151 83.7167C234.871 79.5296 235.201 75.2849 235.137 71.0369Z" fill="url(#paint56_linear_485_7322)"/>
<path style="mix-blend-mode:multiply" opacity="0.64" d="M232.047 94.1409C232.076 94.0406 232.106 93.9212 232.137 93.8009L232.146 93.7668C232.176 93.6494 232.208 93.524 232.241 93.3916L232.257 93.3254C232.287 93.2071 232.317 93.0827 232.348 92.9533L232.386 92.8009C232.412 92.6895 232.439 92.5762 232.467 92.4579C232.487 92.3726 232.507 92.2853 232.527 92.1961L232.592 91.9132L232.685 91.497C232.699 91.4368 232.713 91.3766 232.727 91.3155C233.027 89.9714 233.352 88.3486 233.672 86.5673L233.692 86.4529C233.734 86.2243 233.774 85.9936 233.815 85.7599C233.84 85.6144 233.865 85.468 233.889 85.3216L233.949 84.9655C233.99 84.7181 234.031 84.4687 234.072 84.2173C234.098 84.0528 234.125 83.8893 234.151 83.7228C234.872 79.5359 235.202 75.291 235.137 71.0429C235.027 68.9216 234.622 66.8259 233.933 64.8164C233.933 66.2336 233.894 67.6378 233.804 68.728C233.513 72.1382 231.376 77.078 230.211 79.0589C229.046 81.0398 227.454 77.3307 226.787 74.4892C226.133 71.719 219.357 63.4152 219.027 63.014C219.156 63.4352 222.612 74.406 222.528 78.5022C222.444 82.6767 216.515 86.6836 214.256 85.473C211.998 84.2624 199.428 75.6928 199.428 75.6928L199.59 80.0879L199.596 80.101C200.314 81.5428 201.231 82.8764 202.321 84.0628V84.0688C203.634 85.5231 205.068 86.8632 206.608 88.0748C206.622 88.0858 206.638 88.0968 206.652 88.1079C207.233 88.5712 207.828 89.0233 208.436 89.4639C209.09 89.9754 215.422 94.9001 217.093 96.3906C218.853 97.9573 223.985 101.795 224.122 102.287C224.258 102.78 230.04 101.717 230.04 101.717L231.878 94.7206C231.902 94.6457 231.928 94.5608 231.954 94.4658C231.979 94.3796 232.007 94.2813 232.035 94.179L232.047 94.1409Z" fill="url(#paint57_linear_485_7322)"/>
<path style="mix-blend-mode:multiply" opacity="0.64" d="M230.638 58.2337C230.425 58.0782 226.927 55.5868 226.125 54.9389C224.262 53.8033 222.337 52.7726 220.359 51.8517C218.946 51.1423 217.749 50.069 216.889 48.7424C218.894 49.1597 220.825 49.8755 222.618 50.8657C225.857 52.6242 228.612 55.1551 230.638 58.2337Z" fill="url(#paint58_linear_485_7322)"/>
<path d="M198.559 76.3597C197.81 91.0817 190.122 99.3874 190.122 99.3874C194.134 93.871 196.218 77.1721 196.218 77.1721L198.559 76.3597Z" fill="url(#paint59_linear_485_7322)"/>
<path d="M231.071 104.726C231.004 104.891 230.881 105.027 230.722 105.109C230.238 105.407 229.716 105.638 229.169 105.795C227.693 106.254 225.771 106.533 225.032 106.105C223.777 105.386 224.12 102.279 224.12 102.279C225.002 101.518 226.119 101.081 227.284 101.043C228.249 100.992 229.207 101.224 230.041 101.71C230.041 101.71 231.261 103.898 231.071 104.726Z" fill="url(#paint60_linear_485_7322)"/>
<path style="mix-blend-mode:multiply" opacity="0.56" d="M230.721 105.109C230.237 105.407 229.714 105.638 229.167 105.795L226.785 105.976L225.303 105.675C225.303 105.675 224.546 105.248 225.303 104.601C226.33 104.05 227.445 103.68 228.598 103.507C228.598 103.507 227.814 101.687 228.442 101.63C228.859 101.699 229.256 101.858 229.604 102.096C229.953 102.334 230.246 102.645 230.461 103.008C230.604 103.7 230.691 104.403 230.721 105.109Z" fill="url(#paint61_linear_485_7322)"/>
<path d="M242.915 129.392C242.52 136.531 231.356 153.722 230.942 154.344C231.078 153.806 233.777 143.36 232.56 137.748C231.939 134.907 230.508 132.473 229.05 129.813L229.044 129.806C227.262 126.84 225.993 123.595 225.29 120.208C224.45 115.4 224.45 110.484 225.29 105.676C225.295 105.676 225.299 105.673 225.303 105.669C226.895 104.174 230.384 104.672 230.384 104.672C239.324 108.35 243.31 122.13 242.915 129.392Z" fill="url(#paint62_linear_485_7322)"/>
<path style="mix-blend-mode:multiply" opacity="0.64" d="M227.118 106.595C227.118 106.595 231.965 109.184 233.801 118.12C233.801 118.118 229.869 109.894 227.118 106.595Z" fill="url(#paint63_linear_485_7322)"/>
<path style="mix-blend-mode:multiply" opacity="0.64" d="M242.915 129.392C242.52 136.531 231.355 153.722 230.941 154.343C231.078 153.806 233.777 143.36 232.56 137.748C231.938 134.907 230.508 132.473 229.05 129.813C231.467 132.51 233.336 135.652 234.551 139.063C236.369 133.905 235.166 127.684 235.166 127.684C237.457 132.027 235.968 141.211 235.968 141.211C238.143 137.373 239.561 132.111 239.509 129.476C239.457 126.841 234.795 112.234 231.084 108.389C227.544 104.725 225.479 105.587 225.297 105.67C226.89 104.175 230.379 104.673 230.379 104.673C239.323 108.35 243.309 122.13 242.915 129.392Z" fill="url(#paint64_linear_485_7322)"/>
<defs>
<linearGradient id="paint0_linear_485_7322" x1="128.795" y1="49.0027" x2="146.505" y2="198.206" gradientUnits="userSpaceOnUse">
<stop stop-color="#E4F2FF"/>
<stop offset="1" stop-color="#DEB5FF"/>
</linearGradient>
<linearGradient id="paint1_linear_485_7322" x1="108.625" y1="195.498" x2="170.377" y2="5.08406" gradientUnits="userSpaceOnUse">
<stop stop-color="#E4F2FF"/>
<stop offset="1" stop-color="#DEB5FF"/>
</linearGradient>
<linearGradient id="paint2_linear_485_7322" x1="172.244" y1="145.175" x2="171.441" y2="194.563" gradientUnits="userSpaceOnUse">
<stop stop-color="#0C45AD"/>
<stop offset="1" stop-color="#A1C7FF"/>
</linearGradient>
<linearGradient id="paint3_linear_485_7322" x1="119.998" y1="161.717" x2="119.885" y2="203.702" gradientUnits="userSpaceOnUse">
<stop stop-color="#0C45AD"/>
<stop offset="1" stop-color="#A1C7FF"/>
</linearGradient>
<linearGradient id="paint4_linear_485_7322" x1="238.077" y1="53.395" x2="210.529" y2="110.423" gradientUnits="userSpaceOnUse">
<stop stop-color="#5A86D7"/>
<stop offset="1" stop-color="#825DD6"/>
</linearGradient>
<linearGradient id="paint5_linear_485_7322" x1="213.49" y1="115.547" x2="234.999" y2="60.4366" gradientUnits="userSpaceOnUse">
<stop offset="0.011" stop-color="white"/>
<stop offset="1" stop-color="white" stop-opacity="0"/>
</linearGradient>
<linearGradient id="paint6_linear_485_7322" x1="231.242" y1="51.7096" x2="210.778" y2="111.668" gradientUnits="userSpaceOnUse">
<stop stop-color="#699DFB"/>
<stop offset="1" stop-color="#986DFA"/>
</linearGradient>
<linearGradient id="paint7_linear_485_7322" x1="217.485" y1="127.752" x2="240.606" y2="125.775" gradientUnits="userSpaceOnUse">
<stop offset="0.011" stop-color="white"/>
<stop offset="1" stop-color="white" stop-opacity="0"/>
</linearGradient>
<linearGradient id="paint8_linear_485_7322" x1="260.464" y1="73.3097" x2="202.495" y2="118.484" gradientUnits="userSpaceOnUse">
<stop stop-color="#699DFB"/>
<stop offset="1" stop-color="#986DFA"/>
</linearGradient>
<linearGradient id="paint9_linear_485_7322" x1="227.571" y1="156.446" x2="281.091" y2="126.286" gradientUnits="userSpaceOnUse">
<stop offset="0.011" stop-color="white"/>
<stop offset="1" stop-color="white" stop-opacity="0"/>
</linearGradient>
<linearGradient id="paint10_linear_485_7322" x1="52.8288" y1="85.8549" x2="15.2298" y2="51.3744" gradientUnits="userSpaceOnUse">
<stop stop-color="#ADFFCF"/>
<stop offset="1" stop-color="#8EC8F1"/>
</linearGradient>
<linearGradient id="paint11_linear_485_7322" x1="35.7619" y1="126.53" x2="-11.4621" y2="87.1067" gradientUnits="userSpaceOnUse">
<stop stop-color="#ADFFCF"/>
<stop offset="1" stop-color="#8EC8F1"/>
</linearGradient>
<linearGradient id="paint12_linear_485_7322" x1="138.357" y1="49.2138" x2="171.131" y2="49.2138" gradientUnits="userSpaceOnUse">
<stop stop-color="#912785"/>
<stop offset="1" stop-color="#EE3C97"/>
</linearGradient>
<linearGradient id="paint13_linear_485_7322" x1="77.6856" y1="99.5635" x2="79.7072" y2="80.3603" gradientUnits="userSpaceOnUse">
<stop offset="0.016" stop-color="#EEC0A8"/>
<stop offset="1" stop-color="#E59393"/>
</linearGradient>
<linearGradient id="paint14_linear_485_7322" x1="87.1875" y1="90.1639" x2="81.738" y2="75.7371" gradientUnits="userSpaceOnUse">
<stop stop-color="#FEB3A3"/>
<stop offset="1" stop-color="#B66073"/>
</linearGradient>
<linearGradient id="paint15_linear_485_7322" x1="100.324" y1="65.9857" x2="102.332" y2="65.9857" gradientUnits="userSpaceOnUse">
<stop stop-color="#E2807E"/>
<stop offset="1" stop-color="#B66073"/>
</linearGradient>
<linearGradient id="paint16_linear_485_7322" x1="66.7164" y1="50.8275" x2="55.8152" y2="56.5361" gradientUnits="userSpaceOnUse">
<stop stop-color="#421F5A"/>
<stop offset="1" stop-color="#342D7A"/>
</linearGradient>
<linearGradient id="paint17_linear_485_7322" x1="83.9502" y1="73.3882" x2="83.9502" y2="49.3156" gradientUnits="userSpaceOnUse">
<stop offset="0.016" stop-color="#EEC0A8"/>
<stop offset="1" stop-color="#E59393"/>
</linearGradient>
<linearGradient id="paint18_linear_485_7322" x1="92.7142" y1="62.8118" x2="90.6412" y2="47.2777" gradientUnits="userSpaceOnUse">
<stop stop-color="#FEB3A3"/>
<stop offset="1" stop-color="#B66073"/>
</linearGradient>
<linearGradient id="paint19_linear_485_7322" x1="66.1697" y1="68.7483" x2="56.3422" y2="56.8878" gradientUnits="userSpaceOnUse">
<stop offset="0.016" stop-color="#EEC0A8"/>
<stop offset="1" stop-color="#E59393"/>
</linearGradient>
<linearGradient id="paint20_linear_485_7322" x1="69.6195" y1="49.9973" x2="65.8925" y2="61.221" gradientUnits="userSpaceOnUse">
<stop stop-color="#421F5A"/>
<stop offset="1" stop-color="#342D7A"/>
</linearGradient>
<linearGradient id="paint21_linear_485_7322" x1="64.1044" y1="45.1408" x2="103.906" y2="45.1408" gradientUnits="userSpaceOnUse">
<stop stop-color="#B3A9F0"/>
<stop offset="1" stop-color="#DBCFF2"/>
</linearGradient>
<linearGradient id="paint22_linear_485_7322" x1="89.6562" y1="53.1944" x2="116.329" y2="53.1944" gradientUnits="userSpaceOnUse">
<stop stop-color="#4B2366"/>
<stop offset="1" stop-color="#393286"/>
</linearGradient>
<linearGradient id="paint23_linear_485_7322" x1="74.8386" y1="51.2641" x2="116.329" y2="51.2641" gradientUnits="userSpaceOnUse">
<stop stop-color="#77449B"/>
<stop offset="1" stop-color="#6057BB"/>
</linearGradient>
<linearGradient id="paint24_linear_485_7322" x1="81.1969" y1="37.7693" x2="70.9132" y2="48.0575" gradientUnits="userSpaceOnUse">
<stop stop-color="#B3A9F0"/>
<stop offset="1" stop-color="#DBCFF2" stop-opacity="0"/>
</linearGradient>
<linearGradient id="paint25_linear_485_7322" x1="109.625" y1="133.197" x2="92.4136" y2="100.165" gradientUnits="userSpaceOnUse">
<stop stop-color="#77449B"/>
<stop offset="1" stop-color="#6057BB"/>
</linearGradient>
<linearGradient id="paint26_linear_485_7322" x1="113.632" y1="117.937" x2="100.932" y2="109.264" gradientUnits="userSpaceOnUse">
<stop stop-color="#77449B" stop-opacity="0"/>
<stop offset="1" stop-color="#6057BB"/>
</linearGradient>
<linearGradient id="paint27_linear_485_7322" x1="108.206" y1="120.586" x2="96.1165" y2="107.491" gradientUnits="userSpaceOnUse">
<stop stop-color="#92A1E1" stop-opacity="0"/>
<stop offset="1" stop-color="#6E5CB6"/>
</linearGradient>
<linearGradient id="paint28_linear_485_7322" x1="78.6415" y1="189.765" x2="64.1866" y2="96.1092" gradientUnits="userSpaceOnUse">
<stop stop-color="#77449B"/>
<stop offset="1" stop-color="#6057BB"/>
</linearGradient>
<linearGradient id="paint29_linear_485_7322" x1="67.4114" y1="192.516" x2="62.3321" y2="132.397" gradientUnits="userSpaceOnUse">
<stop stop-color="#92A1E1" stop-opacity="0"/>
<stop offset="1" stop-color="#6E5CB6"/>
</linearGradient>
<linearGradient id="paint30_linear_485_7322" x1="67.5634" y1="86.5677" x2="78.1318" y2="103.166" gradientUnits="userSpaceOnUse">
<stop stop-color="#B3A9F0"/>
<stop offset="1" stop-color="#DBCFF2"/>
</linearGradient>
<linearGradient id="paint31_linear_485_7322" x1="86.4346" y1="103.9" x2="86.4346" y2="90.157" gradientUnits="userSpaceOnUse">
<stop stop-color="#B3A9F0"/>
<stop offset="1" stop-color="#DBCFF2"/>
</linearGradient>
<linearGradient id="paint32_linear_485_7322" x1="136.025" y1="174.998" x2="118.533" y2="115.034" gradientUnits="userSpaceOnUse">
<stop stop-color="#0F89FF"/>
<stop offset="1" stop-color="#374AE0"/>
</linearGradient>
<linearGradient id="paint33_linear_485_7322" x1="164.332" y1="175.157" x2="168.961" y2="105.495" gradientUnits="userSpaceOnUse">
<stop stop-color="#374AE0"/>
<stop offset="1" stop-color="#0F89FF"/>
</linearGradient>
<linearGradient id="paint34_linear_485_7322" x1="195.128" y1="148.128" x2="194.616" y2="112.871" gradientUnits="userSpaceOnUse">
<stop stop-color="#374AE0"/>
<stop offset="1" stop-color="#0F89FF"/>
</linearGradient>
<linearGradient id="paint35_linear_485_7322" x1="89.4584" y1="173.29" x2="93.9" y2="173.29" gradientUnits="userSpaceOnUse">
<stop stop-color="#4B2366"/>
<stop offset="1" stop-color="#393286"/>
</linearGradient>
<linearGradient id="paint36_linear_485_7322" x1="64.3015" y1="175.236" x2="33.5448" y2="104.555" gradientUnits="userSpaceOnUse">
<stop stop-color="#77449B"/>
<stop offset="1" stop-color="#6057BB"/>
</linearGradient>
<linearGradient id="paint37_linear_485_7322" x1="47.1182" y1="164.05" x2="93.1987" y2="164.05" gradientUnits="userSpaceOnUse">
<stop stop-color="#77449B" stop-opacity="0"/>
<stop offset="1" stop-color="#6057BB"/>
</linearGradient>
<linearGradient id="paint38_linear_485_7322" x1="89.761" y1="169.987" x2="122.098" y2="169.987" gradientUnits="userSpaceOnUse">
<stop offset="0.016" stop-color="#EEC0A8"/>
<stop offset="1" stop-color="#E59393"/>
</linearGradient>
<linearGradient id="paint39_linear_485_7322" x1="107.611" y1="162.082" x2="107.408" y2="178.014" gradientUnits="userSpaceOnUse">
<stop stop-color="#FEB3A3"/>
<stop offset="1" stop-color="#B66073"/>
</linearGradient>
<linearGradient id="paint40_linear_485_7322" x1="111.675" y1="161.387" x2="107.087" y2="171.031" gradientUnits="userSpaceOnUse">
<stop stop-color="#FEB3A3"/>
<stop offset="1" stop-color="#B66073"/>
</linearGradient>
<linearGradient id="paint41_linear_485_7322" x1="188.146" y1="79.6429" x2="209.465" y2="77.5837" gradientUnits="userSpaceOnUse">
<stop offset="0.016" stop-color="#EEC0A8"/>
<stop offset="1" stop-color="#E59393"/>
</linearGradient>
<linearGradient id="paint42_linear_485_7322" x1="194.869" y1="93.6169" x2="200.099" y2="90.4428" gradientUnits="userSpaceOnUse">
<stop stop-color="#FEB3A3"/>
<stop offset="1" stop-color="#B66073"/>
</linearGradient>
<linearGradient id="paint43_linear_485_7322" x1="201.069" y1="86.229" x2="200.175" y2="80.3997" gradientUnits="userSpaceOnUse">
<stop stop-color="#FEB3A3"/>
<stop offset="1" stop-color="#B66073"/>
</linearGradient>
<linearGradient id="paint44_linear_485_7322" x1="203.116" y1="100.441" x2="206.517" y2="88.1891" gradientUnits="userSpaceOnUse">
<stop stop-color="#FEB3A3"/>
<stop offset="1" stop-color="#B66073"/>
</linearGradient>
<linearGradient id="paint45_linear_485_7322" x1="208.517" y1="111.477" x2="219.835" y2="94.8813" gradientUnits="userSpaceOnUse">
<stop offset="0.016" stop-color="#EEC0A8"/>
<stop offset="1" stop-color="#E59393"/>
</linearGradient>
<linearGradient id="paint46_linear_485_7322" x1="218.525" y1="104.15" x2="219.374" y2="91.349" gradientUnits="userSpaceOnUse">
<stop stop-color="#FEB3A3"/>
<stop offset="1" stop-color="#B66073"/>
</linearGradient>
<linearGradient id="paint47_linear_485_7322" x1="206.657" y1="104.356" x2="218.33" y2="94.1458" gradientUnits="userSpaceOnUse">
<stop stop-color="#FEB3A3"/>
<stop offset="1" stop-color="#B66073"/>
</linearGradient>
<linearGradient id="paint48_linear_485_7322" x1="198.673" y1="79.8672" x2="204.154" y2="79.9986" gradientUnits="userSpaceOnUse">
<stop offset="0.016" stop-color="#EEC0A8"/>
<stop offset="1" stop-color="#E59393"/>
</linearGradient>
<linearGradient id="paint49_linear_485_7322" x1="222.581" y1="128.888" x2="182.871" y2="148.752" gradientUnits="userSpaceOnUse">
<stop stop-color="#98208A"/>
<stop offset="1" stop-color="#D9187B"/>
</linearGradient>
<linearGradient id="paint50_linear_485_7322" x1="222.794" y1="138.802" x2="201.949" y2="144.479" gradientUnits="userSpaceOnUse">
<stop stop-color="#8E1E81"/>
<stop offset="1" stop-color="#CF1775" stop-opacity="0"/>
</linearGradient>
<linearGradient id="paint51_linear_485_7322" x1="196.493" y1="133.727" x2="177.076" y2="145.248" gradientUnits="userSpaceOnUse">
<stop stop-color="#8E1E81"/>
<stop offset="1" stop-color="#CF1775" stop-opacity="0"/>
</linearGradient>
<linearGradient id="paint52_linear_485_7322" x1="110.029" y1="150.27" x2="182.498" y2="150.27" gradientUnits="userSpaceOnUse">
<stop offset="0.016" stop-color="#EEC0A8"/>
<stop offset="1" stop-color="#E59393"/>
</linearGradient>
<linearGradient id="paint53_linear_485_7322" x1="125.027" y1="132.695" x2="130.192" y2="173.209" gradientUnits="userSpaceOnUse">
<stop stop-color="#FEB3A3"/>
<stop offset="1" stop-color="#B66073"/>
</linearGradient>
<linearGradient id="paint54_linear_485_7322" x1="203.968" y1="106.055" x2="169.908" y2="141.982" gradientUnits="userSpaceOnUse">
<stop stop-color="#98208A"/>
<stop offset="1" stop-color="#D9187B"/>
</linearGradient>
<linearGradient id="paint55_linear_485_7322" x1="168.509" y1="125.19" x2="211.977" y2="125.19" gradientUnits="userSpaceOnUse">
<stop stop-color="#77449B" stop-opacity="0"/>
<stop offset="1" stop-color="#6057BB"/>
</linearGradient>
<linearGradient id="paint56_linear_485_7322" x1="225.722" y1="98.2125" x2="199.357" y2="59.372" gradientUnits="userSpaceOnUse">
<stop stop-color="#421F5A"/>
<stop offset="1" stop-color="#342D7A"/>
</linearGradient>
<linearGradient id="paint57_linear_485_7322" x1="223.037" y1="103.127" x2="216.41" y2="76.0963" gradientUnits="userSpaceOnUse">
<stop stop-color="#421F5A"/>
<stop offset="1" stop-color="#342D7A" stop-opacity="0"/>
</linearGradient>
<linearGradient id="paint58_linear_485_7322" x1="216.889" y1="53.488" x2="230.638" y2="53.488" gradientUnits="userSpaceOnUse">
<stop stop-color="#421F5A"/>
<stop offset="1" stop-color="#342D7A" stop-opacity="0"/>
</linearGradient>
<linearGradient id="paint59_linear_485_7322" x1="179.525" y1="66.3887" x2="206.345" y2="71.6095" gradientUnits="userSpaceOnUse">
<stop stop-color="#421F5A"/>
<stop offset="1" stop-color="#342D7A"/>
</linearGradient>
<linearGradient id="paint60_linear_485_7322" x1="224.077" y1="103.677" x2="231.091" y2="103.677" gradientUnits="userSpaceOnUse">
<stop stop-color="#B3A9F0"/>
<stop offset="1" stop-color="#DBCFF2"/>
</linearGradient>
<linearGradient id="paint61_linear_485_7322" x1="226.802" y1="104.92" x2="229.836" y2="101.943" gradientUnits="userSpaceOnUse">
<stop stop-color="#B3A9F0"/>
<stop offset="1" stop-color="#DBCFF2" stop-opacity="0"/>
</linearGradient>
<linearGradient id="paint62_linear_485_7322" x1="229.651" y1="106.682" x2="251.432" y2="120.078" gradientUnits="userSpaceOnUse">
<stop stop-color="#421F5A"/>
<stop offset="1" stop-color="#342D7A"/>
</linearGradient>
<linearGradient id="paint63_linear_485_7322" x1="229.898" y1="101.916" x2="237.229" y2="147.835" gradientUnits="userSpaceOnUse">
<stop stop-color="#421F5A"/>
<stop offset="1" stop-color="#342D7A" stop-opacity="0"/>
</linearGradient>
<linearGradient id="paint64_linear_485_7322" x1="233.308" y1="101.758" x2="250.543" y2="142.136" gradientUnits="userSpaceOnUse">
<stop stop-color="#421F5A"/>
<stop offset="1" stop-color="#342D7A" stop-opacity="0"/>
</linearGradient>
</defs>
</svg>
