<svg width="146" height="146" viewBox="0 0 146 146" fill="none" xmlns="http://www.w3.org/2000/svg">
<circle cx="73" cy="73" r="54" stroke="#FF9F24" stroke-opacity="0.1" stroke-width="38"/>
<path d="M73 15C105.033 15 131 40.9675 131 73C131 105.033 105.033 131 73 131C40.9675 131 15 105.033 15 73C15 40.9675 40.9675 15 73 15Z" fill="#FFE8CA"/>
<path d="M73.0002 104C90.1214 104 104 90.1211 104 73C104 55.879 90.1214 41.9998 73.0002 41.9998C55.8793 41.9998 42 55.879 42 73C42 90.1211 55.8793 104 73.0002 104Z" fill="#FF9F24" stroke="#FF9F24" stroke-width="2" stroke-linecap="round" stroke-linejoin="round"/>
<path d="M70.9569 80.2473L70.3221 53.0637H75.9776L75.3428 80.2473H70.9569ZM76.8433 87.9131C76.8433 89.816 75.2851 91.2839 73.3807 91.2839C71.3609 91.2839 69.8027 89.816 69.8027 87.9131C69.8027 86.0103 71.3609 84.5423 73.3807 84.5423C75.2851 84.5423 76.8433 86.0103 76.8433 87.9131Z" fill="white"/>
</svg>
