<svg width="13" height="15" viewBox="0 0 13 15" fill="none" xmlns="http://www.w3.org/2000/svg">
<path d="M8.7355 14.0118C8.54458 13.9776 8.35367 13.9503 8.16275 13.9161C7.37862 13.7656 6.66267 13.4509 5.98764 13.0404C4.93076 12.3974 4.03072 11.5697 3.19886 10.653C2.35336 9.72264 1.58287 8.73072 0.97602 7.62251C0.525997 6.80161 0.18507 5.9465 0.0555185 5.00931C-0.0876706 3.96951 0.0350629 2.96391 0.553271 2.03356C0.826012 1.54102 1.18058 1.12373 1.62378 0.768004C1.83515 0.603824 2.02607 0.412282 2.23745 0.248102C2.68065 -0.10078 3.16477 -0.0870983 3.56024 0.323351C3.78525 0.555939 3.99663 0.809049 4.18073 1.08268C4.52165 1.5889 4.8694 2.08828 5.06714 2.67659C5.27169 3.27858 5.18987 3.81901 4.70575 4.25682C4.45347 4.48257 4.208 4.70832 3.93526 4.89302C3.35569 5.29663 3.27386 5.78917 3.49206 6.42536C3.68979 7.01367 4.04436 7.51305 4.41938 7.99191C4.91031 8.62127 5.44215 9.21642 6.05582 9.72264C6.39675 10.0031 6.75813 10.2562 7.20134 10.3588C7.58999 10.4478 7.91728 10.3452 8.20366 10.0784C8.49004 9.81157 8.7696 9.53794 9.06279 9.28483C9.54691 8.87438 10.0856 8.86069 10.6379 9.14117C10.822 9.23694 10.9993 9.33271 11.1561 9.46269C11.722 9.91418 12.3084 10.352 12.7516 10.9471C13.113 11.4397 13.0857 11.9117 12.6357 12.3221C12.1993 12.7189 11.7902 13.1499 11.2652 13.444C10.7333 13.745 10.1674 13.9366 9.55373 13.9981C9.51282 14.005 9.4719 14.0118 9.43781 14.0255C9.2128 14.0118 8.97415 14.0118 8.7355 14.0118Z" fill="#333333"/>
</svg>
