<svg width="14" height="12" viewBox="0 0 14 12" fill="none" xmlns="http://www.w3.org/2000/svg">
<path d="M11.0833 2.18182H9.91667V1.63636C9.91667 1.20237 9.73229 0.786158 9.4041 0.47928C9.07591 0.172402 8.6308 0 8.16667 0H1.75C1.28587 0 0.840752 0.172402 0.512563 0.47928C0.184374 0.786158 0 1.20237 0 1.63636L0 9.81818H1.19058C1.17557 9.90843 1.16758 9.99958 1.16667 10.0909C1.16667 10.5972 1.38177 11.0828 1.76466 11.4408C2.14754 11.7989 2.66685 12 3.20833 12C3.74982 12 4.26912 11.7989 4.65201 11.4408C5.0349 11.0828 5.25 10.5972 5.25 10.0909C5.24909 9.99958 5.24109 9.90843 5.22608 9.81818H8.77392C8.75891 9.90843 8.75091 9.99958 8.75 10.0909C8.75 10.5972 8.9651 11.0828 9.34799 11.4408C9.73088 11.7989 10.2502 12 10.7917 12C11.3331 12 11.8525 11.7989 12.2353 11.4408C12.6182 11.0828 12.8333 10.5972 12.8333 10.0909C12.8324 9.99958 12.8244 9.90843 12.8094 9.81818H14V4.90909C13.9991 4.18604 13.6915 3.49285 13.1447 2.98157C12.5979 2.4703 11.8566 2.18268 11.0833 2.18182ZM11.0833 3.27273C11.5475 3.27273 11.9926 3.44513 12.3208 3.75201C12.649 4.05889 12.8333 4.4751 12.8333 4.90909V5.45455H9.91667V3.27273H11.0833ZM4.08333 10.0909C4.08333 10.3079 3.99115 10.516 3.82705 10.6695C3.66296 10.8229 3.4404 10.9091 3.20833 10.9091C2.97627 10.9091 2.75371 10.8229 2.58961 10.6695C2.42552 10.516 2.33333 10.3079 2.33333 10.0909C2.33369 9.99769 2.35207 9.90529 2.38758 9.81818H4.02908C4.0646 9.90529 4.08297 9.99769 4.08333 10.0909ZM8.75 8.72727H1.16667V1.63636C1.16667 1.4917 1.22812 1.35296 1.33752 1.25067C1.44692 1.14838 1.59529 1.09091 1.75 1.09091H8.16667C8.32138 1.09091 8.46975 1.14838 8.57915 1.25067C8.68854 1.35296 8.75 1.4917 8.75 1.63636V8.72727ZM11.6667 10.0909C11.6667 10.3079 11.5745 10.516 11.4104 10.6695C11.2463 10.8229 11.0237 10.9091 10.7917 10.9091C10.5596 10.9091 10.337 10.8229 10.1729 10.6695C10.0089 10.516 9.91667 10.3079 9.91667 10.0909C9.91692 9.99768 9.9353 9.90526 9.97092 9.81818H11.6124C11.648 9.90526 11.6664 9.99768 11.6667 10.0909ZM9.91667 8.72727V6.54545H12.8333V8.72727H9.91667Z" fill="#FF9F24"/>
</svg>
