<svg width="28" height="28" viewBox="0 0 28 28" fill="none" xmlns="http://www.w3.org/2000/svg">
<path d="M16.5538 7.23837L15.9861 5.77305C15.8904 5.52495 15.7219 5.31155 15.5029 5.1608C15.2838 5.01004 15.0243 4.92896 14.7584 4.92818H13.6759C13.41 4.92896 13.1505 5.01004 12.9314 5.1608C12.7124 5.31155 12.544 5.52495 12.4482 5.77305L11.8806 7.23837L9.95328 8.34725L8.39555 8.10964C8.13615 8.07443 7.87213 8.11712 7.63702 8.2323C7.40204 8.34748 7.20653 8.52993 7.07544 8.75649L6.5474 9.68056C6.41209 9.91072 6.34965 10.1765 6.36853 10.4428C6.3874 10.7091 6.48654 10.9635 6.65301 11.1723L7.61669 12.4V14.6178L6.62661 15.8455C6.46014 16.0543 6.361 16.3086 6.34212 16.5749C6.32325 16.8412 6.38569 17.107 6.521 17.3372L7.04904 18.2613C7.18013 18.4878 7.37564 18.6702 7.61062 18.7855C7.84573 18.9006 8.10975 18.9434 8.36915 18.9081L9.92687 18.6705L11.8542 19.7794L12.4218 21.2447C12.5176 21.4927 12.686 21.7062 12.905 21.857C13.1241 22.0077 13.3836 22.0888 13.6495 22.0896H14.7584C15.0243 22.0888 15.2838 22.0077 15.5029 21.857C15.7219 21.7062 15.8904 21.4927 15.9861 21.2447L16.5538 19.7794L18.4811 18.6705L20.0388 18.9081C20.2982 18.9434 20.5622 18.9006 20.7973 18.7855C21.0323 18.6702 21.2278 18.4878 21.3589 18.2613L21.887 17.3372C22.0223 17.107 22.0846 16.8412 22.0658 16.5749C22.0469 16.3086 21.9478 16.0543 21.7814 15.8455L20.8177 14.6178V12.4L21.8078 11.1723C21.9742 10.9635 22.0733 10.7091 22.0922 10.4428C22.111 10.1765 22.0487 9.91072 21.9134 9.68056L21.3853 8.75649C21.2542 8.52993 21.0587 8.34748 20.8237 8.2323C20.5886 8.11712 20.3246 8.07443 20.0652 8.10964L18.5075 8.34725L16.5538 7.23837ZM16.8574 13.5089C16.8574 14.0311 16.7025 14.5415 16.4124 14.9757C16.1223 15.4099 15.71 15.7483 15.2275 15.9481C14.7451 16.1479 14.2142 16.2002 13.7021 16.0984C13.1899 15.9965 12.7195 15.745 12.3502 15.3758C11.981 15.0065 11.7296 14.5361 11.6277 14.0239C11.5258 13.5118 11.5781 12.9809 11.7779 12.4985C11.9778 12.0161 12.3162 11.6037 12.7503 11.3136C13.1845 11.0235 13.695 10.8687 14.2172 10.8687C14.9174 10.8687 15.5889 11.1468 16.0841 11.642C16.5792 12.1371 16.8574 12.8086 16.8574 13.5089Z" stroke="#0F89FF" stroke-linecap="round" stroke-linejoin="round"/>
</svg>
