<svg width="116" height="116" viewBox="0 0 116 116" fill="none" xmlns="http://www.w3.org/2000/svg">
<path d="M58 0C90.0325 0 116 25.9675 116 58C116 90.0325 90.0325 116 58 116C25.9675 116 0 90.0325 0 58C0 25.9675 25.9675 0 58 0ZM83.0383 39.4867C81.717 38.1655 79.6295 38.0774 78.2061 39.2225L77.9117 39.4867L48.575 68.8235L38.0883 58.3367C36.6726 56.9211 34.3774 56.9211 32.9617 58.3367C31.6405 59.658 31.5524 61.7455 32.6975 63.1689L32.9617 63.4633L46.0117 76.5133C47.333 77.8345 49.4205 77.9226 50.8439 76.7775L51.1383 76.5133L83.0383 44.6133C84.4539 43.1976 84.4539 40.9024 83.0383 39.4867Z" fill="#34A853"/>
</svg>
