<svg width="286" height="9" viewBox="0 0 286 9" fill="none" xmlns="http://www.w3.org/2000/svg">
<path d="M4.046 0H85.954C87.0271 0 88.0562 0.426274 88.815 1.18505C89.5737 1.94382 90 2.97293 90 4.046C90 5.11907 89.5737 6.14818 88.815 6.90695C88.0562 7.66573 87.0271 8.092 85.954 8.092H4.046C2.97293 8.092 1.94382 7.66573 1.18505 6.90695C0.426274 6.14818 0 5.11907 0 4.046C0 2.97293 0.426274 1.94382 1.18505 1.18505C1.94382 0.426274 2.97293 0 4.046 0Z" fill="#0F89FF" fill-opacity="0.1"/>
<path d="M41 0H4C1.79086 0 0 1.79086 0 4V4.092C0 6.30114 1.79086 8.092 4 8.092H41C43.2091 8.092 45 6.30114 45 4.092V4C45 1.79086 43.2091 0 41 0Z" fill="#0F89FF"/>
<path d="M183.954 0H102.046C99.8115 0 98 1.81146 98 4.046C98 6.28054 99.8115 8.092 102.046 8.092H183.954C186.189 8.092 188 6.28054 188 4.046C188 1.81146 186.189 0 183.954 0Z" fill="#0F89FF" fill-opacity="0.1"/>
<path d="M281.954 0H200.046C197.811 0 196 1.81146 196 4.046C196 6.28054 197.811 8.092 200.046 8.092H281.954C284.189 8.092 286 6.28054 286 4.046C286 1.81146 284.189 0 281.954 0Z" fill="#0F89FF" fill-opacity="0.1"/>
</svg>
