<svg width="28" height="28" viewBox="0 0 28 28" fill="none" xmlns="http://www.w3.org/2000/svg">
<g clip-path="url(#clip0_485_4057)">
<path d="M9.08522 9.08544L9.08522 15.7817C9.08522 16.4547 8.82444 17.0857 8.34493 17.5652L6.85593 19.0542C6.68768 19.2224 6.42689 19.2224 6.25864 19.0542L4.76964 17.5652C4.29013 17.0857 4.02935 16.4547 4.02935 15.7817L4.02935 9.08544C4.02935 7.69738 5.16503 6.5617 6.55308 6.5617C7.94113 6.5617 9.07681 7.69738 9.07681 9.08544L9.08522 9.08544ZM6.56149 18.1625L7.74765 16.9763C8.06732 16.6566 8.24398 16.236 8.24398 15.7902L8.24398 9.09385C8.24398 8.16848 7.48686 7.41136 6.56149 7.41136C5.63612 7.41136 4.879 8.16848 4.879 9.09385L4.879 15.7902C4.879 16.236 5.05566 16.665 5.37534 16.9763L6.56149 18.1625ZM24.2276 10.7679L24.2276 15.7817C24.2276 16.4547 23.9668 17.0857 23.4873 17.5652L21.9983 19.0542C21.8301 19.2224 21.5693 19.2224 21.401 19.0542L19.912 17.5652C19.4325 17.0857 19.1717 16.4547 19.1717 15.7817L19.1717 10.7679C19.1717 9.37987 20.3074 8.24419 21.6955 8.24419C23.0835 8.24419 24.2192 9.37987 24.2192 10.7679L24.2276 10.7679ZM21.7039 18.1625L22.89 16.9763C23.2097 16.6566 23.3864 16.236 23.3864 15.7902L23.3864 10.7763C23.3864 9.85097 22.6293 9.09385 21.7039 9.09385C20.7785 9.09385 20.0214 9.85097 20.0214 10.7763L20.0214 15.7902C20.0214 16.236 20.1981 16.665 20.5177 16.9763L21.7039 18.1625ZM16.6564 6.5617L16.6564 15.7817C16.6564 16.4547 16.3956 17.0857 15.9161 17.5652L14.4271 19.0542C14.2589 19.2224 13.9981 19.2224 13.8298 19.0542L12.3408 17.5652C11.8613 17.0857 11.6005 16.4547 11.6005 15.7817L11.6005 6.5617C11.6005 5.17365 12.7362 4.03797 14.1243 4.03797C15.5123 4.03797 16.648 5.17365 16.648 6.5617L16.6564 6.5617ZM14.1327 18.1625L15.3188 16.9763C15.6385 16.6566 15.8152 16.236 15.8152 15.7902L15.8152 6.57012C15.8152 5.64475 15.0581 4.88763 14.1327 4.88763C13.2073 4.88763 12.4502 5.64475 12.4502 6.57012L12.4502 15.7817C12.4502 16.2276 12.6269 16.6566 12.9465 16.9679L14.1327 18.154L14.1327 18.1625ZM23.3864 22.5453C23.3864 23.4707 22.6293 24.2278 21.7039 24.2278C20.7785 24.2278 20.0214 23.4707 20.0214 22.5453C20.0214 21.62 20.7785 20.8629 21.7039 20.8629C22.6293 20.8629 23.3864 21.62 23.3864 22.5453ZM20.8626 22.5453C20.8626 23.008 21.2412 23.3866 21.7039 23.3866C22.1666 23.3866 22.5451 23.008 22.5451 22.5453C22.5451 22.0827 22.1666 21.7041 21.7039 21.7041C21.2412 21.7041 20.8626 22.0827 20.8626 22.5453ZM15.8152 22.5453C15.8152 23.4707 15.0581 24.2278 14.1327 24.2278C13.2073 24.2278 12.4502 23.4707 12.4502 22.5453C12.4502 21.62 13.2073 20.8629 14.1327 20.8629C15.0581 20.8629 15.8152 21.62 15.8152 22.5453ZM13.2914 22.5453C13.2914 23.008 13.67 23.3866 14.1327 23.3866C14.5954 23.3866 14.9739 23.008 14.9739 22.5453C14.9739 22.0827 14.5954 21.7041 14.1327 21.7041C13.67 21.7041 13.2914 22.0827 13.2914 22.5453ZM8.24398 22.5453C8.24398 23.4707 7.48686 24.2278 6.56149 24.2278C5.63612 24.2278 4.879 23.4707 4.879 22.5453C4.879 21.62 5.63612 20.8629 6.56149 20.8629C7.48686 20.8629 8.24398 21.62 8.24398 22.5453ZM5.72025 22.5453C5.72025 23.008 6.09881 23.3866 6.56149 23.3866C7.02418 23.3866 7.40274 23.008 7.40274 22.5453C7.40274 22.0827 7.02418 21.7041 6.56149 21.7041C6.09881 21.7041 5.72025 22.0827 5.72025 22.5453Z" fill="#535353"/>
</g>
<defs>
<clipPath id="clip0_485_4057">
<rect width="20" height="20" fill="white" transform="translate(4.03773 24.2278) scale(1.00949) rotate(-90)"/>
</clipPath>
</defs>
</svg>
