<svg width="24" height="4" viewBox="0 0 24 4" fill="none" xmlns="http://www.w3.org/2000/svg">
<g opacity="0.9">
<path d="M4.00014 1.47675V2.39435L2.69543 2.337L3.45531 3.38363L2.63808 3.8711L1.9929 2.69543L1.34772 3.8711L0.544821 3.38363L1.29037 2.337L0 2.39435V1.47675L1.29037 1.54844L0.544821 0.487472L1.34772 0L1.9929 1.17567L2.63808 0L3.45531 0.487472L2.69543 1.54844L4.00014 1.47675Z" fill="white"/>
<path d="M10.6668 1.47675V2.39435L9.36209 2.337L10.122 3.38363L9.30474 3.8711L8.65955 2.69543L8.01437 3.8711L7.21147 3.38363L7.95702 2.337L6.66665 2.39435V1.47675L7.95702 1.54844L7.21147 0.487472L8.01437 0L8.65955 1.17567L9.30474 0L10.122 0.487472L9.36209 1.54844L10.6668 1.47675Z" fill="white"/>
<path d="M17.3334 1.47675V2.39435L16.0287 2.337L16.7886 3.38363L15.9714 3.8711L15.3262 2.69543L14.681 3.8711L13.8781 3.38363L14.6237 2.337L13.3333 2.39435V1.47675L14.6237 1.54844L13.8781 0.487472L14.681 0L15.3262 1.17567L15.9714 0L16.7886 0.487472L16.0287 1.54844L17.3334 1.47675Z" fill="white"/>
<path d="M24.0001 1.47675V2.39435L22.6954 2.337L23.4553 3.38363L22.638 3.8711L21.9929 2.69543L21.3477 3.8711L20.5448 3.38363L21.2903 2.337L20 2.39435V1.47675L21.2903 1.54844L20.5448 0.487472L21.3477 0L21.9929 1.17567L22.638 0L23.4553 0.487472L22.6954 1.54844L24.0001 1.47675Z" fill="white"/>
</g>
</svg>
