<svg width="67" height="67" viewBox="0 0 67 67" fill="none" xmlns="http://www.w3.org/2000/svg">
<rect width="67" height="67" rx="12" fill="#474747" fill-opacity="0.08"/>
<path d="M27.0713 34.0001V29.1158C27.0858 28.1557 27.2896 27.2079 27.671 26.3267C28.0525 25.4456 28.604 24.6483 29.2941 23.9807C29.9842 23.313 30.7992 22.7881 31.6925 22.436C32.5858 22.0838 33.5398 21.9115 34.4999 21.9287C35.4599 21.9115 36.4139 22.0838 37.3072 22.436C38.2005 22.7881 39.0155 23.313 39.7056 23.9807C40.3957 24.6483 40.9473 25.4456 41.3288 26.3267C41.71 27.2079 41.9139 28.1557 41.9284 29.1158V34.0001" stroke="#535353" stroke-linecap="round" stroke-linejoin="round"/>
<path d="M24.2856 31.2144H26.1428C26.389 31.2144 26.6252 31.3122 26.7993 31.4863C26.9735 31.6605 27.0713 31.8967 27.0713 32.1429V37.7144C27.0713 37.9606 26.9735 38.1968 26.7993 38.3709C26.6252 38.5451 26.389 38.6429 26.1428 38.6429H24.2856C23.7931 38.6429 23.3207 38.4473 22.9724 38.099C22.6241 37.7507 22.4285 37.2783 22.4285 36.7858V33.0715C22.4285 32.5789 22.6241 32.1066 22.9724 31.7583C23.3207 31.41 23.7931 31.2144 24.2856 31.2144Z" stroke="#535353" stroke-linecap="round" stroke-linejoin="round"/>
<path d="M44.7142 38.6429H42.857C42.6108 38.6429 42.3746 38.5451 42.2004 38.3709C42.0263 38.1968 41.9285 37.9606 41.9285 37.7144V32.1429C41.9285 31.8967 42.0263 31.6605 42.2004 31.4863C42.3746 31.3122 42.6108 31.2144 42.857 31.2144H44.7142C45.2067 31.2144 45.6792 31.41 46.0274 31.7583C46.3756 32.1066 46.5713 32.5789 46.5713 33.0715V36.7858C46.5713 37.2783 46.3756 37.7507 46.0274 38.099C45.6792 38.4473 45.2067 38.6429 44.7142 38.6429Z" stroke="#535353" stroke-linecap="round" stroke-linejoin="round"/>
<path d="M38.2141 43.75C39.1992 43.75 40.1439 43.3587 40.8405 42.6621C41.5371 41.9655 41.9284 41.0208 41.9284 40.0357V35.8572" stroke="#535353" stroke-linecap="round" stroke-linejoin="round"/>
<path d="M38.2142 43.75C38.2142 44.3657 37.9696 44.9562 37.5343 45.3915C37.0989 45.8269 36.5085 46.0714 35.8928 46.0714H33.1071C32.4914 46.0714 31.9009 45.8269 31.4656 45.3915C31.0302 44.9562 30.7856 44.3657 30.7856 43.75C30.7856 43.1344 31.0302 42.5438 31.4656 42.1085C31.9009 41.6732 32.4914 41.4286 33.1071 41.4286H35.8928C36.5085 41.4286 37.0989 41.6732 37.5343 42.1085C37.9696 42.5438 38.2142 43.1344 38.2142 43.75Z" stroke="#535353" stroke-linecap="round" stroke-linejoin="round"/>
</svg>
