<svg width="15" height="15" viewBox="0 0 15 15" fill="none" xmlns="http://www.w3.org/2000/svg">
<path fill-rule="evenodd" clip-rule="evenodd" d="M7.49998 0.945944C3.88029 0.945944 0.945944 3.88029 0.945944 7.49998C0.945944 11.1197 3.88029 14.054 7.49998 14.054C10.5985 14.054 13.1959 11.9034 13.8787 9.01286C13.9387 8.75864 14.1935 8.60124 14.4477 8.6613C14.7019 8.72135 14.8594 8.97612 14.7993 9.23034C14.0179 12.5381 11.0471 15 7.49998 15C3.35786 15 0 11.6422 0 7.49998C0 3.35786 3.35786 0 7.49998 0C10.3942 0 12.9047 1.63946 14.1549 4.03815C14.2756 4.26979 14.1857 4.55544 13.954 4.67617C13.7224 4.7969 13.4367 4.70699 13.316 4.47534C12.2224 2.37698 10.0279 0.945944 7.49998 0.945944Z" fill="white"/>
</svg>
