<svg width="28" height="28" viewBox="0 0 28 28" fill="none" xmlns="http://www.w3.org/2000/svg">
<path fill-rule="evenodd" clip-rule="evenodd" d="M5.06775 7.65443C3.79074 8.59309 3.02823 10.1565 3.02823 11.838V21.2003C3.02823 23.983 5.10383 26.2468 7.65508 26.2468H20.6102C23.1615 26.2468 25.2371 23.983 25.2371 21.2003V11.838C25.2371 10.2443 24.5449 8.76265 23.3863 7.81189L21.5356 6.43015L16.7209 2.88648C15.1487 1.72982 13.1166 1.72982 11.5444 2.88648L5.06775 7.65443ZM12.1426 3.69963L5.66622 8.46739C4.66575 9.20278 4.03773 10.455 4.03773 11.838V21.2003C4.03773 23.5097 5.74208 25.2373 7.65508 25.2373H20.6102C22.5232 25.2373 24.2276 23.5097 24.2276 21.2003V11.838C24.2276 10.5407 23.6672 9.35723 22.7627 8.60612L20.9372 7.24317L20.9317 7.23907L16.1227 3.69963C14.9064 2.80483 13.3589 2.80495 12.1426 3.69963Z" fill="white"/>
<path fill-rule="evenodd" clip-rule="evenodd" d="M16.1516 18.1709H12.1137C11.5561 18.1709 11.1042 18.6228 11.1042 19.1804V25.2373H17.1611V19.1804C17.1611 18.6228 16.7092 18.1709 16.1516 18.1709ZM12.1137 17.1614C10.9986 17.1614 10.0947 18.0653 10.0947 19.1804V26.2468H18.1706V19.1804C18.1706 18.0653 17.2667 17.1614 16.1516 17.1614H12.1137Z" fill="white"/>
</svg>
