<svg width="28" height="28" viewBox="0 0 28 28" fill="none" xmlns="http://www.w3.org/2000/svg">
<path d="M10.3471 4.03797H6.98208C5.35848 4.03797 4.03773 5.35873 4.03773 6.98233V10.3473C4.03773 11.9709 5.35848 13.2917 6.98208 13.2917H10.3471C11.9707 13.2917 13.2914 11.9709 13.2914 10.3473V6.98233C13.2914 5.35873 11.9707 4.03797 10.3471 4.03797ZM12.4502 10.3473C12.4502 11.5082 11.508 12.4504 10.3471 12.4504H6.98208C5.82116 12.4504 4.87897 11.5082 4.87897 10.3473V6.98233C4.87897 5.82141 5.82116 4.87922 6.98208 4.87922H10.3471C11.508 4.87922 12.4502 5.82141 12.4502 6.98233V10.3473ZM21.2832 14.9741H17.9183C16.2947 14.9741 14.9739 16.2949 14.9739 17.9185V21.2835C14.9739 22.9071 16.2947 24.2278 17.9183 24.2278H21.2832C22.9068 24.2278 24.2276 22.9071 24.2276 21.2835V17.9185C24.2276 16.2949 22.9068 14.9741 21.2832 14.9741ZM23.3863 21.2835C23.3863 22.4444 22.4441 23.3866 21.2832 23.3866H17.9183C16.7573 23.3866 15.8151 22.4444 15.8151 21.2835V17.9185C15.8151 16.7576 16.7573 15.8154 17.9183 15.8154H21.2832C22.4441 15.8154 23.3863 16.7576 23.3863 17.9185V21.2835ZM10.3471 14.9741H6.98208C5.35848 14.9741 4.03773 16.2949 4.03773 17.9185V21.2835C4.03773 22.9071 5.35848 24.2278 6.98208 24.2278H10.3471C11.9707 24.2278 13.2914 22.9071 13.2914 21.2835V17.9185C13.2914 16.2949 11.9707 14.9741 10.3471 14.9741ZM12.4502 21.2835C12.4502 22.4444 11.508 23.3866 10.3471 23.3866H6.98208C5.82116 23.3866 4.87897 22.4444 4.87897 21.2835V17.9185C4.87897 16.7576 5.82116 15.8154 6.98208 15.8154H10.3471C11.508 15.8154 12.4502 16.7576 12.4502 17.9185V21.2835ZM18.6838 12.1307C18.953 12.3411 19.2727 12.4504 19.6007 12.4504C19.9288 12.4504 20.2485 12.3411 20.5177 12.1307C21.1402 11.6344 24.2276 9.03496 24.2276 6.77202C24.2276 5.26619 23.0919 4.03797 21.7039 4.03797C20.8542 4.03797 20.0718 4.50066 19.6007 5.2073C19.1381 4.49224 18.3557 4.03797 17.4976 4.03797C16.1096 4.03797 14.9739 5.26619 14.9739 6.77202C14.9739 9.03496 18.0613 11.6344 18.6838 12.1307ZM17.4976 4.87922C18.3052 4.87922 19.0287 5.53539 19.1801 6.40187C19.2138 6.60377 19.3904 6.74678 19.5923 6.74678C19.7942 6.74678 19.9709 6.60377 20.0045 6.40187C20.156 5.53539 20.8878 4.87922 21.7039 4.87922C22.6292 4.87922 23.3863 5.72887 23.3863 6.77202C23.3863 8.32832 21.2496 10.4567 19.9877 11.4746C19.7606 11.6512 19.4325 11.6596 19.2138 11.4746C17.9519 10.4651 15.8151 8.33673 15.8151 6.77202C15.8151 5.72887 16.5723 4.87922 17.4976 4.87922Z" fill="#0F89FF"/>
</svg>
