<svg width="28" height="28" viewBox="0 0 28 28" fill="none" xmlns="http://www.w3.org/2000/svg">
<path d="M12.417 23.8016H2.90919V24.6932H12.417V23.8016Z" fill="#535353"/>
<path d="M10.5155 19.9984H2.90919V20.89H10.5155V19.9984Z" fill="#535353"/>
<path d="M8.61389 16.1953H2.90919V17.0869H8.61389V16.1953Z" fill="#535353"/>
<path d="M15.2831 22.7916V21.9C20.2781 21.9 24.3451 17.833 24.3451 12.838C24.3451 7.84294 20.2781 3.77595 15.2831 3.77595C10.288 3.77595 6.22106 7.84294 6.22106 12.838H5.32941C5.32941 10.1812 6.36663 7.67917 8.24545 5.80035C10.1243 3.92153 12.6263 2.88886 15.2831 2.88886C17.9398 2.88886 20.4419 3.92608 22.3207 5.8049C24.1995 7.68372 25.2367 10.1858 25.2367 12.8425C25.2367 15.4992 24.1995 17.9968 22.3207 19.8756C20.4419 21.7544 17.9398 22.7916 15.2831 22.7916Z" fill="#535353"/>
<path d="M18.3079 16.9004L15.0507 13.6387V8.307H15.9378V13.2702L18.9403 16.2726L18.3079 16.9004Z" fill="#535353"/>
</svg>
