<svg width="30" height="23" viewBox="0 0 30 23" fill="none" xmlns="http://www.w3.org/2000/svg">
<path d="M1.60001 2.70001C2.20752 2.70001 2.70001 2.20752 2.70001 1.60001C2.70001 0.992497 2.20752 0.500003 1.60001 0.500003C0.992492 0.500003 0.500003 0.992497 0.500003 1.60001C0.500003 2.20752 0.992492 2.70001 1.60001 2.70001Z" stroke="#535353" stroke-linecap="round" stroke-linejoin="round"/>
<path d="M9.3001 1.59998H29.1002" stroke="#535353" stroke-linecap="round" stroke-linejoin="round"/>
<path d="M1.60001 12.6001C2.20752 12.6001 2.70001 12.1076 2.70001 11.5001C2.70001 10.8926 2.20752 10.4001 1.60001 10.4001C0.992492 10.4001 0.500003 10.8926 0.500003 11.5001C0.500003 12.1076 0.992492 12.6001 1.60001 12.6001Z" stroke="#535353" stroke-linecap="round" stroke-linejoin="round"/>
<path d="M9.3001 11.5001H29.1002" stroke="#535353" stroke-linecap="round" stroke-linejoin="round"/>
<path d="M1.60001 22.5C2.20752 22.5 2.70001 22.0075 2.70001 21.4C2.70001 20.7926 2.20752 20.3 1.60001 20.3C0.992492 20.3 0.500003 20.7926 0.500003 21.4C0.500003 22.0075 0.992492 22.5 1.60001 22.5Z" stroke="#535353" stroke-linecap="round" stroke-linejoin="round"/>
<path d="M9.3001 21.4001H29.1002" stroke="#535353" stroke-linecap="round" stroke-linejoin="round"/>
</svg>
