<svg width="12" height="12" viewBox="0 0 12 12" fill="none" xmlns="http://www.w3.org/2000/svg">
<path fill-rule="evenodd" clip-rule="evenodd" d="M0.185348 0.185261C0.432374 -0.0617628 0.832883 -0.0617623 1.07991 0.185262L11.8147 10.9199C12.0617 11.1669 12.0617 11.5674 11.8147 11.8145C11.5676 12.0615 11.1671 12.0615 10.9201 11.8145L0.185348 1.07981C-0.0616786 0.83279 -0.0616787 0.432285 0.185348 0.185261Z" fill="#535353"/>
<path fill-rule="evenodd" clip-rule="evenodd" d="M0.185348 11.8145C-0.0616779 11.5675 -0.0616778 11.167 0.185348 10.9199L10.9201 0.185287C11.1671 -0.0617365 11.5676 -0.0617363 11.8147 0.185288C12.0617 0.432311 12.0617 0.832816 11.8147 1.07984L1.07991 11.8145C0.832883 12.0615 0.432374 12.0615 0.185348 11.8145Z" fill="#535353"/>
</svg>
