<svg width="14" height="11" viewBox="0 0 14 11" fill="none" xmlns="http://www.w3.org/2000/svg">
<g clip-path="url(#clip0_485_8890)">
<path d="M0.000737266 2.51505C0.433149 2.78931 0.840239 3.04712 1.24694 3.30532C3.04047 4.44522 4.83634 5.58167 6.6252 6.72845C6.88932 6.89753 7.10826 6.9002 7.37277 6.73113C9.52119 5.35752 11.6755 3.99194 13.8278 2.62406C13.8761 2.59346 13.9248 2.56362 13.9898 2.52346C13.9941 2.57854 13.9996 2.61794 13.9996 2.65772C14 4.86752 14.0015 7.07693 13.9992 9.28672C13.9984 10.2487 13.2407 10.9977 12.2641 10.9981C8.75531 11.0004 5.24655 11.0004 1.73817 10.9981C0.761548 10.9973 0.00190595 10.248 0.00112683 9.28863C-0.000820973 7.07884 0.000347706 4.86943 0.000347706 2.65964C0.000737266 2.62177 0.000737266 2.5839 0.000737266 2.51505Z" fill="#333333"/>
<path d="M7.00594 0.000753344C8.75506 0.000753344 10.5042 -0.00115923 12.2533 0.00151838C13.0854 0.00266592 13.7757 0.548133 13.9514 1.32387C13.9724 1.41759 13.9463 1.45967 13.8715 1.5071C11.6129 2.94 9.35498 4.3752 7.09787 5.81193C7.02736 5.85668 6.97711 5.8586 6.90465 5.81269C4.64443 4.37291 2.38264 2.93503 0.119299 1.49907C0.0452831 1.45202 0.0297007 1.40994 0.04801 1.32617C0.221364 0.54622 0.916728 0.00228341 1.75857 0.00113586C3.50769 -0.000776718 5.25681 0.000753344 7.00594 0.000753344Z" fill="#333333"/>
</g>
<defs>
<clipPath id="clip0_485_8890">
<rect width="14" height="11" fill="white"/>
</clipPath>
</defs>
</svg>
