<svg width="28" height="28" viewBox="0 0 28 28" fill="none" xmlns="http://www.w3.org/2000/svg">
<g clip-path="url(#clip0_485_8945)">
<path d="M10.3473 4.03798H6.98234C5.35874 4.03798 4.03798 5.35874 4.03798 6.98234V10.3473C4.03798 11.9709 5.35874 13.2917 6.98234 13.2917H10.3473C11.9709 13.2917 13.2917 11.9709 13.2917 10.3473V6.98234C13.2917 5.35874 11.9709 4.03798 10.3473 4.03798ZM12.4504 10.3473C12.4504 11.5082 11.5082 12.4504 10.3473 12.4504H6.98234C5.82142 12.4504 4.87923 11.5082 4.87923 10.3473V6.98234C4.87923 5.82142 5.82142 4.87923 6.98234 4.87923H10.3473C11.5082 4.87923 12.4504 5.82142 12.4504 6.98234V10.3473ZM21.2835 14.9742H17.9185C16.2949 14.9742 14.9742 16.2949 14.9742 17.9185V21.2835C14.9742 22.9071 16.2949 24.2279 17.9185 24.2279H21.2835C22.9071 24.2279 24.2279 22.9071 24.2279 21.2835V17.9185C24.2279 16.2949 22.9071 14.9742 21.2835 14.9742ZM23.3866 21.2835C23.3866 22.4444 22.4444 23.3866 21.2835 23.3866H17.9185C16.7576 23.3866 15.8154 22.4444 15.8154 21.2835V17.9185C15.8154 16.7576 16.7576 15.8154 17.9185 15.8154H21.2835C22.4444 15.8154 23.3866 16.7576 23.3866 17.9185V21.2835ZM10.3473 14.9742H6.98234C5.35874 14.9742 4.03798 16.2949 4.03798 17.9185V21.2835C4.03798 22.9071 5.35874 24.2279 6.98234 24.2279H10.3473C11.9709 24.2279 13.2917 22.9071 13.2917 21.2835V17.9185C13.2917 16.2949 11.9709 14.9742 10.3473 14.9742ZM12.4504 21.2835C12.4504 22.4444 11.5082 23.3866 10.3473 23.3866H6.98234C5.82142 23.3866 4.87923 22.4444 4.87923 21.2835V17.9185C4.87923 16.7576 5.82142 15.8154 6.98234 15.8154H10.3473C11.5082 15.8154 12.4504 16.7576 12.4504 17.9185V21.2835ZM18.6841 12.1308C18.9533 12.3411 19.2729 12.4504 19.601 12.4504C19.9291 12.4504 20.2488 12.3411 20.518 12.1308C21.1405 11.6344 24.2279 9.03498 24.2279 6.77203C24.2279 5.2662 23.0922 4.03798 21.7041 4.03798C20.8545 4.03798 20.0721 4.50067 19.601 5.20731C19.1383 4.49225 18.356 4.03798 17.4979 4.03798C16.1099 4.03798 14.9742 5.2662 14.9742 6.77203C14.9742 9.03498 18.0616 11.6344 18.6841 12.1308ZM17.4979 4.87923C18.3055 4.87923 19.029 5.5354 19.1804 6.40188C19.2141 6.60378 19.3907 6.74679 19.5926 6.74679C19.7945 6.74679 19.9712 6.60378 20.0048 6.40188C20.1563 5.5354 20.8881 4.87923 21.7041 4.87923C22.6295 4.87923 23.3866 5.72889 23.3866 6.77203C23.3866 8.32834 21.2499 10.4567 19.988 11.4746C19.7609 11.6513 19.4328 11.6597 19.2141 11.4746C17.9522 10.4651 15.8154 8.33675 15.8154 6.77203C15.8154 5.72889 16.5725 4.87923 17.4979 4.87923Z" fill="#535353"/>
</g>
<defs>
<clipPath id="clip0_485_8945">
<rect width="20" height="20" fill="white" transform="translate(4.03798 4.03798) scale(1.0095)"/>
</clipPath>
</defs>
</svg>
