<svg width="19" height="15" viewBox="0 0 19 15" fill="none" xmlns="http://www.w3.org/2000/svg">
<path d="M1.13591 0.00333367C0.959649 -0.0108192 0.782703 0.0202405 0.621412 0.0936687C0.460121 0.167097 0.31969 0.280517 0.213046 0.423463C0.106401 0.56641 0.0369864 0.734289 0.0112202 0.911592C-0.014546 1.08889 0.00415629 1.26991 0.0656064 1.43796C0.132902 1.63457 0.25663 1.80632 0.420906 1.93115C0.585183 2.05599 0.782528 2.1282 0.98759 2.13856C1.0906 2.14795 18.0217 2.17197 18.1691 2.13856C18.4262 2.07583 18.6519 1.92002 18.8037 1.70042C18.9555 1.48083 19.0228 1.21259 18.9931 0.946164C18.962 0.683411 18.8357 0.441776 18.6387 0.268125C18.4417 0.0944746 18.188 0.00120404 17.927 0.00645637C16.4415 -0.00294078 3.91828 0.00124542 1.13591 0.00333367Z" fill="#999999"/>
<path d="M17.8745 8.56515C18.0511 8.57681 18.2277 8.54318 18.3881 8.46733C18.5484 8.39149 18.6873 8.27588 18.7919 8.13123C18.8966 7.98657 18.9635 7.81751 18.9866 7.63969C19.0098 7.46186 18.9883 7.28102 18.9242 7.11383C18.8554 6.92402 18.7336 6.75853 18.5738 6.6375C18.414 6.51646 18.2229 6.44507 18.0238 6.432C17.926 6.42156 7.14985 6.40381 7.01181 6.432C6.76028 6.48898 6.53711 6.63519 6.3826 6.84426C6.22808 7.05334 6.15237 7.31152 6.16914 7.5722C6.18651 7.83703 6.30081 8.08574 6.48964 8.26961C6.67847 8.45348 6.92823 8.55924 7.18999 8.56621C7.93683 8.57665 15.0818 8.56515 17.8745 8.56515Z" fill="#999999"/>
<path d="M17.8754 14.9803C18.052 14.9919 18.2286 14.9581 18.389 14.8821C18.5493 14.8062 18.6882 14.6904 18.7927 14.5457C18.8972 14.4009 18.9641 14.2317 18.987 14.0539C19.01 13.876 18.9883 13.6951 18.9241 13.528C18.8552 13.3382 18.7335 13.1727 18.5737 13.0517C18.4139 12.9306 18.2228 12.8592 18.0237 12.8461C17.9207 12.8357 13.3191 12.818 13.1821 12.8461C12.9308 12.9033 12.7079 13.0497 12.5536 13.2587C12.3993 13.4678 12.3237 13.7258 12.3405 13.9863C12.3581 14.2511 12.4727 14.4998 12.6617 14.6834C12.8507 14.8671 13.1006 14.9726 13.3624 14.9793C14.0969 14.996 15.094 14.9856 17.8754 14.9803Z" fill="#999999"/>
</svg>
