<svg width="34" height="36" viewBox="0 0 34 36" fill="none" xmlns="http://www.w3.org/2000/svg">
<rect width="34" height="35.1305" rx="4" fill="#0F89FF" fill-opacity="0.1"/>
<path d="M17.1316 21.6086H13.8066C13.1975 21.6403 12.5982 21.4464 12.1231 21.064C11.648 20.6815 11.3306 20.1374 11.2316 19.5356C10.6476 16.9429 10.0602 14.3506 9.46958 11.7586C9.45594 11.6841 9.42647 11.6134 9.38317 11.5513C9.33986 11.4892 9.28373 11.4372 9.21857 11.3986C8.91857 11.2106 8.62457 11.0096 8.33057 10.8096C8.25209 10.7636 8.18383 10.702 8.12995 10.6287C8.07606 10.5554 8.0377 10.4719 8.0172 10.3832C7.9967 10.2946 7.9945 10.2027 8.01073 10.1132C8.02695 10.0237 8.06127 9.93842 8.11157 9.86262C8.16227 9.78723 8.2277 9.72289 8.30393 9.67347C8.38016 9.62405 8.46562 9.59059 8.55513 9.57508C8.64465 9.55957 8.73637 9.56231 8.82479 9.5832C8.9132 9.60409 8.99646 9.64267 9.06957 9.6966C9.40257 9.9126 9.73057 10.1356 10.0616 10.3566C10.2345 10.4687 10.3836 10.6139 10.5002 10.7838C10.6169 10.9537 10.6989 11.145 10.7416 11.3466C11.3369 13.9653 11.9326 16.5839 12.5286 19.2026C12.5408 19.3621 12.5856 19.5174 12.6602 19.6589C12.7349 19.8004 12.8378 19.925 12.9626 20.0252C13.0873 20.1253 13.2313 20.1987 13.3856 20.2409C13.5399 20.2831 13.7012 20.2932 13.8596 20.2706H20.4456C20.5987 20.2918 20.7545 20.2819 20.9037 20.2414C21.053 20.2009 21.1924 20.1306 21.3138 20.0349C21.4352 19.9392 21.5361 19.82 21.6103 19.6843C21.6844 19.5487 21.7305 19.3995 21.7456 19.2456C22.2056 17.2309 22.6629 15.2156 23.1176 13.1996C23.1658 13.029 23.1724 12.8494 23.1368 12.6757C23.1012 12.5021 23.0244 12.3395 22.9129 12.2017C22.8013 12.0639 22.6584 11.955 22.4959 11.884C22.3335 11.813 22.1564 11.7819 21.9796 11.7936C19.7216 11.7936 17.4636 11.7936 15.2056 11.7936C15.0974 11.8043 14.9883 11.7886 14.8875 11.7479C14.7868 11.7071 14.6975 11.6425 14.6272 11.5596C14.557 11.4766 14.508 11.3779 14.4843 11.2718C14.4607 11.1657 14.4632 11.0555 14.4916 10.9506C14.5314 10.801 14.622 10.6699 14.7479 10.5797C14.8738 10.4896 15.0271 10.4461 15.1816 10.4566C16.3382 10.4566 17.4952 10.4566 18.6526 10.4566H21.9526C22.3357 10.4415 22.717 10.5167 23.0658 10.676C23.4145 10.8354 23.721 11.0744 23.9603 11.374C24.1997 11.6735 24.3654 12.0251 24.4439 12.4004C24.5225 12.7757 24.5117 13.1642 24.4126 13.5346C23.9519 15.5633 23.4906 17.5919 23.0286 19.6206C22.9197 20.1954 22.6084 20.712 22.1512 21.0769C21.694 21.4418 21.1211 21.6309 20.5366 21.6096C19.4006 21.6116 18.2646 21.6086 17.1316 21.6086Z" fill="#0F89FF"/>
<path d="M12.6885 24.4955C12.6903 24.0239 12.8788 23.5721 13.2127 23.239C13.5466 22.9058 13.9988 22.7183 14.4705 22.7175C14.9451 22.7204 15.3992 22.9116 15.733 23.2491C16.0668 23.5867 16.2529 24.0429 16.2505 24.5175C16.2439 24.9898 16.0511 25.4405 15.714 25.7714C15.3769 26.1023 14.9228 26.2867 14.4505 26.2845C13.9803 26.2787 13.5314 26.0875 13.2014 25.7525C12.8715 25.4175 12.6871 24.9658 12.6885 24.4955ZM14.0285 24.4955C14.0269 24.5546 14.0371 24.6134 14.0585 24.6685C14.0799 24.7235 14.1121 24.7738 14.1532 24.8162C14.1942 24.8587 14.2434 24.8925 14.2977 24.9158C14.352 24.939 14.4104 24.9512 14.4695 24.9515C14.5852 24.9491 14.6955 24.9024 14.7779 24.8212C14.8603 24.7399 14.9084 24.6302 14.9125 24.5145C14.9136 24.3952 14.8674 24.2803 14.784 24.1948C14.7006 24.1094 14.5868 24.0604 14.4675 24.0585C14.3512 24.0583 14.2394 24.1037 14.1564 24.1851C14.0733 24.2665 14.0256 24.3773 14.0235 24.4935L14.0285 24.4955Z" fill="#0F89FF"/>
<path d="M21.6006 24.4945C21.601 24.7299 21.555 24.9631 21.4652 25.1807C21.3755 25.3984 21.2437 25.5962 21.0775 25.7629C20.9113 25.9296 20.7138 26.0619 20.4964 26.1523C20.2791 26.2426 20.046 26.2893 19.8106 26.2896C19.3388 26.2864 18.8874 26.0965 18.5551 25.7614C18.2229 25.4264 18.0368 24.9734 18.0376 24.5015C18.0376 24.0298 18.2245 23.5772 18.5573 23.2429C18.8901 22.9085 19.3418 22.7196 19.8136 22.7175C20.2855 22.7186 20.7379 22.9058 21.0725 23.2385C21.4071 23.5713 21.5969 24.0226 21.6006 24.4945ZM19.3776 24.5005C19.3767 24.5596 19.3876 24.6183 19.4097 24.6732C19.4317 24.728 19.4646 24.7778 19.5063 24.8198C19.5479 24.8617 19.5975 24.8948 19.6522 24.9173C19.7069 24.9398 19.7655 24.951 19.8246 24.9505C19.9403 24.9467 20.0502 24.8986 20.1315 24.8162C20.2128 24.7338 20.2594 24.6233 20.2616 24.5075C20.2615 24.4484 20.2497 24.3899 20.227 24.3354C20.2042 24.2808 20.171 24.2313 20.1291 24.1896C20.0872 24.1479 20.0375 24.1149 19.9829 24.0924C19.9282 24.0699 19.8697 24.0584 19.8106 24.0585C19.6949 24.0609 19.5848 24.1085 19.5039 24.1911C19.4229 24.2737 19.3776 24.3849 19.3776 24.5005Z" fill="#0F89FF"/>
<path d="M19.4397 14.1077H14.8447C14.3913 14.1077 14.0237 14.4752 14.0237 14.9287C14.0237 15.3821 14.3913 15.7497 14.8447 15.7497H19.4397C19.8931 15.7497 20.2607 15.3821 20.2607 14.9287C20.2607 14.4752 19.8931 14.1077 19.4397 14.1077Z" fill="#0F89FF"/>
<path d="M19.4397 16.8005H14.8447C14.3913 16.8005 14.0237 17.1681 14.0237 17.6215C14.0237 18.075 14.3913 18.4425 14.8447 18.4425H19.4397C19.8931 18.4425 20.2607 18.075 20.2607 17.6215C20.2607 17.1681 19.8931 16.8005 19.4397 16.8005Z" fill="#0F89FF"/>
<circle cx="24" cy="11.1047" r="3" fill="#FF3D00"/>
</svg>
