<svg width="12" height="14" viewBox="0 0 12 14" fill="none" xmlns="http://www.w3.org/2000/svg">
<path d="M8.75 8.16668C8.75 8.32139 8.68854 8.46976 8.57915 8.57916C8.46975 8.68856 8.32138 8.75001 8.16667 8.75001H3.5C3.34529 8.75001 3.19692 8.68856 3.08752 8.57916C2.97813 8.46976 2.91667 8.32139 2.91667 8.16668C2.91667 8.01197 2.97813 7.8636 3.08752 7.7542C3.19692 7.64481 3.34529 7.58335 3.5 7.58335H8.16667C8.32138 7.58335 8.46975 7.64481 8.57915 7.7542C8.68854 7.8636 8.75 8.01197 8.75 8.16668ZM6.41667 9.91668H3.5C3.34529 9.91668 3.19692 9.97814 3.08752 10.0875C2.97813 10.1969 2.91667 10.3453 2.91667 10.5C2.91667 10.6547 2.97813 10.8031 3.08752 10.9125C3.19692 11.0219 3.34529 11.0833 3.5 11.0833H6.41667C6.57138 11.0833 6.71975 11.0219 6.82915 10.9125C6.93854 10.8031 7 10.6547 7 10.5C7 10.3453 6.93854 10.1969 6.82915 10.0875C6.71975 9.97814 6.57138 9.91668 6.41667 9.91668ZM11.6667 6.11626V11.0833C11.6657 11.8566 11.3582 12.5979 10.8114 13.1447C10.2646 13.6915 9.52326 13.9991 8.75 14H2.91667C2.1434 13.9991 1.40208 13.6915 0.855295 13.1447C0.308515 12.5979 0.00092625 11.8566 0 11.0833V2.91668C0.00092625 2.14342 0.308515 1.40209 0.855295 0.855308C1.40208 0.308528 2.1434 0.000939695 2.91667 1.34451e-05H5.55042C6.08686 -0.00136726 6.61826 0.103606 7.11388 0.308865C7.6095 0.514123 8.05952 0.815594 8.43792 1.19585L10.4703 3.22935C10.8507 3.60749 11.1524 4.05736 11.3577 4.55292C11.5631 5.04847 11.6681 5.57984 11.6667 6.11626ZM7.61308 2.02068C7.4295 1.84286 7.22338 1.68989 7 1.56568V4.08335C7 4.23806 7.06146 4.38643 7.17086 4.49583C7.28025 4.60522 7.42862 4.66668 7.58333 4.66668H10.101C9.97672 4.44337 9.82354 4.23743 9.64542 4.05418L7.61308 2.02068ZM10.5 6.11626C10.5 6.02001 10.4813 5.92785 10.4726 5.83335H7.58333C7.1192 5.83335 6.67409 5.64897 6.3459 5.32078C6.01771 4.9926 5.83333 4.54748 5.83333 4.08335V1.1941C5.73883 1.18535 5.64608 1.16668 5.55042 1.16668H2.91667C2.45254 1.16668 2.00742 1.35105 1.67923 1.67924C1.35104 2.00743 1.16667 2.45255 1.16667 2.91668V11.0833C1.16667 11.5475 1.35104 11.9926 1.67923 12.3208C2.00742 12.649 2.45254 12.8333 2.91667 12.8333H8.75C9.21413 12.8333 9.65925 12.649 9.98744 12.3208C10.3156 11.9926 10.5 11.5475 10.5 11.0833V6.11626Z" fill="#777777"/>
</svg>
