<svg width="28" height="28" viewBox="0 0 28 28" fill="none" xmlns="http://www.w3.org/2000/svg">
<path d="M10.1653 3.12756C7.10321 3.12756 4.61304 5.61762 4.61304 8.67954C4.61304 11.7415 7.10321 14.2315 10.1653 14.2315C13.2273 14.2315 15.7175 11.7415 15.7175 8.67954C15.7175 5.61762 13.2273 3.12756 10.1653 3.12756ZM10.1653 13.3062C7.61401 13.3062 5.53841 11.2307 5.53841 8.67954C5.53841 6.1284 7.61401 4.05289 10.1653 4.05289C12.7165 4.05289 14.7921 6.1284 14.7921 8.67954C14.7921 11.2307 12.7165 13.3062 10.1653 13.3062ZM13.8131 17.5618C13.6946 17.7885 13.4142 17.8745 13.1884 17.7542C12.2631 17.2657 11.2183 17.0075 10.1653 17.0075C6.59333 17.0075 3.68767 19.913 3.68767 23.4848V24.8728C3.68767 25.1282 3.48039 25.3355 3.22499 25.3355C2.96959 25.3355 2.7623 25.1282 2.7623 24.8728V23.4848C2.7623 19.4032 6.08345 16.0822 10.1653 16.0822C11.3682 16.0822 12.5629 16.3774 13.6206 16.9363C13.8464 17.0556 13.9334 17.3351 13.8131 17.5609V17.5618ZM23.1204 17.3212V15.6204C23.1204 13.8346 21.6676 12.3818 19.8816 12.3818C18.0957 12.3818 16.6428 13.8346 16.6428 15.6204V17.3212C15.55 17.8422 14.7921 18.9581 14.7921 20.2471V22.0977C14.7921 23.8836 16.2449 25.3364 18.0309 25.3364H21.7324C23.5183 25.3364 24.9712 23.8836 24.9712 22.0977V20.2471C24.9712 18.9581 24.2133 17.8422 23.1204 17.3212ZM17.5682 15.6204C17.5682 14.3453 18.6065 13.3071 19.8816 13.3071C21.1568 13.3071 22.195 14.3453 22.195 15.6204V17.0417C22.0442 17.0205 21.8897 17.0084 21.7324 17.0084H18.0309C17.8736 17.0084 17.719 17.0195 17.5682 17.0417V15.6204ZM24.0458 22.0977C24.0458 23.3729 23.0075 24.4111 21.7324 24.4111H18.0309C16.7557 24.4111 15.7175 23.3729 15.7175 22.0977V20.2471C15.7175 18.972 16.7557 17.9338 18.0309 17.9338H21.7324C23.0075 17.9338 24.0458 18.972 24.0458 20.2471V22.0977ZM20.807 21.1724C20.807 21.6832 20.3924 22.0977 19.8816 22.0977C19.3708 22.0977 18.9563 21.6832 18.9563 21.1724C18.9563 20.6616 19.3708 20.2471 19.8816 20.2471C20.3924 20.2471 20.807 20.6616 20.807 21.1724Z" fill="#535353"/>
</svg>
