<svg width="286" height="9" viewBox="0 0 286 9" fill="none" xmlns="http://www.w3.org/2000/svg">
<path d="M85.954 0H4.046C1.81146 0 0 1.81146 0 4.046C0 6.28054 1.81146 8.092 4.046 8.092H85.954C88.1885 8.092 90 6.28054 90 4.046C90 1.81146 88.1885 0 85.954 0Z" fill="#0F89FF"/>
<path d="M183.954 0H102.046C99.8115 0 98 1.81146 98 4.046C98 6.28054 99.8115 8.092 102.046 8.092H183.954C186.189 8.092 188 6.28054 188 4.046C188 1.81146 186.189 0 183.954 0Z" fill="#0F89FF"/>
<path d="M200.046 0H281.954C283.027 0 284.056 0.426274 284.815 1.18505C285.574 1.94382 286 2.97293 286 4.046C286 5.11907 285.574 6.14818 284.815 6.90695C284.056 7.66573 283.027 8.092 281.954 8.092H200.046C198.973 8.092 197.944 7.66573 197.185 6.90695C196.426 6.14818 196 5.11907 196 4.046C196 2.97293 196.426 1.94382 197.185 1.18505C197.944 0.426274 198.973 0 200.046 0Z" fill="#0F89FF" fill-opacity="0.1"/>
<path d="M237 0H200C197.791 0 196 1.79086 196 4V4.092C196 6.30114 197.791 8.092 200 8.092H237C239.209 8.092 241 6.30114 241 4.092V4C241 1.79086 239.209 0 237 0Z" fill="#0F89FF"/>
</svg>
