<svg width="15" height="15" viewBox="0 0 15 15" fill="none" xmlns="http://www.w3.org/2000/svg">
<path d="M12.4271 5.31017C12.4271 8.59481 7.50014 12.4269 7.50014 12.4269C7.50014 12.4269 2.57318 8.59481 2.57318 5.31017C2.57318 2.62662 4.81659 0.383208 7.50014 0.383208C10.1837 0.383208 12.4271 2.62662 12.4271 5.31017Z" stroke="white" stroke-width="0.75" stroke-linecap="round" stroke-linejoin="round"/>
<path d="M7.49971 6.95256C8.40675 6.95256 9.14203 6.21727 9.14203 5.31024C9.14203 4.40321 8.40675 3.66792 7.49971 3.66792C6.59268 3.66792 5.85739 4.40321 5.85739 5.31024C5.85739 6.21727 6.59268 6.95256 7.49971 6.95256Z" stroke="white" stroke-width="0.75" stroke-linecap="round" stroke-linejoin="round"/>
<path d="M11.9641 10.7845H12.9743L14.6166 14.6165H0.383208L2.02553 10.7845H3.03577" stroke="white" stroke-width="0.75" stroke-linecap="round" stroke-linejoin="round"/>
</svg>
