<svg width="108" height="108" viewBox="0 0 108 108" fill="none" xmlns="http://www.w3.org/2000/svg">
<g filter="url(#filter0_d_485_8807)">
<path d="M78 39C78 25.7452 67.2548 15 54 15C40.7452 15 30 25.7452 30 39C30 52.2548 40.7452 63 54 63C67.2548 63 78 52.2548 78 39Z" fill="#0F89FF"/>
</g>
<path d="M54.8435 29.7264V32.3076C56.3293 32.4956 57.7104 33.1724 58.7693 34.2315C59.8282 35.2906 60.5047 36.6718 60.6923 38.1576H63.2735V39.8436H60.6935C60.5059 41.3293 59.8293 42.7104 58.7704 43.7693C57.7115 44.8282 56.3304 45.5048 54.8447 45.6924V48.2736H53.1575V45.6936C51.6716 45.5062 50.2903 44.8298 49.2311 43.7708C48.172 42.7119 47.4952 41.3307 47.3075 39.8448H44.7263V38.1576H47.3075C47.495 36.6715 48.1716 35.2901 49.2308 34.2309C50.2899 33.1717 51.6714 32.4951 53.1575 32.3076V29.7264H54.8435ZM54.0035 33.942C53.0029 33.942 52.0248 34.2388 51.1928 34.7947C50.3608 35.3506 49.7123 36.1407 49.3294 37.0652C48.9465 37.9896 48.8463 39.0069 49.0415 39.9882C49.2367 40.9696 49.7186 41.8711 50.4261 42.5786C51.1337 43.2862 52.0351 43.768 53.0165 43.9632C53.9979 44.1584 55.0151 44.0583 55.9396 43.6753C56.864 43.2924 57.6542 42.644 58.2101 41.812C58.766 40.98 59.0627 40.0019 59.0627 39.0012C59.0627 38.3366 58.9317 37.6784 58.6773 37.0643C58.4228 36.4503 58.0498 35.8924 57.5796 35.4226C57.1095 34.9527 56.5513 34.5802 55.9371 34.3261C55.3229 34.0721 54.6646 33.9416 53.9999 33.942H54.0035ZM54.0035 37.314C54.3368 37.3148 54.6624 37.4142 54.9392 37.5999C55.216 37.7856 55.4316 38.0492 55.5586 38.3573C55.6857 38.6655 55.7185 39.0043 55.6531 39.3312C55.5876 39.658 55.4268 39.9581 55.1908 40.1935C54.9549 40.4289 54.6545 40.5891 54.3275 40.6539C54.0006 40.7187 53.6618 40.6851 53.3539 40.5574C53.046 40.4296 52.7829 40.2135 52.5978 39.9364C52.4127 39.6592 52.3139 39.3333 52.3139 39C52.3139 38.5529 52.4916 38.124 52.8077 37.8079C53.1239 37.4917 53.5528 37.314 53.9999 37.314H54.0035Z" fill="white"/>
<defs>
<filter id="filter0_d_485_8807" x="0" y="0" width="108" height="108" filterUnits="userSpaceOnUse" color-interpolation-filters="sRGB">
<feFlood flood-opacity="0" result="BackgroundImageFix"/>
<feColorMatrix in="SourceAlpha" type="matrix" values="0 0 0 0 0 0 0 0 0 0 0 0 0 0 0 0 0 0 127 0" result="hardAlpha"/>
<feOffset dy="15"/>
<feGaussianBlur stdDeviation="15"/>
<feColorMatrix type="matrix" values="0 0 0 0 0.0784314 0 0 0 0 0.4 0 0 0 0 0.8 0 0 0 0.161 0"/>
<feBlend mode="normal" in2="BackgroundImageFix" result="effect1_dropShadow_485_8807"/>
<feBlend mode="normal" in="SourceGraphic" in2="effect1_dropShadow_485_8807" result="shape"/>
</filter>
</defs>
</svg>
