<svg width="32" height="32" viewBox="0 0 32 32" fill="none" xmlns="http://www.w3.org/2000/svg">
<path d="M27.3053 4.67817C25.0662 2.44228 22.2144 0.92052 19.1105 0.305315C16.0066 -0.309891 12.79 0.00908142 9.86734 1.2219C6.94471 2.43472 4.44732 4.48692 2.69097 7.11901C0.934608 9.75111 -0.00184972 12.8449 2.74303e-06 16.0092C0.0018552 19.1735 0.941934 22.2661 2.70137 24.8962C4.46081 27.5262 6.9606 29.5755 9.88465 30.7849C12.8087 31.9943 16.0257 32.3095 19.1289 31.6906C22.2321 31.0718 25.0821 29.5467 27.3185 27.3082C28.8038 25.8216 29.9817 24.0569 30.7849 22.115C31.5881 20.173 32.0008 18.0919 31.9996 15.9904C31.9984 13.889 31.5832 11.8083 30.7777 9.86735C29.9723 7.92637 28.7923 6.16307 27.3053 4.67817ZM21.2651 22.8395C20.9125 23.1982 20.5405 23.5314 20.2073 23.9034C19.9849 24.1513 19.7064 24.3423 19.395 24.4603C19.0837 24.5784 18.7486 24.6202 18.4178 24.5821C17.4221 24.5008 16.4533 24.2179 15.5704 23.7505C13.5896 22.7901 11.8364 21.4181 10.428 19.7261C9.35759 18.4882 8.50911 17.0747 7.92005 15.5478C7.61253 14.8114 7.46958 14.0167 7.50121 13.2192C7.52941 12.7339 7.74107 12.2774 8.0933 11.9423C8.49278 11.5632 8.86475 11.1708 9.25711 10.7846C9.36089 10.6662 9.48876 10.5713 9.63217 10.5063C9.77558 10.4413 9.93123 10.4076 10.0887 10.4076C10.2461 10.4076 10.4018 10.4413 10.5452 10.5063C10.6886 10.5713 10.8165 10.6662 10.9203 10.7846C11.2392 11.0975 11.546 11.4103 11.8578 11.7222C12.1697 12.034 12.4693 12.3275 12.7689 12.6332C12.8938 12.7372 12.9943 12.8674 13.0633 13.0145C13.1323 13.1616 13.168 13.3222 13.168 13.4847C13.168 13.6472 13.1323 13.8077 13.0633 13.9549C12.9943 14.102 12.8938 14.2322 12.7689 14.3361C12.3898 14.7224 12.0107 15.1076 11.6184 15.4806C11.5732 15.5157 11.5422 15.566 11.5311 15.6222C11.5201 15.6784 11.5297 15.7367 11.5582 15.7863C11.8208 16.3885 12.1703 16.9488 12.5957 17.4495C13.4106 18.4854 14.393 19.3778 15.5021 20.0899C15.7416 20.2428 16.0117 20.3498 16.2603 20.4894C16.2852 20.5066 16.3132 20.5187 16.3427 20.5249C16.3722 20.5312 16.4027 20.5315 16.4324 20.5259C16.462 20.5204 16.4903 20.5089 16.5155 20.4923C16.5407 20.4758 16.5624 20.4543 16.5793 20.4293C16.9584 20.037 17.3508 19.6507 17.737 19.2655C17.8397 19.1466 17.9669 19.0513 18.1098 18.9859C18.2526 18.9206 18.4079 18.8868 18.565 18.8868C18.7221 18.8868 18.8774 18.9206 19.0203 18.9859C19.1632 19.0513 19.2903 19.1466 19.393 19.2655C20.0188 19.8841 20.6373 20.5027 21.2559 21.1284C21.3808 21.233 21.4814 21.3635 21.5507 21.5109C21.6199 21.6583 21.6563 21.819 21.6572 21.9818C21.658 22.1447 21.6234 22.3058 21.5557 22.4539C21.488 22.602 21.3888 22.7336 21.2651 22.8395ZM15.3645 12.5028L15.5684 11.0761C16.9017 11.2652 18.1407 11.8725 19.1071 12.8104C20.0734 13.7484 20.7173 14.9687 20.9461 16.2959L19.5296 16.5425C19.351 15.5159 18.8518 14.5723 18.1038 13.8469C17.3557 13.1216 16.3972 12.6517 15.3656 12.5048L15.3645 12.5028ZM23.2605 16.2959C22.9335 14.3934 22.0106 12.6441 20.625 11.3002C19.2393 9.95632 17.4626 9.08738 15.551 8.81875L15.7549 7.39202C17.967 7.70467 20.0231 8.71088 21.6272 10.2659C23.2313 11.821 24.3009 13.8448 24.6821 16.0462L23.2605 16.2959Z" fill="#0F89FF"/>
</svg>
