<svg width="89" height="12" viewBox="0 0 89 12" fill="none" xmlns="http://www.w3.org/2000/svg">
<path d="M27.4383 0.257751L28.9134 3.10391C28.9464 3.17589 28.9987 3.23818 29.0649 3.28444C29.1312 3.33068 29.2092 3.35921 29.2907 3.36713L32.5668 3.84424C32.6604 3.85593 32.7487 3.89297 32.8212 3.95099C32.8937 4.00902 32.9476 4.08566 32.9763 4.17194C33.0051 4.25823 33.0077 4.3506 32.9838 4.43822C32.9598 4.52586 32.9104 4.60515 32.8412 4.66683L30.4227 6.87137C30.3867 6.93736 30.3678 7.01074 30.3678 7.08524C30.3678 7.15975 30.3867 7.23313 30.4227 7.29912L30.8859 10.425C30.9056 10.5153 30.8976 10.6092 30.8629 10.6953C30.8281 10.7814 30.768 10.8559 30.6899 10.9099C30.6118 10.9639 30.5191 10.995 30.423 10.9994C30.3269 11.0039 30.2314 10.9815 30.1483 10.935L27.2325 9.45429C27.157 9.42159 27.0751 9.40468 26.9923 9.40468C26.9095 9.40468 26.8277 9.42159 26.7522 9.45429L23.8363 10.935C23.7532 10.9815 23.6578 11.0039 23.5616 10.9994C23.4655 10.995 23.3728 10.9639 23.2947 10.9099C23.2166 10.8559 23.1566 10.7814 23.1218 10.6953C23.087 10.6092 23.079 10.5153 23.0988 10.425L23.6477 7.29912C23.6712 7.22656 23.6758 7.14953 23.6608 7.0749C23.6458 7.00027 23.6119 6.93035 23.5619 6.87137L21.1434 4.65038C21.0793 4.58806 21.0343 4.50999 21.0133 4.42475C20.9923 4.33949 20.9962 4.25036 21.0246 4.16711C21.0529 4.08386 21.1046 4.00969 21.174 3.95273C21.2433 3.89578 21.3277 3.85825 21.4179 3.84424L24.6939 3.38359C24.7755 3.37567 24.8534 3.34713 24.9197 3.3009C24.986 3.25464 25.0383 3.19234 25.0713 3.12037L26.5464 0.274206C26.5858 0.19363 26.648 0.125261 26.7259 0.0768288C26.8037 0.0283963 26.8942 0.00180716 26.987 8.70521e-05C27.0798 -0.00161233 27.1712 0.0215985 27.251 0.0671503C27.3307 0.112681 27.3956 0.178709 27.4383 0.257751Z" fill="#FF9F24"/>
<path d="M41.4383 0.257751L42.9134 3.10391C42.9464 3.17589 42.9987 3.23818 43.0649 3.28444C43.1312 3.33068 43.2092 3.35921 43.2907 3.36713L46.5668 3.84424C46.6604 3.85593 46.7487 3.89297 46.8212 3.95099C46.8937 4.00902 46.9476 4.08566 46.9763 4.17194C47.0051 4.25823 47.0077 4.3506 46.9838 4.43822C46.9598 4.52586 46.9104 4.60515 46.8412 4.66683L44.4227 6.87137C44.3867 6.93736 44.3678 7.01074 44.3678 7.08524C44.3678 7.15975 44.3867 7.23313 44.4227 7.29912L44.8859 10.425C44.9056 10.5153 44.8976 10.6092 44.8629 10.6953C44.8281 10.7814 44.768 10.8559 44.6899 10.9099C44.6118 10.9639 44.5191 10.995 44.423 10.9994C44.3269 11.0039 44.2314 10.9815 44.1483 10.935L41.2325 9.45429C41.157 9.42159 41.0751 9.40468 40.9923 9.40468C40.9095 9.40468 40.8277 9.42159 40.7522 9.45429L37.8363 10.935C37.7532 10.9815 37.6578 11.0039 37.5616 10.9994C37.4655 10.995 37.3728 10.9639 37.2947 10.9099C37.2166 10.8559 37.1566 10.7814 37.1218 10.6953C37.087 10.6092 37.079 10.5153 37.0988 10.425L37.6477 7.29912C37.6712 7.22656 37.6758 7.14953 37.6608 7.0749C37.6458 7.00027 37.6119 6.93035 37.5619 6.87137L35.1434 4.65038C35.0793 4.58806 35.0343 4.50999 35.0133 4.42475C34.9923 4.33949 34.9962 4.25036 35.0246 4.16711C35.0529 4.08386 35.1046 4.00969 35.174 3.95273C35.2433 3.89578 35.3277 3.85825 35.4179 3.84424L38.6939 3.38359C38.7755 3.37567 38.8534 3.34713 38.9197 3.3009C38.986 3.25464 39.0383 3.19234 39.0713 3.12037L40.5464 0.274206C40.5858 0.19363 40.648 0.125261 40.7259 0.0768288C40.8037 0.0283963 40.8942 0.00180716 40.987 8.70521e-05C41.0798 -0.00161233 41.1712 0.0215985 41.251 0.0671503C41.3307 0.112681 41.3956 0.178709 41.4383 0.257751Z" fill="#FF9F24"/>
<path d="M55.4383 0.257751L56.9134 3.10391C56.9464 3.17589 56.9987 3.23818 57.0649 3.28444C57.1312 3.33068 57.2092 3.35921 57.2907 3.36713L60.5668 3.84424C60.6604 3.85593 60.7487 3.89297 60.8212 3.95099C60.8937 4.00902 60.9476 4.08566 60.9763 4.17194C61.0051 4.25823 61.0077 4.3506 60.9838 4.43822C60.9598 4.52586 60.9104 4.60515 60.8412 4.66683L58.4227 6.87137C58.3867 6.93736 58.3678 7.01074 58.3678 7.08524C58.3678 7.15975 58.3867 7.23313 58.4227 7.29912L58.8859 10.425C58.9056 10.5153 58.8976 10.6092 58.8629 10.6953C58.8281 10.7814 58.768 10.8559 58.6899 10.9099C58.6118 10.9639 58.5191 10.995 58.423 10.9994C58.3269 11.0039 58.2314 10.9815 58.1483 10.935L55.2325 9.45429C55.157 9.42159 55.0751 9.40468 54.9923 9.40468C54.9095 9.40468 54.8277 9.42159 54.7522 9.45429L51.8363 10.935C51.7532 10.9815 51.6578 11.0039 51.5616 10.9994C51.4655 10.995 51.3728 10.9639 51.2947 10.9099C51.2166 10.8559 51.1566 10.7814 51.1218 10.6953C51.087 10.6092 51.079 10.5153 51.0988 10.425L51.6477 7.29912C51.6712 7.22656 51.6758 7.14953 51.6608 7.0749C51.6458 7.00027 51.6119 6.93035 51.5619 6.87137L49.1434 4.65038C49.0793 4.58806 49.0343 4.50999 49.0133 4.42475C48.9923 4.33949 48.9962 4.25036 49.0246 4.16711C49.0529 4.08386 49.1046 4.00969 49.174 3.95273C49.2433 3.89578 49.3277 3.85825 49.4179 3.84424L52.6939 3.38359C52.7755 3.37567 52.8534 3.34713 52.9197 3.3009C52.986 3.25464 53.0383 3.19234 53.0713 3.12037L54.5464 0.274206C54.5858 0.19363 54.648 0.125261 54.7259 0.0768288C54.8037 0.0283963 54.8942 0.00180716 54.987 8.70521e-05C55.0798 -0.00161233 55.1712 0.0215985 55.251 0.0671503C55.3307 0.112681 55.3956 0.178709 55.4383 0.257751Z" fill="#FF9F24"/>
<path d="M69.4383 0.257751L70.9134 3.10391C70.9464 3.17589 70.9987 3.23818 71.0649 3.28444C71.1312 3.33068 71.2092 3.35921 71.2907 3.36713L74.5668 3.84424C74.6604 3.85593 74.7487 3.89297 74.8212 3.95099C74.8937 4.00902 74.9476 4.08566 74.9763 4.17194C75.0051 4.25823 75.0077 4.3506 74.9838 4.43822C74.9598 4.52586 74.9104 4.60515 74.8412 4.66683L72.4227 6.87137C72.3867 6.93736 72.3678 7.01074 72.3678 7.08524C72.3678 7.15975 72.3867 7.23313 72.4227 7.29912L72.8859 10.425C72.9056 10.5153 72.8976 10.6092 72.8629 10.6953C72.8281 10.7814 72.768 10.8559 72.6899 10.9099C72.6118 10.9639 72.5191 10.995 72.423 10.9994C72.3269 11.0039 72.2314 10.9815 72.1483 10.935L69.2325 9.45429C69.157 9.42159 69.0751 9.40468 68.9923 9.40468C68.9095 9.40468 68.8277 9.42159 68.7522 9.45429L65.8363 10.935C65.7532 10.9815 65.6578 11.0039 65.5616 10.9994C65.4655 10.995 65.3728 10.9639 65.2947 10.9099C65.2166 10.8559 65.1566 10.7814 65.1218 10.6953C65.087 10.6092 65.079 10.5153 65.0988 10.425L65.6477 7.29912C65.6712 7.22656 65.6758 7.14953 65.6608 7.0749C65.6458 7.00027 65.6119 6.93035 65.5619 6.87137L63.1434 4.65038C63.0793 4.58806 63.0343 4.50999 63.0133 4.42475C62.9923 4.33949 62.9962 4.25036 63.0246 4.16711C63.0529 4.08386 63.1046 4.00969 63.174 3.95273C63.2433 3.89578 63.3277 3.85825 63.4179 3.84424L66.6939 3.38359C66.7755 3.37567 66.8534 3.34713 66.9197 3.3009C66.986 3.25464 67.0383 3.19234 67.0713 3.12037L68.5464 0.274206C68.5858 0.19363 68.648 0.125261 68.7259 0.0768288C68.8037 0.0283963 68.8942 0.00180716 68.987 8.70521e-05C69.0798 -0.00161233 69.1712 0.0215985 69.251 0.0671503C69.3307 0.112681 69.3956 0.178709 69.4383 0.257751Z" fill="#FF9F24"/>
<path d="M83.4383 0.257751L84.9134 3.10391C84.9464 3.17589 84.9987 3.23818 85.0649 3.28444C85.1312 3.33068 85.2092 3.35921 85.2907 3.36713L88.5668 3.84424C88.6604 3.85593 88.7487 3.89297 88.8212 3.95099C88.8937 4.00902 88.9476 4.08566 88.9763 4.17194C89.0051 4.25823 89.0077 4.3506 88.9838 4.43822C88.9598 4.52586 88.9104 4.60515 88.8412 4.66683L86.4227 6.87137C86.3867 6.93736 86.3678 7.01074 86.3678 7.08524C86.3678 7.15975 86.3867 7.23313 86.4227 7.29912L86.8859 10.425C86.9056 10.5153 86.8976 10.6092 86.8629 10.6953C86.8281 10.7814 86.768 10.8559 86.6899 10.9099C86.6118 10.9639 86.5191 10.995 86.423 10.9994C86.3269 11.0039 86.2314 10.9815 86.1483 10.935L83.2325 9.45429C83.157 9.42159 83.0751 9.40468 82.9923 9.40468C82.9095 9.40468 82.8277 9.42159 82.7522 9.45429L79.8363 10.935C79.7532 10.9815 79.6578 11.0039 79.5616 10.9994C79.4655 10.995 79.3728 10.9639 79.2947 10.9099C79.2166 10.8559 79.1566 10.7814 79.1218 10.6953C79.087 10.6092 79.079 10.5153 79.0988 10.425L79.6477 7.29912C79.6712 7.22656 79.6758 7.14953 79.6608 7.0749C79.6458 7.00027 79.6119 6.93035 79.5619 6.87137L77.1434 4.65038C77.0793 4.58806 77.0343 4.50999 77.0133 4.42475C76.9923 4.33949 76.9962 4.25036 77.0246 4.16711C77.0529 4.08386 77.1046 4.00969 77.174 3.95273C77.2433 3.89578 77.3277 3.85825 77.4179 3.84424L80.6939 3.38359C80.7755 3.37567 80.8534 3.34713 80.9197 3.3009C80.986 3.25464 81.0383 3.19234 81.0713 3.12037L82.5464 0.274206C82.5858 0.19363 82.648 0.125261 82.7259 0.0768288C82.8037 0.0283963 82.8942 0.00180716 82.987 8.70521e-05C83.0798 -0.00161233 83.1712 0.0215985 83.251 0.0671503C83.3307 0.112681 83.3956 0.178709 83.4383 0.257751Z" fill="#FF9F24"/>
<path d="M11.0833 2.18182H9.91667V1.63636C9.91667 1.20237 9.73229 0.786158 9.4041 0.47928C9.07591 0.172402 8.6308 0 8.16667 0H1.75C1.28587 0 0.840752 0.172402 0.512563 0.47928C0.184374 0.786158 0 1.20237 0 1.63636L0 9.81818H1.19058C1.17557 9.90843 1.16758 9.99958 1.16667 10.0909C1.16667 10.5972 1.38177 11.0828 1.76466 11.4408C2.14754 11.7989 2.66685 12 3.20833 12C3.74982 12 4.26912 11.7989 4.65201 11.4408C5.0349 11.0828 5.25 10.5972 5.25 10.0909C5.24909 9.99958 5.24109 9.90843 5.22608 9.81818H8.77392C8.75891 9.90843 8.75091 9.99958 8.75 10.0909C8.75 10.5972 8.9651 11.0828 9.34799 11.4408C9.73088 11.7989 10.2502 12 10.7917 12C11.3331 12 11.8525 11.7989 12.2353 11.4408C12.6182 11.0828 12.8333 10.5972 12.8333 10.0909C12.8324 9.99958 12.8244 9.90843 12.8094 9.81818H14V4.90909C13.9991 4.18604 13.6915 3.49285 13.1447 2.98157C12.5979 2.4703 11.8566 2.18268 11.0833 2.18182ZM11.0833 3.27273C11.5475 3.27273 11.9926 3.44513 12.3208 3.75201C12.649 4.05889 12.8333 4.4751 12.8333 4.90909V5.45455H9.91667V3.27273H11.0833ZM4.08333 10.0909C4.08333 10.3079 3.99115 10.516 3.82705 10.6695C3.66296 10.8229 3.4404 10.9091 3.20833 10.9091C2.97627 10.9091 2.75371 10.8229 2.58961 10.6695C2.42552 10.516 2.33333 10.3079 2.33333 10.0909C2.33369 9.99769 2.35207 9.90529 2.38758 9.81818H4.02908C4.0646 9.90529 4.08297 9.99769 4.08333 10.0909ZM8.75 8.72727H1.16667V1.63636C1.16667 1.4917 1.22812 1.35296 1.33752 1.25067C1.44692 1.14838 1.59529 1.09091 1.75 1.09091H8.16667C8.32138 1.09091 8.46975 1.14838 8.57915 1.25067C8.68854 1.35296 8.75 1.4917 8.75 1.63636V8.72727ZM11.6667 10.0909C11.6667 10.3079 11.5745 10.516 11.4104 10.6695C11.2463 10.8229 11.0237 10.9091 10.7917 10.9091C10.5596 10.9091 10.337 10.8229 10.1729 10.6695C10.0089 10.516 9.91667 10.3079 9.91667 10.0909C9.91692 9.99768 9.9353 9.90526 9.97092 9.81818H11.6124C11.648 9.90526 11.6664 9.99768 11.6667 10.0909ZM9.91667 8.72727V6.54545H12.8333V8.72727H9.91667Z" fill="#535353"/>
</svg>
