<svg width="14" height="15" viewBox="0 0 14 15" fill="none" xmlns="http://www.w3.org/2000/svg">
<path d="M10.9696 13.5291C10.6928 13.5291 10.4685 13.3047 10.4685 13.028C10.4685 12.7513 10.6928 12.5269 10.9696 12.5269C11.2464 12.5269 11.4706 12.7513 11.4706 13.028C11.4706 13.3047 11.2464 13.5291 10.9696 13.5291Z" stroke="#0F89FF" stroke-linecap="round" stroke-linejoin="round"/>
<path d="M4.45513 13.5291C4.17838 13.5291 3.95403 13.3047 3.95403 13.028C3.95403 12.7513 4.17838 12.5269 4.45513 12.5269C4.73188 12.5269 4.95622 12.7513 4.95622 13.028C4.95622 13.3047 4.73188 13.5291 4.45513 13.5291Z" stroke="#0F89FF" stroke-linecap="round" stroke-linejoin="round"/>
<path d="M9.62514 6.51381H6.61858" stroke="#0F89FF" stroke-linecap="round" stroke-linejoin="round"/>
<path d="M8.12176 5.01064V8.01719" stroke="#0F89FF" stroke-linecap="round" stroke-linejoin="round"/>
<path d="M0.500733 0.500733H3.0062L3.26993 3.0062M3.26993 3.0062L3.91393 9.12421C3.96762 9.63428 4.39773 10.0215 4.91061 10.0215H11.2434C11.7033 10.0215 12.1041 9.70851 12.2157 9.26237L13.4684 4.25145C13.6265 3.61892 13.1481 3.0062 12.4961 3.0062H3.26993Z" stroke="#0F89FF" stroke-linecap="round" stroke-linejoin="round"/>
</svg>
