<svg width="17" height="17" viewBox="0 0 17 17" fill="none" xmlns="http://www.w3.org/2000/svg">
<path d="M13.1821 16.2122C12.8545 16.2122 12.5889 15.9465 12.5889 15.6189C12.5889 15.2913 12.8545 15.0257 13.1821 15.0257C13.5098 15.0257 13.7753 15.2913 13.7753 15.6189C13.7753 15.9465 13.5098 16.2122 13.1821 16.2122Z" stroke="#0F89FF" stroke-width="1.5" stroke-linecap="round" stroke-linejoin="round"/>
<path d="M5.46948 16.2122C5.14184 16.2122 4.87623 15.9465 4.87623 15.6189C4.87623 15.2913 5.14184 15.0257 5.46948 15.0257C5.79713 15.0257 6.06272 15.2913 6.06272 15.6189C6.06272 15.9465 5.79713 16.2122 5.46948 16.2122Z" stroke="#0F89FF" stroke-width="1.5" stroke-linecap="round" stroke-linejoin="round"/>
<path d="M11.5901 7.90676H8.03062" stroke="#0F89FF" stroke-width="1.5" stroke-linecap="round" stroke-linejoin="round"/>
<path d="M9.81042 6.12709V9.68657" stroke="#0F89FF" stroke-width="1.5" stroke-linecap="round" stroke-linejoin="round"/>
<path d="M0.787829 0.787829H3.75406L4.0663 3.75406M4.0663 3.75406L4.82874 10.9972C4.8923 11.6011 5.40151 12.0595 6.00871 12.0595H13.5061C14.0506 12.0595 14.5252 11.689 14.6572 11.1608L16.1403 5.22833C16.3276 4.47947 15.7611 3.75406 14.9892 3.75406H4.0663Z" stroke="#0F89FF" stroke-width="1.5" stroke-linecap="round" stroke-linejoin="round"/>
</svg>
