<svg width="17" height="17" viewBox="0 0 17 17" fill="none" xmlns="http://www.w3.org/2000/svg">
<path d="M8.50004 16.4937C12.9149 16.4937 16.4937 12.9149 16.4937 8.50004C16.4937 4.08527 12.9149 0.506385 8.50004 0.506385C4.08527 0.506385 0.506385 4.08527 0.506385 8.50004C0.506385 12.9149 4.08527 16.4937 8.50004 16.4937Z" stroke="white" stroke-linecap="round" stroke-linejoin="round"/>
<path d="M6.65521 12.1893H10.3446" stroke="white" stroke-linecap="round" stroke-linejoin="round"/>
<path d="M8.50018 12.1893V7.88507H7.27038" stroke="white" stroke-linecap="round" stroke-linejoin="round"/>
<path d="M8.50011 5.11821C8.33031 5.11821 8.19266 4.98056 8.19266 4.81076C8.19266 4.64097 8.33031 4.50332 8.50011 4.50332" stroke="white" stroke-linecap="round" stroke-linejoin="round"/>
<path d="M8.50025 5.11821C8.67004 5.11821 8.8077 4.98056 8.8077 4.81076C8.8077 4.64097 8.67004 4.50332 8.50025 4.50332" stroke="white" stroke-linecap="round" stroke-linejoin="round"/>
</svg>
