<svg width="335" height="72" viewBox="0 0 335 72" fill="none" xmlns="http://www.w3.org/2000/svg">
<g opacity="0.3">
<mask id="mask0_485_7709" style="mask-type:alpha" maskUnits="userSpaceOnUse" x="0" y="-23" width="335" height="95">
<rect y="-22.8169" width="335" height="94.2814" rx="20" fill="url(#paint0_linear_485_7709)"/>
</mask>
<g mask="url(#mask0_485_7709)">
<path opacity="0.15" d="M32.1881 31.0093C5.51645 21.9559 -15.0449 23.678 -26.9885 25.8432C-29.3289 36.8929 -32.6053 60.1978 -26.9885 65.0195C-19.9676 71.0466 43.221 73.6297 86.3498 76.6432C120.853 79.0541 271.235 81.5223 337.098 76.6432C344.119 58.1314 353.949 0.357057 337.098 0.0126498C316.035 -0.417859 266.843 10.1204 232.695 34.6594C188.061 66.7323 170.509 23.2475 120.861 18.2966C92.4612 15.4647 58.9067 40.0786 32.1881 31.0093Z" fill="white"/>
<path opacity="0.15" d="M32.096 36.1755C10.4137 32.1941 -8.60008 35.8885 -22.9763 36.1755C-25.3166 47.2252 -28.5931 70.5301 -22.9763 75.3518C-15.9554 81.3789 47.2333 83.962 90.362 86.9755C124.865 89.3864 275.247 80.2309 341.111 75.3518C348.131 56.8399 357.961 10.6893 341.111 10.3449C320.048 9.91442 270.856 20.4527 236.707 44.9916C192.074 77.0645 121.362 69.3154 96.2876 58.1222C76.0794 49.1014 60.1799 41.3323 32.096 36.1755Z" fill="white"/>
</g>
</g>
<defs>
<linearGradient id="paint0_linear_485_7709" x1="0" y1="71.4645" x2="129.129" y2="-145.4" gradientUnits="userSpaceOnUse">
<stop stop-color="#441DFC"/>
<stop offset="1" stop-color="#4E81EB"/>
</linearGradient>
</defs>
</svg>
