<svg width="67" height="67" viewBox="0 0 67 67" fill="none" xmlns="http://www.w3.org/2000/svg">
<rect width="67" height="67" rx="12" fill="#474747" fill-opacity="0.08"/>
<path d="M45.244 44.1339V32.2367H23.7556V44.1339C23.7556 45.2587 24.6674 46.1704 25.7921 46.1704H43.2074C44.3322 46.1704 45.244 45.2587 45.244 44.1339Z" stroke="#535353" stroke-linecap="round" stroke-linejoin="round"/>
<path d="M34.5 46.1702V32.2327" stroke="#535353" stroke-linecap="round" stroke-linejoin="round"/>
<path d="M47 28.9766V30.2002C47 31.3249 46.0883 32.2367 44.9635 32.2367H24.0365C22.9118 32.2367 22 31.3249 22 30.2002V28.9766C22 27.8519 22.9118 26.9401 24.0365 26.9401H44.9635C46.0883 26.9401 47 27.8519 47 28.9766Z" stroke="#535353" stroke-linecap="round" stroke-linejoin="round"/>
<path d="M34.5003 26.9399C34.5003 25.1579 32.4214 21 29.3029 21C24.2297 21 26.0778 26.9399 28.5059 26.9399" stroke="#535353" stroke-linecap="round" stroke-linejoin="round"/>
<path d="M34.5 26.9399C34.5 25.1579 36.5789 21 39.6974 21C44.7706 21 42.9225 26.9399 40.4944 26.9399" stroke="#535353" stroke-linecap="round" stroke-linejoin="round"/>
</svg>
