<svg width="17" height="17" viewBox="0 0 17 17" fill="none" xmlns="http://www.w3.org/2000/svg">
<path d="M9.28206 12.2419H5.90226C5.28318 12.2741 4.67394 12.077 4.19105 11.6883C3.70816 11.2996 3.38552 10.7464 3.28483 10.1347C2.6912 7.49933 2.0942 4.8643 1.4938 2.22958C1.47993 2.15388 1.44998 2.08202 1.40596 2.01889C1.36195 1.95576 1.30489 1.90284 1.23865 1.86366C0.933708 1.67256 0.634862 1.4682 0.336016 1.2649C0.256243 1.21812 0.186857 1.15559 0.132087 1.08107C0.0773179 1.00656 0.0383182 0.921645 0.0174819 0.831544C-0.00335452 0.741443 -0.0055882 0.64807 0.0109055 0.557074C0.0273992 0.466078 0.0622782 0.379389 0.113413 0.302334C0.164946 0.225705 0.231448 0.160302 0.308935 0.110068C0.386422 0.0598347 0.473292 0.0258244 0.564281 0.010058C0.65527 -0.00570843 0.748508 -0.0029247 0.838378 0.0183095C0.928249 0.0395436 1.01288 0.0787591 1.08719 0.133582C1.42568 0.353142 1.75909 0.57979 2.09555 0.804432C2.27131 0.918432 2.42284 1.06603 2.54145 1.23872C2.66007 1.41141 2.74342 1.60583 2.78675 1.8108C3.39189 4.47263 3.99738 7.13441 4.6032 9.79623C4.61561 9.95836 4.66118 10.1162 4.73706 10.2601C4.81293 10.4039 4.91752 10.5306 5.04434 10.6324C5.17117 10.7341 5.31753 10.8088 5.47437 10.8517C5.6312 10.8946 5.79518 10.9048 5.95615 10.8818H12.6507C12.8064 10.9034 12.9648 10.8933 13.1164 10.8522C13.2681 10.811 13.4099 10.7396 13.5333 10.6423C13.6567 10.545 13.7592 10.4238 13.8346 10.2859C13.91 10.148 13.9568 9.99637 13.9721 9.83997C14.4397 7.7921 14.9046 5.74353 15.3667 3.69431C15.4158 3.52093 15.4225 3.33831 15.3863 3.16181C15.3501 2.9853 15.272 2.82005 15.1586 2.68C15.0453 2.53994 14.8999 2.42921 14.7349 2.35701C14.5698 2.28481 14.3898 2.25327 14.21 2.26513C11.9148 2.26513 9.61954 2.26513 7.32432 2.26513C7.2144 2.27604 7.10346 2.2601 7.00106 2.21866C6.89866 2.17722 6.80786 2.11156 6.73647 2.02726C6.66507 1.94297 6.61522 1.84256 6.5912 1.73474C6.56718 1.62691 6.56969 1.51491 6.59855 1.40828C6.63901 1.25618 6.73113 1.12287 6.85909 1.03125C6.98706 0.939637 7.14291 0.895402 7.29993 0.906117C8.47566 0.906117 9.65173 0.906117 10.8281 0.906117H14.1825C14.572 0.890785 14.9596 0.967178 15.3141 1.12916C15.6686 1.29113 15.9801 1.53413 16.2234 1.83859C16.4667 2.14306 16.6351 2.50045 16.7149 2.88194C16.7948 3.26343 16.7839 3.65836 16.6831 4.03485C16.2148 6.09695 15.7459 8.15905 15.2763 10.2212C15.1656 10.8054 14.8491 11.3305 14.3844 11.7015C13.9197 12.0724 13.3374 12.2645 12.7432 12.2429C11.5885 12.245 10.4337 12.2419 9.28206 12.2419Z" fill="white"/>
<path d="M4.76576 15.1764C4.76763 14.697 4.9592 14.2378 5.29861 13.8991C5.63802 13.5605 6.09767 13.3699 6.57712 13.3691C7.0596 13.3721 7.52118 13.5664 7.86044 13.9095C8.1997 14.2526 8.38889 14.7163 8.38646 15.1988C8.37976 15.6789 8.18378 16.1369 7.84115 16.4733C7.49851 16.8096 7.03692 16.9971 6.55679 16.9949C6.07885 16.989 5.62256 16.7946 5.28716 16.4541C4.95176 16.1136 4.76438 15.6544 4.76576 15.1764ZM6.12784 15.1764C6.12621 15.2365 6.13658 15.2962 6.15834 15.3522C6.18011 15.4082 6.21282 15.4592 6.25457 15.5024C6.29632 15.5456 6.34626 15.58 6.40147 15.6036C6.45668 15.6272 6.51606 15.6396 6.57611 15.6399C6.6937 15.6374 6.80586 15.59 6.88959 15.5074C6.97332 15.4248 7.02228 15.3133 7.02641 15.1957C7.0275 15.0744 6.98054 14.9576 6.8958 14.8708C6.81105 14.7839 6.69541 14.7341 6.57408 14.7322C6.45587 14.7319 6.34228 14.7782 6.25784 14.8609C6.17341 14.9436 6.1249 15.0562 6.12276 15.1744L6.12784 15.1764Z" fill="white"/>
<path d="M13.8248 15.1754C13.8252 15.4147 13.7784 15.6517 13.6872 15.8729C13.5959 16.0941 13.462 16.2952 13.293 16.4646C13.1241 16.6341 12.9234 16.7686 12.7024 16.8605C12.4814 16.9523 12.2445 16.9997 12.0053 17C11.5256 16.9968 11.0668 16.8037 10.7291 16.4632C10.3913 16.1226 10.2022 15.6621 10.203 15.1825C10.203 14.703 10.393 14.2429 10.7313 13.9031C11.0696 13.5632 11.5288 13.3713 12.0083 13.3691C12.488 13.3702 12.9478 13.5605 13.288 13.8987C13.6281 14.2369 13.821 14.6957 13.8248 15.1754ZM11.5651 15.1815C11.5642 15.2416 11.5752 15.3012 11.5977 15.357C11.6202 15.4127 11.6535 15.4634 11.6959 15.506C11.7382 15.5486 11.7887 15.5823 11.8442 15.6051C11.8998 15.628 11.9594 15.6394 12.0195 15.6389C12.1371 15.635 12.2488 15.5862 12.3314 15.5024C12.4141 15.4186 12.4614 15.3063 12.4637 15.1886C12.4635 15.1285 12.4516 15.0691 12.4285 15.0136C12.4054 14.9582 12.3716 14.9079 12.329 14.8655C12.2864 14.8231 12.2359 14.7895 12.1804 14.7666C12.1248 14.7438 12.0653 14.7321 12.0053 14.7322C11.8877 14.7346 11.7757 14.783 11.6935 14.867C11.6112 14.951 11.5651 15.0639 11.5651 15.1815Z" fill="white"/>
<path d="M11.6282 4.61735H6.95749C6.49659 4.61735 6.12296 4.99098 6.12296 5.45188C6.12296 5.91277 6.49659 6.28641 6.95749 6.28641H11.6282C12.0891 6.28641 12.4628 5.91277 12.4628 5.45188C12.4628 4.99098 12.0891 4.61735 11.6282 4.61735Z" fill="white"/>
<path d="M11.6282 7.3546H6.95749C6.49659 7.3546 6.12296 7.72823 6.12296 8.18913C6.12296 8.65003 6.49659 9.02366 6.95749 9.02366H11.6282C12.0891 9.02366 12.4628 8.65003 12.4628 8.18913C12.4628 7.72823 12.0891 7.3546 11.6282 7.3546Z" fill="white"/>
</svg>
