<svg width="28" height="28" viewBox="0 0 28 28" fill="none" xmlns="http://www.w3.org/2000/svg">
<path d="M20.3548 5.18307H7.90901C5.85048 5.18307 4.17527 6.82577 4.17527 8.84436V19.4214C4.17527 21.44 5.85048 23.0827 7.90901 23.0827H20.3548C22.4134 23.0827 24.0886 21.44 24.0886 19.4214V8.84436C24.0886 6.82577 22.4134 5.18307 20.3548 5.18307ZM23.2588 19.4214C23.2588 20.9917 21.9562 22.2691 20.3548 22.2691H7.90901C6.30765 22.2691 5.00499 20.9917 5.00499 19.4214V8.84436C5.00499 7.27408 6.30765 5.99669 7.90901 5.99669H20.3548C21.9562 5.99669 23.2588 7.27408 23.2588 8.84436V19.4214ZM20.7697 9.65799C20.7697 9.88255 20.5838 10.0648 20.3548 10.0648H12.0576C11.8286 10.0648 11.6428 9.88255 11.6428 9.65799C11.6428 9.43343 11.8286 9.25118 12.0576 9.25118H20.3548C20.5838 9.25118 20.7697 9.43343 20.7697 9.65799ZM9.15359 9.65799C9.15359 10.1071 8.78188 10.4716 8.32387 10.4716C7.86587 10.4716 7.49415 10.1071 7.49415 9.65799C7.49415 9.20887 7.86587 8.84436 8.32387 8.84436C8.78188 8.84436 9.15359 9.20887 9.15359 9.65799ZM20.7697 14.1329C20.7697 14.3575 20.5838 14.5397 20.3548 14.5397H12.0576C11.8286 14.5397 11.6428 14.3575 11.6428 14.1329C11.6428 13.9083 11.8286 13.7261 12.0576 13.7261H20.3548C20.5838 13.7261 20.7697 13.9083 20.7697 14.1329ZM9.15359 14.1329C9.15359 14.582 8.78188 14.9465 8.32387 14.9465C7.86587 14.9465 7.49415 14.582 7.49415 14.1329C7.49415 13.6838 7.86587 13.3193 8.32387 13.3193C8.78188 13.3193 9.15359 13.6838 9.15359 14.1329ZM20.7697 18.6078C20.7697 18.8324 20.5838 19.0146 20.3548 19.0146H12.0576C11.8286 19.0146 11.6428 18.8324 11.6428 18.6078C11.6428 18.3833 11.8286 18.201 12.0576 18.201H20.3548C20.5838 18.201 20.7697 18.3833 20.7697 18.6078ZM9.15359 18.6078C9.15359 19.0569 8.78188 19.4214 8.32387 19.4214C7.86587 19.4214 7.49415 19.0569 7.49415 18.6078C7.49415 18.1587 7.86587 17.7942 8.32387 17.7942C8.78188 17.7942 9.15359 18.1587 9.15359 18.6078Z" fill="#535353"/>
<path fill-rule="evenodd" clip-rule="evenodd" d="M4.03699 8.84436C4.03699 6.75088 5.7741 5.04747 7.90901 5.04747H20.3548C22.4897 5.04747 24.2268 6.75088 24.2268 8.84436V19.4214C24.2268 21.5149 22.4897 23.2183 20.3548 23.2183H7.90901C5.7741 23.2183 4.03699 21.5149 4.03699 19.4214V8.84436ZM7.90901 5.31867C5.92685 5.31867 4.31356 6.90066 4.31356 8.84436V19.4214C4.31356 21.3651 5.92685 22.9471 7.90901 22.9471H20.3548C22.337 22.9471 23.9503 21.3651 23.9503 19.4214V8.84436C23.9503 6.90066 22.337 5.31867 20.3548 5.31867H7.90901ZM7.90901 6.13229C6.38403 6.13229 5.14328 7.34897 5.14328 8.84436V19.4214C5.14328 20.9168 6.38403 22.1335 7.90901 22.1335H20.3548C21.8798 22.1335 23.1206 20.9168 23.1206 19.4214V8.84436C23.1206 7.34897 21.8798 6.13229 20.3548 6.13229H7.90901ZM4.86671 8.84436C4.86671 7.19918 6.23128 5.86109 7.90901 5.86109H20.3548C22.0326 5.86109 23.3971 7.19918 23.3971 8.84436V19.4214C23.3971 21.0666 22.0326 22.4047 20.3548 22.4047H7.90901C6.23128 22.4047 4.86671 21.0666 4.86671 19.4214V8.84436ZM8.32387 8.97997C7.94224 8.97997 7.63244 9.28376 7.63244 9.65799C7.63244 10.0322 7.94224 10.336 8.32387 10.336C8.70551 10.336 9.01531 10.0322 9.01531 9.65799C9.01531 9.28376 8.70551 8.97997 8.32387 8.97997ZM7.35587 9.65799C7.35587 9.13398 7.7895 8.70876 8.32387 8.70876C8.85825 8.70876 9.29188 9.13398 9.29188 9.65799C9.29188 10.182 8.85825 10.6072 8.32387 10.6072C7.7895 10.6072 7.35587 10.182 7.35587 9.65799ZM12.0576 9.38678C11.905 9.38678 11.781 9.50832 11.781 9.65799C11.781 9.80765 11.905 9.92919 12.0576 9.92919H20.3548C20.5074 9.92919 20.6314 9.80765 20.6314 9.65799C20.6314 9.50832 20.5074 9.38678 20.3548 9.38678H12.0576ZM11.5045 9.65799C11.5045 9.35853 11.7522 9.11557 12.0576 9.11557H20.3548C20.6602 9.11557 20.908 9.35853 20.908 9.65799C20.908 9.95744 20.6602 10.2004 20.3548 10.2004H12.0576C11.7522 10.2004 11.5045 9.95744 11.5045 9.65799ZM8.32387 13.4549C7.94224 13.4549 7.63244 13.7587 7.63244 14.1329C7.63244 14.5071 7.94224 14.8109 8.32387 14.8109C8.70551 14.8109 9.01531 14.5071 9.01531 14.1329C9.01531 13.7587 8.70551 13.4549 8.32387 13.4549ZM7.35587 14.1329C7.35587 13.6089 7.7895 13.1837 8.32387 13.1837C8.85825 13.1837 9.29188 13.6089 9.29188 14.1329C9.29188 14.6569 8.85825 15.0821 8.32387 15.0821C7.7895 15.0821 7.35587 14.6569 7.35587 14.1329ZM12.0576 13.8617C11.905 13.8617 11.781 13.9832 11.781 14.1329C11.781 14.2826 11.905 14.4041 12.0576 14.4041H20.3548C20.5074 14.4041 20.6314 14.2826 20.6314 14.1329C20.6314 13.9832 20.5074 13.8617 20.3548 13.8617H12.0576ZM11.5045 14.1329C11.5045 13.8335 11.7522 13.5905 12.0576 13.5905H20.3548C20.6602 13.5905 20.908 13.8335 20.908 14.1329C20.908 14.4324 20.6602 14.6753 20.3548 14.6753H12.0576C11.7522 14.6753 11.5045 14.4324 11.5045 14.1329ZM8.32387 17.9298C7.94224 17.9298 7.63244 18.2336 7.63244 18.6078C7.63244 18.982 7.94224 19.2858 8.32387 19.2858C8.70551 19.2858 9.01531 18.982 9.01531 18.6078C9.01531 18.2336 8.70551 17.9298 8.32387 17.9298ZM7.35587 18.6078C7.35587 18.0838 7.7895 17.6586 8.32387 17.6586C8.85825 17.6586 9.29188 18.0838 9.29188 18.6078C9.29188 19.1318 8.85825 19.557 8.32387 19.557C7.7895 19.557 7.35587 19.1318 7.35587 18.6078ZM12.0576 18.3366C11.905 18.3366 11.781 18.4582 11.781 18.6078C11.781 18.7575 11.905 18.879 12.0576 18.879H20.3548C20.5074 18.879 20.6314 18.7575 20.6314 18.6078C20.6314 18.4582 20.5074 18.3366 20.3548 18.3366H12.0576ZM11.5045 18.6078C11.5045 18.3084 11.7522 18.0654 12.0576 18.0654H20.3548C20.6602 18.0654 20.908 18.3084 20.908 18.6078C20.908 18.9073 20.6602 19.1502 20.3548 19.1502H12.0576C11.7522 19.1502 11.5045 18.9073 11.5045 18.6078Z" fill="#535353"/>
</svg>
