<svg width="23" height="20" viewBox="0 0 23 20" fill="none" xmlns="http://www.w3.org/2000/svg">
<g clip-path="url(#clip0_485_7700)">
<path d="M1.5524 5.40351C1.74729 5.40351 1.85377 5.40351 1.95958 5.40351C5.60339 5.40351 9.2472 5.40283 12.891 5.40486C13.0323 5.40486 13.177 5.4096 13.3136 5.44209C13.6886 5.53213 13.9431 5.91393 13.9029 6.30183C13.8634 6.68228 13.5547 6.98962 13.1763 7.0194C13.0685 7.02753 12.9593 7.02549 12.8508 7.02549C9.22376 7.02549 5.59669 7.02549 1.96962 7.02549C1.86247 7.02549 1.60933 7.02549 1.60933 7.02549V7.26311C1.60933 7.26311 1.60598 12.4154 1.62339 14.9912C1.62674 15.4949 1.69706 16.0006 1.77407 16.4995C1.92475 17.475 2.5027 18.0633 3.46505 18.2034C4.14881 18.3029 4.84395 18.3679 5.53374 18.3699C9.68719 18.3821 13.8406 18.376 17.9941 18.3632C18.4756 18.3618 18.9638 18.3117 19.4373 18.2217C20.632 17.9949 21.1175 17.4777 21.2696 16.2483C21.3499 15.5971 21.3774 14.9357 21.3854 14.2791C21.4022 12.894 21.3888 11.509 21.3914 10.1232C21.3921 9.65682 21.6446 9.31631 22.0297 9.24388C22.544 9.1464 22.986 9.5018 22.9913 10.04C23.0007 10.9518 23.0027 11.8644 22.9927 12.7762C22.9806 13.8397 22.9947 14.9066 22.9157 15.9654C22.8708 16.5618 22.7255 17.1704 22.5112 17.7289C22.0189 19.0144 20.9715 19.623 19.6851 19.824C18.9538 19.9378 18.2064 19.9899 17.4657 19.9919C13.2955 20.0048 9.12531 20.0048 4.95512 19.9797C4.27672 19.9757 3.58694 19.8802 2.9226 19.7333C1.42315 19.4016 0.546522 18.418 0.214354 16.9158C0.0248302 16.0602 0.00273026 15.1923 0.00273026 14.3217C0.00273026 11.754 -0.00731516 9.18634 0.00808782 6.61864C0.0141151 5.62419 0.0435816 4.62704 0.129303 3.63733C0.170824 3.1594 0.320166 2.67537 0.502323 2.2279C0.971109 1.07437 1.89395 0.444125 3.06792 0.236299C3.89366 0.0900765 4.74216 0.0250887 5.58129 0.0156113C8.04643 -0.0121439 10.5123 0.00545699 12.9774 0.00748786C13.1013 0.00748786 13.2312 0.0108726 13.3484 0.0453974C13.692 0.146264 13.9237 0.497604 13.9036 0.857745C13.8842 1.21247 13.633 1.51981 13.2855 1.59427C13.1562 1.62203 13.0203 1.62609 12.8877 1.62609C10.2551 1.63083 7.62252 1.62271 4.98995 1.64505C4.43477 1.64978 3.87558 1.73576 3.3271 1.83527C2.48194 1.98894 1.95556 2.52035 1.80555 3.37399C1.6917 4.02725 1.63879 4.69135 1.5524 5.40351Z" fill="black"/>
<path d="M20.0623 4.59245C20.0623 4.74341 20.0623 4.8673 20.0623 4.99118C20.0623 5.57336 20.069 6.15622 20.059 6.7384C20.0523 7.13781 19.8299 7.42687 19.4783 7.53383C19.1515 7.63402 18.7819 7.51961 18.6044 7.21227C18.5133 7.05454 18.4684 6.84942 18.4638 6.66394C18.4477 5.98969 18.4571 5.31476 18.4571 4.60802C18.3566 4.6026 18.2689 4.59313 18.1811 4.59313C17.5798 4.59177 16.9784 4.59584 16.3777 4.5911C15.866 4.58771 15.5084 4.24788 15.5117 3.7801C15.5151 3.3103 15.8707 2.97588 16.3864 2.97182C17.0621 2.9664 17.7378 2.97046 18.4437 2.97046C18.4484 2.86554 18.4564 2.77753 18.4564 2.68885C18.4577 2.08974 18.4544 1.49064 18.4577 0.890853C18.4604 0.357411 18.7732 0.0108097 19.246 0.006748C19.7248 0.00268626 20.0563 0.361473 20.0603 0.898977C20.065 1.48996 20.0616 2.08027 20.0616 2.67125C20.0616 2.76196 20.0616 2.85267 20.0616 2.96979C20.722 2.96979 21.3542 2.96843 21.9864 2.97114C22.1109 2.97182 22.2382 2.97317 22.3594 2.99822C22.7699 3.08148 23.025 3.44162 22.9889 3.87082C22.9561 4.26007 22.642 4.57688 22.2408 4.58568C21.6147 4.59922 20.9885 4.5911 20.3623 4.59177C20.2733 4.59245 20.1829 4.59245 20.0623 4.59245Z" fill="black"/>
<path d="M12.0512 15.679C11.3587 15.679 10.6663 15.6803 9.9738 15.6783C9.46149 15.6769 9.09918 15.3459 9.09382 14.8788C9.0878 14.3982 9.45077 14.0583 9.97648 14.0577C11.3447 14.0563 12.7135 14.0563 14.0817 14.0577C14.6134 14.0583 14.9711 14.3873 14.9704 14.8693C14.9697 15.3506 14.6121 15.6776 14.079 15.679C13.4026 15.6803 12.7269 15.679 12.0512 15.679Z" fill="black"/>
<path d="M6.15716 14.0578C6.50741 14.0578 6.85833 14.053 7.20858 14.0591C7.67267 14.0679 8.02962 14.4294 8.02426 14.8755C8.01891 15.3155 7.67267 15.6716 7.21996 15.6764C6.51075 15.6845 5.80088 15.6838 5.09167 15.677C4.62623 15.6723 4.27531 15.3108 4.27933 14.8606C4.28335 14.4091 4.6336 14.0652 5.10573 14.0584C5.45598 14.053 5.80624 14.0571 6.15716 14.0578Z" fill="black"/>
</g>
<defs>
<clipPath id="clip0_485_7700">
<rect width="23" height="20" fill="white"/>
</clipPath>
</defs>
</svg>
