<svg width="20" height="20" viewBox="0 0 20 20" fill="none" xmlns="http://www.w3.org/2000/svg">
<g clip-path="url(#clip0_485_4974)">
<path d="M19.5833 9.16667C19.3533 9.16667 19.1667 8.98 19.1667 8.75C19.1667 4.385 15.615 0.833333 11.25 0.833333C11.02 0.833333 10.8333 0.646667 10.8333 0.416667C10.8333 0.186667 11.02 0 11.25 0C16.075 0 20 3.925 20 8.75C20 8.98 19.8133 9.16667 19.5833 9.16667ZM16.6667 8.75C16.6667 5.76333 14.2367 3.33333 11.25 3.33333C11.02 3.33333 10.8333 3.52 10.8333 3.75C10.8333 3.98 11.02 4.16667 11.25 4.16667C13.7775 4.16667 15.8333 6.2225 15.8333 8.75C15.8333 8.98 16.02 9.16667 16.25 9.16667C16.48 9.16667 16.6667 8.98 16.6667 8.75ZM18.5283 18.5592L19.3433 17.6217C19.7667 17.1983 20 16.635 20 16.0367C20 15.4383 19.7667 14.8742 19.3025 14.4158L17.2642 12.855C16.3908 11.9817 14.97 11.9808 14.095 12.8525L12.8183 14.0975C9.75167 12.8483 7.25333 10.3475 5.90667 7.17833L7.14667 5.9075C8.02083 5.03333 8.02083 3.61083 7.1825 2.7775L5.55 0.658333C4.7025 -0.189167 3.20583 -0.169167 2.4 0.639167L1.42167 1.4925C0.504167 2.405 0 3.64417 0 4.98C0 11.4375 8.5625 20 15.02 20C16.3558 20 17.5942 19.4958 18.5283 18.5592ZM4.92417 1.205L6.55667 3.32417C7.10583 3.87333 7.10583 4.7675 6.55333 5.32083L5.11833 6.7925C5.00333 6.91083 4.96833 7.08583 5.03 7.23917C6.47083 10.8267 9.29083 13.6458 12.7683 14.9725C12.92 15.0308 13.0917 14.995 13.2075 14.8825L14.6792 13.4475C14.6792 13.4475 14.6817 13.445 14.6825 13.4433C15.215 12.91 16.1025 12.8758 16.7158 13.4792L18.7542 15.04C19.3033 15.5892 19.3033 16.4825 18.735 17.0533L17.9192 17.9908C17.1625 18.7492 16.1325 19.1667 15.02 19.1667C9.05333 19.1667 0.833333 10.9467 0.833333 4.98C0.833333 3.8675 1.25083 2.8375 1.98917 2.1L2.96833 1.24583C3.24833 0.965833 3.6175 0.829167 3.98083 0.829167C4.33 0.829167 4.67333 0.955833 4.925 1.20583L4.92417 1.205Z" fill="#535353"/>
</g>
<defs>
<clipPath id="clip0_485_4974">
<rect width="20" height="20" fill="white"/>
</clipPath>
</defs>
</svg>
