<svg width="286" height="9" viewBox="0 0 286 9" fill="none" xmlns="http://www.w3.org/2000/svg">
<path d="M85.954 0H4.046C1.81146 0 0 1.81146 0 4.046C0 6.28054 1.81146 8.092 4.046 8.092H85.954C88.1885 8.092 90 6.28054 90 4.046C90 1.81146 88.1885 0 85.954 0Z" fill="#0F89FF"/>
<path d="M102.046 0H183.954C185.027 0 186.056 0.426274 186.815 1.18505C187.574 1.94382 188 2.97293 188 4.046C188 5.11907 187.574 6.14818 186.815 6.90695C186.056 7.66573 185.027 8.092 183.954 8.092H102.046C100.973 8.092 99.9438 7.66573 99.185 6.90695C98.4263 6.14818 98 5.11907 98 4.046C98 2.97293 98.4263 1.94382 99.185 1.18505C99.9438 0.426274 100.973 0 102.046 0Z" fill="#0F89FF" fill-opacity="0.1"/>
<path d="M139 0H102C99.7909 0 98 1.79086 98 4V4.092C98 6.30114 99.7909 8.092 102 8.092H139C141.209 8.092 143 6.30114 143 4.092V4C143 1.79086 141.209 0 139 0Z" fill="#0F89FF"/>
<path d="M281.954 0H200.046C197.811 0 196 1.81146 196 4.046C196 6.28054 197.811 8.092 200.046 8.092H281.954C284.189 8.092 286 6.28054 286 4.046C286 1.81146 284.189 0 281.954 0Z" fill="#0F89FF" fill-opacity="0.1"/>
</svg>
