<svg width="15" height="15" viewBox="0 0 15 15" fill="none" xmlns="http://www.w3.org/2000/svg">
<path d="M7.5 0C8.98336 0 10.4334 0.439867 11.6668 1.26398C12.9001 2.08809 13.8614 3.25943 14.4291 4.62988C14.9968 6.00032 15.1453 7.50832 14.8559 8.96318C14.5665 10.418 13.8522 11.7544 12.8033 12.8033C11.7544 13.8522 10.418 14.5665 8.96318 14.8559C7.50832 15.1453 6.00032 14.9968 4.62988 14.4291C3.25943 13.8614 2.08809 12.9001 1.26398 11.6668C0.439867 10.4334 0 8.98336 0 7.5C0 5.51088 0.790177 3.60322 2.1967 2.1967C3.60322 0.790177 5.51088 0 7.5 0Z" fill="#FF9F24"/>
</svg>
