<svg width="28" height="28" viewBox="0 0 28 28" fill="none" xmlns="http://www.w3.org/2000/svg">
<path d="M8.92066 18.2859V20.8818C8.92066 21.226 9.05741 21.5562 9.30081 21.7995C9.54422 22.0429 9.87435 22.1797 10.2186 22.1797H19.304C19.6483 22.1797 19.9784 22.0429 20.2218 21.7995C20.4652 21.5562 20.6019 21.226 20.6019 20.8818V6.60466C20.6019 6.26042 20.4652 5.9303 20.2218 5.68689C19.9784 5.44348 19.6483 5.30674 19.304 5.30674H10.2186C9.87435 5.30674 9.54422 5.44348 9.30081 5.68689C9.05741 5.9303 8.92066 6.26042 8.92066 6.60466V9.2005" stroke="#FC5A3F" stroke-linecap="round" stroke-linejoin="round"/>
<path d="M12.8148 13.7433H3.72941" stroke="#FC5A3F" stroke-linecap="round" stroke-linejoin="round"/>
<path d="M6.3251 11.1474L3.72927 13.7433L6.3251 16.3391" stroke="#FC5A3F" stroke-linecap="round" stroke-linejoin="round"/>
</svg>
