<svg width="28" height="28" viewBox="0 0 28 28" fill="none" xmlns="http://www.w3.org/2000/svg">
<g clip-path="url(#clip0_485_4821)">
<path d="M9.08498 9.08544L9.08498 15.7817C9.08498 16.4547 8.82419 17.0857 8.34468 17.5652L6.85568 19.0542C6.68743 19.2224 6.42665 19.2224 6.2584 19.0542L4.76939 17.5652C4.28989 17.0857 4.0291 16.4547 4.0291 15.7817L4.0291 9.08544C4.0291 7.69738 5.16478 6.5617 6.55283 6.5617C7.94088 6.5617 9.07656 7.69738 9.07656 9.08544L9.08498 9.08544ZM6.56124 18.1625L7.7474 16.9763C8.06707 16.6566 8.24373 16.236 8.24373 15.7902L8.24373 9.09385C8.24373 8.16848 7.48661 7.41136 6.56124 7.41136C5.63588 7.41136 4.87876 8.16848 4.87876 9.09385L4.87876 15.7902C4.87876 16.236 5.05542 16.665 5.37509 16.9763L6.56124 18.1625ZM24.2274 10.7679L24.2274 15.7817C24.2274 16.4547 23.9666 17.0857 23.4871 17.5652L21.9981 19.0542C21.8298 19.2224 21.569 19.2224 21.4008 19.0542L19.9118 17.5652C19.4323 17.0857 19.1715 16.4547 19.1715 15.7817L19.1715 10.7679C19.1715 9.37987 20.3072 8.24419 21.6952 8.24419C23.0833 8.24419 24.219 9.37987 24.219 10.7679L24.2274 10.7679ZM21.7036 18.1625L22.8898 16.9763C23.2095 16.6566 23.3861 16.236 23.3861 15.7902L23.3861 10.7763C23.3861 9.85097 22.629 9.09385 21.7036 9.09385C20.7783 9.09385 20.0212 9.85097 20.0212 10.7763L20.0212 15.7902C20.0212 16.236 20.1978 16.665 20.5175 16.9763L21.7036 18.1625ZM16.6562 6.5617L16.6562 15.7817C16.6562 16.4547 16.3954 17.0857 15.9159 17.5652L14.4269 19.0542C14.2586 19.2224 13.9978 19.2224 13.8296 19.0542L12.3406 17.5652C11.8611 17.0857 11.6003 16.4547 11.6003 15.7817L11.6003 6.5617C11.6003 5.17365 12.736 4.03797 14.124 4.03797C15.5121 4.03797 16.6478 5.17365 16.6478 6.5617L16.6562 6.5617ZM14.1324 18.1625L15.3186 16.9763C15.6383 16.6566 15.8149 16.236 15.8149 15.7902L15.8149 6.57012C15.8149 5.64475 15.0578 4.88763 14.1324 4.88763C13.2071 4.88763 12.45 5.64475 12.45 6.57012L12.45 15.7817C12.45 16.2276 12.6266 16.6566 12.9463 16.9679L14.1324 18.154L14.1324 18.1625ZM23.3861 22.5453C23.3861 23.4707 22.629 24.2278 21.7036 24.2278C20.7783 24.2278 20.0212 23.4707 20.0212 22.5453C20.0212 21.62 20.7783 20.8629 21.7036 20.8629C22.629 20.8629 23.3861 21.62 23.3861 22.5453ZM20.8624 22.5453C20.8624 23.008 21.241 23.3866 21.7036 23.3866C22.1663 23.3866 22.5449 23.008 22.5449 22.5453C22.5449 22.0827 22.1663 21.7041 21.7036 21.7041C21.241 21.7041 20.8624 22.0827 20.8624 22.5453ZM15.8149 22.5453C15.8149 23.4707 15.0578 24.2278 14.1324 24.2278C13.2071 24.2278 12.45 23.4707 12.45 22.5453C12.45 21.62 13.2071 20.8629 14.1324 20.8629C15.0578 20.8629 15.8149 21.62 15.8149 22.5453ZM13.2912 22.5453C13.2912 23.008 13.6698 23.3866 14.1324 23.3866C14.5951 23.3866 14.9737 23.008 14.9737 22.5453C14.9737 22.0827 14.5951 21.7041 14.1324 21.7041C13.6698 21.7041 13.2912 22.0827 13.2912 22.5453ZM8.24373 22.5453C8.24373 23.4707 7.48661 24.2278 6.56124 24.2278C5.63588 24.2278 4.87876 23.4707 4.87876 22.5453C4.87876 21.62 5.63588 20.8629 6.56124 20.8629C7.48661 20.8629 8.24373 21.62 8.24373 22.5453ZM5.72 22.5453C5.72 23.008 6.09856 23.3866 6.56124 23.3866C7.02393 23.3866 7.40249 23.008 7.40249 22.5453C7.40249 22.0827 7.02393 21.7041 6.56124 21.7041C6.09856 21.7041 5.72 22.0827 5.72 22.5453Z" fill="#0F89FF"/>
</g>
<defs>
<clipPath id="clip0_485_4821">
<rect width="20" height="20" fill="white" transform="translate(4.03797 24.2278) scale(1.00949) rotate(-90)"/>
</clipPath>
</defs>
</svg>
