<svg width="28" height="28" viewBox="0 0 28 28" fill="none" xmlns="http://www.w3.org/2000/svg">
<g clip-path="url(#clip0_485_3856)">
<path d="M4.92322 6.81796C5.41212 6.81796 5.80846 6.42161 5.80846 5.93271C5.80846 5.44381 5.41212 5.04747 4.92322 5.04747C4.43431 5.04747 4.03797 5.44381 4.03797 5.93271C4.03797 6.42161 4.43431 6.81796 4.92322 6.81796Z" stroke="#535353" stroke-linecap="round" stroke-linejoin="round"/>
<path d="M11.12 5.93274H27.0544" stroke="#535353" stroke-linecap="round" stroke-linejoin="round"/>
<path d="M4.92322 14.7852C5.41212 14.7852 5.80846 14.3889 5.80846 13.9C5.80846 13.4111 5.41212 13.0147 4.92322 13.0147C4.43431 13.0147 4.03797 13.4111 4.03797 13.9C4.03797 14.3889 4.43431 14.7852 4.92322 14.7852Z" stroke="#535353" stroke-linecap="round" stroke-linejoin="round"/>
<path d="M11.12 13.8999H27.0544" stroke="#535353" stroke-linecap="round" stroke-linejoin="round"/>
<path d="M4.92322 22.7523C5.41212 22.7523 5.80846 22.3559 5.80846 21.8671C5.80846 21.3783 5.41212 20.9819 4.92322 20.9819C4.43431 20.9819 4.03797 21.3783 4.03797 21.8671C4.03797 22.3559 4.43431 22.7523 4.92322 22.7523Z" stroke="#535353" stroke-linecap="round" stroke-linejoin="round"/>
<path d="M11.12 21.8671H27.0544" stroke="#535353" stroke-linecap="round" stroke-linejoin="round"/>
</g>
<defs>
<clipPath id="clip0_485_3856">
<rect width="27.7366" height="27.7366" rx="5" transform="matrix(-1.00949 0 0 1.00949 27.9999 0)" fill="white"/>
</clipPath>
</defs>
</svg>
