<svg width="375" height="812" viewBox="0 0 375 812" fill="none" xmlns="http://www.w3.org/2000/svg">
<mask id="mask0_485_8355" style="mask-type:luminance" maskUnits="userSpaceOnUse" x="0" y="0" width="375" height="812">
<path d="M375 0H0V812H375V0Z" fill="white"/>
</mask>
<g mask="url(#mask0_485_8355)">
<path d="M375 0H0V812H375V0Z" fill="white"/>
<path d="M160.606 135.779C160.869 134.08 161.482 132.454 162.406 131.004C163.604 128.997 165.054 127.151 166.72 125.511C169.38 122.873 172.342 120.559 175.545 118.616C179.198 116.338 183.127 114.534 187.237 113.25C190.065 112.297 193.046 111.883 196.027 112.028C199.756 112.182 203.342 113.505 206.279 115.808C208.392 117.523 209.896 119.872 210.57 122.508C211.448 125.841 211.407 129.348 210.452 132.659C209.068 137.373 206.673 141.729 203.433 145.422C200.846 148.362 197.95 151.012 194.793 153.328C192.16 155.416 189.336 157.251 186.36 158.81C184.18 160.017 181.803 160.825 179.339 161.195C179.114 161.309 178.851 161.151 178.63 161.295H177.583C177.397 161.174 177.19 161.263 176.995 161.235C176.091 161.181 175.22 160.877 174.48 160.355C173.74 159.834 173.16 159.117 172.804 158.284C172.428 157.528 172.205 156.705 172.148 155.863C172.091 155.02 172.201 154.174 172.472 153.374C173.121 151.039 174.203 148.847 175.662 146.911C176.303 145.938 177.139 145.108 178.118 144.474C179.096 143.84 180.195 143.416 181.345 143.228C182.717 143.02 184.12 143.278 185.328 143.961C185.602 144.095 185.847 144.282 186.048 144.511C186.249 144.74 186.403 145.006 186.5 145.295C186.597 145.584 186.636 145.89 186.614 146.194C186.593 146.498 186.51 146.794 186.373 147.066C185.887 148.081 185.217 148.996 184.397 149.766C183.174 151.031 181.897 152.245 180.67 153.507C179.619 154.539 178.743 155.735 178.076 157.047C177.972 157.255 177.888 157.472 177.827 157.695C177.738 157.91 177.711 158.144 177.749 158.373C177.787 158.601 177.887 158.815 178.039 158.99C178.192 159.164 178.39 159.293 178.611 159.361C178.833 159.429 179.069 159.434 179.293 159.375C180.409 159.228 181.492 158.896 182.499 158.393C185.796 156.758 188.887 154.738 191.709 152.375C193.726 150.751 195.62 148.98 197.375 147.075C199.753 144.681 201.634 141.84 202.911 138.716C203.813 136.546 204.122 134.174 203.805 131.845C203.612 130.575 203.08 129.381 202.266 128.387C201.855 127.907 201.341 127.524 200.764 127.267C200.186 127.01 199.558 126.885 198.926 126.901C197.139 126.928 195.379 127.342 193.768 128.116C191.002 129.377 188.347 130.867 185.83 132.571C183.469 134.087 181.142 135.652 178.847 137.265C177.392 138.289 176.021 139.431 174.567 140.455C173.027 141.601 171.324 142.507 169.513 143.142C167.829 143.687 166.002 143.581 164.392 142.847C162.782 142.112 161.505 140.8 160.813 139.171C160.653 138.756 160.569 138.316 160.564 137.871C160.534 137.642 160.63 137.403 160.504 137.182V136.482C160.649 136.265 160.487 136.002 160.606 135.779Z" fill="#0F89FF"/>
<path d="M189.518 190.732C189.518 185.558 189.534 180.384 189.501 175.211C189.501 174.446 189.627 174.127 190.484 174.019C192.806 173.728 195.114 173.311 197.42 172.903C198.047 172.792 198.212 172.95 198.204 173.581C198.171 176.153 198.218 178.726 198.172 181.298C198.16 181.977 198.372 182.109 198.998 182.088C200.358 182.041 201.72 182.093 203.081 182.063C203.581 182.052 203.797 182.153 203.781 182.72C203.742 184.367 203.751 186.02 203.781 187.662C203.789 188.147 203.655 188.313 203.152 188.303C201.705 188.272 200.252 188.312 198.808 188.281C198.314 188.271 198.18 188.422 198.181 188.91C198.2 194.662 198.17 200.41 198.213 206.165C198.234 208.981 199.548 210.24 202.388 210.355C203.772 210.412 203.772 210.412 203.772 211.821C203.772 212.891 203.762 213.96 203.777 215.029C203.783 215.423 203.728 215.657 203.246 215.722C200.807 216.114 198.313 215.975 195.933 215.316C191.972 214.134 189.607 210.926 189.555 206.516C189.493 201.256 189.54 195.995 189.54 190.735L189.518 190.732Z" fill="#0F89FF"/>
<path d="M247.841 190.078V205.16C247.841 205.36 247.841 205.56 247.841 205.767C247.861 209.02 249.074 210.286 252.341 210.333C253.062 210.343 253.275 210.516 253.241 211.233C253.18 212.533 253.207 213.833 253.234 215.133C253.243 215.559 253.122 215.718 252.685 215.785C249.967 216.294 247.16 216.021 244.59 215C241.344 213.625 239.919 210.937 239.517 207.605C239.403 206.543 239.351 205.474 239.364 204.405C239.353 194.639 239.364 184.873 239.34 175.105C239.34 174.38 239.514 174.133 240.262 174.027C242.493 173.711 244.713 173.307 246.926 172.882C247.681 172.737 247.872 172.89 247.866 173.689C247.821 179.156 247.841 184.617 247.841 190.078Z" fill="#0F89FF"/>
<path d="M166.79 201.749C166.79 197.444 166.799 193.139 166.778 188.834C166.764 188.595 166.805 188.355 166.896 188.133C166.988 187.91 167.128 187.712 167.307 187.551C172.431 182.626 178.416 180.545 185.484 182.051C187.112 182.399 187.103 182.441 186.444 183.924C185.964 185.004 185.435 186.066 185.026 187.172C184.785 187.825 184.426 187.844 183.851 187.745C181.3 187.245 178.655 187.678 176.397 188.965C176.078 189.117 175.813 189.362 175.638 189.669C175.463 189.976 175.386 190.329 175.418 190.68C175.455 198.712 175.432 206.744 175.456 214.78C175.456 215.474 175.317 215.72 174.569 215.704C172.225 215.654 169.879 215.663 167.535 215.704C166.915 215.714 166.77 215.527 166.774 214.93C166.799 210.538 166.788 206.147 166.788 201.755L166.79 201.749Z" fill="#0F89FF"/>
<path d="M159.857 198.901C159.857 204.221 159.844 209.541 159.873 214.861C159.873 215.517 159.704 215.685 159.054 215.674C156.737 215.633 154.419 215.644 152.102 215.668C151.579 215.673 151.402 215.529 151.402 214.988C151.416 204.666 151.416 194.345 151.402 184.023C151.402 183.589 151.537 183.402 151.958 183.335C154.443 182.941 156.929 182.546 159.409 182.12C160.009 182.02 159.848 182.407 159.849 182.681C159.858 184.502 159.849 186.324 159.849 188.145L159.857 198.901Z" fill="#0F89FF"/>
<path d="M144.81 201.142H144.804C144.804 198.28 144.834 195.417 144.798 192.555C144.717 186.204 140.586 181.955 134.219 181.527C129.57 181.33 124.956 182.414 120.882 184.661C120.417 184.896 120.428 185.12 120.623 185.529C121.132 186.596 121.597 187.684 122.08 188.763C122.624 189.979 122.619 189.963 123.87 189.417C126.599 188.048 129.64 187.422 132.688 187.601C133.584 187.605 134.445 187.954 135.09 188.577C135.734 189.2 136.113 190.048 136.147 190.944C136.226 191.572 136.183 192.215 136.257 192.844C136.337 193.525 136.1 193.707 135.411 193.706C132.779 193.551 130.138 193.66 127.528 194.032C123.703 194.797 120.563 196.561 118.918 200.286C116.318 206.162 119.442 213.012 125.718 215.386C128.275 216.266 131.01 216.498 133.678 216.061C137.623 215.68 141.348 214.068 144.326 211.453C144.49 211.319 144.62 211.148 144.706 210.954C144.792 210.76 144.83 210.548 144.819 210.336C144.8 207.271 144.81 204.202 144.81 201.142ZM136.233 204.37C136.233 205.814 136.219 207.258 136.241 208.701C136.273 208.884 136.24 209.073 136.149 209.235C136.058 209.397 135.914 209.522 135.741 209.59C134.132 210.349 132.324 210.577 130.577 210.241C128.155 209.734 126.695 207.324 126.969 204.485C127.019 203.108 127.609 201.806 128.61 200.859C129.612 199.913 130.946 199.398 132.324 199.426C133.424 199.381 134.524 199.436 135.624 199.397C136.133 199.379 136.255 199.564 136.246 200.039C136.217 201.482 136.233 202.926 136.233 204.37Z" fill="#0F89FF"/>
<path d="M234.099 211.839C233.488 210.597 232.853 209.366 232.29 208.103C232.04 207.542 231.836 207.584 231.366 207.87C228.704 209.543 225.609 210.396 222.466 210.325C221.106 210.38 219.77 209.957 218.688 209.131C217.607 208.305 216.847 207.127 216.542 205.8C216.087 204.127 215.869 202.398 215.895 200.663C215.886 200.074 216.056 199.877 216.675 199.885C219.454 199.919 222.234 199.9 225.013 199.9C227.821 199.9 230.63 199.893 233.438 199.907C233.906 199.907 234.187 199.877 234.175 199.277C234.178 196.676 233.905 194.082 233.36 191.538C231.908 185.414 228.594 182.422 222.57 181.775C219.952 181.389 217.279 181.855 214.946 183.105C212.613 184.354 210.744 186.322 209.615 188.715C208.14 191.543 207.283 194.651 207.103 197.835C206.923 201.019 207.422 204.205 208.569 207.18C210.085 211.228 212.721 214.345 217.036 215.597C223.146 217.37 228.742 215.924 233.991 212.628C234.404 212.368 234.243 212.128 234.099 211.839ZM216.211 194.039C216.313 192.624 216.737 191.251 217.452 190.024C217.846 189.343 218.43 188.79 219.133 188.435C219.835 188.08 220.626 187.937 221.409 188.024C222.18 188.081 222.915 188.374 223.513 188.863C224.112 189.352 224.546 190.013 224.756 190.757C225.102 191.829 225.299 192.943 225.341 194.068C225.383 194.532 225.168 194.59 224.789 194.586C223.429 194.573 222.068 194.581 220.707 194.581C219.375 194.581 218.043 194.566 216.712 194.59C216.282 194.598 216.16 194.456 216.211 194.039Z" fill="#0F89FF"/>
<g opacity="0.6">
<path d="M251.002 795H126.002C124.621 795 123.502 796.119 123.502 797.5C123.502 798.881 124.621 800 126.002 800H251.002C252.383 800 253.502 798.881 253.502 797.5C253.502 796.119 252.383 795 251.002 795Z" fill="#535353"/>
</g>
<path fill-rule="evenodd" clip-rule="evenodd" d="M323.495 18.859C325.811 18.8533 328.054 19.6706 329.824 21.165L331 19.895C328.946 18.0336 326.274 17.0019 323.502 17.0002C320.73 16.9986 318.056 18.0271 316 19.886L317.174 21.158C318.942 19.6674 321.182 18.8524 323.495 18.858V18.859ZM323.495 22.525C324.882 22.5226 326.227 23.0058 327.295 23.891L328.54 22.547C327.138 21.3357 325.348 20.6687 323.495 20.6678C321.642 20.6669 319.851 21.3321 318.448 22.542L319.691 23.888C320.76 23.0041 322.104 22.5223 323.491 22.526L323.495 22.525ZM326.055 25.235C325.344 24.6221 324.436 24.285 323.496 24.285C322.557 24.285 321.65 24.6221 320.938 25.235L323.494 28L326.054 25.234L326.055 25.235Z" fill="white"/>
<path fill-rule="evenodd" clip-rule="evenodd" d="M307.069 17.5761C307.072 17.4214 307.136 17.2742 307.247 17.1663C307.358 17.0585 307.507 16.9988 307.662 17.0001H309.407C309.484 16.9984 309.56 17.012 309.632 17.0401C309.704 17.0683 309.769 17.1104 309.824 17.164C309.879 17.2176 309.923 17.2816 309.953 17.3524C309.984 17.4231 309.999 17.4992 310 17.5761V27.4251C309.997 27.5799 309.933 27.7271 309.822 27.8349C309.711 27.9428 309.562 28.0025 309.407 28.0011H307.662C307.585 28.0029 307.509 27.9893 307.437 27.9612C307.365 27.933 307.3 27.8909 307.245 27.8373C307.19 27.7837 307.146 27.7197 307.116 27.6489C307.085 27.5781 307.07 27.5021 307.069 27.4251V17.5761ZM302.379 20.4761C302.383 20.3217 302.447 20.1749 302.558 20.0672C302.669 19.9595 302.817 19.8996 302.972 19.9001H304.717C304.872 19.9004 305.022 19.9616 305.133 20.0706C305.243 20.1796 305.307 20.3277 305.31 20.4831V27.4231C305.308 27.5788 305.244 27.7274 305.133 27.8366C305.022 27.9458 304.873 28.0067 304.717 28.0061H302.972C302.817 28.0059 302.667 27.9447 302.556 27.8357C302.446 27.7267 302.382 27.5786 302.379 27.4231V20.4761ZM297.69 22.7871C297.693 22.6324 297.757 22.4852 297.868 22.3773C297.979 22.2695 298.128 22.2098 298.283 22.2111H300.028C300.105 22.2093 300.182 22.2228 300.253 22.2509C300.325 22.2789 300.39 22.321 300.445 22.3747C300.501 22.4283 300.545 22.4924 300.575 22.5632C300.605 22.634 300.621 22.7102 300.621 22.7871V27.4241C300.618 27.5789 300.554 27.7261 300.443 27.8339C300.332 27.9418 300.183 28.0015 300.028 28.0001H298.283C298.206 28.002 298.129 27.9885 298.058 27.9604C297.986 27.9324 297.921 27.8903 297.866 27.8366C297.81 27.783 297.766 27.7189 297.736 27.6481C297.706 27.5772 297.69 27.5011 297.69 27.4241V22.7871ZM293 25.1001C293.003 24.9457 293.068 24.7988 293.179 24.6913C293.29 24.5839 293.439 24.5245 293.593 24.5261H295.338C295.415 24.5243 295.491 24.5377 295.563 24.5657C295.634 24.5936 295.7 24.6355 295.755 24.689C295.81 24.7424 295.854 24.8062 295.884 24.8768C295.914 24.9474 295.93 25.0233 295.931 25.1001V27.4271C295.927 27.5814 295.863 27.7281 295.752 27.8353C295.641 27.9425 295.492 28.0018 295.338 28.0001H293.593C293.516 28.002 293.44 27.9886 293.369 27.9608C293.297 27.933 293.232 27.8913 293.177 27.838C293.122 27.7848 293.078 27.7212 293.047 27.6508C293.017 27.5805 293.001 27.5048 293 27.4281V25.1001Z" fill="white"/>
<path fill-rule="evenodd" clip-rule="evenodd" d="M357 21C357.411 21.0793 357.783 21.2954 358.055 21.6132C358.328 21.931 358.485 22.3317 358.5 22.75C358.485 23.1683 358.328 23.569 358.055 23.8868C357.783 24.2046 357.411 24.4207 357 24.5V21Z" fill="white"/>
<path d="M353 20H340C339.448 20 339 20.4477 339 21V24.5C339 25.0523 339.448 25.5 340 25.5H353C353.552 25.5 354 25.0523 354 24.5V21C354 20.4477 353.552 20 353 20Z" fill="white"/>
<g opacity="0.4">
<path d="M353.5 18.5H339.5C338.395 18.5 337.5 19.3954 337.5 20.5V25C337.5 26.1046 338.395 27 339.5 27H353.5C354.605 27 355.5 26.1046 355.5 25V20.5C355.5 19.3954 354.605 18.5 353.5 18.5Z" stroke="white"/>
</g>
<path d="M42.9945 23.5547C42.9945 24.5166 42.8993 25.3735 42.7089 26.1255C42.5184 26.8726 42.2401 27.5073 41.8739 28.0298C41.5077 28.5474 41.0609 28.9429 40.5336 29.2163C40.0062 29.4849 39.4056 29.6191 38.7318 29.6191C38.0385 29.6191 37.4281 29.4971 36.9008 29.2529V28.103C37.4818 28.4302 38.1019 28.5938 38.7611 28.5938C39.2347 28.5938 39.6571 28.4961 40.0282 28.3008C40.4042 28.1055 40.7216 27.8223 40.9803 27.4512C41.2391 27.0752 41.4369 26.6138 41.5736 26.0669C41.7103 25.52 41.7787 24.8926 41.7787 24.1846H41.7494C41.3002 25.0879 40.5189 25.5396 39.4056 25.5396C38.9564 25.5396 38.5438 25.4614 38.1678 25.3052C37.7919 25.144 37.4672 24.9194 37.1937 24.6313C36.9203 24.3384 36.7079 23.9917 36.5565 23.5913C36.4052 23.1909 36.3295 22.749 36.3295 22.2656C36.3295 21.748 36.4125 21.2744 36.5785 20.8447C36.7494 20.415 36.9838 20.0464 37.2816 19.7388C37.5844 19.4263 37.9408 19.1846 38.351 19.0137C38.766 18.8428 39.2177 18.7573 39.7059 18.7573C40.2333 18.7573 40.6996 18.8647 41.1049 19.0796C41.515 19.2896 41.8593 19.5996 42.1376 20.0098C42.4159 20.415 42.6283 20.9155 42.7748 21.5112C42.9213 22.1069 42.9945 22.7881 42.9945 23.5547ZM41.6981 22.478C41.6981 22.0728 41.6444 21.7041 41.537 21.3721C41.4344 21.04 41.2904 20.7568 41.1049 20.5225C40.9193 20.2832 40.6971 20.1001 40.4384 19.9731C40.1844 19.8413 39.9061 19.7754 39.6034 19.7754C39.3153 19.7754 39.0468 19.834 38.7977 19.9512C38.5487 20.0635 38.3314 20.2246 38.1459 20.4346C37.9652 20.6396 37.8212 20.8862 37.7137 21.1743C37.6112 21.4575 37.5599 21.7676 37.5599 22.1045C37.5599 22.4756 37.6088 22.8076 37.7064 23.1006C37.809 23.3936 37.953 23.6426 38.1385 23.8477C38.3241 24.0479 38.5463 24.2017 38.8051 24.3091C39.0687 24.4165 39.3593 24.4702 39.6766 24.4702C39.955 24.4702 40.2162 24.4189 40.4603 24.3164C40.7094 24.209 40.9242 24.0674 41.1049 23.8916C41.2904 23.7109 41.4344 23.501 41.537 23.2617C41.6444 23.0176 41.6981 22.7563 41.6981 22.478ZM45.3602 23.4009C45.1356 23.4009 44.9427 23.3203 44.7816 23.1592C44.6254 22.998 44.5472 22.8052 44.5472 22.5806C44.5472 22.356 44.6254 22.1655 44.7816 22.0093C44.9427 21.853 45.1356 21.7749 45.3602 21.7749C45.5897 21.7749 45.785 21.853 45.9462 22.0093C46.1073 22.1655 46.1879 22.356 46.1879 22.5806C46.1879 22.8052 46.1073 22.998 45.9462 23.1592C45.785 23.3203 45.5897 23.4009 45.3602 23.4009ZM45.3602 29.5972C45.1356 29.5972 44.9427 29.5166 44.7816 29.3555C44.6254 29.1943 44.5472 29.0015 44.5472 28.7769C44.5472 28.5522 44.6254 28.3594 44.7816 28.1982C44.9427 28.0322 45.1356 27.9492 45.3602 27.9492C45.5897 27.9492 45.785 28.0322 45.9462 28.1982C46.1073 28.3594 46.1879 28.5522 46.1879 28.7769C46.1879 29.0015 46.1073 29.1943 45.9462 29.3555C45.785 29.5166 45.5897 29.5972 45.3602 29.5972ZM53.2045 18.9331V25.8691H54.5521V26.9678H53.2045V29.436H52.0179V26.9678H47.0814V25.9277C47.5404 25.4102 48.0043 24.8584 48.473 24.2725C48.9418 23.6816 49.3885 23.0835 49.8134 22.478C50.243 21.8726 50.6385 21.2695 50.9999 20.6689C51.3661 20.0635 51.6737 19.4849 51.9227 18.9331H53.2045ZM48.4364 25.8691H52.0179V20.7275C51.6517 21.3672 51.3051 21.9385 50.9779 22.4414C50.6508 22.9443 50.3383 23.4009 50.0404 23.811C49.7474 24.2212 49.4667 24.5923 49.1981 24.9243C48.9296 25.2563 48.6757 25.5713 48.4364 25.8691ZM60.3676 29.436H59.1664V20.3613C59.0736 20.4541 58.9369 20.5615 58.7562 20.6836C58.5804 20.8008 58.3802 20.918 58.1556 21.0352C57.9359 21.1523 57.7015 21.2622 57.4525 21.3647C57.2084 21.4673 56.9691 21.5479 56.7347 21.6064V20.3906C56.9984 20.3174 57.2767 20.2197 57.5697 20.0977C57.8676 19.9707 58.1581 19.8315 58.4413 19.6802C58.7294 19.5239 59.0004 19.3628 59.2543 19.1968C59.5082 19.0259 59.7279 18.8599 59.9135 18.6987H60.3676V29.436Z" fill="white"/>
<path fill-rule="evenodd" clip-rule="evenodd" d="M323.495 18.859C325.811 18.8533 328.054 19.6706 329.824 21.165L331 19.895C328.946 18.0336 326.274 17.0019 323.502 17.0002C320.73 16.9986 318.056 18.0271 316 19.886L317.174 21.158C318.942 19.6674 321.182 18.8524 323.495 18.858V18.859ZM323.495 22.525C324.882 22.5226 326.227 23.0058 327.295 23.891L328.54 22.547C327.138 21.3357 325.348 20.6687 323.495 20.6678C321.642 20.6669 319.851 21.3321 318.448 22.542L319.691 23.888C320.76 23.0041 322.104 22.5223 323.491 22.526L323.495 22.525ZM326.055 25.235C325.344 24.6221 324.436 24.285 323.496 24.285C322.557 24.285 321.65 24.6221 320.938 25.235L323.494 28L326.054 25.234L326.055 25.235Z" fill="white"/>
<path fill-rule="evenodd" clip-rule="evenodd" d="M307.069 17.5761C307.072 17.4214 307.136 17.2742 307.247 17.1663C307.358 17.0585 307.507 16.9988 307.662 17.0001H309.407C309.484 16.9984 309.56 17.012 309.632 17.0401C309.704 17.0683 309.769 17.1104 309.824 17.164C309.879 17.2176 309.923 17.2816 309.953 17.3524C309.984 17.4231 309.999 17.4992 310 17.5761V27.4251C309.997 27.5799 309.933 27.7271 309.822 27.8349C309.711 27.9428 309.562 28.0025 309.407 28.0011H307.662C307.585 28.0029 307.509 27.9893 307.437 27.9612C307.365 27.933 307.3 27.8909 307.245 27.8373C307.19 27.7837 307.146 27.7197 307.116 27.6489C307.085 27.5781 307.07 27.5021 307.069 27.4251V17.5761ZM302.379 20.4761C302.383 20.3217 302.447 20.1749 302.558 20.0672C302.669 19.9595 302.817 19.8996 302.972 19.9001H304.717C304.872 19.9004 305.022 19.9616 305.133 20.0706C305.243 20.1796 305.307 20.3277 305.31 20.4831V27.4231C305.308 27.5788 305.244 27.7274 305.133 27.8366C305.022 27.9458 304.873 28.0067 304.717 28.0061H302.972C302.817 28.0059 302.667 27.9447 302.556 27.8357C302.446 27.7267 302.382 27.5786 302.379 27.4231V20.4761ZM297.69 22.7871C297.693 22.6324 297.757 22.4852 297.868 22.3773C297.979 22.2695 298.128 22.2098 298.283 22.2111H300.028C300.105 22.2093 300.182 22.2228 300.253 22.2509C300.325 22.2789 300.39 22.321 300.445 22.3747C300.501 22.4283 300.545 22.4924 300.575 22.5632C300.605 22.634 300.621 22.7102 300.621 22.7871V27.4241C300.618 27.5789 300.554 27.7261 300.443 27.8339C300.332 27.9418 300.183 28.0015 300.028 28.0001H298.283C298.206 28.002 298.129 27.9885 298.058 27.9604C297.986 27.9324 297.921 27.8903 297.866 27.8366C297.81 27.783 297.766 27.7189 297.736 27.6481C297.706 27.5772 297.69 27.5011 297.69 27.4241V22.7871ZM293 25.1001C293.003 24.9457 293.068 24.7988 293.179 24.6913C293.29 24.5839 293.439 24.5245 293.593 24.5261H295.338C295.415 24.5243 295.491 24.5377 295.563 24.5657C295.634 24.5936 295.7 24.6355 295.755 24.689C295.81 24.7424 295.854 24.8062 295.884 24.8768C295.914 24.9474 295.93 25.0233 295.931 25.1001V27.4271C295.927 27.5814 295.863 27.7281 295.752 27.8353C295.641 27.9425 295.492 28.0018 295.338 28.0001H293.593C293.516 28.002 293.44 27.9886 293.369 27.9608C293.297 27.933 293.232 27.8913 293.177 27.838C293.122 27.7848 293.078 27.7212 293.047 27.6508C293.017 27.5805 293.001 27.5048 293 27.4281V25.1001Z" fill="white"/>
<path fill-rule="evenodd" clip-rule="evenodd" d="M357 21C357.411 21.0793 357.783 21.2954 358.055 21.6132C358.328 21.931 358.485 22.3317 358.5 22.75C358.485 23.1683 358.328 23.569 358.055 23.8868C357.783 24.2046 357.411 24.4207 357 24.5V21Z" fill="white"/>
<path d="M353 20H340C339.448 20 339 20.4477 339 21V24.5C339 25.0523 339.448 25.5 340 25.5H353C353.552 25.5 354 25.0523 354 24.5V21C354 20.4477 353.552 20 353 20Z" fill="white"/>
<g opacity="0.4">
<path d="M353.5 18.5H339.5C338.395 18.5 337.5 19.3954 337.5 20.5V25C337.5 26.1046 338.395 27 339.5 27H353.5C354.605 27 355.5 26.1046 355.5 25V20.5C355.5 19.3954 354.605 18.5 353.5 18.5Z" stroke="white"/>
</g>
<path d="M42.9945 23.5547C42.9945 24.5166 42.8993 25.3735 42.7089 26.1255C42.5184 26.8726 42.2401 27.5073 41.8739 28.0298C41.5077 28.5474 41.0609 28.9429 40.5336 29.2163C40.0062 29.4849 39.4056 29.6191 38.7318 29.6191C38.0385 29.6191 37.4281 29.4971 36.9008 29.2529V28.103C37.4818 28.4302 38.1019 28.5938 38.7611 28.5938C39.2347 28.5938 39.6571 28.4961 40.0282 28.3008C40.4042 28.1055 40.7216 27.8223 40.9803 27.4512C41.2391 27.0752 41.4369 26.6138 41.5736 26.0669C41.7103 25.52 41.7787 24.8926 41.7787 24.1846H41.7494C41.3002 25.0879 40.5189 25.5396 39.4056 25.5396C38.9564 25.5396 38.5438 25.4614 38.1678 25.3052C37.7919 25.144 37.4672 24.9194 37.1937 24.6313C36.9203 24.3384 36.7079 23.9917 36.5565 23.5913C36.4052 23.1909 36.3295 22.749 36.3295 22.2656C36.3295 21.748 36.4125 21.2744 36.5785 20.8447C36.7494 20.415 36.9838 20.0464 37.2816 19.7388C37.5844 19.4263 37.9408 19.1846 38.351 19.0137C38.766 18.8428 39.2177 18.7573 39.7059 18.7573C40.2333 18.7573 40.6996 18.8647 41.1049 19.0796C41.515 19.2896 41.8593 19.5996 42.1376 20.0098C42.4159 20.415 42.6283 20.9155 42.7748 21.5112C42.9213 22.1069 42.9945 22.7881 42.9945 23.5547ZM41.6981 22.478C41.6981 22.0728 41.6444 21.7041 41.537 21.3721C41.4344 21.04 41.2904 20.7568 41.1049 20.5225C40.9193 20.2832 40.6971 20.1001 40.4384 19.9731C40.1844 19.8413 39.9061 19.7754 39.6034 19.7754C39.3153 19.7754 39.0468 19.834 38.7977 19.9512C38.5487 20.0635 38.3314 20.2246 38.1459 20.4346C37.9652 20.6396 37.8212 20.8862 37.7137 21.1743C37.6112 21.4575 37.5599 21.7676 37.5599 22.1045C37.5599 22.4756 37.6088 22.8076 37.7064 23.1006C37.809 23.3936 37.953 23.6426 38.1385 23.8477C38.3241 24.0479 38.5463 24.2017 38.8051 24.3091C39.0687 24.4165 39.3593 24.4702 39.6766 24.4702C39.955 24.4702 40.2162 24.4189 40.4603 24.3164C40.7094 24.209 40.9242 24.0674 41.1049 23.8916C41.2904 23.7109 41.4344 23.501 41.537 23.2617C41.6444 23.0176 41.6981 22.7563 41.6981 22.478ZM45.3602 23.4009C45.1356 23.4009 44.9427 23.3203 44.7816 23.1592C44.6254 22.998 44.5472 22.8052 44.5472 22.5806C44.5472 22.356 44.6254 22.1655 44.7816 22.0093C44.9427 21.853 45.1356 21.7749 45.3602 21.7749C45.5897 21.7749 45.785 21.853 45.9462 22.0093C46.1073 22.1655 46.1879 22.356 46.1879 22.5806C46.1879 22.8052 46.1073 22.998 45.9462 23.1592C45.785 23.3203 45.5897 23.4009 45.3602 23.4009ZM45.3602 29.5972C45.1356 29.5972 44.9427 29.5166 44.7816 29.3555C44.6254 29.1943 44.5472 29.0015 44.5472 28.7769C44.5472 28.5522 44.6254 28.3594 44.7816 28.1982C44.9427 28.0322 45.1356 27.9492 45.3602 27.9492C45.5897 27.9492 45.785 28.0322 45.9462 28.1982C46.1073 28.3594 46.1879 28.5522 46.1879 28.7769C46.1879 29.0015 46.1073 29.1943 45.9462 29.3555C45.785 29.5166 45.5897 29.5972 45.3602 29.5972ZM53.2045 18.9331V25.8691H54.5521V26.9678H53.2045V29.436H52.0179V26.9678H47.0814V25.9277C47.5404 25.4102 48.0043 24.8584 48.473 24.2725C48.9418 23.6816 49.3885 23.0835 49.8134 22.478C50.243 21.8726 50.6385 21.2695 50.9999 20.6689C51.3661 20.0635 51.6737 19.4849 51.9227 18.9331H53.2045ZM48.4364 25.8691H52.0179V20.7275C51.6517 21.3672 51.3051 21.9385 50.9779 22.4414C50.6508 22.9443 50.3383 23.4009 50.0404 23.811C49.7474 24.2212 49.4667 24.5923 49.1981 24.9243C48.9296 25.2563 48.6757 25.5713 48.4364 25.8691ZM60.3676 29.436H59.1664V20.3613C59.0736 20.4541 58.9369 20.5615 58.7562 20.6836C58.5804 20.8008 58.3802 20.918 58.1556 21.0352C57.9359 21.1523 57.7015 21.2622 57.4525 21.3647C57.2084 21.4673 56.9691 21.5479 56.7347 21.6064V20.3906C56.9984 20.3174 57.2767 20.2197 57.5697 20.0977C57.8676 19.9707 58.1581 19.8315 58.4413 19.6802C58.7294 19.5239 59.0004 19.3628 59.2543 19.1968C59.5082 19.0259 59.7279 18.8599 59.9135 18.6987H60.3676V29.436Z" fill="white"/>
<path d="M146.735 313L143.531 300.364H146.825L148.643 309.562L150.893 300.364H154.277L156.437 309.562L158.273 300.364H161.585L158.291 313H154.565L152.549 304.684L150.461 313H146.735ZM167.557 305.278C166.549 305.278 165.775 305.89 165.595 307.006H169.447C169.447 305.908 168.583 305.278 167.557 305.278ZM172.363 309.67C171.877 311.632 170.095 313.144 167.593 313.144C164.641 313.144 162.517 311.164 162.517 307.978C162.517 304.792 164.605 302.812 167.593 302.812C170.527 302.812 172.597 304.756 172.597 307.816C172.597 308.104 172.579 308.41 172.543 308.716H165.577C165.685 310.03 166.495 310.642 167.485 310.642C168.349 310.642 168.835 310.21 169.087 309.67H172.363ZM174.22 313V299.68H177.298V313H174.22ZM178.917 307.978C178.917 304.81 181.005 302.812 183.957 302.812C186.477 302.812 188.259 304.198 188.781 306.592H185.505C185.253 305.89 184.749 305.44 183.903 305.44C182.805 305.44 182.049 306.304 182.049 307.978C182.049 309.652 182.805 310.516 183.903 310.516C184.749 310.516 185.235 310.102 185.505 309.364H188.781C188.259 311.686 186.477 313.144 183.957 313.144C181.005 313.144 178.917 311.164 178.917 307.978ZM200.256 307.978C200.256 311.164 197.952 313.144 195 313.144C192.048 313.144 189.816 311.164 189.816 307.978C189.816 304.792 192.102 302.812 195.036 302.812C197.988 302.812 200.256 304.792 200.256 307.978ZM192.948 307.978C192.948 309.67 193.884 310.48 195 310.48C196.098 310.48 197.124 309.67 197.124 307.978C197.124 306.268 196.116 305.476 195.036 305.476C193.92 305.476 192.948 306.268 192.948 307.978ZM215.73 313V307.546C215.73 306.232 214.974 305.512 213.804 305.512C212.634 305.512 211.878 306.232 211.878 307.546V313H208.818V307.546C208.818 306.232 208.062 305.512 206.892 305.512C205.722 305.512 204.966 306.232 204.966 307.546V313H201.888V302.956H204.966V304.216C205.56 303.406 206.586 302.848 207.9 302.848C209.412 302.848 210.636 303.514 211.32 304.72C211.986 303.658 213.246 302.848 214.704 302.848C217.188 302.848 218.79 304.432 218.79 307.132V313H215.73ZM225.371 305.278C224.363 305.278 223.589 305.89 223.409 307.006H227.261C227.261 305.908 226.397 305.278 225.371 305.278ZM230.177 309.67C229.691 311.632 227.909 313.144 225.407 313.144C222.455 313.144 220.331 311.164 220.331 307.978C220.331 304.792 222.419 302.812 225.407 302.812C228.341 302.812 230.411 304.756 230.411 307.816C230.411 308.104 230.393 308.41 230.357 308.716H223.391C223.499 310.03 224.309 310.642 225.299 310.642C226.163 310.642 226.649 310.21 226.901 309.67H230.177Z" fill="#535353"/>
<path d="M76.5497 327.228V328.278H72.5737V331.54H76.1297V332.59H72.5737V335.95H76.5497V337H71.2997V327.228H76.5497ZM84.0914 337V332.66C84.0914 331.092 83.2374 330.294 81.9494 330.294C80.6474 330.294 79.7514 331.106 79.7514 332.758V337H78.4774V329.328H79.7514V330.42C80.2554 329.622 81.1794 329.188 82.2154 329.188C83.9934 329.188 85.3514 330.28 85.3514 332.478V337H84.0914ZM88.1185 328.082C87.6425 328.082 87.2645 327.704 87.2645 327.214C87.2645 326.724 87.6425 326.346 88.1185 326.346C88.5945 326.346 88.9725 326.724 88.9725 327.214C88.9725 327.704 88.5945 328.082 88.1185 328.082ZM87.4745 329.328H88.7485V338.666C88.7485 340.052 88.0205 340.64 86.7185 340.64H85.9765V339.562H86.5085C87.2085 339.562 87.4745 339.31 87.4745 338.638V329.328ZM98.1851 333.15C98.1851 335.586 96.4351 337.126 94.2511 337.126C92.0811 337.126 90.4291 335.586 90.4291 333.15C90.4291 330.728 92.1371 329.202 94.3071 329.202C96.4911 329.202 98.1851 330.728 98.1851 333.15ZM91.7311 333.15C91.7311 335.096 92.9211 336.006 94.2511 336.006C95.5811 336.006 96.8831 335.096 96.8831 333.15C96.8831 331.218 95.6091 330.308 94.2931 330.308C92.9491 330.308 91.7311 331.218 91.7311 333.15ZM102.772 335.544L105.152 329.328H106.468L101.848 340.612H100.532L102.044 336.916L98.9502 329.328H100.364L102.772 335.544ZM111.761 334.9V330.378H110.767V329.328H111.761V327.396H113.035V329.328H115.037V330.378H113.035V334.9C113.035 335.656 113.315 335.922 114.099 335.922H115.037V337H113.889C112.531 337 111.761 336.44 111.761 334.9ZM116.581 337V326.64H117.855V330.434C118.359 329.622 119.311 329.188 120.389 329.188C122.097 329.188 123.455 330.28 123.455 332.478V337H122.195V332.66C122.195 331.092 121.341 330.294 120.053 330.294C118.751 330.294 117.855 331.106 117.855 332.758V337H116.581ZM128.798 330.28C127.552 330.28 126.516 331.106 126.376 332.604H131.22C131.234 331.106 130.114 330.28 128.798 330.28ZM132.382 334.634C131.99 336.034 130.758 337.126 128.854 337.126C126.67 337.126 125.06 335.586 125.06 333.15C125.06 330.728 126.614 329.202 128.854 329.202C131.08 329.202 132.536 330.77 132.536 332.87C132.536 333.15 132.522 333.374 132.494 333.64H126.362C126.46 335.194 127.552 336.048 128.854 336.048C130.002 336.048 130.73 335.46 131.01 334.634H132.382ZM138.188 337V330.378H137.194V329.328H138.188V328.782C138.188 327.074 139.028 326.304 140.988 326.304V327.368C139.84 327.368 139.462 327.788 139.462 328.782V329.328H141.072V330.378H139.462V337H138.188ZM142.081 333.136C142.081 330.742 143.663 329.202 145.721 329.202C147.149 329.202 148.129 329.93 148.577 330.728V329.328H149.865V337H148.577V335.572C148.115 336.398 147.121 337.126 145.707 337.126C143.663 337.126 142.081 335.516 142.081 333.136ZM148.577 333.15C148.577 331.372 147.373 330.308 145.973 330.308C144.573 330.308 143.383 331.33 143.383 333.136C143.383 334.942 144.573 336.006 145.973 336.006C147.373 336.006 148.577 334.956 148.577 333.15ZM157.534 334.914C157.534 336.174 156.428 337.126 154.734 337.126C152.942 337.126 151.682 336.146 151.598 334.746H152.914C152.984 335.488 153.642 336.048 154.72 336.048C155.728 336.048 156.288 335.544 156.288 334.914C156.288 333.206 151.752 334.2 151.752 331.344C151.752 330.168 152.858 329.202 154.566 329.202C156.26 329.202 157.38 330.112 157.464 331.61H156.19C156.134 330.84 155.546 330.28 154.524 330.28C153.586 330.28 153.026 330.728 153.026 331.344C153.026 333.164 157.478 332.17 157.534 334.914ZM159.613 334.9V330.378H158.619V329.328H159.613V327.396H160.887V329.328H162.889V330.378H160.887V334.9C160.887 335.656 161.167 335.922 161.951 335.922H162.889V337H161.741C160.383 337 159.613 336.44 159.613 334.9ZM167.694 330.28C166.448 330.28 165.412 331.106 165.272 332.604H170.116C170.13 331.106 169.01 330.28 167.694 330.28ZM171.278 334.634C170.886 336.034 169.654 337.126 167.75 337.126C165.566 337.126 163.956 335.586 163.956 333.15C163.956 330.728 165.51 329.202 167.75 329.202C169.976 329.202 171.432 330.77 171.432 332.87C171.432 333.15 171.418 333.374 171.39 333.64H165.258C165.356 335.194 166.448 336.048 167.75 336.048C168.898 336.048 169.626 335.46 169.906 334.634H171.278ZM178.63 334.914C178.63 336.174 177.524 337.126 175.83 337.126C174.038 337.126 172.778 336.146 172.694 334.746H174.01C174.08 335.488 174.738 336.048 175.816 336.048C176.824 336.048 177.384 335.544 177.384 334.914C177.384 333.206 172.848 334.2 172.848 331.344C172.848 330.168 173.954 329.202 175.662 329.202C177.356 329.202 178.476 330.112 178.56 331.61H177.286C177.23 330.84 176.642 330.28 175.62 330.28C174.682 330.28 174.122 330.728 174.122 331.344C174.122 333.164 178.574 332.17 178.63 334.914ZM180.709 334.9V330.378H179.715V329.328H180.709V327.396H181.983V329.328H183.985V330.378H181.983V334.9C181.983 335.656 182.263 335.922 183.047 335.922H183.985V337H182.837C181.479 337 180.709 336.44 180.709 334.9ZM188.785 333.136C188.785 330.742 190.367 329.202 192.425 329.202C193.853 329.202 194.833 329.93 195.281 330.728V329.328H196.569V337H195.281V335.572C194.819 336.398 193.825 337.126 192.411 337.126C190.367 337.126 188.785 335.516 188.785 333.136ZM195.281 333.15C195.281 331.372 194.077 330.308 192.677 330.308C191.277 330.308 190.087 331.33 190.087 333.136C190.087 334.942 191.277 336.006 192.677 336.006C194.077 336.006 195.281 334.956 195.281 333.15ZM204.336 337V332.66C204.336 331.092 203.482 330.294 202.194 330.294C200.892 330.294 199.996 331.106 199.996 332.758V337H198.722V329.328H199.996V330.42C200.5 329.622 201.424 329.188 202.46 329.188C204.238 329.188 205.596 330.28 205.596 332.478V337H204.336ZM207.201 333.136C207.201 330.742 208.783 329.202 210.855 329.202C212.059 329.202 213.165 329.818 213.697 330.7V326.64H214.985V337H213.697V335.558C213.235 336.412 212.241 337.126 210.841 337.126C208.783 337.126 207.201 335.516 207.201 333.136ZM213.697 333.15C213.697 331.372 212.493 330.308 211.093 330.308C209.693 330.308 208.503 331.33 208.503 333.136C208.503 334.942 209.693 336.006 211.093 336.006C212.493 336.006 213.697 334.956 213.697 333.15ZM222.144 330.756C222.634 329.902 223.656 329.202 225.014 329.202C227.086 329.202 228.654 330.742 228.654 333.136C228.654 335.516 227.072 337.126 225.014 337.126C223.614 337.126 222.62 336.426 222.144 335.586V337H220.87V326.64H222.144V330.756ZM227.352 333.136C227.352 331.33 226.162 330.308 224.748 330.308C223.362 330.308 222.144 331.372 222.144 333.15C222.144 334.956 223.362 336.006 224.748 336.006C226.162 336.006 227.352 334.942 227.352 333.136ZM233.593 330.28C232.347 330.28 231.311 331.106 231.171 332.604H236.015C236.029 331.106 234.909 330.28 233.593 330.28ZM237.177 334.634C236.785 336.034 235.553 337.126 233.649 337.126C231.465 337.126 229.855 335.586 229.855 333.15C229.855 330.728 231.409 329.202 233.649 329.202C235.875 329.202 237.331 330.77 237.331 332.87C237.331 333.15 237.317 333.374 237.289 333.64H231.157C231.255 335.194 232.347 336.048 233.649 336.048C234.797 336.048 235.525 335.46 235.805 334.634H237.177ZM244.529 334.914C244.529 336.174 243.423 337.126 241.729 337.126C239.937 337.126 238.677 336.146 238.593 334.746H239.909C239.979 335.488 240.637 336.048 241.715 336.048C242.723 336.048 243.283 335.544 243.283 334.914C243.283 333.206 238.747 334.2 238.747 331.344C238.747 330.168 239.853 329.202 241.561 329.202C243.255 329.202 244.375 330.112 244.459 331.61H243.185C243.129 330.84 242.541 330.28 241.519 330.28C240.581 330.28 240.021 330.728 240.021 331.344C240.021 333.164 244.473 332.17 244.529 334.914ZM246.607 334.9V330.378H245.613V329.328H246.607V327.396H247.881V329.328H249.883V330.378H247.881V334.9C247.881 335.656 248.161 335.922 248.945 335.922H249.883V337H248.735C247.377 337 246.607 336.44 246.607 334.9ZM260.675 334.914C260.675 336.174 259.569 337.126 257.875 337.126C256.083 337.126 254.823 336.146 254.739 334.746H256.055C256.125 335.488 256.783 336.048 257.861 336.048C258.869 336.048 259.429 335.544 259.429 334.914C259.429 333.206 254.893 334.2 254.893 331.344C254.893 330.168 255.999 329.202 257.707 329.202C259.401 329.202 260.521 330.112 260.605 331.61H259.331C259.275 330.84 258.687 330.28 257.665 330.28C256.727 330.28 256.167 330.728 256.167 331.344C256.167 333.164 260.619 332.17 260.675 334.914ZM265.736 330.28C264.49 330.28 263.454 331.106 263.314 332.604H268.158C268.172 331.106 267.052 330.28 265.736 330.28ZM269.32 334.634C268.928 336.034 267.696 337.126 265.792 337.126C263.608 337.126 261.998 335.586 261.998 333.15C261.998 330.728 263.552 329.202 265.792 329.202C268.018 329.202 269.474 330.77 269.474 332.87C269.474 333.15 269.46 333.374 269.432 333.64H263.3C263.398 335.194 264.49 336.048 265.792 336.048C266.94 336.048 267.668 335.46 267.948 334.634H269.32ZM272.429 332.828V337H271.155V329.328H272.429V330.574C272.863 329.72 273.689 329.188 274.907 329.188V330.504H274.571C273.353 330.504 272.429 331.05 272.429 332.828ZM275.468 329.328H276.84L279.234 335.824L281.614 329.328H282.972L279.962 337H278.478L275.468 329.328ZM284.225 337V329.328H285.499V337H284.225ZM284.883 328.082C284.393 328.082 284.015 327.704 284.015 327.214C284.015 326.724 284.393 326.346 284.883 326.346C285.345 326.346 285.723 326.724 285.723 327.214C285.723 327.704 285.345 328.082 284.883 328.082ZM287.195 333.15C287.195 330.742 288.749 329.202 290.933 329.202C292.837 329.202 294.083 330.182 294.475 331.792H293.103C292.837 330.868 292.067 330.28 290.933 330.28C289.533 330.28 288.497 331.274 288.497 333.15C288.497 335.054 289.533 336.048 290.933 336.048C292.067 336.048 292.823 335.502 293.103 334.536H294.475C294.083 336.062 292.837 337.126 290.933 337.126C288.749 337.126 287.195 335.586 287.195 333.15ZM299.437 330.28C298.191 330.28 297.155 331.106 297.015 332.604H301.859C301.873 331.106 300.753 330.28 299.437 330.28ZM303.021 334.634C302.629 336.034 301.397 337.126 299.493 337.126C297.309 337.126 295.699 335.586 295.699 333.15C295.699 330.728 297.253 329.202 299.493 329.202C301.719 329.202 303.175 330.77 303.175 332.87C303.175 333.15 303.161 333.374 303.133 333.64H297.001C297.099 335.194 298.191 336.048 299.493 336.048C300.641 336.048 301.369 335.46 301.649 334.634H303.021Z" fill="#535353"/>
<rect x="22" y="387" width="331" height="50" rx="11" fill="#0F89FF" fill-opacity="0.1" stroke="#0F89FF" stroke-width="2"/>
<path d="M165.875 415.045C165.875 416.605 164.6 418.105 162.275 418.105C160.19 418.105 158.585 416.965 158.585 415.12H160.415C160.49 415.975 161.09 416.665 162.275 416.665C163.475 416.665 164.15 416.02 164.15 415.135C164.15 412.615 158.615 414.25 158.615 410.41C158.615 408.58 160.07 407.44 162.2 407.44C164.195 407.44 165.605 408.49 165.755 410.275H163.865C163.805 409.57 163.19 408.925 162.11 408.895C161.12 408.865 160.355 409.345 160.355 410.35C160.355 412.705 165.875 411.235 165.875 415.045ZM167.893 418V407.575H169.603V418H167.893ZM176.603 407.44C178.778 407.44 180.653 408.535 181.448 410.575H179.393C178.838 409.525 177.848 409 176.603 409C174.533 409 173.033 410.47 173.033 412.765C173.033 415.06 174.533 416.545 176.603 416.545C178.493 416.545 179.678 415.405 179.933 413.65H176.018V412.285H181.763V413.62C181.448 416.035 179.408 418.09 176.603 418.09C173.663 418.09 171.278 415.9 171.278 412.765C171.278 409.645 173.663 407.44 176.603 407.44ZM190.304 407.56H192.014V418H190.304L185.159 410.215V418H183.449V407.56H185.159L190.304 415.33V407.56ZM198.141 414.19V407.575H199.851V414.22C199.851 415.84 200.766 416.605 202.206 416.605C203.661 416.605 204.576 415.84 204.576 414.22V407.575H206.286V414.19C206.286 416.845 204.366 418.105 202.191 418.105C200.001 418.105 198.141 416.845 198.141 414.19ZM210.223 412.375H212.113C213.448 412.375 214.048 411.73 214.048 410.68C214.048 409.6 213.448 408.97 212.113 408.97H210.223V412.375ZM215.803 410.68C215.803 412.165 214.828 413.77 212.113 413.77H210.223V418H208.513V407.575H212.113C214.588 407.575 215.803 408.985 215.803 410.68Z" fill="#0F89FF"/>
<path d="M158.585 415.12V414.12H157.585V415.12H158.585ZM160.415 415.12L161.411 415.033L161.331 414.12H160.415V415.12ZM165.755 410.275V411.275H166.842L166.751 410.191L165.755 410.275ZM163.865 410.275L162.868 410.36L162.946 411.275H163.865V410.275ZM162.11 408.895L162.08 409.895L162.082 409.895L162.11 408.895ZM164.875 415.045C164.875 415.991 164.111 417.105 162.275 417.105V419.105C165.088 419.105 166.875 417.219 166.875 415.045H164.875ZM162.275 417.105C161.405 417.105 160.713 416.866 160.262 416.516C159.833 416.181 159.585 415.721 159.585 415.12H157.585C157.585 416.364 158.139 417.396 159.033 418.093C159.907 418.774 161.06 419.105 162.275 419.105V417.105ZM158.585 416.12H160.415V414.12H158.585V416.12ZM159.419 415.207C159.474 415.844 159.734 416.479 160.256 416.953C160.782 417.431 161.484 417.665 162.275 417.665V415.665C161.881 415.665 161.69 415.554 161.601 415.473C161.508 415.389 161.43 415.251 161.411 415.033L159.419 415.207ZM162.275 417.665C163.048 417.665 163.768 417.456 164.311 416.993C164.869 416.517 165.15 415.848 165.15 415.135H163.15C163.15 415.307 163.093 415.403 163.013 415.471C162.92 415.551 162.702 415.665 162.275 415.665V417.665ZM165.15 415.135C165.15 414.621 165.003 414.159 164.715 413.77C164.439 413.398 164.077 413.153 163.734 412.98C163.101 412.661 162.248 412.471 161.651 412.304C160.963 412.112 160.456 411.922 160.114 411.641C159.837 411.413 159.615 411.084 159.615 410.41H157.615C157.615 411.656 158.085 412.562 158.845 413.187C159.541 413.758 160.418 414.036 161.113 414.231C161.9 414.45 162.432 414.564 162.835 414.767C163.012 414.856 163.082 414.926 163.109 414.962C163.123 414.981 163.15 415.019 163.15 415.135H165.15ZM159.615 410.41C159.615 409.785 159.852 409.331 160.241 409.014C160.65 408.68 161.304 408.44 162.2 408.44V406.44C160.966 406.44 159.827 406.77 158.977 407.464C158.105 408.174 157.615 409.205 157.615 410.41H159.615ZM162.2 408.44C163.028 408.44 163.647 408.658 164.053 408.976C164.443 409.281 164.705 409.729 164.758 410.359L166.751 410.191C166.654 409.036 166.136 408.066 165.285 407.401C164.45 406.747 163.366 406.44 162.2 406.44V408.44ZM165.755 409.275H163.865V411.275H165.755V409.275ZM164.861 410.19C164.751 408.892 163.635 407.937 162.138 407.895L162.082 409.895C162.426 409.904 162.621 410.007 162.72 410.092C162.821 410.178 162.861 410.275 162.868 410.36L164.861 410.19ZM162.14 407.895C161.491 407.876 160.803 408.018 160.252 408.441C159.668 408.89 159.355 409.566 159.355 410.35H161.355C161.355 410.227 161.378 410.156 161.395 410.119C161.412 410.084 161.434 410.055 161.47 410.028C161.549 409.967 161.738 409.884 162.08 409.895L162.14 407.895ZM159.355 410.35C159.355 410.859 159.511 411.313 159.805 411.688C160.083 412.044 160.444 412.276 160.778 412.44C161.398 412.743 162.244 412.939 162.834 413.112C163.515 413.311 164.025 413.512 164.369 413.801C164.654 414.04 164.875 414.379 164.875 415.045H166.875C166.875 413.806 166.406 412.9 165.656 412.27C164.965 411.689 164.095 411.396 163.395 411.192C162.606 410.961 162.072 410.846 161.656 410.643C161.473 410.553 161.403 410.485 161.379 410.455C161.371 410.445 161.355 410.43 161.355 410.35H159.355ZM167.893 418H166.893V419H167.893V418ZM167.893 407.575V406.575H166.893V407.575H167.893ZM169.603 407.575H170.603V406.575H169.603V407.575ZM169.603 418V419H170.603V418H169.603ZM168.893 418V407.575H166.893V418H168.893ZM167.893 408.575H169.603V406.575H167.893V408.575ZM168.603 407.575V418H170.603V407.575H168.603ZM169.603 417H167.893V419H169.603V417ZM181.448 410.575V411.575H182.911L182.379 410.212L181.448 410.575ZM179.393 410.575L178.509 411.042L178.79 411.575H179.393V410.575ZM179.933 413.65L180.922 413.794L181.088 412.65H179.933V413.65ZM176.018 413.65H175.018V414.65H176.018V413.65ZM176.018 412.285V411.285H175.018V412.285H176.018ZM181.763 412.285H182.763V411.285H181.763V412.285ZM181.763 413.62L182.754 413.749L182.763 413.685V413.62H181.763ZM176.603 408.44C178.428 408.44 179.892 409.337 180.516 410.938L182.379 410.212C181.413 407.733 179.127 406.44 176.603 406.44V408.44ZM181.448 409.575H179.393V411.575H181.448V409.575ZM180.277 410.108C179.524 408.683 178.162 408 176.603 408V410C177.533 410 178.152 410.367 178.509 411.042L180.277 410.108ZM176.603 408C175.324 408 174.163 408.459 173.323 409.326C172.484 410.193 172.033 411.396 172.033 412.765H174.033C174.033 411.839 174.331 411.16 174.76 410.718C175.187 410.276 175.811 410 176.603 410V408ZM172.033 412.765C172.033 414.134 172.484 415.34 173.321 416.209C174.16 417.08 175.321 417.545 176.603 417.545V415.545C175.814 415.545 175.19 415.267 174.762 414.822C174.332 414.375 174.033 413.691 174.033 412.765H172.033ZM176.603 417.545C177.756 417.545 178.773 417.193 179.547 416.501C180.317 415.813 180.767 414.86 180.922 413.794L178.943 413.506C178.843 414.195 178.573 414.689 178.214 415.01C177.86 415.327 177.34 415.545 176.603 415.545V417.545ZM179.933 412.65H176.018V414.65H179.933V412.65ZM177.018 413.65V412.285H175.018V413.65H177.018ZM176.018 413.285H181.763V411.285H176.018V413.285ZM180.763 412.285V413.62H182.763V412.285H180.763ZM180.771 413.491C180.517 415.435 178.878 417.09 176.603 417.09V419.09C179.938 419.09 182.378 416.635 182.754 413.749L180.771 413.491ZM176.603 417.09C174.191 417.09 172.278 415.324 172.278 412.765H170.278C170.278 416.476 173.135 419.09 176.603 419.09V417.09ZM172.278 412.765C172.278 410.219 174.193 408.44 176.603 408.44V406.44C173.133 406.44 170.278 409.071 170.278 412.765H172.278ZM190.304 407.56V406.56H189.304V407.56H190.304ZM192.014 407.56H193.014V406.56H192.014V407.56ZM192.014 418V419H193.014V418H192.014ZM190.304 418L189.47 418.551L189.766 419H190.304V418ZM185.159 410.215L185.993 409.664L184.159 406.888V410.215H185.159ZM185.159 418V419H186.159V418H185.159ZM183.449 418H182.449V419H183.449V418ZM183.449 407.56V406.56H182.449V407.56H183.449ZM185.159 407.56L185.993 407.008L185.696 406.56H185.159V407.56ZM190.304 415.33L189.47 415.882L191.304 418.651V415.33H190.304ZM190.304 408.56H192.014V406.56H190.304V408.56ZM191.014 407.56V418H193.014V407.56H191.014ZM192.014 417H190.304V419H192.014V417ZM191.138 417.449L185.993 409.664L184.325 410.766L189.47 418.551L191.138 417.449ZM184.159 410.215V418H186.159V410.215H184.159ZM185.159 417H183.449V419H185.159V417ZM184.449 418V407.56H182.449V418H184.449ZM183.449 408.56H185.159V406.56H183.449V408.56ZM184.325 408.112L189.47 415.882L191.138 414.778L185.993 407.008L184.325 408.112ZM191.304 415.33V407.56H189.304V415.33H191.304ZM198.141 407.575V406.575H197.141V407.575H198.141ZM199.851 407.575H200.851V406.575H199.851V407.575ZM204.576 407.575V406.575H203.576V407.575H204.576ZM206.286 407.575H207.286V406.575H206.286V407.575ZM199.141 414.19V407.575H197.141V414.19H199.141ZM198.141 408.575H199.851V406.575H198.141V408.575ZM198.851 407.575V414.22H200.851V407.575H198.851ZM198.851 414.22C198.851 415.217 199.137 416.106 199.795 416.74C200.446 417.368 201.318 417.605 202.206 417.605V415.605C201.655 415.605 201.349 415.46 201.182 415.3C201.023 415.146 200.851 414.843 200.851 414.22H198.851ZM202.206 417.605C203.1 417.605 203.975 417.369 204.629 416.742C205.291 416.107 205.576 415.217 205.576 414.22H203.576C203.576 414.843 203.404 415.145 203.245 415.298C203.078 415.458 202.768 415.605 202.206 415.605V417.605ZM205.576 414.22V407.575H203.576V414.22H205.576ZM204.576 408.575H206.286V406.575H204.576V408.575ZM205.286 407.575V414.19H207.286V407.575H205.286ZM205.286 414.19C205.286 415.255 204.912 415.946 204.402 416.385C203.87 416.843 203.096 417.105 202.191 417.105V419.105C203.462 419.105 204.735 418.737 205.707 417.901C206.7 417.046 207.286 415.78 207.286 414.19H205.286ZM202.191 417.105C201.279 417.105 200.52 416.842 200.004 416.391C199.508 415.957 199.141 415.266 199.141 414.19H197.141C197.141 415.769 197.704 417.036 198.686 417.895C199.648 418.738 200.914 419.105 202.191 419.105V417.105ZM210.223 412.375H209.223V413.375H210.223V412.375ZM210.223 408.97V407.97H209.223V408.97H210.223ZM210.223 413.77V412.77H209.223V413.77H210.223ZM210.223 418V419H211.223V418H210.223ZM208.513 418H207.513V419H208.513V418ZM208.513 407.575V406.575H207.513V407.575H208.513ZM210.223 413.375H212.113V411.375H210.223V413.375ZM212.113 413.375C212.927 413.375 213.693 413.179 214.259 412.656C214.839 412.121 215.048 411.394 215.048 410.68H213.048C213.048 411.016 212.957 411.137 212.903 411.186C212.835 411.249 212.634 411.375 212.113 411.375V413.375ZM215.048 410.68C215.048 409.958 214.843 409.224 214.259 408.685C213.69 408.16 212.921 407.97 212.113 407.97V409.97C212.64 409.97 212.838 410.095 212.903 410.155C212.953 410.201 213.048 410.322 213.048 410.68H215.048ZM212.113 407.97H210.223V409.97H212.113V407.97ZM209.223 408.97V412.375H211.223V408.97H209.223ZM214.803 410.68C214.803 411.21 214.63 411.711 214.266 412.077C213.912 412.434 213.268 412.77 212.113 412.77V414.77C213.672 414.77 214.873 414.304 215.685 413.487C216.488 412.679 216.803 411.635 216.803 410.68H214.803ZM212.113 412.77H210.223V414.77H212.113V412.77ZM209.223 413.77V418H211.223V413.77H209.223ZM210.223 417H208.513V419H210.223V417ZM209.513 418V407.575H207.513V418H209.513ZM208.513 408.575H212.113V406.575H208.513V408.575ZM212.113 408.575C213.161 408.575 213.821 408.871 214.209 409.228C214.592 409.581 214.803 410.078 214.803 410.68H216.803C216.803 409.587 216.406 408.532 215.563 407.756C214.724 406.984 213.539 406.575 212.113 406.575V408.575Z" fill="#0F89FF"/>
<rect x="21" y="454" width="333" height="52" rx="12" fill="#0F89FF"/>
<path d="M165.739 475.575H167.449V484.62H170.974V486H165.739V475.575ZM182.484 480.765C182.484 483.9 180.129 486.105 177.159 486.105C174.219 486.105 171.834 483.9 171.834 480.765C171.834 477.645 174.219 475.44 177.159 475.44C180.129 475.44 182.484 477.645 182.484 480.765ZM173.589 480.765C173.589 483.12 175.089 484.62 177.159 484.62C179.229 484.62 180.729 483.12 180.729 480.765C180.729 478.41 179.229 476.94 177.159 476.94C175.089 476.94 173.589 478.41 173.589 480.765ZM188.922 475.44C191.097 475.44 192.972 476.535 193.767 478.575H191.712C191.157 477.525 190.167 477 188.922 477C186.852 477 185.352 478.47 185.352 480.765C185.352 483.06 186.852 484.545 188.922 484.545C190.812 484.545 191.997 483.405 192.252 481.65H188.337V480.285H194.082V481.62C193.767 484.035 191.727 486.09 188.922 486.09C185.982 486.09 183.597 483.9 183.597 480.765C183.597 477.645 185.982 475.44 188.922 475.44ZM195.769 486V475.575H197.479V486H195.769ZM206.579 475.56H208.289V486H206.579L201.434 478.215V486H199.724V475.56H201.434L206.579 483.33V475.56Z" fill="white"/>
<path d="M165.739 475.575V474.575H164.739V475.575H165.739ZM167.449 475.575H168.449V474.575H167.449V475.575ZM167.449 484.62H166.449V485.62H167.449V484.62ZM170.974 484.62H171.974V483.62H170.974V484.62ZM170.974 486V487H171.974V486H170.974ZM165.739 486H164.739V487H165.739V486ZM165.739 476.575H167.449V474.575H165.739V476.575ZM166.449 475.575V484.62H168.449V475.575H166.449ZM167.449 485.62H170.974V483.62H167.449V485.62ZM169.974 484.62V486H171.974V484.62H169.974ZM170.974 485H165.739V487H170.974V485ZM166.739 486V475.575H164.739V486H166.739ZM181.484 480.765C181.484 483.331 179.594 485.105 177.159 485.105V487.105C180.665 487.105 183.484 484.469 183.484 480.765H181.484ZM177.159 485.105C174.751 485.105 172.834 483.327 172.834 480.765H170.834C170.834 484.473 173.687 487.105 177.159 487.105V485.105ZM172.834 480.765C172.834 478.219 174.749 476.44 177.159 476.44V474.44C173.689 474.44 170.834 477.071 170.834 480.765H172.834ZM177.159 476.44C179.596 476.44 181.484 478.216 181.484 480.765H183.484C183.484 477.074 180.663 474.44 177.159 474.44V476.44ZM172.589 480.765C172.589 482.157 173.036 483.38 173.872 484.263C174.711 485.149 175.874 485.62 177.159 485.62V483.62C176.375 483.62 175.753 483.341 175.324 482.888C174.893 482.432 174.589 481.728 174.589 480.765H172.589ZM177.159 485.62C178.445 485.62 179.608 485.149 180.447 484.263C181.283 483.38 181.729 482.157 181.729 480.765H179.729C179.729 481.728 179.426 482.432 178.994 482.888C178.566 483.341 177.944 483.62 177.159 483.62V485.62ZM181.729 480.765C181.729 479.372 181.282 478.154 180.443 477.278C179.602 476.399 178.439 475.94 177.159 475.94V477.94C177.95 477.94 178.572 478.216 178.998 478.661C179.426 479.108 179.729 479.803 179.729 480.765H181.729ZM177.159 475.94C175.88 475.94 174.717 476.399 173.876 477.278C173.036 478.154 172.589 479.372 172.589 480.765H174.589C174.589 479.803 174.892 479.108 175.32 478.661C175.747 478.216 176.369 477.94 177.159 477.94V475.94ZM193.767 478.575V479.575H195.23L194.699 478.212L193.767 478.575ZM191.712 478.575L190.828 479.042L191.109 479.575H191.712V478.575ZM192.252 481.65L193.242 481.794L193.408 480.65H192.252V481.65ZM188.337 481.65H187.337V482.65H188.337V481.65ZM188.337 480.285V479.285H187.337V480.285H188.337ZM194.082 480.285H195.082V479.285H194.082V480.285ZM194.082 481.62L195.074 481.749L195.082 481.685V481.62H194.082ZM188.922 476.44C190.748 476.44 192.211 477.337 192.835 478.938L194.699 478.212C193.733 475.733 191.446 474.44 188.922 474.44V476.44ZM193.767 477.575H191.712V479.575H193.767V477.575ZM192.596 478.108C191.843 476.683 190.481 476 188.922 476V478C189.853 478 190.471 478.367 190.828 479.042L192.596 478.108ZM188.922 476C187.643 476 186.482 476.459 185.642 477.326C184.803 478.193 184.352 479.396 184.352 480.765H186.352C186.352 479.839 186.651 479.16 187.079 478.718C187.506 478.276 188.131 478 188.922 478V476ZM184.352 480.765C184.352 482.134 184.803 483.34 185.64 484.209C186.479 485.08 187.64 485.545 188.922 485.545V483.545C188.134 483.545 187.51 483.267 187.081 482.822C186.651 482.375 186.352 481.691 186.352 480.765H184.352ZM188.922 485.545C190.075 485.545 191.092 485.193 191.866 484.501C192.636 483.813 193.087 482.86 193.242 481.794L191.262 481.506C191.162 482.195 190.893 482.689 190.534 483.01C190.179 483.327 189.659 483.545 188.922 483.545V485.545ZM192.252 480.65H188.337V482.65H192.252V480.65ZM189.337 481.65V480.285H187.337V481.65H189.337ZM188.337 481.285H194.082V479.285H188.337V481.285ZM193.082 480.285V481.62H195.082V480.285H193.082ZM193.09 481.491C192.837 483.435 191.197 485.09 188.922 485.09V487.09C192.257 487.09 194.697 484.635 195.074 481.749L193.09 481.491ZM188.922 485.09C186.51 485.09 184.597 483.324 184.597 480.765H182.597C182.597 484.476 185.454 487.09 188.922 487.09V485.09ZM184.597 480.765C184.597 478.219 186.512 476.44 188.922 476.44V474.44C185.452 474.44 182.597 477.071 182.597 480.765H184.597ZM195.769 486H194.769V487H195.769V486ZM195.769 475.575V474.575H194.769V475.575H195.769ZM197.479 475.575H198.479V474.575H197.479V475.575ZM197.479 486V487H198.479V486H197.479ZM196.769 486V475.575H194.769V486H196.769ZM195.769 476.575H197.479V474.575H195.769V476.575ZM196.479 475.575V486H198.479V475.575H196.479ZM197.479 485H195.769V487H197.479V485ZM206.579 475.56V474.56H205.579V475.56H206.579ZM208.289 475.56H209.289V474.56H208.289V475.56ZM208.289 486V487H209.289V486H208.289ZM206.579 486L205.744 486.551L206.041 487H206.579V486ZM201.434 478.215L202.268 477.664L200.434 474.888V478.215H201.434ZM201.434 486V487H202.434V486H201.434ZM199.724 486H198.724V487H199.724V486ZM199.724 475.56V474.56H198.724V475.56H199.724ZM201.434 475.56L202.267 475.008L201.971 474.56H201.434V475.56ZM206.579 483.33L205.745 483.882L207.579 486.651V483.33H206.579ZM206.579 476.56H208.289V474.56H206.579V476.56ZM207.289 475.56V486H209.289V475.56H207.289ZM208.289 485H206.579V487H208.289V485ZM207.413 485.449L202.268 477.664L200.599 478.766L205.744 486.551L207.413 485.449ZM200.434 478.215V486H202.434V478.215H200.434ZM201.434 485H199.724V487H201.434V485ZM200.724 486V475.56H198.724V486H200.724ZM199.724 476.56H201.434V474.56H199.724V476.56ZM200.6 476.112L205.745 483.882L207.412 482.778L202.267 475.008L200.6 476.112ZM207.579 483.33V475.56H205.579V483.33H207.579Z" fill="white"/>
<rect x="68" y="716" width="113" height="48" rx="12" fill="#0F89FF" fill-opacity="0.1"/>
<path d="M104.666 734.56V735.955H100.616V739.015H104.216V740.41H100.616V743.605H104.666V745H98.9063V734.56H104.666ZM112.637 745V740.38C112.637 738.865 111.812 738.085 110.567 738.085C109.307 738.085 108.482 738.865 108.482 740.38V745H106.772V736.735H108.482V737.68C109.037 737.005 109.952 736.6 110.942 736.6C112.877 736.6 114.332 737.815 114.332 740.125V745H112.637ZM115.944 740.83C115.944 738.28 117.669 736.6 119.844 736.6C121.194 736.6 122.199 737.23 122.709 737.935V736.735H124.434V745.135C124.434 747.385 122.979 749.08 120.399 749.08C118.194 749.08 116.559 747.985 116.349 746.155H118.044C118.299 747.01 119.214 747.595 120.399 747.595C121.719 747.595 122.709 746.785 122.709 745.135V743.755C122.184 744.46 121.194 745.135 119.844 745.135C117.669 745.135 115.944 743.38 115.944 740.83ZM122.709 740.86C122.709 739.09 121.494 738.085 120.204 738.085C118.929 738.085 117.699 739.045 117.699 740.83C117.699 742.615 118.929 743.65 120.204 743.65C121.494 743.65 122.709 742.645 122.709 740.86ZM126.68 745V733.9H128.39V745H126.68ZM130.635 745V736.735H132.345V745H130.635ZM131.505 735.64C130.89 735.64 130.41 735.16 130.41 734.545C130.41 733.93 130.89 733.45 131.505 733.45C132.105 733.45 132.585 733.93 132.585 734.545C132.585 735.16 132.105 735.64 131.505 735.64ZM140.755 742.69C140.755 744.085 139.54 745.135 137.59 745.135C135.61 745.135 134.215 743.965 134.14 742.465H135.91C135.97 743.14 136.615 743.695 137.56 743.695C138.55 743.695 139.075 743.275 139.075 742.705C139.075 741.085 134.275 742.015 134.275 738.985C134.275 737.665 135.505 736.6 137.455 736.6C139.33 736.6 140.56 737.605 140.65 739.255H138.94C138.88 738.535 138.325 738.04 137.395 738.04C136.48 738.04 136 738.415 136 738.97C136 740.635 140.665 739.705 140.755 742.69ZM142.603 745V733.9H144.313V737.695C144.883 737.005 145.813 736.6 146.878 736.6C148.723 736.6 150.163 737.815 150.163 740.125V745H148.468V740.38C148.468 738.865 147.643 738.085 146.398 738.085C145.138 738.085 144.313 738.865 144.313 740.38V745H142.603Z" fill="#0F89FF"/>
</g>
</svg>
