<svg width="21" height="21" viewBox="0 0 21 21" fill="none" xmlns="http://www.w3.org/2000/svg">
<path d="M16.4009 20.22C15.988 20.22 15.6532 19.8852 15.6532 19.4723C15.6532 19.0594 15.988 18.7246 16.4009 18.7246C16.8139 18.7246 17.1486 19.0594 17.1486 19.4723C17.1486 19.8852 16.8139 20.22 16.4009 20.22Z" stroke="white" stroke-width="1.5" stroke-linecap="round" stroke-linejoin="round"/>
<path d="M6.68074 20.22C6.2678 20.22 5.93304 19.8852 5.93304 19.4723C5.93304 19.0594 6.2678 18.7246 6.68074 18.7246C7.09369 18.7246 7.42843 19.0594 7.42843 19.4723C7.42843 19.8852 7.09369 20.22 6.68074 20.22Z" stroke="white" stroke-width="1.5" stroke-linecap="round" stroke-linejoin="round"/>
<path d="M14.3947 9.75228H9.90855" stroke="white" stroke-width="1.5" stroke-linecap="round" stroke-linejoin="round"/>
<path d="M12.1515 7.50923V11.9954" stroke="white" stroke-width="1.5" stroke-linecap="round" stroke-linejoin="round"/>
<path d="M0.779969 0.779969H4.51844L4.91197 4.51844M4.91197 4.51844L5.87291 13.6473C5.95301 14.4084 6.59479 14.9862 7.36007 14.9862H16.8093C17.4956 14.9862 18.0937 14.5192 18.2602 13.8535L20.1294 6.37652C20.3654 5.43271 19.6515 4.51844 18.6786 4.51844H4.91197Z" stroke="white" stroke-width="1.5" stroke-linecap="round" stroke-linejoin="round"/>
</svg>
