<svg width="16" height="16" viewBox="0 0 16 16" fill="none" xmlns="http://www.w3.org/2000/svg">
<g clip-path="url(#clip0_485_8014)">
<path d="M8.56024 1.24572L10.3774 4.9143C10.4187 5.00742 10.4837 5.08807 10.5659 5.14823C10.6482 5.20838 10.7447 5.24594 10.846 5.25715L14.8574 5.85144C14.9736 5.86636 15.0831 5.91403 15.1731 5.98888C15.2632 6.06371 15.3302 6.16264 15.366 6.27408C15.402 6.38553 15.4055 6.50491 15.3761 6.61827C15.3468 6.73164 15.2858 6.83431 15.2002 6.9143L12.3088 9.78287C12.2351 9.85182 12.1796 9.93811 12.1478 10.0339C12.1158 10.1297 12.1083 10.232 12.1259 10.3314L12.8231 14.3657C12.8433 14.4817 12.8305 14.6009 12.7863 14.7099C12.742 14.8189 12.6681 14.9133 12.5728 14.9825C12.4776 15.0515 12.3648 15.0924 12.2474 15.1007C12.13 15.1088 12.0127 15.0838 11.9088 15.0285L8.29739 13.12C8.20492 13.0746 8.10326 13.051 8.00024 13.051C7.89723 13.051 7.79558 13.0746 7.7031 13.12L4.09167 15.0285C3.98778 15.0838 3.87046 15.1088 3.75308 15.1007C3.6357 15.0924 3.52295 15.0515 3.42769 14.9825C3.33243 14.9133 3.25846 14.8189 3.21421 14.7099C3.16997 14.6009 3.1572 14.4817 3.17739 14.3657L3.87453 10.2857C3.8922 10.1863 3.88472 10.084 3.85279 9.98822C3.82086 9.8924 3.76547 9.8061 3.69167 9.73715L0.765961 6.9143C0.679405 6.83212 0.618533 6.7266 0.59072 6.61055C0.562908 6.49448 0.569349 6.37283 0.609261 6.26035C0.649174 6.14787 0.720846 6.04938 0.815597 5.9768C0.910348 5.90423 1.02411 5.86067 1.1431 5.85144L5.15453 5.25715C5.25579 5.24594 5.35234 5.20838 5.43455 5.14823C5.51677 5.08807 5.58178 5.00742 5.6231 4.9143L7.44024 1.24572C7.48973 1.13888 7.56875 1.04842 7.66798 0.985022C7.7672 0.921625 7.8825 0.887939 8.00024 0.887939C8.11799 0.887939 8.2333 0.921625 8.33252 0.985022C8.43174 1.04842 8.51076 1.13888 8.56024 1.24572Z" stroke="white" stroke-width="0.75" stroke-linecap="round" stroke-linejoin="round"/>
</g>
<defs>
<clipPath id="clip0_485_8014">
<rect width="16" height="16" fill="white"/>
</clipPath>
</defs>
</svg>
