<svg width="37" height="37" viewBox="0 0 37 37" fill="none" xmlns="http://www.w3.org/2000/svg">
<path d="M12.8692 23.3839V13.616C12.8692 12.4877 14.1865 11.7745 15.2583 12.3224L24.8119 17.2064C25.9148 17.7702 25.9148 19.2297 24.8119 19.7935L15.2583 24.6775C14.1865 25.2254 12.8692 24.5122 12.8692 23.3839Z" stroke="white" stroke-linecap="round" stroke-linejoin="round"/>
<path d="M0.642174 16.1163C0.552847 16.8387 0.506849 17.5744 0.506849 18.3208C0.506849 19.0672 0.552847 19.803 0.642174 20.5253" stroke="white" stroke-linecap="round" stroke-linejoin="round"/>
<path d="M7.59977 4.10218C8.18255 3.6639 8.79859 3.25631 9.44695 2.8831C10.0953 2.5099 10.7574 2.18176 11.4295 1.89772" stroke="white" stroke-linecap="round" stroke-linejoin="round"/>
<path d="M1.91355 11.3837C2.19842 10.7137 2.52754 10.0536 2.90189 9.40716C3.27622 8.76074 3.68499 8.14653 4.12462 7.56549" stroke="white" stroke-linecap="round" stroke-linejoin="round"/>
<path d="M18.418 0.506849C28.273 0.506849 36.262 8.56266 36.262 18.5C36.262 28.4375 28.273 36.4931 18.418 36.4931C11.6269 36.4931 5.72179 32.6678 2.7065 27.0373" stroke="white" stroke-linecap="round" stroke-linejoin="round"/>
</svg>
