<svg width="28" height="28" viewBox="0 0 28 28" fill="none" xmlns="http://www.w3.org/2000/svg">
<path d="M13.4475 23.4687C11.4266 23.4687 9.40571 23.4687 7.38479 23.4687C6.31429 23.4687 5.67611 22.8357 5.67611 21.7704C5.67611 18.9174 5.67611 16.0627 5.67611 13.2098C5.67611 12.1238 6.30572 11.4908 7.38994 11.4908C11.4232 11.4908 15.4564 11.4908 19.4897 11.4908C20.5602 11.4908 21.1967 12.1256 21.1984 13.1909C21.1984 16.0524 21.1984 18.914 21.1984 21.7755C21.1984 22.8288 20.5602 23.4687 19.5103 23.4687C17.4894 23.4687 15.4684 23.4687 13.4475 23.4687ZM9.19126 11.4908C9.19126 11.4016 9.19126 11.3227 9.19126 11.2455C9.19126 10.5593 9.17754 9.87133 9.19641 9.18511C9.2067 8.81627 9.23758 8.44056 9.32164 8.08201C9.78484 6.0834 11.7063 4.69724 13.7546 4.86022C15.8562 5.02662 17.5425 6.69928 17.6592 8.77509C17.7072 9.64487 17.6764 10.5198 17.6815 11.393C17.6815 11.4239 17.6678 11.4531 17.6575 11.4908C14.8423 11.4908 12.0322 11.4908 9.19126 11.4908Z" stroke="#535353" stroke-miterlimit="10"/>
<path d="M14.4926 18.4645C14.4926 18.3358 14.4977 18.2054 14.4926 18.0767C14.4772 17.7371 14.5252 17.4403 14.7328 17.1298C15.1565 16.5019 14.9558 15.6389 14.3536 15.1826C13.7549 14.7297 12.9143 14.7812 12.3808 15.3061C11.8404 15.8362 11.7735 16.6957 12.2418 17.2944C12.3499 17.4334 12.3911 17.5655 12.3876 17.7336C12.3808 18.226 12.3825 18.7201 12.3859 19.2124C12.3893 19.7786 12.6913 20.0771 13.2557 20.0839C13.4015 20.0856 13.5473 20.0874 13.6914 20.0839C14.1649 20.0702 14.4754 19.7666 14.4909 19.2896C14.4995 19.0151 14.4926 18.7407 14.4926 18.4645Z" fill="#535353"/>
</svg>
