<svg width="13" height="18" viewBox="0 0 13 18" fill="none" xmlns="http://www.w3.org/2000/svg">
<path d="M5.43647 0.538989C5.06091 0.378049 4.72116 0.753572 4.8821 1.02181C5.44624 2.00473 5.82222 3.0842 5.99083 4.20486C6.22318 5.78633 5.99215 7.51953 4.97151 8.80064C4.93271 8.84916 4.88384 8.88869 4.82826 8.91648C4.77268 8.94426 4.71174 8.95966 4.64963 8.96159C4.58592 8.96449 4.52238 8.95314 4.46359 8.92839C4.40484 8.90363 4.35232 8.86611 4.30987 8.81851C3.84858 8.34077 3.37039 7.85664 3.05811 7.26276C2.96869 7.08393 2.64681 6.79782 2.18187 7.26276C1.05916 8.18728 0.375844 9.60699 0.518811 11.0537C0.57707 14.2583 3.41021 16.5988 6.51435 16.637C9.68167 16.6759 12.4747 14.3303 12.5 11.0537C12.5 8.98668 11.8767 6.96758 10.7117 5.25993C9.43417 3.21988 7.60518 1.58313 5.43647 0.538989Z" fill="white" stroke="#0F89FF" stroke-linecap="round" stroke-linejoin="round"/>
</svg>
