<svg width="52" height="11" viewBox="0 0 52 11" fill="none" xmlns="http://www.w3.org/2000/svg">
<path fill-rule="evenodd" clip-rule="evenodd" d="M46.5002 2.00343e-08C46.7339 8.96967e-09 46.9233 0.189418 46.9233 0.423077L46.9233 10.5769C46.9233 10.8106 46.7339 11 46.5002 11C46.2666 11 46.0771 10.8106 46.0771 10.5769L46.0771 0.423077C46.0771 0.189418 46.2666 3.1099e-08 46.5002 2.00343e-08Z" fill="#535353"/>
<path fill-rule="evenodd" clip-rule="evenodd" d="M41 5.49998C41 5.26632 41.1894 5.07691 41.4231 5.07691L51.5769 5.0769C51.8106 5.0769 52 5.26632 52 5.49998C52 5.73364 51.8106 5.92306 51.5769 5.92306L41.4231 5.92306C41.1894 5.92306 41 5.73364 41 5.49998Z" fill="#535353"/>
<path fill-rule="evenodd" clip-rule="evenodd" d="M0 5.49998C0 5.26632 0.189418 5.07691 0.423077 5.07691L10.5769 5.0769C10.8106 5.0769 11 5.26632 11 5.49998C11 5.73364 10.8106 5.92306 10.5769 5.92306L0.423077 5.92306C0.189418 5.92306 0 5.73364 0 5.49998Z" fill="#535353" fill-opacity="0.5"/>
</svg>
