<svg width="13" height="13" viewBox="0 0 13 13" fill="none" xmlns="http://www.w3.org/2000/svg">
<path d="M1.42308 1.88464C1.17826 1.88464 0.943474 1.9819 0.770363 2.155C0.597253 2.32812 0.5 2.5629 0.5 2.80772V11.577C0.5 11.8218 0.597253 12.0566 0.770363 12.2297C0.943474 12.4027 1.17826 12.5 1.42308 12.5H11.5769C11.8217 12.5 12.0566 12.4027 12.2296 12.2297C12.4027 12.0566 12.5 11.8218 12.5 11.577V2.80772C12.5 2.5629 12.4027 2.32812 12.2296 2.155C12.0566 1.9819 11.8217 1.88464 11.5769 1.88464H9.73077" stroke="#535353" stroke-linecap="round" stroke-linejoin="round"/>
<path d="M0.5 5.11536H12.5" stroke="#535353" stroke-linecap="round" stroke-linejoin="round"/>
<path d="M3.26953 0.5V3.26923" stroke="#535353" stroke-linecap="round" stroke-linejoin="round"/>
<path d="M9.73047 0.5V3.26923" stroke="#535353" stroke-linecap="round" stroke-linejoin="round"/>
<path d="M3.26953 1.88464H7.88492" stroke="#535353" stroke-linecap="round" stroke-linejoin="round"/>
</svg>
