<svg width="13" height="15" viewBox="0 0 13 15" fill="none" xmlns="http://www.w3.org/2000/svg">
<g id="Group 6980">
<g id="recycle-bin-2--remove-delete-empty-bin-trash-garbage">
<path id="Vector" d="M0.5 4H12.5" stroke="#FF3D00" stroke-linecap="round" stroke-linejoin="round"/>
<path id="Vector_2" d="M2 4H11V13C11 13.2652 10.8946 13.5196 10.7071 13.7071C10.5196 13.8946 10.2652 14 10 14H3C2.73478 14 2.48043 13.8946 2.29289 13.7071C2.10536 13.5196 2 13.2652 2 13V4Z" stroke="#FF3D00" stroke-linecap="round" stroke-linejoin="round"/>
<path id="Vector_3" d="M4 4V3.5C4 2.83696 4.26339 2.20107 4.73223 1.73223C5.20107 1.26339 5.83696 1 6.5 1C7.16304 1 7.79893 1.26339 8.26777 1.73223C8.73661 2.20107 9 2.83696 9 3.5V4" stroke="#FF3D00" stroke-linecap="round" stroke-linejoin="round"/>
<path id="Vector_4" d="M5 7.00146V11.003" stroke="#FF3D00" stroke-linecap="round" stroke-linejoin="round"/>
<path id="Vector_5" d="M8 7.00146V11.003" stroke="#FF3D00" stroke-linecap="round" stroke-linejoin="round"/>
</g>
</g>
</svg>
