<svg width="20" height="20" viewBox="0 0 20 20" fill="none" xmlns="http://www.w3.org/2000/svg">
<g id="followcollection 1" clip-path="url(#clip0_485_3760)">
<path id="Vector" d="M6.24976 0H2.91642C1.30809 0 -0.000244141 1.30833 -0.000244141 2.91667V6.25C-0.000244141 7.85833 1.30809 9.16667 2.91642 9.16667H6.24976C7.85809 9.16667 9.16642 7.85833 9.16642 6.25V2.91667C9.16642 1.30833 7.85809 0 6.24976 0ZM8.33309 6.25C8.33309 7.4 7.39976 8.33333 6.24976 8.33333H2.91642C1.76642 8.33333 0.833089 7.4 0.833089 6.25V2.91667C0.833089 1.76667 1.76642 0.833333 2.91642 0.833333H6.24976C7.39976 0.833333 8.33309 1.76667 8.33309 2.91667V6.25ZM17.0831 10.8333H13.7498C12.1414 10.8333 10.8331 12.1417 10.8331 13.75V17.0833C10.8331 18.6917 12.1414 20 13.7498 20H17.0831C18.6914 20 19.9998 18.6917 19.9998 17.0833V13.75C19.9998 12.1417 18.6914 10.8333 17.0831 10.8333ZM19.1664 17.0833C19.1664 18.2333 18.2331 19.1667 17.0831 19.1667H13.7498C12.5998 19.1667 11.6664 18.2333 11.6664 17.0833V13.75C11.6664 12.6 12.5998 11.6667 13.7498 11.6667H17.0831C18.2331 11.6667 19.1664 12.6 19.1664 13.75V17.0833ZM6.24976 10.8333H2.91642C1.30809 10.8333 -0.000244141 12.1417 -0.000244141 13.75V17.0833C-0.000244141 18.6917 1.30809 20 2.91642 20H6.24976C7.85809 20 9.16642 18.6917 9.16642 17.0833V13.75C9.16642 12.1417 7.85809 10.8333 6.24976 10.8333ZM8.33309 17.0833C8.33309 18.2333 7.39976 19.1667 6.24976 19.1667H2.91642C1.76642 19.1667 0.833089 18.2333 0.833089 17.0833V13.75C0.833089 12.6 1.76642 11.6667 2.91642 11.6667H6.24976C7.39976 11.6667 8.33309 12.6 8.33309 13.75V17.0833ZM14.5081 8.01667C14.7748 8.225 15.0914 8.33333 15.4164 8.33333C15.7414 8.33333 16.0581 8.225 16.3248 8.01667C16.9414 7.525 19.9998 4.95 19.9998 2.70833C19.9998 1.21667 18.8748 0 17.4998 0C16.6581 0 15.8831 0.458333 15.4164 1.15833C14.9581 0.45 14.1831 0 13.3331 0C11.9581 0 10.8331 1.21667 10.8331 2.70833C10.8331 4.95 13.8914 7.525 14.5081 8.01667ZM13.3331 0.833333C14.1331 0.833333 14.8498 1.48333 14.9998 2.34167C15.0331 2.54167 15.2081 2.68333 15.4081 2.68333C15.6081 2.68333 15.7831 2.54167 15.8164 2.34167C15.9664 1.48333 16.6914 0.833333 17.4998 0.833333C18.4164 0.833333 19.1664 1.675 19.1664 2.70833C19.1664 4.25 17.0498 6.35833 15.7998 7.36667C15.5748 7.54167 15.2498 7.55 15.0331 7.36667C13.7831 6.36667 11.6664 4.25833 11.6664 2.70833C11.6664 1.675 12.4164 0.833333 13.3331 0.833333Z" fill="#535353"/>
</g>
<defs>
<clipPath id="clip0_485_3760">
<rect width="20" height="20" fill="white" transform="translate(-0.000244141)"/>
</clipPath>
</defs>
</svg>
