<svg width="28" height="28" viewBox="0 0 28 28" fill="none" xmlns="http://www.w3.org/2000/svg">
<path fill-rule="evenodd" clip-rule="evenodd" d="M5.02033 7.58245C3.75533 8.51228 3 10.061 3 11.7267V21.0009C3 23.7574 5.05608 26 7.58333 26H20.4167C22.9439 26 25 23.7574 25 21.0009V11.7267C25 10.148 24.3143 8.68025 23.1667 7.73842L21.3333 6.36968L16.5639 2.85934C15.0065 1.71355 12.9935 1.71355 11.4361 2.85934L5.02033 7.58245ZM12.0287 3.66484L5.61318 8.38777C4.62212 9.11624 4 10.3567 4 11.7267V21.0009C4 23.2886 5.68833 25 7.58333 25H20.4167C22.3117 25 24 23.2886 24 21.0009V11.7267C24 10.4415 23.4449 9.26923 22.5489 8.52519L20.7406 7.17506L20.7351 7.17099L15.9713 3.66484C14.7665 2.77845 13.2336 2.77857 12.0287 3.66484Z" fill="white"/>
<path fill-rule="evenodd" clip-rule="evenodd" d="M16 18H12C11.4477 18 11 18.4477 11 19V25H17V19C17 18.4477 16.5523 18 16 18ZM12 17C10.8954 17 10 17.8954 10 19V26H18V19C18 17.8954 17.1046 17 16 17H12Z" fill="white"/>
</svg>
