<svg width="253" height="253" viewBox="0 0 253 253" fill="none" xmlns="http://www.w3.org/2000/svg">
<mask id="mask0_220_242" style="mask-type:alpha" maskUnits="userSpaceOnUse" x="0" y="0" width="253" height="253">
<g clip-path="url(#clip0_220_242)">
<path opacity="0.1" d="M95.6642 187.015C95.7674 186.161 96.1568 185.383 96.7527 184.841C97.3486 184.3 98.106 184.035 98.8698 184.101C106.091 183.987 112.848 189.72 119.115 195.882C120.507 197.239 122.017 198.654 123.578 197.22C124.061 196.77 124.413 196.169 124.59 195.492C124.86 194.386 124.86 193.219 124.59 192.113C124.36 191.202 123.973 190.35 123.451 189.607C120.727 185.572 117.411 183.626 114.72 179.458C113.213 177.074 111.964 174.496 111 171.778C110.157 169.377 108.47 165.513 109.144 162.285C109.895 158.402 112.468 158.744 114.029 159.266C118.964 160.928 123.569 164.886 127.753 169.813C132.216 175.054 136.257 181.366 140.28 187.651C141.799 190.024 143.402 192.483 145.342 193.347C147.282 194.211 149.737 192.806 150.555 189.369C151.373 185.933 150.412 181.984 150.209 178.566C149.939 174.488 150.114 170.388 150.732 166.358C151.006 164.23 151.645 162.183 152.613 160.33C154.79 156.732 158.012 157.994 160.121 160.709C161.729 162.982 162.974 165.552 163.799 168.304C166.094 175.196 167.435 183.569 168.017 191.904C168.337 196.878 169.012 202.071 170.834 205.944C173.778 212.191 179.27 211.688 183.53 208.413C190.945 202.717 196.664 189.844 198.191 175.452C198.689 170.763 198.815 165.703 200.334 161.763C201.658 158.364 205.058 156.067 206.72 159.731C207.388 161.564 207.576 163.574 207.26 165.522C206.963 167.453 206.543 169.356 206.003 171.218C205.159 174.446 204.315 180.503 206.593 182.382C206.933 182.614 207.313 182.76 207.708 182.809C208.103 182.859 208.503 182.81 208.879 182.667C216.336 180.93 223.27 173.022 227.826 162C229.477 157.853 230.738 153.523 231.588 149.08C232.136 146.375 232.364 143.451 232.971 140.755C233.365 138.634 234.152 136.631 235.283 134.878C238.185 130.967 244.883 132.809 245.262 141.191C245.473 145.995 244.326 150.741 243.879 155.488C243.617 158.459 245.245 158.431 246.46 158.336C252.281 157.671 257.426 151.064 261.99 144.191C267.414 136.017 273.42 125.404 280.827 125.1C282.514 125.024 285.323 125.271 286.335 128.205C286.805 130.002 286.805 131.913 286.335 133.711C284.834 140.717 280.43 144.343 277.056 147.799C267.545 157.846 259.177 169.182 252.146 181.547C251.074 183.446 249.969 186.569 250.99 188.439C251.192 188.783 251.48 189.053 251.818 189.213C252.155 189.374 252.528 189.418 252.888 189.341C256.372 189.046 259.637 185.923 262.817 183.341C265.997 180.759 269.607 178.5 272.94 180.493C273.967 181.185 274.861 182.099 275.572 183.183C276.283 184.266 276.796 185.498 277.081 186.806C277.677 189.101 277.772 191.524 277.36 193.869C276.137 200.315 270.848 203.22 267.937 206.391C263.93 210.741 260.261 215.47 256.971 220.526C253.934 225.206 251.066 230.332 248.029 234.937C237.063 251.379 221.879 253.819 208.382 255.727C193.695 257.796 178.975 256.676 164.373 254.512C153.752 252.917 143.284 249.509 132.916 245.474C129.356 244.022 125.822 242.436 122.329 240.557C118.575 238.544 113.05 237.3 111.608 229.383C111.304 227.674 111.658 226.288 112.662 225.643C115.775 223.659 120.212 226.317 123.139 228.073C127.18 230.503 131.01 233.968 135.16 235.848C135.828 236.213 136.555 236.423 137.297 236.465C138.039 236.507 138.781 236.382 139.479 236.095C140.161 235.773 140.724 235.196 141.073 234.462C141.514 233.496 141.623 232.38 141.377 231.329C141.204 230.765 140.915 230.254 140.533 229.839C133.098 221.204 124.208 214.324 114.383 209.599C111.22 208.071 107.989 206.818 104.943 204.653C102.482 202.94 100.358 200.679 98.7011 198.008C97.2248 195.597 94.9472 191.088 95.6642 187.015Z" fill="#5DCCFC"/>
<path opacity="0.1" d="M257.013 117.23C256.449 117.888 255.711 118.32 254.909 118.463C254.107 118.606 253.286 118.451 252.569 118.022C251.853 117.593 251.28 116.914 250.937 116.086C250.594 115.258 250.5 114.326 250.669 113.433C253.58 97.5794 259.906 85.9787 267.431 91.9689C273.049 96.4402 264.242 108.781 257.013 117.23Z" fill="#5DCCFC"/>
<path opacity="0.1" d="M160.657 117.535C152.871 110.738 147.43 101.397 152.98 99.0139C158.227 96.7355 160.657 117.535 160.657 117.535Z" fill="#5DCCFC"/>
<path opacity="0.3" d="M223.693 211.301C227.168 207.985 227.596 202.126 224.649 198.215C221.702 194.304 216.496 193.823 213.021 197.139C209.546 200.456 209.118 206.315 212.065 210.225C215.012 214.136 220.218 214.618 223.693 211.301Z" fill="#5DCCFC"/>
<path opacity="0.3" d="M183.301 149.809C183.207 151.104 182.773 152.339 182.056 153.357C181.338 154.375 180.368 155.131 179.269 155.528C178.17 155.926 176.991 155.948 175.88 155.591C174.77 155.235 173.779 154.515 173.031 153.525C172.284 152.534 171.815 151.316 171.683 150.025C171.551 148.734 171.762 147.428 172.29 146.272C172.818 145.117 173.638 144.163 174.648 143.532C175.657 142.901 176.81 142.621 177.961 142.727C178.725 142.797 179.469 143.035 180.152 143.429C180.834 143.822 181.44 144.364 181.936 145.022C182.432 145.679 182.808 146.441 183.042 147.262C183.276 148.084 183.364 148.949 183.301 149.809Z" fill="#5DCCFC"/>
<path opacity="0.3" d="M175.955 89.0356C174.8 89.098 173.654 88.7735 172.663 88.1031C171.672 87.4328 170.88 86.4467 170.387 85.2696C169.894 84.0925 169.722 82.7772 169.893 81.4903C170.065 80.2033 170.571 79.0023 171.349 78.0394C172.127 77.0764 173.141 76.3947 174.263 76.0804C175.385 75.7661 176.565 75.8334 177.653 76.2737C178.741 76.7141 179.689 77.5077 180.376 78.5542C181.063 79.6008 181.459 80.8532 181.514 82.1531C181.585 83.8945 181.04 85.5968 179.998 86.8868C178.956 88.1768 177.502 88.9495 175.955 89.0356Z" fill="#5DCCFC"/>
<path opacity="0.3" d="M217.484 140.612C217.444 141.147 217.264 141.656 216.967 142.076C216.67 142.496 216.269 142.807 215.815 142.971C215.361 143.134 214.874 143.143 214.415 142.995C213.957 142.847 213.548 142.55 213.239 142.141C212.931 141.732 212.737 141.229 212.683 140.696C212.628 140.162 212.715 139.623 212.933 139.146C213.151 138.668 213.489 138.274 213.906 138.013C214.322 137.752 214.798 137.636 215.273 137.679C215.912 137.739 216.503 138.082 216.917 138.632C217.331 139.181 217.535 139.894 217.484 140.612Z" fill="#5DCCFC"/>
<path opacity="0.7" d="M173.787 214.887H173.382C172.736 214.837 172.105 214.643 171.526 214.317C170.947 213.992 170.431 213.54 170.008 212.988C169.592 212.439 169.277 211.801 169.081 211.114C168.886 210.426 168.813 209.701 168.869 208.982C168.948 207.918 169.3 206.904 169.882 206.061C170.465 205.219 171.253 204.586 172.15 204.239C173.047 203.893 174.014 203.847 174.933 204.109C175.853 204.37 176.685 204.927 177.328 205.712C177.97 206.497 178.396 207.475 178.553 208.528C178.71 209.58 178.592 210.662 178.212 211.64C177.832 212.618 177.207 213.45 176.414 214.035C175.621 214.62 174.693 214.932 173.745 214.934L173.787 214.887ZM173.787 204.596C172.968 204.579 172.163 204.83 171.469 205.319C170.775 205.809 170.223 206.514 169.879 207.351C169.536 208.187 169.416 209.118 169.535 210.03C169.654 210.941 170.006 211.795 170.548 212.485C170.908 212.965 171.349 213.36 171.846 213.647C172.342 213.934 172.885 214.107 173.441 214.156C174.565 214.26 175.68 213.858 176.541 213.037C177.402 212.217 177.937 211.045 178.03 209.779C178.123 208.514 177.765 207.259 177.036 206.291C176.307 205.322 175.266 204.72 174.141 204.615L173.787 204.596Z" fill="white"/>
<path opacity="0.3" d="M330.926 226.156C330.015 221.504 318.644 224.257 316.291 224.684C311.716 225.617 307.239 227.074 302.928 229.032C298.179 231.121 292.662 234.206 287.744 231.026C284.901 229.174 294.771 225.539 295.665 225.168C299.86 223.513 303.909 221.425 307.762 218.931C309.323 217.887 312.343 215.39 311.044 212.846C309.964 210.748 306.092 210.948 303.738 211.27C296.605 212.269 289.609 214.258 282.911 217.194C276.393 220.107 270.012 223.396 263.795 227.048C261.384 228.57 258.764 229.629 256.043 230.181C253.074 230.655 249.438 229.953 248.265 228.092C247.093 226.232 248.603 224.086 248.949 222.225C249.436 220.001 249.23 217.655 248.367 215.58C247.79 214.192 246.828 213.052 245.625 212.334C242.411 210.435 237.552 211.137 234.321 212.637C232.228 213.635 230.315 215.057 228.678 216.833C225.38 220.287 223.067 224.763 222.031 229.697C221.769 231.242 221.24 232.714 220.473 234.028C219.706 235.343 218.716 236.474 217.56 237.358C213.038 240.785 204.754 240.585 198.419 238.867C187.36 235.858 178.924 228.956 176.891 221.162C175.904 217.45 175.423 213.615 170.986 212.125C168.118 211.175 162.112 211.83 163.394 215.922C163.861 217.042 164.469 218.082 165.199 219.007C166.372 220.745 167.621 224.02 164.137 225.073C163.008 225.34 161.849 225.401 160.703 225.254C149.501 224.409 139.192 220.203 132.511 214.28C130.333 212.354 128.486 209.995 127.062 207.321C126.269 205.85 125.982 204.274 125.113 202.812C124.285 201.414 123.112 200.319 121.739 199.66C117.437 197.572 107.331 198.654 106.622 203.22C106.243 205.688 107.609 208.365 108.309 210.71C108.436 211.005 108.466 211.342 108.394 211.66C108.191 212.258 107.39 212.428 106.707 212.476C97.672 213.15 88.9074 209.201 81.3237 205.081C73.293 200.714 64.4524 195.027 53.2921 194.961C50.9839 194.846 48.6742 195.147 46.4507 195.853C45.8849 196.014 45.3596 196.32 44.9154 196.746C44.6428 197.065 44.4616 197.469 44.3954 197.906C44.3292 198.343 44.3811 198.792 44.5443 199.195C44.9053 200.029 45.4444 200.75 46.1133 201.293C49.4876 204.388 54.2115 205.641 58.5222 207.236C71.3118 211.92 83.6776 217.96 95.4535 225.273C96.6429 226.023 98.7518 227.76 97.0815 229.07C95.4113 230.38 92.0202 229.526 90.0209 229.155C86.3936 228.491 82.9096 227.437 79.3751 226.431C74.7018 225.111 69.2523 223.896 64.1909 224.997C61.5168 225.577 59.1295 226.811 57.8726 228.481C57.4406 228.971 57.1561 229.601 57.0592 230.282C56.9623 230.964 57.058 231.662 57.3327 232.279C59.0705 235.763 66.9916 237.272 71.3191 238.924C76.8614 241.051 82.2794 243.569 87.5408 246.462C92.037 248.958 96.2127 251.702 100.768 254.161C117.04 262.951 139.766 264.071 160.087 264.926C182.147 265.875 204.307 265.068 226.307 263.692C242.335 262.685 258.068 260.701 273.775 258.376C278.288 257.702 282.776 256.885 287.272 256.192C291.836 255.603 296.35 254.597 300.769 253.183C302.357 252.727 303.838 251.892 305.113 250.734C306.32 249.48 306.699 247.829 304.54 247.344C300.018 246.329 295.362 247.487 290.941 248.398C285.981 249.411 281.066 250.588 276.196 251.93C273.977 252.601 271.723 253.117 269.447 253.477C267.161 253.843 264.832 253.675 262.606 252.983C261.881 252.727 261.088 252.271 261.045 251.55C261.003 250.828 261.611 250.373 262.235 250.097C271.337 246.044 281.004 243.452 290.739 241.079C297.344 239.465 304.067 238.478 310.723 237.215C316.788 236.076 323.182 235.801 328.438 231.519C329.477 230.762 330.287 229.666 330.758 228.377C331.007 227.671 331.065 226.899 330.926 226.156Z" fill="#5DCCFC"/>
<path opacity="0.3" d="M69.8934 187.765C67.4218 179.848 58.615 165.845 56.7591 174.123C55.7637 178.727 69.8934 187.765 69.8934 187.765Z" fill="#5DCCFC"/>
<path opacity="0.3" d="M97.942 164.858C94.7195 162.959 92.2057 159.912 94.0953 158.64C95.9849 157.368 97.942 164.858 97.942 164.858Z" fill="#5DCCFC"/>
</g>
</mask>
<g mask="url(#mask0_220_242)">
<path d="M-122 0H253V241C253 247.627 247.627 253 241 253H-110C-116.627 253 -122 247.627 -122 241V0Z" fill="white"/>
</g>
<defs>
<clipPath id="clip0_220_242">
<rect width="253" height="253" fill="white"/>
</clipPath>
</defs>
</svg>
