<svg width="68" height="67" viewBox="0 0 68 67" fill="none" xmlns="http://www.w3.org/2000/svg">
<g id="Icons / Paperplane / Filled">
<rect id="Style" x="0.5" width="67" height="67" rx="12" fill="#474747" fill-opacity="0.08"/>
<g id="gift-2--reward-box-social-present-gift-media-rating-bow">
<path id="Vector" d="M45.744 44.1339V32.2367H24.2556V44.1339C24.2556 45.2587 25.1674 46.1704 26.2921 46.1704H43.7074C44.8322 46.1704 45.744 45.2587 45.744 44.1339Z" stroke="#535353" stroke-linecap="round" stroke-linejoin="round"/>
<path id="Vector 2239" d="M35 46.1702V32.2327" stroke="#535353" stroke-linecap="round" stroke-linejoin="round"/>
<path id="Vector_2" d="M47.5 28.9766V30.2002C47.5 31.3249 46.5883 32.2367 45.4635 32.2367H24.5365C23.4118 32.2367 22.5 31.3249 22.5 30.2002V28.9766C22.5 27.8519 23.4118 26.9401 24.5365 26.9401H45.4635C46.5883 26.9401 47.5 27.8519 47.5 28.9766Z" stroke="#535353" stroke-linecap="round" stroke-linejoin="round"/>
<path id="Vector_3" d="M35.0003 26.9399C35.0003 25.1579 32.9214 21 29.8029 21C24.7297 21 26.5778 26.9399 29.0059 26.9399" stroke="#535353" stroke-linecap="round" stroke-linejoin="round"/>
<path id="Vector_4" d="M35 26.9399C35 25.1579 37.0789 21 40.1974 21C45.2706 21 43.4225 26.9399 40.9944 26.9399" stroke="#535353" stroke-linecap="round" stroke-linejoin="round"/>
</g>
</g>
</svg>
