<svg width="31" height="24" viewBox="0 0 31 24" fill="none" xmlns="http://www.w3.org/2000/svg">
<g id="water-glass--glass-water-juice-drink-liquid">
<g id="bullet-list--points-bullet-unordered-list-lists-bullets">
<path id="Vector" d="M2.29995 3.2C2.90746 3.2 3.39995 2.70751 3.39995 2.1C3.39995 1.49249 2.90746 1 2.29995 1C1.69244 1 1.19995 1.49249 1.19995 2.1C1.19995 2.70751 1.69244 3.2 2.29995 3.2Z" stroke="#535353" stroke-linecap="round" stroke-linejoin="round"/>
<path id="Vector_2" d="M10 2.09998H29.8" stroke="#535353" stroke-linecap="round" stroke-linejoin="round"/>
<path id="Vector_3" d="M2.29995 13.1C2.90746 13.1 3.39995 12.6075 3.39995 12C3.39995 11.3925 2.90746 10.9 2.29995 10.9C1.69244 10.9 1.19995 11.3925 1.19995 12C1.19995 12.6075 1.69244 13.1 2.29995 13.1Z" stroke="#535353" stroke-linecap="round" stroke-linejoin="round"/>
<path id="Vector_4" d="M10 12H29.8" stroke="#535353" stroke-linecap="round" stroke-linejoin="round"/>
<path id="Vector_5" d="M2.29995 22.9999C2.90746 22.9999 3.39995 22.5073 3.39995 21.8999C3.39995 21.2925 2.90746 20.7999 2.29995 20.7999C1.69244 20.7999 1.19995 21.2925 1.19995 21.8999C1.19995 22.5073 1.69244 22.9999 2.29995 22.9999Z" stroke="#535353" stroke-linecap="round" stroke-linejoin="round"/>
<path id="Vector_6" d="M10 21.9H29.8" stroke="#535353" stroke-linecap="round" stroke-linejoin="round"/>
</g>
</g>
</svg>
