<svg width="68" height="67" viewBox="0 0 68 67" fill="none" xmlns="http://www.w3.org/2000/svg">
<g id="Payments, Finance/Coins, Money, Plus, Add">
<rect id="Style" x="0.5" width="67" height="67" rx="12" fill="#474747" fill-opacity="0.08"/>
<g id="customer-support-1--customer-headset-help-microphone-phone-support">
<path id="Vector" d="M27.5713 34.0001V29.1158C27.5858 28.1557 27.7896 27.2079 28.171 26.3267C28.5525 25.4456 29.104 24.6483 29.7941 23.9807C30.4842 23.313 31.2992 22.7881 32.1925 22.436C33.0858 22.0838 34.0398 21.9115 34.9999 21.9287C35.9599 21.9115 36.9139 22.0838 37.8072 22.436C38.7005 22.7881 39.5155 23.313 40.2056 23.9807C40.8957 24.6483 41.4473 25.4456 41.8288 26.3267C42.21 27.2079 42.4139 28.1557 42.4284 29.1158V34.0001" stroke="#535353" stroke-linecap="round" stroke-linejoin="round"/>
<path id="Vector_2" d="M24.7856 31.2144H26.6428C26.889 31.2144 27.1252 31.3122 27.2993 31.4863C27.4735 31.6605 27.5713 31.8967 27.5713 32.1429V37.7144C27.5713 37.9606 27.4735 38.1968 27.2993 38.3709C27.1252 38.5451 26.889 38.6429 26.6428 38.6429H24.7856C24.2931 38.6429 23.8207 38.4473 23.4724 38.099C23.1241 37.7507 22.9285 37.2783 22.9285 36.7858V33.0715C22.9285 32.5789 23.1241 32.1066 23.4724 31.7583C23.8207 31.41 24.2931 31.2144 24.7856 31.2144Z" stroke="#535353" stroke-linecap="round" stroke-linejoin="round"/>
<path id="Vector_3" d="M45.2142 38.6429H43.357C43.1108 38.6429 42.8746 38.5451 42.7004 38.3709C42.5263 38.1968 42.4285 37.9606 42.4285 37.7144V32.1429C42.4285 31.8967 42.5263 31.6605 42.7004 31.4863C42.8746 31.3122 43.1108 31.2144 43.357 31.2144H45.2142C45.7067 31.2144 46.1792 31.41 46.5274 31.7583C46.8756 32.1066 47.0713 32.5789 47.0713 33.0715V36.7858C47.0713 37.2783 46.8756 37.7507 46.5274 38.099C46.1792 38.4473 45.7067 38.6429 45.2142 38.6429Z" stroke="#535353" stroke-linecap="round" stroke-linejoin="round"/>
<path id="Vector_4" d="M38.7141 43.75C39.6992 43.75 40.6439 43.3587 41.3405 42.6621C42.0371 41.9655 42.4284 41.0208 42.4284 40.0357V35.8572" stroke="#535353" stroke-linecap="round" stroke-linejoin="round"/>
<path id="Vector_5" d="M38.7142 43.75C38.7142 44.3657 38.4696 44.9562 38.0343 45.3915C37.5989 45.8269 37.0085 46.0714 36.3928 46.0714H33.6071C32.9914 46.0714 32.4009 45.8269 31.9656 45.3915C31.5302 44.9562 31.2856 44.3657 31.2856 43.75C31.2856 43.1344 31.5302 42.5438 31.9656 42.1085C32.4009 41.6732 32.9914 41.4286 33.6071 41.4286H36.3928C37.0085 41.4286 37.5989 41.6732 38.0343 42.1085C38.4696 42.5438 38.7142 43.1344 38.7142 43.75Z" stroke="#535353" stroke-linecap="round" stroke-linejoin="round"/>
</g>
</g>
</svg>
