<svg width="17" height="17" viewBox="0 0 17 17" fill="none" xmlns="http://www.w3.org/2000/svg">
<g id="information-circle--information-frame-info-more-help-point-circle">
<path id="Vector" d="M8.50028 16.3929C12.8594 16.3929 16.3931 12.8592 16.3931 8.50003C16.3931 4.14093 12.8594 0.607178 8.50028 0.607178C4.14118 0.607178 0.607422 4.14093 0.607422 8.50003C0.607422 12.8592 4.14118 16.3929 8.50028 16.3929Z" stroke="white" stroke-linecap="round" stroke-linejoin="round"/>
<path id="Vector_2" d="M6.67871 12.1428H10.3216" stroke="white" stroke-linecap="round" stroke-linejoin="round"/>
<path id="Vector_3" d="M8.50042 12.1428V7.89282H7.28613" stroke="white" stroke-linecap="round" stroke-linejoin="round"/>
<g id="Group 2605">
<path id="Ellipse 1111" d="M8.50035 5.16085C8.33269 5.16085 8.19678 5.02494 8.19678 4.85728C8.19678 4.68963 8.33269 4.55371 8.50035 4.55371" stroke="white" stroke-linecap="round" stroke-linejoin="round"/>
<path id="Ellipse 1112" d="M8.50049 5.16085C8.66814 5.16085 8.80406 5.02494 8.80406 4.85728C8.80406 4.68963 8.66814 4.55371 8.50049 4.55371" stroke="white" stroke-linecap="round" stroke-linejoin="round"/>
</g>
</g>
</svg>
