<svg width="20" height="20" viewBox="0 0 20 20" fill="none" xmlns="http://www.w3.org/2000/svg">
<g id="list-timeline 1" clip-path="url(#clip0_485_3771)">
<path id="Vector" d="M4.99979 5L4.99979 11.6333C4.99979 12.3 4.74145 12.925 4.26645 13.4L2.79145 14.875C2.62479 15.0417 2.36646 15.0417 2.19979 14.875L0.724788 13.4C0.249788 12.925 -0.00854526 12.3 -0.00854529 11.6333L-0.00854558 5C-0.00854564 3.625 1.11645 2.5 2.49145 2.5C3.86645 2.5 4.99145 3.625 4.99145 5L4.99979 5ZM2.49979 13.9917L3.67479 12.8167C3.99146 12.5 4.16645 12.0833 4.16645 11.6417L4.16645 5.00833C4.16645 4.09167 3.41645 3.34167 2.49979 3.34167C1.58312 3.34167 0.833121 4.09167 0.833121 5.00833L0.833121 11.6417C0.833121 12.0833 1.00812 12.5083 1.32479 12.8167L2.49979 13.9917ZM19.9998 6.66667L19.9998 11.6333C19.9998 12.3 19.7415 12.925 19.2665 13.4L17.7915 14.875C17.6248 15.0417 17.3665 15.0417 17.1998 14.875L15.7248 13.4C15.2498 12.925 14.9915 12.3 14.9915 11.6333L14.9915 6.66667C14.9915 5.29167 16.1165 4.16667 17.4915 4.16667C18.8665 4.16667 19.9915 5.29167 19.9915 6.66667L19.9998 6.66667ZM17.4998 13.9917L18.6748 12.8167C18.9915 12.5 19.1665 12.0833 19.1665 11.6417L19.1665 6.675C19.1665 5.75833 18.4165 5.00833 17.4998 5.00833C16.5831 5.00833 15.8331 5.75833 15.8331 6.675L15.8331 11.6417C15.8331 12.0833 16.0081 12.5083 16.3248 12.8167L17.4998 13.9917ZM12.4998 2.5L12.4998 11.6333C12.4998 12.3 12.2415 12.925 11.7665 13.4L10.2915 14.875C10.1248 15.0417 9.86646 15.0417 9.69979 14.875L8.22479 13.4C7.74979 12.925 7.49146 12.3 7.49146 11.6333L7.49145 2.5C7.49145 1.125 8.61645 -3.77011e-07 9.99145 -4.37114e-07C11.3665 -4.97217e-07 12.4915 1.125 12.4915 2.5L12.4998 2.5ZM9.99979 13.9917L11.1748 12.8167C11.4915 12.5 11.6665 12.0833 11.6665 11.6417L11.6665 2.50833C11.6665 1.59167 10.9165 0.841667 9.99979 0.841667C9.08312 0.841667 8.33312 1.59167 8.33312 2.50833L8.33312 11.6333C8.33312 12.075 8.50812 12.5 8.82479 12.8083L9.99979 13.9833L9.99979 13.9917ZM19.1665 18.3333C19.1665 19.25 18.4165 20 17.4998 20C16.5831 20 15.8331 19.25 15.8331 18.3333C15.8331 17.4167 16.5831 16.6667 17.4998 16.6667C18.4165 16.6667 19.1665 17.4167 19.1665 18.3333ZM16.6665 18.3333C16.6665 18.7917 17.0415 19.1667 17.4998 19.1667C17.9581 19.1667 18.3331 18.7917 18.3331 18.3333C18.3331 17.875 17.9581 17.5 17.4998 17.5C17.0415 17.5 16.6665 17.875 16.6665 18.3333ZM11.6665 18.3333C11.6665 19.25 10.9165 20 9.99979 20C9.08312 20 8.33312 19.25 8.33312 18.3333C8.33312 17.4167 9.08312 16.6667 9.99979 16.6667C10.9165 16.6667 11.6665 17.4167 11.6665 18.3333ZM9.16646 18.3333C9.16646 18.7917 9.54146 19.1667 9.99979 19.1667C10.4581 19.1667 10.8331 18.7917 10.8331 18.3333C10.8331 17.875 10.4581 17.5 9.99979 17.5C9.54146 17.5 9.16646 17.875 9.16646 18.3333ZM4.16646 18.3333C4.16646 19.25 3.41646 20 2.49979 20C1.58312 20 0.833122 19.25 0.833122 18.3333C0.833122 17.4167 1.58312 16.6667 2.49979 16.6667C3.41646 16.6667 4.16646 17.4167 4.16646 18.3333ZM1.66646 18.3333C1.66646 18.7917 2.04146 19.1667 2.49979 19.1667C2.95812 19.1667 3.33312 18.7917 3.33312 18.3333C3.33312 17.875 2.95812 17.5 2.49979 17.5C2.04146 17.5 1.66646 17.875 1.66646 18.3333Z" fill="#535353"/>
</g>
<defs>
<clipPath id="clip0_485_3771">
<rect width="20" height="20" fill="white" transform="translate(-0.000244141 20) rotate(-90)"/>
</clipPath>
</defs>
</svg>
