<svg width="136" height="105" viewBox="0 0 136 105" fill="none" xmlns="http://www.w3.org/2000/svg">
<path d="M42.6059 23.7794C42.8688 22.0802 43.4817 20.4542 44.4059 19.0044C45.604 16.997 47.0537 15.1511 48.7199 13.5114C51.3795 10.8732 54.3418 8.55884 57.5449 6.61638C61.1982 4.33772 65.1272 2.53449 69.2369 1.25038C72.0648 0.297428 75.0463 -0.117061 78.0269 0.0283811C81.756 0.182404 85.3424 1.50473 88.2789 3.80838C90.3917 5.52289 91.8963 7.87215 92.5699 10.5084C93.4482 13.8406 93.4074 17.3485 92.4519 20.6594C91.0678 25.3734 88.6725 29.7289 85.4329 33.4224C82.8464 36.3615 79.9495 39.0123 76.7929 41.3284C74.1598 43.4158 71.3364 45.2512 68.3599 46.8104C66.1803 48.0173 63.8026 48.825 61.3389 49.1954C61.1139 49.3094 60.8509 49.1514 60.6299 49.2954H59.5829C59.3969 49.1744 59.1899 49.2634 58.9949 49.2354C58.0912 49.1813 57.2204 48.8765 56.4802 48.3553C55.7399 47.8341 55.1595 47.117 54.8039 46.2844C54.4276 45.5283 54.2046 44.7052 54.1476 43.8625C54.0906 43.0199 54.2008 42.1743 54.4719 41.3744C55.1213 39.0393 56.2034 36.847 57.6619 34.9114C58.3032 33.9381 59.1393 33.1083 60.1175 32.4744C61.0956 31.8405 62.1945 31.4162 63.3449 31.2284C64.7172 31.02 66.1197 31.2781 67.3279 31.9614C67.6019 32.0949 67.8467 32.2816 68.0479 32.5106C68.2491 32.7396 68.4028 33.0063 68.5001 33.2952C68.5973 33.5842 68.6361 33.8895 68.6143 34.1936C68.5925 34.4976 68.5104 34.7943 68.3729 35.0664C67.8865 36.0806 67.2166 36.996 66.3969 37.7664C65.1739 39.0314 63.8969 40.2454 62.6699 41.5074C61.6191 42.539 60.743 43.7346 60.0759 45.0474C59.9718 45.2547 59.8884 45.4717 59.8269 45.6954C59.7384 45.9095 59.7114 46.1441 59.7489 46.3727C59.7865 46.6014 59.8871 46.815 60.0394 46.9896C60.1918 47.1642 60.3898 47.2928 60.6112 47.3609C60.8327 47.4291 61.0688 47.4341 61.2929 47.3754C62.4087 47.2283 63.4922 46.8965 64.4989 46.3934C67.7956 44.7578 70.8871 42.7377 73.7089 40.3754C75.7259 38.7511 77.6198 36.9796 79.3749 35.0754C81.7526 32.6808 83.634 29.8401 84.9109 26.7164C85.8131 24.5459 86.1217 22.1745 85.8049 19.8454C85.6116 18.5755 85.08 17.381 84.2659 16.3874C83.8546 15.907 83.3414 15.5244 82.7637 15.2673C82.1859 15.0103 81.5581 14.8852 80.9259 14.9014C79.1388 14.9277 77.3788 15.3423 75.7679 16.1164C73.0019 17.3766 70.3465 18.8668 67.8299 20.5714C65.4692 22.0874 63.1416 23.652 60.8469 25.2654C59.3919 26.2894 58.0209 27.4314 56.5669 28.4554C55.0274 29.6009 53.3235 30.5068 51.5129 31.1424C49.8288 31.687 48.0019 31.5814 46.3917 30.8465C44.7815 30.1116 43.5048 28.8005 42.8129 27.1714C42.6531 26.7563 42.5688 26.3161 42.5639 25.8714C42.5339 25.6424 42.6299 25.4034 42.5039 25.1824V24.4824C42.6489 24.2654 42.4869 24.0024 42.6059 23.7794Z" fill="#0F89FF"/>
<path d="M71.518 78.7323C71.518 73.5583 71.534 68.3843 71.501 63.2113C71.501 62.4463 71.627 62.1274 72.484 62.0194C74.806 61.7284 77.114 61.3113 79.42 60.9033C80.047 60.7923 80.212 60.9503 80.204 61.5813C80.171 64.1533 80.218 66.7264 80.172 69.2984C80.16 69.9774 80.372 70.1094 80.998 70.0884C82.358 70.0414 83.72 70.0934 85.081 70.0634C85.581 70.0524 85.797 70.1533 85.781 70.7203C85.742 72.3673 85.751 74.0204 85.781 75.6624C85.789 76.1474 85.655 76.3134 85.152 76.3034C83.705 76.2724 82.252 76.3124 80.808 76.2814C80.314 76.2714 80.18 76.4224 80.181 76.9104C80.2 82.6624 80.17 88.4104 80.213 94.1654C80.234 96.9814 81.548 98.2403 84.388 98.3553C85.772 98.4123 85.772 98.4123 85.772 99.8213C85.772 100.891 85.762 101.96 85.777 103.029C85.783 103.423 85.728 103.657 85.246 103.722C82.8075 104.114 80.3132 103.975 77.933 103.316C73.972 102.134 71.607 98.9264 71.555 94.5164C71.493 89.2564 71.54 83.9953 71.54 78.7353L71.518 78.7323Z" fill="#0F89FF"/>
<path d="M129.841 78.0784V93.1604C129.841 93.3604 129.841 93.5604 129.841 93.7674C129.861 97.0204 131.074 98.2864 134.341 98.3334C135.062 98.3434 135.275 98.5164 135.241 99.2334C135.18 100.533 135.207 101.833 135.234 103.133C135.243 103.559 135.122 103.718 134.685 103.785C131.967 104.294 129.16 104.021 126.59 103C123.344 101.625 121.919 98.9374 121.517 95.6054C121.402 94.5427 121.351 93.4741 121.364 92.4054C121.353 82.6394 121.364 72.8734 121.34 63.1054C121.34 62.3804 121.514 62.1334 122.262 62.0274C124.493 61.7114 126.713 61.3074 128.926 60.8824C129.681 60.7374 129.872 60.8904 129.866 61.6894C129.821 67.1564 129.841 72.6174 129.841 78.0784Z" fill="#0F89FF"/>
<path d="M48.7901 89.7494C48.7901 85.4444 48.799 81.1394 48.778 76.8344C48.7642 76.5945 48.8046 76.3547 48.8962 76.1326C48.9878 75.9104 49.1282 75.7118 49.307 75.5514C54.431 70.6264 60.416 68.5454 67.484 70.0514C69.112 70.3994 69.1031 70.4414 68.444 71.9244C67.9641 73.0044 67.435 74.0664 67.026 75.1724C66.785 75.8254 66.426 75.8444 65.851 75.7454C63.3005 75.2455 60.6552 75.6784 58.3971 76.9654C58.078 77.1168 57.8131 77.3624 57.638 77.669C57.463 77.9757 57.3862 78.3287 57.418 78.6804C57.455 86.7124 57.432 94.7444 57.456 102.78C57.456 103.474 57.317 103.72 56.569 103.704C54.225 103.654 51.8791 103.663 49.5351 103.704C48.9151 103.714 48.77 103.527 48.774 102.93C48.799 98.5384 48.788 94.1474 48.788 89.7554L48.7901 89.7494Z" fill="#0F89FF"/>
<path d="M41.8568 86.9014C41.8568 92.2214 41.8439 97.5414 41.8729 102.861C41.8729 103.517 41.7038 103.685 41.0538 103.674C38.7368 103.633 36.4188 103.644 34.1018 103.668C33.5788 103.673 33.4019 103.529 33.4019 102.988C33.4159 92.6664 33.4159 82.3447 33.4019 72.0234C33.4019 71.5894 33.5368 71.4024 33.9578 71.3354C36.4428 70.9414 38.9288 70.5464 41.4088 70.1204C42.0088 70.0204 41.8478 70.4074 41.8488 70.6814C41.8578 72.5024 41.8488 74.3244 41.8488 76.1454L41.8568 86.9014Z" fill="#0F89FF"/>
<path d="M26.8099 89.1423H26.8039C26.8039 86.2803 26.834 83.4173 26.798 80.5553C26.717 74.2043 22.5859 69.9553 16.2189 69.5273C11.57 69.3296 6.95625 70.4138 2.88195 72.6613C2.41695 72.8963 2.42792 73.1203 2.62292 73.5293C3.13192 74.5963 3.59695 75.6843 4.07995 76.7633C4.62395 77.9793 4.61893 77.9633 5.86993 77.4173C8.59884 76.0483 11.6401 75.422 14.6879 75.6013C15.5844 75.6046 16.445 75.9542 17.0897 76.5773C17.7343 77.2003 18.1132 78.0484 18.147 78.9443C18.226 79.5723 18.183 80.2153 18.257 80.8443C18.337 81.5253 18.0999 81.7073 17.4109 81.7063C14.779 81.551 12.1381 81.6602 9.52795 82.0323C5.70295 82.7973 2.56296 84.5613 0.917962 88.2863C-1.68204 94.1623 1.44195 101.012 7.71795 103.386C10.2746 104.266 13.0096 104.498 15.6779 104.061C19.6228 103.68 23.3479 102.068 26.3259 99.4533C26.4901 99.319 26.6203 99.1478 26.7059 98.9537C26.7916 98.7597 26.8303 98.5482 26.819 98.3363C26.8 95.2713 26.8099 92.2023 26.8099 89.1423ZM18.233 92.3703C18.233 93.8143 18.219 95.2583 18.241 96.7013C18.2725 96.8844 18.24 97.0728 18.1489 97.2347C18.0578 97.3966 17.9138 97.5222 17.741 97.5903C16.1321 98.3491 14.3238 98.577 12.577 98.2413C10.155 97.7343 8.69493 95.3243 8.96893 92.4853C9.01903 91.108 9.60864 89.8057 10.6105 88.8592C11.6123 87.9128 12.9461 87.3981 14.324 87.4263C15.424 87.3813 16.524 87.4363 17.624 87.3973C18.133 87.3793 18.255 87.5643 18.246 88.0393C18.217 89.4823 18.233 90.9263 18.233 92.3703Z" fill="#0F89FF"/>
<path d="M116.099 99.8394C115.488 98.5974 114.853 97.3664 114.29 96.1034C114.04 95.5424 113.836 95.5844 113.366 95.8704C110.704 97.5426 107.609 98.3963 104.466 98.3254C103.106 98.3795 101.77 97.957 100.688 97.1308C99.6066 96.3046 98.8474 95.1267 98.5418 93.8004C98.087 92.1268 97.8692 90.3976 97.8948 88.6634C97.8858 88.0744 98.0559 87.8774 98.6749 87.8854C101.454 87.9194 104.234 87.9004 107.013 87.9004C109.821 87.9004 112.63 87.8934 115.438 87.9074C115.906 87.9074 116.187 87.8774 116.175 87.2774C116.178 84.6762 115.905 82.0819 115.36 79.5384C113.908 73.4144 110.594 70.4224 104.57 69.7754C101.952 69.3889 99.2786 69.855 96.9456 71.1047C94.6127 72.3545 92.7436 74.3216 91.6148 76.7154C90.1396 79.5426 89.2834 82.6515 89.1031 85.8353C88.9227 89.0191 89.4224 92.2047 90.5689 95.1804C92.0849 99.2284 94.7208 102.345 99.0358 103.597C105.146 105.37 110.742 103.924 115.991 100.628C116.404 100.368 116.243 100.128 116.099 99.8394ZM98.2109 82.0394C98.3128 80.6239 98.7373 79.2505 99.4518 78.0244C99.8457 77.3425 100.43 76.7902 101.133 76.435C101.835 76.0798 102.626 75.9371 103.409 76.0244C104.18 76.0814 104.915 76.3742 105.513 76.8631C106.112 77.3521 106.546 78.0134 106.756 78.7574C107.102 79.829 107.299 80.9431 107.341 82.0684C107.383 82.5324 107.168 82.5904 106.789 82.5864C105.429 82.5734 104.068 82.5814 102.707 82.5814C101.375 82.5814 100.043 82.5664 98.7119 82.5904C98.2819 82.5984 98.1599 82.4564 98.2109 82.0394Z" fill="#0F89FF"/>
</svg>
