<svg width="17" height="17" viewBox="0 0 17 17" fill="none" xmlns="http://www.w3.org/2000/svg">
<g id="marker 2">
<g id="star-1--reward-rating-rate-social-star-media-favorite-like-stars">
<path id="Vector" d="M8.91355 2.09004L10.5457 5.30004C10.5828 5.38152 10.6412 5.45209 10.715 5.50473C10.7889 5.55736 10.8756 5.59023 10.9665 5.60004L14.5695 6.12004C14.6739 6.1331 14.7722 6.17481 14.8531 6.2403C14.934 6.30578 14.9941 6.39234 15.0264 6.48985C15.0587 6.58737 15.0618 6.69183 15.0354 6.79102C15.0091 6.89022 14.9543 6.98005 14.8774 7.05004L12.2804 9.56004C12.2142 9.62037 12.1644 9.69588 12.1358 9.77972C12.107 9.86355 12.1004 9.95304 12.1162 10.04L12.7423 13.57C12.7605 13.6715 12.749 13.7758 12.7093 13.8712C12.6695 13.9666 12.6031 14.0492 12.5175 14.1097C12.432 14.1701 12.3307 14.2059 12.2253 14.2131C12.1199 14.2202 12.0144 14.1984 11.9211 14.15L8.67745 12.48C8.5944 12.4403 8.50309 12.4197 8.41057 12.4197C8.31804 12.4197 8.22674 12.4403 8.14368 12.48L4.89997 14.15C4.80665 14.1984 4.70129 14.2202 4.59585 14.2131C4.49042 14.2059 4.38916 14.1701 4.3036 14.1097C4.21803 14.0492 4.1516 13.9666 4.11185 13.8712C4.07212 13.7758 4.06065 13.6715 4.07878 13.57L4.70494 10C4.72081 9.91304 4.7141 9.82355 4.68542 9.73972C4.65674 9.65588 4.60698 9.58037 4.5407 9.52004L1.91289 7.05004C1.83515 6.97814 1.78047 6.88581 1.75549 6.78426C1.73051 6.6827 1.7363 6.57626 1.77215 6.47784C1.808 6.37942 1.87237 6.29324 1.95747 6.22973C2.04258 6.16623 2.14476 6.12812 2.25163 6.12004L5.85461 5.60004C5.94555 5.59023 6.03227 5.55736 6.10612 5.50473C6.17996 5.45209 6.23835 5.38152 6.27547 5.30004L7.90759 2.09004C7.95203 1.99655 8.02301 1.9174 8.11214 1.86192C8.20126 1.80645 8.30481 1.77698 8.41057 1.77698C8.51633 1.77698 8.61989 1.80645 8.70901 1.86192C8.79813 1.9174 8.8691 1.99655 8.91355 2.09004Z" fill="#FF9F24"/>
</g>
</g>
</svg>
