<svg width="28" height="28" viewBox="0 0 28 28" fill="none" xmlns="http://www.w3.org/2000/svg">
<path d="M16.3983 7.1703L15.836 5.71876C15.7412 5.473 15.5743 5.2616 15.3573 5.11227C15.1403 4.96293 14.8833 4.88261 14.6199 4.88184H13.5476C13.2841 4.88261 13.0271 4.96293 12.8101 5.11227C12.5931 5.2616 12.4262 5.473 12.3314 5.71876L11.7691 7.1703L9.85992 8.26876L8.31684 8.03337C8.05988 7.9985 7.79834 8.04079 7.56544 8.15489C7.33267 8.26898 7.13901 8.44972 7.00915 8.67414L6.48607 9.58953C6.35204 9.81752 6.29018 10.0808 6.30888 10.3446C6.32758 10.6084 6.42579 10.8604 6.59069 11.0672L7.54531 12.2834V14.4803L6.56454 15.6965C6.39964 15.9033 6.30143 16.1552 6.28273 16.4191C6.26403 16.6829 6.32588 16.9461 6.45992 17.1741L6.983 18.0895C7.11285 18.3139 7.30652 18.4947 7.53929 18.6088C7.77219 18.7228 8.03373 18.7652 8.29069 18.7303L9.83377 18.4949L11.7429 19.5934L12.3053 21.0449C12.4001 21.2906 12.5669 21.5021 12.7839 21.6514C13.0009 21.8008 13.258 21.8811 13.5214 21.8818H14.6199C14.8833 21.8811 15.1403 21.8008 15.3573 21.6514C15.5743 21.5021 15.7412 21.2906 15.836 21.0449L16.3983 19.5934L18.3076 18.4949L19.8506 18.7303C20.1076 18.7652 20.3691 18.7228 20.6019 18.6088C20.8348 18.4947 21.0284 18.3139 21.1583 18.0895L21.6814 17.1741C21.8154 16.9461 21.8772 16.6829 21.8585 16.4191C21.8398 16.1552 21.7416 15.9033 21.5768 15.6965L20.6222 14.4803V12.2834L21.6029 11.0672C21.7678 10.8604 21.866 10.6084 21.8847 10.3446C21.9033 10.0808 21.8416 9.81752 21.7076 9.58953L21.1845 8.67414C21.0546 8.44972 20.8609 8.26898 20.6281 8.15489C20.3952 8.04079 20.1337 7.9985 19.8768 8.03337L18.3337 8.26876L16.3983 7.1703ZM16.6991 13.3818C16.6991 13.8991 16.5457 14.4048 16.2583 14.8349C15.9709 15.265 15.5625 15.6002 15.0846 15.7981C14.6067 15.9961 14.0808 16.0479 13.5735 15.947C13.0661 15.8461 12.6001 15.597 12.2344 15.2312C11.8686 14.8654 11.6195 14.3994 11.5186 13.8921C11.4177 13.3847 11.4695 12.8589 11.6674 12.381C11.8654 11.9031 12.2006 11.4946 12.6307 11.2072C13.0608 10.9198 13.5664 10.7665 14.0837 10.7665C14.7774 10.7665 15.4426 11.042 15.9331 11.5325C16.4235 12.023 16.6991 12.6882 16.6991 13.3818Z" stroke="#535353" stroke-linecap="round" stroke-linejoin="round"/>
</svg>
