<svg width="21" height="21" viewBox="0 0 21 21" fill="none" xmlns="http://www.w3.org/2000/svg">
<g id="shopping-cart-add--shopping-cart-checkout-add-plus-new">
<path id="Vector" d="M16.0207 19.6931C15.6237 19.6931 15.3018 19.3711 15.3018 18.9741C15.3018 18.5771 15.6237 18.2551 16.0207 18.2551C16.4179 18.2551 16.7397 18.5771 16.7397 18.9741C16.7397 19.3711 16.4179 19.6931 16.0207 19.6931Z" stroke="white" stroke-width="1.5" stroke-linecap="round" stroke-linejoin="round"/>
<path id="Vector_2" d="M6.67404 19.6931C6.27697 19.6931 5.95508 19.3711 5.95508 18.9741C5.95508 18.5771 6.27697 18.2551 6.67404 18.2551C7.07113 18.2551 7.39301 18.5771 7.39301 18.9741C7.39301 19.3711 7.07113 19.6931 6.67404 19.6931Z" stroke="white" stroke-width="1.5" stroke-linecap="round" stroke-linejoin="round"/>
<path id="Vector_3" d="M14.0916 9.62756H9.77783" stroke="white" stroke-width="1.5" stroke-linecap="round" stroke-linejoin="round"/>
<path id="Vector_4" d="M11.9346 7.4707V11.7845" stroke="white" stroke-width="1.5" stroke-linecap="round" stroke-linejoin="round"/>
<path id="Vector 2498" d="M1 1H4.59483L4.97324 4.59483M4.97324 4.59483L5.89725 13.3729C5.97428 14.1048 6.5914 14.6604 7.32727 14.6604H16.4135C17.0733 14.6604 17.6485 14.2113 17.8086 13.5712L19.606 6.38152C19.8329 5.47397 19.1464 4.59483 18.2109 4.59483H4.97324Z" stroke="white" stroke-width="1.5" stroke-linecap="round" stroke-linejoin="round"/>
</g>
</svg>
