<svg width="20" height="21" viewBox="0 0 20 21" fill="none" xmlns="http://www.w3.org/2000/svg">
<g id="Group 6980">
<g id="Group 6954">
<path id="Path 3135" d="M11.1316 14.5039H7.80657C7.19752 14.5356 6.59815 14.3417 6.12309 13.9592C5.64804 13.5768 5.33063 13.0326 5.23157 12.4309C4.64757 9.83819 4.06024 7.24588 3.46958 4.65388C3.45594 4.5794 3.42647 4.50871 3.38317 4.4466C3.33986 4.3845 3.28373 4.33244 3.21857 4.29389C2.91857 4.10589 2.62457 3.90484 2.33057 3.70484C2.25209 3.65882 2.18383 3.5973 2.12995 3.52399C2.07606 3.45069 2.0377 3.36715 2.0172 3.27851C1.9967 3.18987 1.9945 3.09801 2.01073 3.00849C2.02695 2.91897 2.06127 2.83369 2.11157 2.75788C2.16227 2.68249 2.2277 2.61815 2.30393 2.56873C2.38016 2.51931 2.46562 2.48585 2.55513 2.47034C2.64465 2.45483 2.73637 2.45757 2.82479 2.47846C2.9132 2.49935 2.99646 2.53793 3.06957 2.59187C3.40257 2.80787 3.73057 3.03084 4.06157 3.25184C4.23449 3.36399 4.38356 3.5092 4.50025 3.67908C4.61694 3.84897 4.69894 4.04024 4.74156 4.24189C5.3369 6.86056 5.93257 9.47918 6.52857 12.0978C6.54078 12.2573 6.5856 12.4127 6.66025 12.5541C6.7349 12.6956 6.83779 12.8203 6.96256 12.9204C7.08732 13.0205 7.23131 13.094 7.38561 13.1362C7.5399 13.1784 7.70122 13.1885 7.85958 13.1658H14.4456C14.5987 13.187 14.7545 13.1772 14.9037 13.1367C15.053 13.0962 15.1924 13.0259 15.3138 12.9302C15.4352 12.8345 15.5361 12.7152 15.6103 12.5796C15.6844 12.444 15.7305 12.2947 15.7456 12.1409C16.2056 10.1262 16.6629 8.11086 17.1176 6.09486C17.1658 5.92429 17.1724 5.74464 17.1368 5.57099C17.1012 5.39735 17.0244 5.23478 16.9129 5.09699C16.8013 4.95921 16.6584 4.85027 16.4959 4.77924C16.3335 4.70822 16.1564 4.67719 15.9796 4.68885C13.7216 4.68885 11.4636 4.68885 9.20557 4.68885C9.09742 4.69959 8.98828 4.6839 8.88754 4.64313C8.78681 4.60237 8.69748 4.53777 8.62724 4.45484C8.55701 4.37191 8.50796 4.27314 8.48433 4.16706C8.4607 4.06099 8.46317 3.9508 8.49156 3.84589C8.53136 3.69626 8.62199 3.56511 8.74788 3.47498C8.87377 3.38485 9.02709 3.34133 9.18157 3.35187C10.3382 3.35187 11.4952 3.35187 12.6526 3.35187H15.9526C16.3357 3.33679 16.717 3.41195 17.0658 3.5713C17.4145 3.73065 17.721 3.96971 17.9603 4.26923C18.1997 4.56876 18.3654 4.92036 18.4439 5.29566C18.5225 5.67096 18.5117 6.05949 18.4126 6.42988C17.9519 8.45854 17.4906 10.4872 17.0286 12.5159C16.9197 13.0906 16.6084 13.6073 16.1512 13.9722C15.694 14.3371 15.1211 14.5261 14.5366 14.5049C13.4006 14.5069 12.2646 14.5039 11.1316 14.5039Z" fill="white"/>
<path id="Path 3136" d="M6.68848 17.3908C6.69033 16.9191 6.8788 16.4674 7.2127 16.1342C7.5466 15.8011 7.9988 15.6136 8.47048 15.6128C8.94514 15.6157 9.39923 15.8069 9.73299 16.1444C10.0668 16.4819 10.2529 16.9381 10.2505 17.4128C10.2439 17.8851 10.0511 18.3357 9.71401 18.6666C9.37693 18.9975 8.92283 19.182 8.45048 19.1798C7.98029 19.174 7.5314 18.9828 7.20144 18.6478C6.87148 18.3127 6.68713 17.861 6.68848 17.3908ZM8.02848 17.3908C8.02688 17.4499 8.03709 17.5087 8.05849 17.5637C8.0799 17.6188 8.11209 17.669 8.15316 17.7115C8.19423 17.754 8.24336 17.7878 8.29768 17.811C8.35199 17.8343 8.41041 17.8464 8.46949 17.8468C8.58517 17.8443 8.69551 17.7977 8.77789 17.7164C8.86026 17.6352 8.90842 17.5254 8.91248 17.4098C8.91355 17.2904 8.86736 17.1755 8.78399 17.0901C8.70062 17.0047 8.58685 16.9556 8.46749 16.9538C8.3512 16.9535 8.23945 16.999 8.15638 17.0804C8.07331 17.1618 8.02559 17.2725 8.02349 17.3888L8.02848 17.3908Z" fill="white"/>
<path id="Path 3137" d="M15.6006 17.3898C15.601 17.6252 15.555 17.8584 15.4652 18.076C15.3755 18.2936 15.2437 18.4914 15.0775 18.6581C14.9113 18.8248 14.7138 18.9572 14.4964 19.0475C14.2791 19.1379 14.046 19.1846 13.8106 19.1848C13.3388 19.1816 12.8874 18.9917 12.5551 18.6567C12.2229 18.3216 12.0368 17.8686 12.0376 17.3968C12.0376 16.925 12.2245 16.4725 12.5573 16.1381C12.8901 15.8038 13.3418 15.6149 13.8136 15.6128C14.2855 15.6138 14.7379 15.801 15.0725 16.1338C15.4071 16.4665 15.5969 16.9179 15.6006 17.3898ZM13.3776 17.3958C13.3767 17.4549 13.3876 17.5136 13.4097 17.5684C13.4317 17.6232 13.4646 17.6731 13.5063 17.715C13.5479 17.757 13.5975 17.7901 13.6522 17.8126C13.7069 17.835 13.7655 17.8463 13.8246 17.8458C13.9403 17.8419 14.0502 17.7939 14.1315 17.7115C14.2128 17.6291 14.2594 17.5185 14.2616 17.4028C14.2615 17.3437 14.2497 17.2852 14.227 17.2307C14.2042 17.1761 14.171 17.1266 14.1291 17.0849C14.0872 17.0432 14.0375 17.0102 13.9829 16.9877C13.9282 16.9652 13.8697 16.9537 13.8106 16.9538C13.6949 16.9562 13.5848 17.0037 13.5039 17.0864C13.4229 17.169 13.3776 17.2801 13.3776 17.3958Z" fill="white"/>
<path id="Rectangle 689" d="M13.4397 7.00293H8.84468C8.39126 7.00293 8.02368 7.3705 8.02368 7.82393C8.02368 8.27736 8.39126 8.64493 8.84468 8.64493H13.4397C13.8931 8.64493 14.2607 8.27736 14.2607 7.82393C14.2607 7.3705 13.8931 7.00293 13.4397 7.00293Z" fill="white"/>
<path id="Rectangle 690" d="M13.4397 9.6958H8.84468C8.39126 9.6958 8.02368 10.0634 8.02368 10.5168C8.02368 10.9702 8.39126 11.3378 8.84468 11.3378H13.4397C13.8931 11.3378 14.2607 10.9702 14.2607 10.5168C14.2607 10.0634 13.8931 9.6958 13.4397 9.6958Z" fill="white"/>
</g>
</g>
</svg>
