<svg width="18" height="19" viewBox="0 0 18 19" fill="none" xmlns="http://www.w3.org/2000/svg">
<g id="marker 2">
<g id="star-1--reward-rating-rate-social-star-media-favorite-like-stars">
<path id="Vector" d="M9.55118 2.33598L11.3399 5.92362C11.3806 6.01469 11.4446 6.09356 11.5255 6.1524C11.6065 6.21122 11.7015 6.24795 11.8012 6.25892L15.7499 6.84009C15.8643 6.85469 15.9721 6.90131 16.0607 6.9745C16.1494 7.04769 16.2153 7.14443 16.2506 7.25341C16.2861 7.3624 16.2894 7.47915 16.2605 7.59001C16.2317 7.70088 16.1717 7.80128 16.0874 7.87951L13.2411 10.6848C13.1686 10.7522 13.114 10.8366 13.0826 10.9303C13.0511 11.024 13.0438 11.124 13.0611 11.2213L13.7474 15.1665C13.7673 15.28 13.7547 15.3965 13.7112 15.5032C13.6676 15.6098 13.5948 15.7021 13.501 15.7697C13.4073 15.8372 13.2963 15.8772 13.1807 15.8853C13.0652 15.8932 12.9497 15.8688 12.8474 15.8148L9.29243 13.9483C9.2014 13.9039 9.10133 13.8809 8.99993 13.8809C8.89852 13.8809 8.79846 13.9039 8.70743 13.9483L5.15243 15.8148C5.05015 15.8688 4.93467 15.8932 4.81912 15.8853C4.70357 15.8772 4.59259 15.8372 4.49882 15.7697C4.40504 15.7021 4.33223 15.6098 4.28867 15.5032C4.24513 15.3965 4.23256 15.28 4.25243 15.1665L4.93868 11.1766C4.95607 11.0793 4.94871 10.9793 4.91728 10.8856C4.88585 10.7919 4.83132 10.7075 4.75868 10.6401L1.87868 7.87951C1.79348 7.79915 1.73356 7.69595 1.70618 7.58246C1.6788 7.46895 1.68514 7.34999 1.72443 7.23999C1.76372 7.12999 1.83427 7.03367 1.92754 6.96269C2.02081 6.89172 2.1328 6.84912 2.24993 6.84009L6.19868 6.25892C6.29835 6.24795 6.39339 6.21122 6.47432 6.1524C6.55526 6.09356 6.61925 6.01469 6.65993 5.92362L8.44868 2.33598C8.49739 2.23149 8.57517 2.14302 8.67286 2.08102C8.77053 2.01903 8.88402 1.98608 8.99993 1.98608C9.11584 1.98608 9.22934 2.01903 9.32701 2.08102C9.42468 2.14302 9.50246 2.23149 9.55118 2.33598Z" fill="#FF9F24"/>
</g>
</g>
</svg>
