<svg width="15" height="15" viewBox="0 0 15 15" fill="none" xmlns="http://www.w3.org/2000/svg">
<g id="fav_icon">
<path id="Path 3138" d="M7.49958 0C8.98285 0 10.4328 0.439842 11.6661 1.26391C12.8994 2.08797 13.8607 3.25924 14.4283 4.62961C14.9959 5.99998 15.1444 7.50789 14.855 8.96267C14.5657 10.4174 13.8514 11.7537 12.8026 12.8026C11.7537 13.8514 10.4174 14.5657 8.96267 14.855C7.50789 15.1444 5.99998 14.9959 4.62961 14.4283C3.25924 13.8607 2.08797 12.8994 1.26391 11.6661C0.439842 10.4328 0 8.98285 0 7.49958C0 5.51056 0.790132 3.60302 2.19657 2.19657C3.60302 0.790132 5.51056 0 7.49958 0Z" fill="#FF9F24"/>
</g>
</svg>
