<svg width="12" height="14" viewBox="0 0 12 14" fill="none" xmlns="http://www.w3.org/2000/svg">
<path id="Vector" d="M8.91602 8.16668C8.91602 8.32139 8.85456 8.46976 8.74516 8.57916C8.63577 8.68856 8.48739 8.75001 8.33268 8.75001H3.66602C3.51131 8.75001 3.36293 8.68856 3.25354 8.57916C3.14414 8.46976 3.08268 8.32139 3.08268 8.16668C3.08268 8.01197 3.14414 7.8636 3.25354 7.7542C3.36293 7.64481 3.51131 7.58335 3.66602 7.58335H8.33268C8.48739 7.58335 8.63577 7.64481 8.74516 7.7542C8.85456 7.8636 8.91602 8.01197 8.91602 8.16668ZM6.58268 9.91668H3.66602C3.51131 9.91668 3.36293 9.97814 3.25354 10.0875C3.14414 10.1969 3.08268 10.3453 3.08268 10.5C3.08268 10.6547 3.14414 10.8031 3.25354 10.9125C3.36293 11.0219 3.51131 11.0833 3.66602 11.0833H6.58268C6.73739 11.0833 6.88577 11.0219 6.99516 10.9125C7.10456 10.8031 7.16602 10.6547 7.16602 10.5C7.16602 10.3453 7.10456 10.1969 6.99516 10.0875C6.88577 9.97814 6.73739 9.91668 6.58268 9.91668ZM11.8327 6.11626V11.0833C11.8318 11.8566 11.5242 12.5979 10.9774 13.1447C10.4306 13.6915 9.68928 13.9991 8.91602 14H3.08268C2.30942 13.9991 1.56809 13.6915 1.02131 13.1447C0.47453 12.5979 0.166942 11.8566 0.166016 11.0833V2.91668C0.166942 2.14342 0.47453 1.40209 1.02131 0.855308C1.56809 0.308528 2.30942 0.000939695 3.08268 1.34451e-05H5.71643C6.25288 -0.00136726 6.78427 0.103606 7.2799 0.308865C7.77552 0.514123 8.22554 0.815594 8.60393 1.19585L10.6363 3.22935C11.0167 3.60749 11.3184 4.05736 11.5238 4.55292C11.7291 5.04847 11.8341 5.57984 11.8327 6.11626ZM7.7791 2.02068C7.59551 1.84286 7.38939 1.68989 7.16602 1.56568V4.08335C7.16602 4.23806 7.22747 4.38643 7.33687 4.49583C7.44627 4.60522 7.59464 4.66668 7.74935 4.66668H10.267C10.1427 4.44337 9.98956 4.23743 9.81143 4.05418L7.7791 2.02068ZM10.666 6.11626C10.666 6.02001 10.6473 5.92785 10.6386 5.83335H7.74935C7.28522 5.83335 6.8401 5.64897 6.51191 5.32078C6.18372 4.9926 5.99935 4.54748 5.99935 4.08335V1.1941C5.90485 1.18535 5.8121 1.16668 5.71643 1.16668H3.08268C2.61855 1.16668 2.17343 1.35105 1.84525 1.67924C1.51706 2.00743 1.33268 2.45255 1.33268 2.91668V11.0833C1.33268 11.5475 1.51706 11.9926 1.84525 12.3208C2.17343 12.649 2.61855 12.8333 3.08268 12.8333H8.91602C9.38015 12.8333 9.82526 12.649 10.1535 12.3208C10.4816 11.9926 10.666 11.5475 10.666 11.0833V6.11626Z" fill="#777777"/>
</svg>
